<svg xmlns="http://www.w3.org/2000/svg" version="1.1" width="200px" height="100px" viewBox="0 0 200 100"><g transform="translate(0 -952.4)"><path style="fill:#fff" d="m36.24 952.4c-3.315-.2737-4.909 4.123-8.076 1.852-7.037-1.184-12.24 4.827-13.5 10.12-9.662 1.702-16.73 10.99-14.12 19.4-.7952 8.925-.4129 20.44 9.633 25.52-.0258 9.212 3.161 18.16 4.181 27.08 2.891 8.314 14.21 13.1 23.51 9.733 6.25-1.591 12.84-1.441 19.14-1.484 2.206-.9193 4.505-1.908 6.518-.1888 4.167 1.528 8.708-1.152 12.54-.4269 4.312 2.01 9.603 1.6 14.03.6757 5.465 3.437 12.8 1.962 18.42-.085 8.237 1.801 16.87-.3104 25.08 1.831 4.328 1.019 8.256-2.57 12.35.03 3.63.952 8.207-.8896 10.21 2.983 7.761 5.723 21.41 2.754 24.54-5.827 6.264-9.248 16.91-17.76 17.13-29.14-.8285-5.376-6.598-9.464-11.84-10.94 6.752-6.576 16.62-14.77 13.38-24.54-2.796-6.316-11.22-8.098-17.99-8.796-4.297-1.752-8.832-2.948-12.28-5.868-5.745-2.872-12.99-2.561-18.9-.7039-5.795-2.68-12.95-3.47-19.12-1.508-5.381-2.664-12.08-.9215-17.71-2.027-4.382-.1113-7.166-4.424-11.99-3.645-5.286.096-10.27 2.525-13.7 5.93-7.207-4.032-17.65-1.943-22.61 3.707-2.748-.5602-5.094-1.695-5.041-4.37-2.264-5.062-9.499-8.826-15.52-6.372-2.173-1.926-5.159-3.003-8.265-2.934z"/><path style="fill:#fc0" d="m10.47 979.9v17.86c0 4.525 11.68 8.177 26.05 8.177 14.36 0 26.05-3.652 26.05-8.097v-17.94h-52.09z"/><path style="fill:#502d16" d="m9.8 979.2v13.42c0 .7145.8716 1.35 2.07 1.35 1.089 0 2.07-.5557 2.07-1.35v-3.096c0-.9526 1.198-1.746 2.724-1.746 1.525 0 2.724.7938 2.724 1.746v3.81c0 1.111 1.416 2.064 3.159 2.064s3.159-.8732 3.159-2.064v-3.89c0-1.032 1.307-1.826 2.833-1.826 1.525 0 2.833.7938 2.833 1.826v2.461c0 .5557.6537 1.032 1.634 1.032.8716 0 1.634-.4763 1.634-1.032v-1.985c0-.7145.8716-1.35 2.07-1.35 1.089 0 2.07.5557 2.07 1.35v3.334c0 1.111 1.416 2.064 3.159 2.064s3.159-.8732 3.159-2.064v-3.731c0-.9526 1.198-1.746 2.724-1.746 1.525 0 2.724.7938 2.724 1.746v2.778c0 .5557.7626 1.032 1.634 1.032.8716 0 1.634-.4763 1.634-1.032v-1.905c0-.4763.6537-.8732 1.416-.8732.7626 0 1.416.3969 1.416.8732v2.937c0 1.111 1.416 2.064 3.159 2.064s3.159-.8732 3.159-2.064v-14.05l-53.17-.0794"/><ellipse style="fill:#a05a2c" rx="26.72" ry="8.097" cy="979.2" cx="36.31"/><path style="fill:#42ade2" d="m23.46 970.2v10.4c0 1.35 4.18 1.032 4.18 0v-10.4c0-1.27-4.18-1.27-4.18 0"/><path style="fill:#ff8b00" d="m27.75 967.9c0 2.143-4.288 2.143-4.288 0 0-.7938 2.144-3.334 2.144-3.334s2.144 2.54 2.144 3.334"/><path style="fill:#42ade2" d="m46.05 970.6v10.4c0 1.35 4.18 1.032 4.18 0v-10.4c0-1.35-4.18-1.35-4.18 0"/><path style="fill:#ff8b00" d="m50.33 968.2c0 2.143-4.288 2.143-4.288 0 0-.7938 2.144-3.334 2.144-3.334s2.144 2.62 2.144 3.334"/><path style="fill:#42ade2" d="m34.49 967.5v8.574c0 1.191 3.43 1.032 3.43 0v-8.574c0-1.191-3.43-1.191-3.43 0"/><path style="fill:#ff8b00" d="m38.03 965.6c0 1.985-3.537 1.985-3.537 0 0-.6351 1.822-2.699 1.822-2.699s1.715 2.064 1.715 2.699"/><path d="m78.99 1001q-1.961-1.171-2.398-3.224l-4.58-22q-.4373-2.053.8922-3.731 1.349-1.703 3.689-2.079 2.293-.3683 4.282.8195.6443.3848 1.117.8821.4683.4767.7973 1.103.3527.6227.4839 1.239l1.307 6.138 10.97-1.762-1.307-6.138q-.2055-.9648.0232-1.957.2524-.9959.8882-1.799 1.368-1.727 3.661-2.095 1.087-.1746 2.23.0239 1.138.1781 2.043.7545.6443.3848 1.117.8821.4683.4768.7973 1.103.3527.6227.4839 1.239l4.578 21.49q.2055.9648-.0469 1.961-.2287.9921-.8646 1.795-1.329 1.678-3.623 2.047-1.111.1784-2.155-.015-1.039-.1728-2.119-.7638-1.948-1.11-2.398-3.224l-1.452-6.815-11.09 1.781 1.452 6.815q.4548 2.135-.8878 3.752-.6507.8476-1.617 1.364-.9422.5123-2.006.6831-2.34.3759-4.273-.7785z" style="stroke:#6c6c6c;stroke-width:2.133;fill:#caf"/><path d="m111.2 969.7q1.34-.1138 2.068-.0505 3.073.2675 4.914 2.183l-.0122.1053 4.026-1.44q.5176-.2386 1.185-.1806.9906.0863 1.583.7938 1.528 1.622 1.279 3.782l-1.407 12.18q-.2047 1.773-1.628 2.784-1.424 1.011-3.385.8401l-3.566-2.19-.0203.1756q-2.079 1.557-5.273 1.279-1.051-.0915-2.341-.4165-1.844-.4796-3.501-1.688-1.655-1.226-2.771-3.06-.7395-1.376-1.016-2.872-.2766-1.496-.0597-3.374.4212-2.41 1.851-4.36 1.45-1.948 3.565-3.112 2.117-1.181 4.509-1.381zm-.8257 10.16q-.1419 1.229.5796 2.231.7983 1.045 2.153 1.163.8087.0704 1.579-.2349.7724-.3228 1.28-1.006.4247-.4950.5441-.9988.0871-.4002.1702-1.12-.0945-1.834-1.619-2.605-.6549-.3407-1.261-.3935-1.112-.0968-2.002.5350-.8897.6318-1.268 1.787-.0405.1738-.077.3124-.0142.1229-.079 0.33z" style="stroke:#6c6c6c;stroke-width:1.939;fill:#caf"/><path d="m131.4 1001q-1.645-.8924-2.122-2.517l-6-20.6q-.4813-1.641.5121-3.044 1.008-1.424 2.918-1.847l4.016.9690-.0502-.1710q1.764-2.065 4.855-2.748 1.575-.3482 3.153-0.26 1.597.0838 3.187.6427 1.881.6219 3.459 2.002 1.599 1.376 2.619 3.353.5575 1.115.7831 1.884.3259 1.111.3413 2.237.1516 2.734-1.064 4.95-1.216 2.217-3.594 3.616-1.582.8960-3.315 1.279-1.831.4048-3.626.2190l-.4930-.0367-.4389-.0668 1.614 5.505q.4813 1.641-.5167 3.1-.9834 1.437-2.755 1.829-1.851.4091-3.496-.4832zm2.42-18.7q.4257 1.38 1.518 2.031 1.107.6291 2.387.3462 1.339-.2960 1.905-1.441.5659-1.145.0395-2.94-.4680-.9524-1.318-1.42-.8353-.4889-1.84-.4124-1.634.3613-2.378 1.4-.7292 1.017-.3131 2.436z" style="stroke:#6c6c6c;stroke-width:1.939;fill:#caf"/><path d="m151.1 1002q-1.629-.9152-2.075-2.546l-5.607-20.49q-.4508-1.648.5684-3.037 1.034-1.41 2.952-1.806l3.998 1.025-.0469-.1716q1.802-2.04 4.905-2.68 1.581-.3262 3.157-.2160 1.595.1061 3.174.6871 1.869.6481 3.422 2.05 1.573 1.398 2.556 3.389.5368 1.122.7481 1.895.3052 1.116.2999 2.241.1010 2.735-1.156 4.935t-3.661 3.566q-1.599.8738-3.338 1.233-1.838.3792-3.629.1684l-.4922-.0435-.4376-.0729 1.512 5.527q.4508 1.648-.5740 3.092-1.01 1.423-2.789 1.79-1.858.3833-3.487-.532zm2.766-18.67q.4001 1.386 1.48 2.052 1.095.6445 2.38.3794 1.344-.2773 1.931-1.414t.0939-2.939q-.4503-.9588-1.291-1.438-.8261-.5005-1.832-.4380-1.641.3384-2.404 1.366-.7479 1.007-.3581 2.431z" style="stroke:#6c6c6c;stroke-width:1.939;fill:#caf"/><path d="m170.5 977.6q1.084-.1635 2.083.0738.8819.2093 1.578.7404.716.5357 1.157 1.409.4663.8606.5475 1.941l.5341 5.998 3.726-4.877q.4852-.6713 1.296-1.375.7756-.6572 1.825-.847 1.055-.2068 2.094.0398 1.999.4745 2.992 2.137.7814 1.265.3153 2.745-.2786.8849-.9972 1.629l-16.09 17.38q-2.32 2.486-5.025 1.844-.5684-.135-1.316-.5687-1.307-.731-1.822-1.841-0.5-1.088-.1303-2.262.2464-.7828.9544-1.493l4.813-4.784-2.331-13.54q-.1207-.6871.1150-1.436.3536-1.123 1.34-1.913.9913-.8072 2.337-.9999z" style="stroke:#6c6c6c;stroke-width:1.939;fill:#caf"/><path d="m30.24 1039q-2.682.3983-4.636-1.02-1.958-1.441-2.433-4.233l-3.921-23.02q-.2678-1.572.3394-3.034.6073-1.461 1.871-2.419 1.26-.981 2.93-1.229l8.604-1.278q1.088-.1617 2.301-.1974 2.608-.074 4.788.5399 2.18.6142 3.858 1.784 1.674 1.147 2.729 2.77 1.08 1.62 1.412 3.567.1199.7037.1373 1.11.1933 2.81-1.083 5.068l.1213.1024.7805.3172.8058.3131.3476.2132q1.203.6633 2.12 1.634.9430.9665 1.534 2.154.5874 1.164.8192 2.524.2758 1.619.01217 3.27-.2676 1.628-1.137 3.224-.7311 1.191-1.54 2.081-1.442 1.585-3.333 2.516-1.891.9302-4.523 1.321l-12.91 1.916zm2.234-23.14 2.733-.4058q.7591-.1126 1.3-.7462.4674-.4544.3595-1.088-.1079-.6335-.7619-.9692-.6619-.3829-1.522-.2553l-2.632.3908.5236 3.074zm2.066 12.59 5.668-.8418q.6832-.1013 1.092-.5952.4088-.4937.2929-1.174-.1239-.7274-.6633-1.152-.5434-.4486-1.277-.3395l-5.668.8417.5556 3.261z" style="stroke:#6c6c6c;stroke-width:2.413;fill:#caf"/><path d="m51.98 1037q-2.067-.4071-3.225-2.012-1.131-1.621-.6724-3.534l3.298-13.75q.3012-1.256 1.209-2.162.9351-.9221 2.222-1.295 1.314-.3883 2.699-.1155 1.359.2891 2.354 1.132.9954.843 1.407 2.009.4332 1.17.1273 2.446l-3.279 13.67q-.4636 1.933-2.257 2.978-1.794 1.045-3.883.6335zm2.308-25.94q-1.205-1.698-.7078-3.771.4732-1.973 2.415-3.156.9323-.5259 1.964-.6984t2.065.032q2.177.4288 3.385 2.211 1.173 1.734.6954 3.726-.4923 2.053-2.34 3.129-1.847 1.076-4.069.6387-2.221-.4375-3.409-2.111z" style="stroke:#6c6c6c;stroke-width:2.194;fill:#caf"/><path style="stroke:#6c6c6c;stroke-width:2.194;fill:#caf" d="m68.14 1037q-2.048.4821-3.869-.4373-1.827-.9394-2.36-2.795l-3.917-13.66q-.5378-1.875.5423-3.541t3.128-2.148l5.406 1.74-.05662-.1975.1765-.3576.3974-.6414q1.283-2.093 3.292-2.629.7188-.1692 1.287-.1341 1.392-.012 2.528.6268 1.158.6333 1.715 1.682.2796.6506.3702.9663.4132 1.441-.3759 2.743-.7947 1.283-2.96 2.572-.2172.1347-.3740.2359-.1570.1013-.4284.2902-.9977.6563-1.598 1.24-.5782.5787-.8013 1.179-.2013.5953-.1387 1.381.07879.761.4467 2.044l1.138 3.967q.3680 1.283.02585 2.522-.3478 1.22-1.299 2.118-.9515.8982-2.275 1.231z"/><path style="stroke:#6c6c6c;stroke-width:2.194;fill:#caf" d="m74.81 1015q1.392-1.012 3.212-.9203l.4494.023.1241-2.016q.1178-1.914 1.735-3.282 1.566-1.269 3.656-1.163 2.112.1067 3.555 1.568 1.435 1.584 1.318 3.498l-.1178 1.914.5842.029q1.753.088 2.965 1.273 1.231 1.247 1.132 2.855-.02757.448-.1912.9094-.1636.4615-.4833.8947-.2960.414-.6781.7623-1.4 1.134-3.224 1.104l-.6292-.033-.6516 10.59q-.1228 1.995-1.736 3.303-1.522 1.292-3.679 1.182-2.112-.1067-3.534-1.547-1.439-1.523-1.318-3.498l.6541-10.63-.3596-.019q-1.933-.098-3.248-1.43-1.125-1.139-1.032-2.646.1015-1.649 1.497-2.722z"/><path d="m98.32 1039q-2.081.2052-3.74-.9855-1.64-1.213-1.873-3.159l-2.89-24.08q-.1460-1.216.3988-2.337.5671-1.122 1.658-1.845 1.088-.743 2.493-.9224 1.432-.1412 2.671.3728t2.039 1.522q.8201.9858.9709 2.243l.8076 6.731q.7592-.4645 1.705-.8859 2.336-.9071 4.417-1.112 2.036-.2005 3.785.2223 1.771.4206 3.059 1.34 1.285.8991 2.112 2.315.8488 1.414 1.051 3.097l1.309 10.91q.2359 1.966-1.12 3.495-1.336 1.506-3.529 1.722-2.138.1075-3.777-1.105-1.617-1.215-1.848-3.141l-1.051-8.758q-.1094-.9124-.9106-1.551-.8035-.6593-1.835-.5783-1.052.1033-1.754.8498-.7028.7461-.5836 1.74l1.056 8.799q.1508 1.257-.4362 2.402-.5647 1.143-1.678 1.868-1.115.7046-2.503.8413z" style="stroke:#6c6c6c;stroke-width:2.194;fill:#caf"/><path d="m130.4 1015q.4068.1862.7440.3854l.8171-6.442q.2415-1.904 1.864-3.09 1.648-1.204 3.794-.9802 1.361.1618 2.442.9317 1.083.7492 1.618 1.893.5346 1.144.3778 2.38l-3.027 23.87q-.1696 1.337-.9740 2.321-.7795.9657-1.994 1.434-1.215.4688-2.646.3197l-3.916-2.707-.0206.1621q-2.446 1.962-6.001 1.592-.9167-.095-2.188-.4331-3.52-1.003-5.82-3.767-2.275-2.782-2.575-6.488-.0694-1.239.0694-2.333.1773-1.398.6445-2.581.9645-2.424 2.704-4.173 1.74-1.748 4.052-2.657 2.793-1.125 5.722-.8205 2.124.2211 4.312 1.188zm-7.317 10.18q-.2107 1.661.6868 2.802.8975 1.14 2.396 1.296 1.324.097 2.297-.6025.9946-.6969 1.45-2.148l.1748-1.378q-.2111-2.444-2.343-3.138-.5264-.1369-.7723-.1624-1.274-.1327-2.294.5823-1.019.7148-1.465 2.085-.0705.1978-.1296.6638z" style="stroke:#6c6c6c;stroke-width:2.194;fill:#caf"/><path d="m144.5 1016q1.336-.6008 2.119-.7918 3.303-.8062 6.078.6075l.0352.1181 3.516-2.991q.4279-.4423 1.145-.6174 1.065-.2598 1.999.2936 2.317 1.208 3.037 3.631l4.063 13.67q.5912 1.989-.4249 3.588-1.016 1.6-3.124 2.114l-4.684-1.095.0586.1969q-1.447 2.423-4.881 3.261-1.13.2758-2.613.3843-2.126.1389-4.39-.5757-2.269-.7345-4.256-2.319-1.389-1.224-2.353-2.741-.9640-1.518-1.59-3.624-.6558-2.754-.0586-5.371.6190-2.622 2.282-4.633 1.657-2.031 4.043-3.099zm3.747 11.27q.4098 1.378 1.611 2.204 1.3.8443 2.756.489.8693-.2121 1.529-.8166.6535-.6242.8699-1.543.2156-.6862.1110-1.273-.0911-.4634-.3312-1.271-.9289-1.949-2.856-2.238-.8326-.1347-1.484.024-1.195.2916-1.83 1.292-.6351.9997-.5037 2.383.0369.2021.0619.365.041.1378.0677.3848z" style="stroke:#6c6c6c;stroke-width:2.194;fill:#caf"/><path d="m165.4 1011q1.178-.2814 2.307-.094.9962.1653 1.823.7172.8487.5553 1.431 1.523.6086.951.8163 2.188l1.245 6.861 3.579-5.937q.4621-.8149 1.281-1.695.7842-.8236 1.922-1.132 1.142-.3289 2.315-.1343 2.258.3747 3.536 2.204 1.001 1.389.6480 3.134-.2108 1.043-.9226 1.962l-15.86 21.4q-2.289 3.062-5.344 2.555-.6420-.1065-1.515-.5416-1.523-.7294-2.212-1.963-.6707-1.21-.3910-2.594.1865-.9228.8902-1.801l4.789-5.923-4.051-15.39q-.2083-.7807-.0299-1.664.2675-1.324 1.269-2.319 1.006-1.015 2.47-1.352z" style="stroke:#6c6c6c;stroke-width:2.194;fill:#caf"/></g></svg>