<svg xmlns="http://www.w3.org/2000/svg" version="1.1" width="200px" height="100px" viewBox="0 0 200 100"><g transform="translate(0 -952.4)"><path style="fill:#fff" d="m109.6 952.4c-4.987.1339-9.295 3.544-12.34 7.452-12.94-8.225-29.03-3.419-41.81 2.666-2.472 1.713-4.586 3.694-7.525 1.742-23.28-6.004-49.48 15.23-47.84 40.94.1446 25.35 26.59 46.96 49.86 38.34 5.103-1.261 9.846-5.115 14.02-7.313 9.598 7.355 21.9 2.287 31.65-1.908 5.995-2.791 12.02 2.642 17.93-.6106 2.916-1.13 5.576-2.967 7.987-4.956 4.377 6.388 11.64 9.051 17.42 13.62 8.097 4.016 16.98 6.074 25.24 9.542 16.53 3.502 35.26-11.93 32.54-30.34-.9844-3.549-1.869-7.353.9387-10.23 6.887-15.28-2.041-35.59-17.61-39.91-8.153-4.135-17.89-7.804-26.64-5.305-10.21-13.84-29-12.47-43.81-13.71z"/><g style="stroke:#545454;stroke-width:1.424;fill:#5fd38d" transform="matrix(1.779 0 0 1.872 -6.255 -843.8)"><path style="stroke:#545454;stroke-width:1.424;fill:#5fd38d" d="m84.49 1003q-2.192-.7885-3.028-2.747-.8290-1.98.0562-4.44l7.297-20.28q.4984-1.385 1.605-2.318 1.106-.9330 2.481-1.186 1.383-.2732 2.747.2178l7.03 2.529q.8890.3199 1.816.7935 1.991 1.02 3.355 2.422 1.364 1.401 2.104 3.045.7470 1.623.8168 3.376.0905 1.761-.5269 3.477-.2232.6203-.3909.9569-1.105 2.358-3.068 3.66l.0455.1331.4450.5804.4657.5879.1663.3167q.608 1.036.8654 2.203.2781 1.174.1940 2.382-.0767 1.187-.5081 2.386-.5133 1.427-1.446 2.656-.9251 1.208-2.289 2.142-1.079.6626-2.082 1.049-1.789.6875-3.623.6581-1.834-.029-3.984-.803l-10.54-3.794zm11.97-17.83 2.233.8034q.6203.2232 1.308-.0664.5532-.1746.7540-.7328t-.1408-1.101q-.3268-.5846-1.03-.8375l-2.15-.7736-.9745 2.708zm-4.049 11.06 4.631 1.666q.5582.2008 1.085-.03.5267-.2308.7424-.8304.2306-.6409.0147-1.209-.2085-.5888-.8081-.8045l-4.631-1.666-1.034 2.874z"/><path style="stroke:#545454;stroke-width:1.424;fill:#5fd38d" d="m63.93 997.8q-2.116-.2565-3.493-1.94-1.353-1.704-1.138-3.846l2.228-22.21q.1711-1.705.9279-2.866.7809-1.18 2.003-1.698 1.225-.5397 2.864-.3752l9.816.9847q3.083.3092 5.347 1.508 2.267 1.177 3.593 3.143 1.329 1.944 1.662 4.561.1919 1.609.06689 2.855-.4496 4.482-3.756 6.844l-.1946.1792-1.109.7058-.6823.4174 3.298 5.432q.9681 1.577.7860 3.391-.1206 1.202-.8009 2.26-.6562 1.038-1.806 1.718-1.5.8653-3.052.7096-2.798-.2807-4.446-3.449l-5.694-10.6-.7676 7.652q-.1447 1.443-.9606 2.532-.7940 1.091-2.023 1.674-1.227.5615-2.67.4168zm7.188-19.48 4.307.4320q.7652.0768 1.349-.4609.6080-.5573.7023-1.497.05271-.7455-.3997-1.299-.4524-.5533-1.086-.6169l-4.482-.4496-.3904 3.892z"/><path style="stroke:#545454;stroke-width:1.424;fill:#5fd38d" d="m47.57 1001q-2.235.6548-4.065-.4346-1.836-1.111-2.572-3.62l-6.06-20.69q-.4139-1.413-.07011-2.819t1.306-2.42q.9559-1.036 2.348-1.443l7.169-2.1q.9067-.2656 1.935-.4294 2.21-.3498 4.138-.0216t3.494 1.22q1.56.8709 2.65 2.246 1.111 1.369 1.623 3.119.1853.6326.2481 1.003.4970 2.556-.3214 4.765l.1152.0807.7016.2066.7227.2004.3210.1578q1.102.4786 1.997 1.269.9167.7847 1.56 1.81.6375 1.004.9958 2.227.4262 1.455.3973 2.997-.03513 1.521-.5861 3.08-.4812 1.171-1.064 2.075-1.04 1.61-2.539 2.667t-3.692 1.7l-10.75 3.15zm-.8373-21.46 2.277-.6671q.6326-.1853 1.018-.8247.3440-.4671.1772-1.036-.1668-.5693-.7630-.8068-.6085-.2797-1.325-.0696l-2.193.6424.8092 2.762zm3.248 11.32 4.723-1.384q.5693-.1668.8588-.6637t.1103-1.108q-.1915-.6537-.7008-.9853-.5155-.3527-1.127-.1736l-4.723 1.384.8586 2.931z"/></g><path style="stroke:#7b9cff;stroke-width:4.98;fill:#4d4d4d" d="m68.69 1004a29.13 30.65 0 0 1 -29.13 30.65 29.13 30.65 0 0 1 -29.13 -30.65 29.13 30.65 0 0 1 29.13 -30.65 29.13 30.65 0 0 1 29.13 30.65z"/><path style="fill:#fff" d="m39.01 979.5v24.52h-15.53v4.086h19.41v-.04h.0076v-28.56h-3.884z"/></g></svg>