<svg xmlns="http://www.w3.org/2000/svg" version="1.1" width="200px" height="100px" viewBox="0 0 200 100"><g transform="translate(0 -952.4)"><g style="fill:#fff" transform="matrix(.9625 0 0 .8258 155.5 72.9)"><path style="fill:#fff" d="m-67.05 1065c-19.79-.3241-36.1 14.88-36.09 31.51.007 19.35-4.251 8.893-13.15 3.79-10.68-6.124-21.11-16.25-33.91-14.02-11.24 5.485-13.06 20.54-10.08 31.44 6.107 18.79 24.14 29.91 39.85 40.05 13.51 7.773 29.82 14.44 45.47 10.61 1.99-.9393 3.316 2.938 5.598 3.197 5.656 2.585 10.73 6.3 16.04 9.33 6.52.9282 12.34 3.52 19.03 3.416 6.811.2124 14.54 4.37 20.43-.9902 2.648-1.476 3.761-5.132 6.059-6.377 6.393-.3283 12.35-4.106 16.12-8.822 3.143-.3718 6.705-1.003 8.326 2.355 9.331 8.14 27.19 1.47 26.92-11.52-.5907-3.989-1.747-8.08.7031-11.63 1.426-7.764 3.152-16.22.8965-23.9-3.683-8.06-14.82-10.68-22.1-7.25.4671-9.271-.0138-18.56.9316-27.81.4832-8.556-4.173-18.9-13.69-19.66-4.431-.8966-9.064 1.016-12.93 2.125-9.594-6.294-24.14.1374-26.49 11.1-3.671-.4594-7.094-3.155-11.12-2.106-2.532.1403-5.625 1.655-5.504-1.932-2.778-8.718-12.67-13.29-21.31-12.91zm89.98 83.3c1.71 1.996-2.126.3739 0 0z"/></g><path style="fill:#373e42" d="m86.47 1014c.09625 0 .09625 0 0 0"/><path style="fill:#373e42" d="m95.71 1029c-.8160-.7914-2-1.557-3.297-2.209-.5208-.2818-.7032-.9053-.4974-1.344.3285-.4468 1.055-.6032 1.566-.4267 1.808.8284 3.267 1.893 4.359 2.984.5938-.2533 1.32-.4099 2.057-.461 1.831-.2332 3.487.2879 4.946 1.353.7961.5807 1.509 1.591 1.977 2.619 1.596-.1108 3.241.305 4.558 1.168 1.184.7658 1.897 1.776 2.375 2.909 2.199-.2588 4.253.5527 5.172 1.125.4612-.3503 1.045-.709 1.506-1.059 1.536-.7427 3.377-.8707 5.155-.3582 1.012.2478 2.063.9169 3.012 1.805 1.423-.6289 3.142-.7482 4.654-.4292 1.39.3276 2.564.9879 3.513 1.876 2.837-1.363 6.735-1.952 10.62-1.374 3.506.4985 7.275-1.459 7.833-3.406.4746-1.517-1.721-2.531-3.121-2.964-.6336-.1679-.9387-.7828-.7330-1.221.2057-.4384.9124-.8054 1.423-.6289 4.966 1.563 4.846 4.222 4.567 5.195-.8264 3.026-5.916 5.394-10.29 4.85-3.251-.4102-6.545.03-8.921 1.044.8458 1.107 1.333 2.346 1.393 2.978.1789 1.896-.8463 2.815-1.553 3.182-.3484.2363-.8294.3757-1.198.4012-.8493.1652-1.718.1195-2.495-.2507-1.032-.4584-1.725-1.258-1.814-2.206-.1590-1.685.6838-3.228 2.293-4.506-.6634-.4839-1.45-.9595-2.206-1.119-1.012-.2477-1.984-.074-2.71.083 1.141 1.617 1.688 3.487 1.101 5.118-.4845 1.412-2.011 2.26-3.759 2.063-1.748-.1966-2.972-1.384-3.111-2.858-.0363-1.694.7768-3.552 2.386-4.83-.5407-.4926-1.194-.8712-1.828-1.039-1.267-.336-2.249-.2678-3.314.2303-.3583.1309-.5839.3586-.9323.5948.3980.2905.6734.5893.9487.8883.9785 1.204 1.24 2.67.8785 4.074-.5675 1.842-2.369 2.391-3.749 2.169-1.768-.4072-3.287-2.104-2.627-4.27.1859-.6491.5973-1.526 1.254-2.42l.1128-.1139c-.7762-.3701-1.931-.82-3.158-.7347.2519 1.361.2385 2.528-.0701 3.185-.7002 1.745-2.133 2.268-2.86 2.425-.4910.034-.8592.059-1.36-.012-.8791-.151-1.655-.5211-2.206-1.119-.8160-.7914-1.028-1.731-.6167-2.608.7101-1.64 2.084-2.795 4.131-3.361-.3151-.7201-.8657-1.318-1.529-1.802-.9188-.5721-1.798-.7231-2.544-.7774.3016 1.887-.0105 3.817-1.251 5.07-1.128 1.139-2.959 1.372-4.389.623-1.552-.7403-2.192-2.286-1.575-3.601.7101-1.64 2.442-2.926 4.479-3.598-.3051-.6151-.733-1.221-1.141-1.617-.9288-.6775-1.95-1.031-3.178-.9454-.3682.025-.7265.1565-1.095.1821.1625.4127.3250.8255.4776 1.133.3846 1.457.02283 2.861-1.105 3.999-1.334 1.577-3.195 1.494-4.379.7282-1.45-.9595-2.017-3.04-.4571-4.845.4711-.2448 1.271-.9363 2.326-1.54m39.24 15.19c.0298.3161.2952.5096.5506.598.5108.1765 1.125.1339 1.473-.1023.4612-.3502.5342-.8854.4845-1.412-.0298-.316-.3548-1.142-1.058-2.047-1.025.9193-1.549 1.91-1.45 2.963m-8.383-1.114c.0795.8426.9487.8883 1.081.985.1327.097 1.115.029 1.291-.7257.4015-.9821-.0959-2.326-.8189-3.442-1.035.814-1.662 2.024-1.553 3.182m-7.395.1956c.6336.168.8294-.3757 1.045-.7087.2887-.8681.0865-1.702-.5968-2.397-.1426-.2021-.2852-.4043-.5407-.4925-.5541.6745-.8528 1.437-.9457 1.762-.1461 1.07.5372 1.765 1.038 1.836m-9.799-3.03c-.093.3245.0496.5266.1923.7288.3980.2904.9189.5724 1.4.4328.6038-.1479.9224-.7001 1.128-1.138.0929-.3245.1362-1.176-.086-2.22-1.32.4097-2.243 1.11-2.634 2.197m-7.291-3.946c-.2987.7628.4776 1.133.6102 1.23.1327.097 1.032.4584 1.596-.1109.7897-.797 1.029-2.192.7867-3.447-1.32.4099-2.468 1.338-2.993 2.328m-6.754-2.181c.5208.2817.9919.037 1.208-.296.5541-.6747.8428-1.543.6406-2.377-.01988-.2106-.1625-.4128-.1923-.7288-.8195.481-1.384 1.05-1.609 1.278-.8925 1.016-.4448 1.833-.04672 2.124"/><path style="stroke:#373e42;stroke-width:3.582;fill:#c4c8b7" d="m14.71 980.2c2.955-4.235 31.53 11.39 28.58 15.63-2.375 3.274-5.502 5.678-8.838 7.292 3.891 2.838 8.314 5.639 13.13 8.298 4.946 2.65 9.716 4.851 14.32 6.719.2202-3.354 1.363-6.887 3.748-10.05 2.944-4.349 31.52 11.28 28.56 15.4-4.27 5.938-11.07 9.288-17.51 9.275-8.574.1353-22.39-4.086-36.25-11.64-15.98-8.676-27.17-19.18-28.9-26.2-1.365-4.51-.2616-9.883 3.172-14.73"/><path d="m74.55 993.9q-3.332-2.173-5.624-4.934-2.261-2.766-3.139-5.64-.8853-2.898-.4086-6.081.5004-3.214 2.351-6.32 4.143-6.817 13.49-9.739 2.556-.7979 4.953-1.254 3.486-.6631 6.413-0.57 2.919.0685 5.001.7380 2.106.6391 3.345 1.677 1.27 1.032 1.676 2.358.5477 1.793-.3534 3.264-.6810 1.221-1.581 1.834-.8685.6070-2.487.9148-1.339.2546-2.209.3162-1.686.0868-4.774-.2096-1.397-.0462-3.483.3506-3.673.6986-5.801 2.896-2.105 2.167-2.008 5.502.03832.7724.3009 1.632.2476.8105.6970 1.635 1.136 1.993 2.761 3.217 1.626 1.224 3.718 1.606 2.085.3571 4.544-.1106 3.082-.5861 6.962-2.546.05475-.0364.2576-.1270.2029-.0905.3510-.1447 1.029-.4037 2.306-.6464 3.051-.5802 5.298.6298 2.038 1.172 2.555 2.866.4727 1.547-.3856 3.374-1.058 2.358-5.135 4.537-2.899 1.617-7.412 2.475-2.272.4322-4.884.6169-6.878.4504-12.76-1.887-2.235-.8483-4.535-2.23z" style="stroke:#6d0000;stroke-width:2.527;fill:#c15252"/><path d="m116 971.6q1.871-.1696 2.891-.1027 4.304.2826 6.931 2.682l-.0142.1340 5.59-1.905q.7173-.3128 1.652-.2515 1.387.0911 2.235.9791 2.181 2.033 1.891 4.781l-1.635 15.51q-.2380 2.256-2.201 3.567t-4.71 1.131l-5.045-2.716-.0236.2235q-2.864 2.017-7.338 1.723-1.472-.0968-3.285-.4856-2.591-.5750-4.941-2.079-2.348-1.526-3.958-3.837-1.072-1.735-1.499-3.63-.4274-1.895-.1753-4.286.5234-3.07 2.47-5.575 1.975-2.502 4.9-4.02 2.928-1.54 6.267-1.838zm-.8781 12.92q-.1649 1.564.8711 2.824 1.145 1.312 3.042 1.437 1.133.0743 2.201-.3279 1.071-.4246 1.762-1.302.5804-.6368.7336-1.279.1109-.5102.2074-1.426-.1820-2.329-2.334-3.28-.9250-.4207-1.775-.4764-1.557-.1023-2.784.7171-1.227.8193-1.725 2.294-.052.2216-.0991.3984-.0165.1564-.1014.4208z" style="stroke:#6d0000;stroke-width:2.297;fill:#c15252"/><path d="m141.7 997.4q-2.023-1.466-2.155-3.618l-1.63-26.58q-.0825-1.345.7256-2.536.8081-1.192 2.271-1.909 1.461-.7398 3.277-.7941 1.732-.0293 3.223.6445 1.518.6506 2.412 1.791.9226 1.14 1.006 2.507l1.622 26.45q.1347 2.196-1.616 3.775-1.897 1.516-4.507 1.594-2.61.0785-4.629-1.321z" style="stroke:#6d0000;stroke-width:2.297;fill:#c15252"/><path d="m157.4 997.2q-1.888-1.542-1.827-3.695l.7514-26.6q.038-1.346.9513-2.504.9132-1.159 2.437-1.818 1.525-.6821 3.342-.6662 1.732.0376 3.16.7679 1.457.7081 2.248 1.882.8190 1.174.7803 2.542l-.7476 26.46q-.0621 2.198-1.951 3.707-2.029 1.441-4.641 1.418-2.612-.0231-4.502-1.498z" style="stroke:#6d0000;stroke-width:2.297;fill:#c15252"/><path d="m113.4 1030q-1.887-1.187-2.267-3.196l-2.731-14.44q-.2494-1.319.2785-2.536.5516-1.221 1.694-2.033 1.142-.8125 2.594-1.025l4.338 1.215.0199-.1536q1.261-.9589 2.987-1.663 1.947-.8226 3.661-1.073 3.284-.4805 6.654.7902l.5829.2373.4996.185.3888-.2718.8449-.5754q1.622-.9903 2.812-1.552 1.844-.8507 3.748-1.129 2.689-.3935 5.179.3607 2.486.7333 4.147 2.405 1.681 1.647 2.104 3.887l2.126 11.24q.2533 1.34-.2745 2.557-.5318 1.196-1.65 2.005-1.095.8056-2.546 1.018-2.261.3307-4.14-.8139t-2.263-3.175l-1.67-8.833q-.0791-.4187-.3447-.7885-.2418-.3734-.6541-.6141-.3925-.2653-.8485-.3491-0.46-.1048-.9359-.035-.9756.1427-1.575.8543-.5991.7114-.4328 1.59l1.686 8.917q.3919 2.072-.9372 3.708-1.25 1.538-3.51 1.869-2.261.3308-4.12-.8383-.8444-.5862-1.423-1.448-.5549-.8653-.7251-1.765l-1.694-8.959q-.1583-.8372-.9671-1.364-.7890-.5514-1.745-.4332-1.023.1498-1.67.8682-.6229.715-.4566 1.594l1.702 9q.3879 2.051-.9213 3.663-1.289 1.587-3.479 1.907-2.189.3203-4.064-.8033z" style="stroke:#6d0000;stroke-width:2.059;fill:#da6b6b"/><path d="m177.8 1016q-.3186 2.103-1.477 2.845-1.159.7418-3.55.4617l-12.74-1.494q.0765.1374.7604.924.6233.5439 1.21.8483.6138.2859 1.667.5591 1.057.2524 2.587.4317 1.492.1107 3.846-.17 1.803-.174 2.52-.09 1.937.2269 2.935 1.35 1.022 1.126.8021 2.577-.0797.5258-.2199.809-.3841.7684-1.054 1.332-.6455.5664-1.654.962-.9819.3773-2.735.707-2.139.3058-4.326.285-1.532-.01-3.253-.2101-3.563-.4174-6.415-1.672-2.825-1.273-4.698-3.205t-2.629-4.333q-.7558-2.4-.3481-5.093.4317-2.368 1.884-4.403 1.479-2.053 3.628-3.385 2.176-1.35 4.967-1.944 2.791-.5933 5.876-.2318 4.079.5421 7.041 2.516 1.808 1.239 3.064 2.906 1.283 1.649 1.869 3.408.6123 1.742.4483 3.306zm-16.97-2.866 5.834.6837q.0382-.2525.0159-.4263-.0432-2.124-3.008-2.472-1.803.174-2.689 1.847-.1339.2412-.1530.3674z" style="stroke:#6d0000;stroke-width:2.059;fill:#da6b6b"/><path d="m181.3 1033q-1.649-.1959-2.902-1.073-1.232-.853-1.84-2.124-.6050-1.292-.4268-2.77.2162-1.409 1.192-2.535.9792-1.147 2.428-1.703 1.472-.5532 3.122-.3572 2.534.3007 4.023 2.019.7509.8171 1.053 1.86.3025 1.042.1412 2.094-.3420 2.229-2.35 3.575-1.954 1.31-4.44 1.014zm1.759-11.46q-1.53-.1817-2.697-.984-1.14-.8206-1.71-2.023-.5461-1.2-.3396-2.546l1.778-11.59q.3098-2.019 2.155-3.256 1.791-1.201 4.038-.9338 2.223.264 3.629 1.887.6410.7398.9086 1.692.2916.9553.1399 1.944l-1.778 11.59q-.2033 1.325-1.091 2.354-.8850 1.008-2.204 1.515t-2.828.3493z" style="stroke:#6d0000;stroke-width:2.059;fill:#da6b6b"/></g></svg>