<svg xmlns="http://www.w3.org/2000/svg" version="1.1" width="200px" height="100px" viewBox="0 0 200 100"><g transform="translate(0 -952.4)"><path style="fill:#fff" d="m138.2 952.4c-5.782.0672-10.96 2.933-15.07 6.325-5.465 2.255-9.825 7.429-10.57 12.8-7.299-.796-14.23 3.868-15.84 10.4-1.577 2.451-1.079 6.551-3.213 8.155-3.157.6944-6.554 2.968-9.301.2178-2.273-1.786-7.733-.6948-7.246-4.233-1.091-9.708-14.07-17.69-23.67-12.01-2.135 2.556-3.702-.8176-6.038-1.07-14.12-4.605-30.25 2.025-39.44 12.13-11.04 12.6-10.75 32.97 2.844 43.95 10.94 9.746 28.78 12.93 42.47 6.311 3.772-.2217 7.681-.5814 11.06-2.26 5.31 5.103 14.67 6.208 21.11 2.288 7.972 3.369 17.23 3.736 25.66 1.725 7.613 4.941 17.46 4.111 26.11 4.42 3.474 1.123 7.824.7527 9.546 4.332 9.652 8.313 28.11 9.516 35.98-1.53 2.881-3.615 2.378-8.489 3.128-12.43 1.747-1.809 1.517-5.479 5.002-5.208 7.093-1.651 12.47-10.07 6.994-15.76-3.028-3.571-8.667-4.137-13.07-3.643 12.58-11.58 10.56-32.35-2.809-42.72-4.971-4.922-13.76-7.437-20.31-3.627-3.634-4.062-9.499-7.774-15.34-6.159-1.945-2.082-5.153-2.539-7.983-2.41z"/><g transform="matrix(.9350 -.1889 .2060 .8575 -327.3 132.1)"><path style="fill:#961623" d="m233.7 1061c-.7092 8.019 5.073 16.23 13.6 17.96 9.212 1.87 18.35-4.439 20.08-12.97.0199-.098.0199-.098.0398-.196-9.346-3.223-22.81 1.288-33.72-4.802"/><path style="fill:#4d4d4d" d="m272.1 1067c2.267-11.17-1.926-19.17-1.926-19.17l-31.95-6.484s-6.998 5.824-9.246 16.9c-2.148 10.58 4.957 22.33 16.21 25.23l2.156.4376c11.49 1.719 22.59-6.231 24.76-16.91m-25.32 14.15c-9.604-1.949-15.99-11.2-15.2-20.13.0213-.6079.1606-1.294.2799-1.882 1.969-9.702 7.965-14.61 7.965-14.61l27.64 5.609s3.511 6.835 1.679 16.36l-.0398.196c-1.909 9.408-12.03 16.54-22.32 14.45"/></g><g style="fill:#42ade2" transform="matrix(.8359 -.8955 .9764 .7667 89.47 1004)"><path d="m44.5 14.8 9.6-8.3-4.6-3.3z"/><path d="m48.9 16.5 9.1 2v-4.8z"/><path d="m41.3 11.7 2.3-9.7h-4.9z"/></g><g transform="matrix(-.9350 .1889 .2060 .8575 179.8 29.04)"><path style="fill:#961623" d="m233.7 1061c-.7092 8.019 5.073 16.23 13.6 17.96 9.212 1.87 18.35-4.439 20.08-12.97.0199-.098.0199-.098.0398-.196-9.346-3.223-22.81 1.288-33.72-4.802"/><path style="fill:#4d4d4d" d="m272.1 1067c2.267-11.17-1.926-19.17-1.926-19.17l-31.95-6.484s-6.998 5.824-9.246 16.9c-2.148 10.58 4.957 22.33 16.21 25.23-1.351 6.154-3.232 12.4-5.159 14.36-2.793 2.698-9.922-.3811-10.6 2.951l25.68 5.211c.6762-3.332-7.09-3.276-8.61-6.849-1.013-2.552-.3078-9.042.8473-15.24 11.49 1.719 22.59-6.231 24.76-16.91m-25.32 14.15c-9.604-1.949-15.99-11.2-15.2-20.13.0213-.6079.1606-1.294.2799-1.882 1.969-9.702 7.965-14.61 7.965-14.61l27.64 5.609s3.511 6.835 1.679 16.36c-.0199.098-.0398.196-.0398.196-1.909 9.408-12.03 16.54-22.32 14.45"/></g><g style="stroke:#004755;stroke-width:1px;fill:#ffd42a" transform="matrix(.9574 0 0 .8781 3.325 111.1)"><path style="stroke:#004755;stroke-width:2.231;fill:#ffd42a" d="m20.51 1041q-4.064-2.867-7.002-6.68-2.902-3.824-4.229-7.926-1.338-4.136-1.146-8.807.2164-4.717 1.994-9.397 3.994-10.28 14.4-15.35 2.844-1.385 5.543-2.258 3.926-1.27 7.295-1.392 3.357-.1569 5.82.6340 2.487.7444 4.024 2.145 1.572 1.389 2.185 3.282.8279 2.559-.04222 4.777-.6454 1.835-1.609 2.806-.9290.9586-2.752 1.548-1.507.488-2.499.654-1.925.274-5.501.1147-1.608.056-3.957.8152-4.137 1.338-6.334 4.721-2.173 3.336-1.692 8.176.1299 1.12.5268 2.346.3743 1.157.9816 2.316 1.525 2.798 3.526 4.436 2.001 1.637 4.445 2.009 2.432.336 5.202-.5599 3.47-1.123 7.705-4.313.059-.057.2818-.2063.2227-.1492.3869-.2405 1.136-.6772 2.574-1.142 3.435-1.112 6.148.4503 2.468 1.525 3.251 3.944.7145 2.208-.06703 4.94-.9516 3.522-5.387 7.048-3.146 2.606-8.229 4.25-2.559.8279-5.535 1.326-7.841 1.259-14.85-1.623-2.659-1.037-5.451-2.845z"/><path style="stroke:#004755;stroke-width:2.231;fill:#ffd42a" d="m55.39 1042q-2.908-.3846-4.73-2.725-1.787-2.367-1.39-5.369l4.909-37.14q.2479-1.876 1.401-3.378 1.184-1.498 2.934-2.221 1.754-.7543 3.732-.5566 2.001.2643 3.499 1.449 1.498 1.184 2.217 2.965.7544 1.754.4982 3.692l-1.372 10.38q1.204-.4453 2.646-.764 3.513-.5853 6.421-.2011 2.845.3764 5.07 1.593 2.256 1.221 3.671 3.03 1.419 1.778 2.024 4.18.6363 2.406.2934 5.001l-2.223 16.82q-.4008 3.033-2.808 4.878-2.372 1.818-5.436 1.413-2.95-.5488-4.736-2.916-1.755-2.364-1.363-5.334l1.785-13.51q.1859-1.407-0.67-2.634-.8518-1.258-2.286-1.479-1.469-.1944-2.7.6928-1.231.8873-1.433 2.419l-1.793 13.57q-.2562 1.938-1.476 3.463-1.188 1.529-2.969 2.248-1.777.6877-3.715.4315z"/><path style="stroke:#004755;stroke-width:2.231;fill:#ffd42a" d="m118.8 1026q-.035 3.068-1.368 4.31-1.333 1.243-4.401 1.208l-16.35-.1862q.1206.1855 1.121 1.209.8819.685 1.676 1.031.8248.3162 2.203.5467 1.378.1994 3.342.2225 1.903-.07 4.826-.8346 2.246-.5266 3.166-.5161 2.485.028 3.941 1.487 1.487 1.459 1.463 3.576-.009.7669-.1364 1.195-.3507 1.162-1.097 2.074-.7160.9122-1.921 1.635-1.174.6924-3.33 1.435-2.647.7676-5.412 1.074-1.935.2233-4.144.1981-4.571-.052-8.39-1.415-3.789-1.393-6.491-3.878t-4.076-5.814q-1.373-3.329-1.329-7.256.1315-3.466 1.609-6.609 1.509-3.174 3.989-5.416 2.511-2.273 5.931-3.553t7.377-1.235q5.245.1512 9.329 2.53 2.499 1.501 4.376 3.701 1.908 2.169 2.954 4.605 1.077 2.405 1.143 4.676zm-21.92-1.508 7.485.085q.004-.3682-.0544-.6142-.4256-3.042-4.229-3.086-2.246.5267-3.072 3.064-.1269.3668-.1290.5509z"/><path style="stroke:#004755;stroke-width:2.231;fill:#ffd42a" d="m146.4 1032q-.2832 2.847-1.624 3.893-1.34 1.046-4.188.7625l-15.18-1.509q.097.1822.9431 1.215.7634.7085 1.473 1.095.7404.3614 2.002.688 1.264.2982 3.087.4794 1.774.09 4.552-.3811 2.13-.3058 2.984-.2208 2.306.2293 3.54 1.704 1.262 1.477 1.067 3.442-.0708.7117-.2244 1.099-.4208 1.051-1.189 1.837-.7398.7891-1.918 1.362-1.147.5474-3.211 1.061-2.522.4969-5.116.5551-1.816.049-3.867-.1545-4.242-.422-7.68-2-3.406-1.604-5.714-4.134t-3.312-5.735-.6415-6.85q.4055-3.209 2.035-6.009 1.661-2.825 4.149-4.706 2.519-1.906 5.801-2.816t6.955-.5447q4.86.5698 8.461 3.113 2.199 1.599 3.763 3.796 1.596 2.172 2.368 4.52.8042 2.323 0.68 4.438zm-20.24-3.192 6.947.6909q.034-.3417-.00028-.5752-.1468-2.861-3.677-3.212-2.13.3059-3.105 2.596-.1479.3304-.1649.5013z"/><path style="stroke:#004755;stroke-width:2.231;fill:#ffd42a" d="m148.8 1051q-2.687-.1002-4.534-2.001-1.846-1.929-1.746-4.616l.7368-19.78q.1011-2.716 2.088-4.559 1.987-1.844 4.674-1.744l5.879 4.312.0107-.2857.3590-.416.7423-.7167q2.406-2.343 5.067-2.33.9433.035 1.621.2891 1.699.4927 2.825 1.766 1.155 1.274 1.41 2.886.0782.9762.0612 1.434-.0777 2.087-1.563 3.548-1.485 1.433-4.64 2.375-.3187.1031-.5506.1799-.2319.078-.6385.234-1.479.5171-2.445 1.082-.9371.5663-1.451 1.292-.4850.7263-.7256 1.805-.2109 1.051-.2803 2.909l-.214 5.746q-.0692 1.858-.9853 3.398-.9150 1.512-2.436 2.371-1.52.8593-3.265.8231z"/><path style="stroke:#004755;stroke-width:2.231;fill:#ffd42a" d="m156.6 1055q-2.757-3.211-1.979-5.679.2375-.7533.6514-1.251.8838-1.264 2.359-1.684 1.483-.4464 3.223.1023 1.065.3358 2.442 1.312l.9668.6474.6714.4973q1.537 1.284 2.908 1.916l.3117.098.6494.2047q.7014.2211 1.083-.1728.2539-.8051-.2030-1.349-.018-.033-.0875-.085-.0614-.076-.1314-.1267-.0355-.069-.0795-.1099l-.4362-.3375-.9831-.5956-1.246-.8497-.9312-.579q-2.185-1.403-3.532-2.656-1.313-1.271-1.919-2.518-.5802-1.24-.7436-2.805-.1307-1.669.3443-3.176.7862-2.494 3.059-4.176 2.281-1.708 5.626-2.082 3.371-.3651 7.293.8715 3.039.9582 5.224 2.361 3.439 2.226 4.225 4.445.3888 1.122-.0289 2.447-.4013 1.273-1.551 2.11-1.141.8112-2.624.7149-.6726-.041-1.322-.2455-1.013-.3193-2.519-1.251l-1.488-.8973-.7138-.4535-.8081-.4261q-.3828-.2352-.5646-.2926-1.533-.4832-1.757-.4966l-.1369.072-.2050.1067q-.2392.1246-.2883.2804-.1064.3377.3162.8993.0875.085.1490.1615.0614.077.1490.1616l.4362.3375.6974.5056 1.674 1.213 1.202.8073 1.038.7842q1.499 1.044 2.976 2.88 1.381 1.778 1.717 3.883.3701 2.087-.2359 4.009-1.278 4.052-5.806 5.823-4.203 1.645-9.814-.1238-.7273-.2293-2.305-.8413-4.691-1.879-6.955-4.391z"/></g></g></svg>