<svg xmlns="http://www.w3.org/2000/svg" version="1.1" width="200px" height="100px" viewBox="0 0 200 100"><g transform="translate(0 -952.4)"><path style="fill:#fff" d="m179.2 952.4c-11.72-.6616-20.56 11.16-22.49 22.76-10.75-7.56-24.92-8.391-36.63-3.681-12.38-11.46-29.93-12.21-45.16-9.176-2.654-.4544-5.501 3.135-6.947-.6979-12.47-12.41-31.97-8.496-45.5-.2649-18.97 11.68-28.87 39.88-17.92 61.28 10.38 22.93 38.38 33.29 59.72 22.62 4.673-.9821 7.977 4.458 12.65 4.887 13.91 4.644 29.86 2.078 41.62-7.334 9.933 5.204 21.59 4.303 31.91 1.02 9.826 12.46 32.65 8.405 35.8-8.534 5.125-19.61 9.773-39.49 13.73-59.35.3445-12.25-9.103-24.03-20.78-23.52z"/><path d="m158 1034q-2.214-3.858-1.192-8.229l12.62-54q.6385-2.732 2.531-4.752 1.893-2.02 4.501-2.791 2.619-.8170 5.384-.0992 2.625.7297 4.487 2.759 1.917 1.995 2.616 4.687.7427 2.704.0935 5.481l-12.56 53.72q-1.043 4.462-4.574 6.829-3.716 2.174-7.69 1.143-3.974-1.032-6.22-4.754z" style="stroke:#811d05;stroke-width:4.157;fill:#f95"/><path d="m135.6 1035q-7.475 0-13.66-3.611-6.14-3.61-9.699-9.8-3.559-6.236-3.604-13.6 0-7.362 3.515-13.69 3.559-6.377 9.744-10.08 6.184-3.704 13.7-3.704 5.339 0 9.922 1.829 4.583 1.782 8.231 5.111 2.225 2.016 3.871 4.408 1.691 2.391 2.758 4.97 1.112 2.579 1.646 5.346.5339 2.766.5339 5.533 0 4.642-1.513 9.097-1.468 4.455-4.449 8.206-2.981 3.704-7.163 6.237-6.273 3.751-13.84 3.751zm-7.119-27.1q0 3.986 2.047 6.518 2.091 2.532 5.072 2.532.2670 0 1.379-.2343 4.805-1.032 5.561-6.799.1780-1.5.1780-2.11 0-2.766-1.201-4.689-2.18-3.845-5.917-3.845-3.693 0-5.917 3.845-1.201 2.063-1.201 4.783z" style="stroke:#811d05;stroke-width:4.157;fill:#f95"/><path d="m91.28 1040c-6.188 0-11.84-1.506-16.96-4.518-5.083-3.012-9.098-7.099-12.04-12.26-2.947-5.202-4.438-10.87-4.475-17.01 0-6.141 1.455-11.85 4.365-17.13 2.947-5.319 6.98-9.524 12.1-12.61 5.12-3.09 10.79-4.635 17.02-4.635 4.42 0 8.527.7627 12.32 2.288 3.794 1.486 7.201 3.618 10.22 6.395 1.842 1.682 3.444 3.52 4.807 5.515 1.4 1.995 2.541 4.068 3.425 6.219.9208 2.151 1.602 4.381 2.044 6.688.4420 2.308.6630 4.615.6630 6.923 0 3.872-.6262 7.666-1.878 11.38-1.215 3.716-3.057 7.138-5.525 10.27-2.468 3.09-5.433 5.691-8.895 7.803-5.193 3.129-10.92 4.693-17.18 4.693z" style="fill:#fc0"/><path d="m24.18 1029q-4.627-4.037-7.808-9.163-3.139-5.137-4.355-10.47-1.226-5.38-.5598-11.29.6995-5.964 3.275-11.73 5.765-12.65 18.76-18.06 3.552-1.478 6.883-2.322 4.845-1.227 8.912-1.051 4.056.1302 6.948 1.375 2.925 1.188 4.645 3.116 1.764 1.916 2.325 4.378.7587 3.328-.4952 6.057-.9478 2.265-2.199 3.402-1.208 1.126-3.457 1.695-1.86.4710-3.07.5844-2.343.1592-6.633-.3940-1.942-.087-4.84.6469-5.105 1.293-8.065 5.37-2.927 4.02-2.798 10.21.0522 1.433.4160 3.029.3430 1.504.9663 3.034 1.576 3.7 3.833 5.974t5.164 2.984q2.897.665 6.315-.2006 4.283-1.084 9.678-4.717.07606-.068.3581-.2354.2820-.1685.4879-.2684 1.431-.7482 3.205-1.197 4.239-1.074 7.36 1.175 2.83 2.177 3.547 5.323.6548 2.872-.5402 6.261-1.473 4.376-7.142 8.415-4.03 2.997-10.3 4.586-3.158.7999-6.787 1.14-9.557.8287-17.73-3.515-3.105-1.577-6.298-4.144z" style="stroke:#811d05;stroke-width:4.157;fill:#f95"/><path style="fill:#494949" d="m120.9 1001c-3.105-1.903-6.814-3.621-8.798-4.562-2.914-1.391-9.84-4.485-13.18-5.193-2.324-2.632-8.424-7.232-11.07-9.122-2.876-2.068-9.666-7.069-13.43-7.689-2.153-.6310-4.023 2.052-4.813 3.42-.5317.9173-4.253 7.578-2.457 10.45 1.993 3.645 6.107 7.424 6.107 7.424 3.355 2.47 5.984 4.339 9.801 4.565 3.969-.3885 5.459-1.952 8.549-3.554l6.351-3.676.3378 7.622c.3159 3.615-.1716 5.77 1.586 9.54 2.175 3.314 5.06 4.701 8.811 6.427 0 0 5.205 1.728 9.195 1.617 3.263.1155 6.714-6.707 7.179-7.664.6947-1.423 1.891-4.504.2560-6.111-.9246-1.147-2.571-2.356-4.434-3.498z"/><path style="fill:#664e27" d="m96.12 1023c-6.32 1.769-13.08.4717-18.42-3.538-1.308-1.061 1.199-4.717 2.506-3.774 3.487 2.712 9.154 4.481 14.93 2.83 1.417-.3538 2.615 4.01.9808 4.481"/></g></svg>