<svg xmlns="http://www.w3.org/2000/svg" version="1.1" width="200px" height="100px" viewBox="0 0 200 100"><g transform="translate(0 -952.4)"><path style="fill:#fff" d="m64.79 952.4c-9.539.1228-18.61 4.85-24.88 10.24-8.458-10.07-28.39-9.494-36.04 1.073-7.695 10.51-1.719 23.28-.5433 34.53 1.192 8.043 3.784 16.36 1.99 24.33-6.967 12.17 3.575 28.37 19.42 29.62 17.71 2.235 34.42-15.7 25.82-29.67-2.876-3.536-6.675-8.272-4.273-11.87 1.967-2.943 8.267-4.228 11.57-2.355 9.647 5.468 4.75 19.38 5.746 29.28 2.655 10.48 17.24 17.57 28.76 12.53 7.51-2.861 13.03-9.948 11.8-17.08 3.746-1.677 1.539 3.792 3.125 5.58 2.264 9.412 14.87 14.47 25.11 11.37 3.868-.8739 7.387-3.237 10.1-5.295 14.26 9.394 36.82 8.65 49.88-1.973 9.319-8.816 7.659-21.55 7.272-32.48-.2099-8.61-8.767-15.92-18.86-15.94-5.384-.3189-10.98 1.484-14.84 4.46-4.776-3.772-11.73-5.183-18.06-4.25 1.247-3.339-.1356-7.534 4.171-9.199 7.078-5.595 6.033-15.97-.7753-21.21-2.556-12.22-25.61-15.49-31.75-3.85-1.019 2.775-4.026 3.561-6.422 1.653-6.493-2.269-14.11.0724-20.12.3444-5.757-8.068-17.99-10.02-28.2-9.834z"/><path style="opacity:.8;fill:#2c5aa0" d="m37.3 1023-2.513-47.61c-1.466-14.42-24.86-11.93-23.4 2.497l7.202 46.79c-2.786 2.499-4.369 5.817-4.009 9.357.6664 6.556 7.541 11.23 15.47 10.52 7.927-.7116 13.74-6.526 13.07-13.08-.3598-3.54-2.582-6.516-5.821-8.475m-7.542 18.67c-5.866.5266-11.02-2.98-11.53-7.963-.3199-3.147 1.448-6.216 4.459-8.075l-5.618-48.52c-.8530-8.392 11.13-9.864 11.98-1.472l4.575 49.01c3.172 1.303 5.672 3.857 6.005 7.135.4931 4.852-4.009 9.358-9.875 9.884"/><path style="fill:#f06" d="m21.18 991.2 4.049 36.22 5.845-.7227-3.105-36.11z"/><path style="fill:#f06" d="m37.29 1032c.3825 3.763-2.979 7.127-7.529 7.536-4.55.4084-8.528-2.297-8.911-6.06-.3825-3.763 2.979-7.127 7.529-7.536 4.55-.4083 8.528 2.297 8.911 6.06"/><path d="m71.74 989.1q3.07-.7624 4.179-2.366l-3.635.3180q-2.6.2275-4.597-1.129-1.967-1.359-2.239-3.483-.1224-1.421.5315-2.614.6508-1.217 1.952-2.023 1.331-.8078 2.986-.9526l11.73-1.026q6.471-.5663 7.225 5.318.2190 1.709.03691 3.552-.1227 2.307-1.438 4.866-1.461 2.819-4.021 4.994-2.534 2.148-6.04 3.467-3.477 1.316-7.821 1.697-2.482.2173-5.546.091-4.212-.2241-7.765-1.37-3.527-1.173-6.333-3.248t-4.688-4.874q-2.188-3.315-2.645-6.88-.6008-4.688 1.73-9.114 2.358-4.453 7.267-7.648 5.354-3.456 12.68-4.097.9456-.0827 2.731-.1402 3.19-.0569 6.304.4607 2.996.5280 5.7 1.575 5.531 2.355 5.941 5.554.2441 1.905-1.686 3.629-1.366 1.231-3.494 1.417-1.566.1370-3.417-.3182l-.0591.005-2.682-.8764q-.8775-.3183-1.339-.4260-3.875-1.093-7.067-.8137-2.571.2250-4.5 1.258-1.933 1.009-3.082 2.763-1.15 1.755-1.317 3.942-.08968.6992-.0052 1.358.1095.8546.3901 1.645.8104 2.127 2.37 3.57 1.556 1.419 3.734 2.093 2.204.6466 4.834.4165 1.596-.1396 3.092-.5915z" style="stroke-opacity:.8;stroke:#0e3879;stroke-width:2.213;fill:#87aade"/><path d="m105.5 999.5q-4.992 0-9.122-1.891-4.101-1.891-6.478-5.132-2.377-3.266-2.407-7.12 0-3.855 2.347-7.17 2.377-3.339 6.508-5.279 4.13-1.94 9.152-1.94 3.566 0 6.626.9576 3.061.9330 5.497 2.676 1.486 1.056 2.585 2.308 1.129 1.252 1.842 2.603.7429 1.35 1.099 2.799.3566 1.449.3566 2.897 0 2.431-1.01 4.763-.9806 2.333-2.971 4.297-1.991 1.94-4.784 3.266-4.19 1.964-9.241 1.964zm-4.754-14.19q0 2.087 1.367 3.413 1.397 1.326 3.387 1.326.1783 0 .9212-.1228 3.209-.5402 3.714-3.56.1189-.7857.1189-1.105 0-1.449-.8023-2.455-1.456-2.013-3.952-2.013-2.466 0-3.952 2.013-.8023 1.08-.8023 2.504z" style="stroke-opacity:.8;stroke:#0e3879;stroke-width:2.213;fill:#87aade"/><path d="m123.4 971.1q1.917-1.133 4.309-.9122l.5906.0544.3261-2.416q.3096-2.294 2.552-3.841 2.166-1.431 4.913-1.178 2.776.2558 4.56 2.1 1.764 1.991 1.455 4.285l-.3096 2.294.7678.0708q2.303.2123 3.806 1.71 1.522 1.573 1.262 3.501-.0724.5368-.3254 1.082-.2530.5449-.7093 1.046-.4236.4798-.9554.8755-1.937 1.279-4.339 1.132l-.8269-.0762-1.713 12.69q-.3228 2.391-2.555 3.866-2.111 1.461-4.946 1.199-2.776-.2558-4.534-2.073-1.774-1.918-1.455-4.285l1.719-12.74-.4725-.0436q-2.54-.2341-4.166-1.916-1.391-1.438-1.147-3.243.2668-1.977 2.194-3.182z" style="stroke-opacity:.8;stroke:#0e3879;stroke-width:2.213;fill:#87aade"/><path d="m86.37 1044q-3.975.4522-7.258-1.353t-3.895-4.742l-6.456-30.99q-.4058-1.948.5363-3.804t3.02-3.043q2.072-1.218 4.668-1.513l22.67-2.579q3.488-.3969 6.484 1.226 2.762 1.496 3.299 4.074.5058 2.428-1.619 4.786-2.349 2.078-5.635 2.451l-13.02 1.481.9178 4.406 11.03-1.255q2.353-.2674 4.359.394 2.041.6271 3.436 1.941t1.745 2.992q.2811 1.748-.5675 3.256-.8548 1.478-2.593 2.504t-3.888 1.27l-10.95 1.246 1.867 8.962q.6119 2.937-1.784 5.388t-6.371 2.903z" style="stroke:#0e3779;stroke-width:2.89;fill:#f06"/><path d="m120.7 1041q-2.791-2.062-2.791-4.973v-35.96q0-1.819 1.272-3.396t3.447-2.487q2.175-.9402 4.802-.9402 2.504.0298 4.597 1.001 2.134.94 3.324 2.517 1.231 1.577 1.231 3.427v35.78q0 2.972-2.668 5.034-2.873 1.971-6.649 1.971t-6.567-1.971z" style="stroke:#0e3779;stroke-width:2.89;fill:#f06"/><path d="m162.6 1043q-9.65-.9152-14.31-5.22-4.62-4.339-4.62-12.34v-13.52q0-2.169 1.268-3.932t3.394-2.779q2.167-1.051 4.743-1.051 3.844 0 6.542 2.305 2.74 2.271 2.74 5.593v13.32q0 1.966 1.104 2.915.9404.9491 2.576 1.254 3.026 0 4.293-1.254 1.063-.8815 1.063-2.915v-13.32q0-2.136 1.268-3.932 1.268-1.83 3.394-2.881 2.167-1.085 4.743-1.085 2.617 0 4.743 1.051 2.126 1.017 3.353 2.779 1.268 1.763 1.268 3.932v13.52q0 5.356-2.004 9.05-2.004 3.661-6.215 5.796-4.212 2.102-10.71 2.712-2.494.2374-4.252.2374-1.881 0-4.375-.2374z" style="stroke:#0e3779;stroke-width:2.89;fill:#f06"/></g></svg>