<svg xmlns="http://www.w3.org/2000/svg" version="1.1" width="200px" height="100px" viewBox="0 0 200 100"><g transform="translate(0 -952.4)"><g transform="matrix(-.9914 0 0 1.17 -442.1 -180.4)"><g transform="translate(-247.5 12.12)"></g></g><g style="fill:#fff" transform="matrix(.9914 0 0 1.17 -9.828 -166.5)"><path style="fill:#fff" d="m36.68 956.2c-14.51.4351-23.35 15.26-25.29 28.23-3.327 17.96-1.822 39.65 12.97 52.34 8.307 5.863 19.58 2.032 26.49-4.23 4.979 1.8 10.62.6391 15.18-1.476 3.936 3.813 9.877 3.764 14.74 3.012 4.115 1.534 8.641-.01 12.33-1.752 5.22 3.561 12.31 3.599 17.91.9121 6.778 9.448 22.23 11.53 30.54 3.283 8.024 4.254 17.94.7199 24.07-5.142 3.927.1916 7.453-1.957 10.56-4.113.6235 7.903 7.85 15.44 16.21 13.12 7.469-.1678 16.51-5.595 15.17-14.07-.3848-4.438-5.894-6.146-5.381-10.59-.1719-2.473-2.77-5.316-2.842-6.93 7.424-.8984 14.04-7.928 11.92-15.66-1.256-5.037-5.675-9.022-10.71-10.08.4129-6.829-.3652-14.78-6.76-18.78-9.624-7.63-26.77-3.458-29.44 9.26-.8134 2.871.5140 7.486-3.711 6.996-3.046-3.161-7.808-3.704-11.98-4.094-4.523-12.03-20.26-20.95-32.02-13.24-3.971 2.609-5.647 8.102-10.8 8.824-1.686.9972-4.392 3.076-4.377-.1562-2.884-8.512-15.21-12.85-22-6.301-6.601-6.468-18.39-2.049-21.33 6.008-2.679.899-3.06-.601-3.688-2.92-3.019-6.963-9.936-12.58-17.77-12.44z"/></g><g transform="matrix(-.9914 0 0 1.17 -140.2 -139.2)"><g transform="translate(-247.5 12.12)"><path style="fill:#ffe1bd" d="m-65.15 936.5l-10.1 5.699c-1.348 2.408 1.757 5.191-.8008 7.1-.9309 2.011 2.53.8182 2.332 2.669 1.441-.2037 2.524-1 .7689.4558-.8657 1.272 1.246 1.249.9957 2.78 1.922 1.485 4.699-1.042 6.129-1.396l-.8258 3.692c2.033-.3672 4.066-.7344 6.1-1.102-.4922-2.721-.9844-5.441-1.477-8.162 1.063-.2375 1.878-.5846 1.009-1.676-1.377-3.353-2.754-6.707-4.132-10.06z"/><path style="fill:#594640" d="m-72.95 936.9c3.595-2.128 8.835-2.741 11.97.5032 2.952 4.034 2.079 9.692-.4718 13.7-3.239-.4961-1.359-5.357-4.8-5.4-2.095-.3127-.3691-4.622-2.838-5.195-2.384-1.052-5.104 2.338-6.624 1.692-.4910-2.104.9713-4.304 2.762-5.296z"/><g style="fill:#784421" transform="translate(-94.85 933.2)"><path style="fill:#784421" d="m51.4 53.5c-.7438 1.738 1.727 4.971 2.991 3.847.5352-2.807 1.173-5.6 1.643-8.416-.06-1.75-2.02-1.82-3.33-2.03l-1.3 6.6z"/><path style="fill:#784421" d="m16.1 57.5c-1.737-.7480-4.973 1.736-3.846 2.984 2.841.5059 5.67 1.101 8.519 1.55 1.77 0 1.96-1.92 2.23-3.23-2.3-.43-4.6-.87-6.9-1.3z"/></g><path style="fill:#37abc8" d="m-51.35 954.1c-2.951.1971-5.976.0703-8.861.4936-3.01.5786-6.043 1.059-9.038 1.7-1.648 1.036-2.787 2.736-4.209 4.064-.6139.8216-1.272 1.458-2.256.7355-1.613-.5648-3.225-1.13-4.838-1.694-.4329 1.234-.8659 2.467-1.299 3.701 2.663.8405 5.263 1.95 7.968 2.614 1.547-.1267 2.22-1.803 3.326-2.703.6081-.5342 1.466-1.764 1.916-1.857.2634 3.849.5268 7.697.7903 11.55h12.6c-1.023-4.803-2.047-9.607-3.07-14.41 2.09-.0632 4.18-.1263 6.27-.1895.9004 1.9 1.801 3.799 2.701 5.699 1.167-.5996 2.333-1.199 3.5-1.799-1.167-2.355-2.258-4.752-3.473-7.082-.4571-.6236-1.274-.9072-2.027-.8186z"/><path style="fill:#ffe1bd" d="m-47.75 962.4c-1.142.4626-3.251.878-2.403 2.592.9305 1.653 2.708 4.013 5.003 3.108 3.1-.7516 1.375-6.084-1.017-6.223-.5431.1234-1.06.3355-1.583.5234z"/><path style="fill:#3e4347" d="m-51.65 978.2c-1.2-1.833-2.4-3.667-3.6-5.5h-12.6l-8.5 5.8c-.8 4.033-1.6 8.067-2.4 12.1 2.267.4667 4.533.9333 6.8 1.4.6333-3.133 1.267-6.267 1.9-9.4l8.6-4.2c1.867 1.967 3.733 3.933 5.6 5.9 4.133.8 8.267 1.6 12.4 2.4l1.3-6.7c-3.167-.6-6.333-1.2-9.5-1.8z"/><path style="fill:#ffe1bd" d="m-80.75 961.5c.5101-1.076 1.69-2.85-.08134-3.425-1.848-.4512-4.736-.9439-5.719 1.325-1.614 2.688 3.29 5.221 5.053 3.581.2947-.4692.5107-.9817.7469-1.481z"/></g></g><g style="stroke:#00145e;stroke-width:2;fill:#5fa9e2" transform="matrix(.9914 0 0 1.17 1.43 -168.2)"><path style="stroke:#00145e;stroke-width:2.64;fill:#5fa9e2" d="m28.66 1012q1.901-1.751 2.474-4.61l-2.302 1.092q-1.647.7815-3.043-1.186-1.377-1.976-1.735-5.496-.2008-2.365.1156-4.466.3122-2.142 1.077-3.692.7832-1.559 1.831-2.057l7.429-3.526q4.098-1.945 5.088 7.807.2875 2.833.3294 5.952 0.12 3.888-.5027 8.382-.6938 4.953-2.147 8.993-1.439 3.991-3.572 6.743-2.115 2.742-4.865 4.048-1.572.7459-3.546 1.004-2.718.2721-5.094-1.103-2.361-1.424-4.338-4.473t-3.424-7.452q-1.687-5.222-2.287-11.13-.7885-7.77.3244-15.55 1.127-7.83 3.998-13.94 3.133-6.619 7.774-8.822.5988-.2842 1.738-.6552 2.039-.5861 4.079-.197 1.965.4246 3.788 1.765 3.747 3.099 4.285 8.401.3203 3.156-.7683 6.345-.7695 2.274-2.117 2.913-.9918.4708-2.217-.0123l-.03742.0172-1.794-1.057q-.5897-.3988-.8950-.5084-2.577-1.237-4.598-.2778-1.628.7726-2.775 2.802-1.152 1.988-1.737 5.108-.5856 3.12-.5049 6.814.0027 1.186.1136 2.279.1437 1.416.3915 2.698.7023 3.442 1.826 5.623 1.12 2.141 2.573 2.936 1.468.7451 3.134-.044 1.01-.4796 1.93-1.468z"/><path style="stroke:#00145e;stroke-width:2.4;fill:#5fa9e2" d="m46.72 1025q-3.231 0-5.905-2.784-2.654-2.784-4.193-7.556-1.539-4.809-1.558-10.49 0-5.677 1.519-10.56 1.539-4.917 4.212-7.774 2.674-2.856 5.924-2.856 2.308 0 4.289 1.41 1.981 1.374 3.558 3.941.9617 1.555 1.673 3.399.7309 1.844 1.193 3.833.4808 1.988.7117 4.122.2308 2.133.2308 4.266 0 3.579-.6540 7.014-.6347 3.435-1.923 6.327-1.289 2.856-3.097 4.809-2.712 2.892-5.982 2.892zm-3.077-20.9q0 3.073.8848 5.026.904 1.952 2.193 1.952.1154 0 .5963-.1807 2.077-.7953 2.404-5.243.07693-1.157.07693-1.627 0-2.133-.5193-3.616-.9425-2.965-2.558-2.965-1.596 0-2.558 2.965-.5193 1.591-.5193 3.688z"/><path style="stroke:#00145e;stroke-width:2.4;fill:#5fa9e2" d="m54.25 990.4q.9140-2.296 2.442-2.867l.3773-.1411-.3716-3.511q-.3529-3.333.6634-6.331.9973-2.806 2.752-3.462 1.773-.6633 3.311 1.268 1.561 2.144 1.913 5.478l.3529 3.333.4905-.1835q1.471-.5504 2.753.9977 1.312 1.647 1.608 4.449.08255.7801.05576 1.638-.02687.8578-.1895 1.73-.1475.8294-.3818 1.581-.8915 2.509-2.408 3.187l-.5282.1974 1.952 18.44q.3679 3.475-.6596 6.366-.9558 2.827-2.767 3.505-1.773.6632-3.289-1.24-1.549-2.038-1.913-5.478l-1.96-18.51-.3018.1133q-1.622.6068-3.025-1.154-1.199-1.505-1.477-4.129-.3041-2.872.5987-5.275z"/><path style="stroke:#00145e;stroke-width:2.4;fill:#5fa9e2" d="m70.4 985.3q1.281-1.557 2.82-1.096l.3799.1138.2996-3.535q.2844-3.356 1.791-5.505 1.453-1.981 3.22-1.452 1.785.5347 2.871 3.35 1.068 3.029.7832 6.385l-.2844 3.356.4939.1479q1.482.4437 2.398 2.732.9262 2.401.6871 5.221-.06662.7856-.2502 1.573-.1836.7871-.4971 1.499-.2915.6816-.6499 1.233-1.299 1.771-2.847 1.417l-.5319-.1597-1.574 18.57q-.2965 3.499-1.794 5.54-1.418 2.028-3.242 1.482-1.785-.5346-2.855-3.308-1.077-2.922-.7832-6.385l1.58-18.64-.3039-.0899q-1.634-.4892-2.624-3.056-.8463-2.194-.6224-4.836.2451-2.892 1.535-4.556z"/><path style="stroke:#00145e;stroke-width:2.4;fill:#5fa9e2" d="m88.79 986.3q1.202-.8009 1.887-.9868 2.894-.7849 5.088 2.236l.01649.2148 3.321-4.59q.4129-.6965 1.041-.8669.9328-.2530 1.663.9006 1.83 2.572 2.168 6.974l1.906 24.83q.2775 3.615-.7651 6.235-1.043 2.621-2.889 3.122l-3.851-2.828.02745.3579q-1.501 3.987-4.509 4.803-.9899.2684-2.26.1748-1.82-.1645-3.66-1.857-1.843-1.728-3.349-4.9-1.041-2.421-1.688-5.278-.6468-2.857-.9407-6.686-.2458-4.974.5559-9.466.8208-4.497 2.459-7.717 1.635-3.256 3.78-4.679zm1.909 20.56q.1923 2.505 1.118 4.19 1.008 1.736 2.283 1.39.7615-.2067 1.389-1.144.6249-.973.9120-2.548.2603-1.166.2377-2.22-.02508-.8334-.1378-2.301-.5685-3.608-2.171-4.489-.6912-.3966-1.262-.2418-1.047.2840-1.699 1.922-.6516 1.638-.6960 4.097.0088.3632.01138.6545.01927.2506.01418.6902z"/><path style="stroke:#00145e;stroke-width:2.64;fill:#5fa9e2" d="m118.2 1017q2.068-.084 3.094-2.217l-2.325-.8264q-1.664-.5913-2.619-3.47-.9365-2.872-.6590-6.336.2228-2.296 0.88-3.946.6604-1.69 1.638-2.489.9968-.7924 2.055-.4162l7.505 2.667q4.14 1.471 3.371 11.07-.2233 2.787-.7240 5.64-.5613 3.609-1.917 7.181-1.501 3.93-3.549 6.437-2.026 2.474-4.482 3.28-2.437.8125-5.216-.1745-1.588-.5645-3.465-1.887-2.57-1.896-4.537-5.012-1.945-3.148-3.252-7.462t-1.888-9.435q-.6624-6.05-.1966-11.86.6125-7.645 2.992-13.8 2.401-6.19 6.124-9.454 4.053-3.514 8.742-1.848.6049.2150 1.726.7774 1.994 1.077 3.82 3.037 1.751 1.933 3.21 4.581 2.941 5.755 2.524 10.97-.2488 3.106-1.811 5.131-1.108 1.449-2.469.9652-1.002-.3562-2.056-1.755l-.0378-.0185-1.482-2.37q-.4783-.8250-.7427-1.165-2.178-3.149-4.22-3.875-1.645-.5844-3.061.3455-1.413.8903-2.496 3.249t-1.648 5.762q-.2027 1.075-.2889 2.15-.1116 1.393-.1035 2.748.0564 3.665.7218 6.522.6686 2.818 1.88 4.682 1.234 1.831 2.916 2.429 1.021.3625 2.045.1946z"/><path style="stroke:#00145e;stroke-width:2.4;fill:#5fa9e2" d="m139.6 1030q-3.231 0-5.905-2.784-2.654-2.784-4.193-7.557-1.539-4.809-1.558-10.49 0-5.676 1.519-10.56 1.539-4.917 4.212-7.774 2.674-2.856 5.924-2.856 2.308 0 4.289 1.41 1.981 1.374 3.558 3.941.9617 1.555 1.673 3.399.7309 1.844 1.193 3.833.4808 1.988.7117 4.122.2308 2.133.2308 4.266 0 3.579-.6540 7.014-.6347 3.435-1.923 6.327-1.289 2.856-3.097 4.809-2.712 2.892-5.982 2.892zm-3.077-20.9q0 3.073.8848 5.026.904 1.952 2.193 1.952.1154 0 .5963-.1806 2.077-.7954 2.404-5.243.077-1.157.077-1.627 0-2.133-.5193-3.616-.9424-2.965-2.558-2.965-1.596 0-2.558 2.965-.5193 1.591-.5193 3.688z"/></g></g></svg>