<svg xmlns="http://www.w3.org/2000/svg" version="1.1" width="200px" height="100px" viewBox="0 0 200 100"><g transform="translate(80.08 -1010)"><g style="fill:#454749" transform="matrix(.8935 -.1949 .1649 1.449 74.46 919.6)"></g><g style="fill:#454749" transform="matrix(.9806 -.2052 .1810 1.526 -313.5 1019)"></g><path style="fill:#fff" d="m4.944 1010c-4.632-.1936-8.647 3.469-11.37 5.454-7.049-5.743-19.92-4.749-24.84 2.736-5.882-1.016-12.48.4563-17.32-3.671-8.684-4.713-22.24-5.092-28.08 3.553-5.29 6.988-3.798 16.36.2396 23.53-6.278 8.785-1.468 19.73 3.849 27.86 4.888 9.904 1.949 23.23 12.13 30.85 7.348 4.789 16.31-.3303 21.94-5.006 4.265-2.18 10.14-3.256 13.93-5.039 2.64 9.296 15.33 15.74 24.94 10.42 2.797-1.479 5.124-3.628 6.865-6.085.8143 8.388 8.762 16.48 18.69 15.26 6.524-.3546 12.54-4.771 13.99-10.5 5.519 1.569 11.7.6479 16.61-1.996 10.67 6.136 27.61 5.96 34.86-4.573 4.166-5.421 5.413-12.26 7.693-18.25 9.738.1381 21.61-6.154 20.73-15.99-.7303-2.144-1.722-4.349-.0728-6.274 2.122-13.29-12.64-24.85-26.79-23.95-4.66-4.085-5.037-11.13-11.57-13.56-4.794-2.511-10.93-1.512-15.32.5494-3.65-1.719-7.88-.3178-11.42.1474-4.027-1.357-8.663-.1941-12.52-.4645-5.873-6.899-19.03-5.862-24.09.5126-3.093-3.47-8.06-5.768-13.06-5.505z"/><path style="fill:#a00" d="m-37.32 1027c7.395-1.397 8.918 2.547 3.066 14.29-2.034 3.975.1217 8.568 1.942 11.3 1.804 2.609 4.782 5.123 1.002 11.09-2.189 3.491-2.069 7.187 1.94 14.76 4.009 7.578-6.803 5.902-14.99 11.04-10.81 6.659-13.06 11.83-17.46-11.96-2.693-14.24-3.484-8.446-8.092-19.88-2.442-6.078-1.081-10.31 2.883-13.5 3.301-2.675-8.981-9.972-3.4-19.62 7.067-12.23 21.61 4.637 33.1 2.466"/><path style="fill:#fff" d="m-35.43 1045a4.931 3.615 86.27 0 1 -2.923 5.553 4.931 3.615 86.27 0 1 -4.205 -4.206 4.931 3.615 86.27 0 1 2.923 -5.553 4.931 3.615 86.27 0 1 4.205 4.206z"/><path style="fill:#454749" d="m-38.64 1046a2.023 1.536 86.91 0 1 -1.252 2.288 2.023 1.536 86.91 0 1 -1.778 -1.716 2.023 1.536 86.91 0 1 1.252 -2.288 2.023 1.536 86.91 0 1 1.778 1.716z"/><path style="fill:#fff" d="m-50.3 1045a7.838 5.693 86.12 0 1 -4.594 8.818 7.838 5.693 86.12 0 1 -6.633 -6.697 7.838 5.693 86.12 0 1 4.594 -8.818 7.838 5.693 86.12 0 1 6.633 6.697z"/><g style="fill:#454749" transform="matrix(.8910 -.1683 .1644 1.251 -80.86 1019)"><path d="m23.6 23a2.6 2.6 0 0 1 -2.6 2.6 2.6 2.6 0 0 1 -2.6 -2.6 2.6 2.6 0 0 1 2.6 -2.6 2.6 2.6 0 0 1 2.6 2.6z"/><g style="stroke-linejoin:round;stroke:#454749;stroke-width:3;stroke-miterlimit:10;stroke-linecap:round" stroke-miterlimit="10"><path d="m15.7 14.7.1-.1.1-.1.3-.1c.2-.1.4-.1.6-.2.4-.1.7-.2 1.1-.2.8-.1 1.5-.1 2.3-.1 1.5.1 3.1.5 4.5 1.2s2.7 1.6 3.7 2.7c.5.6 1 1.2 1.4 1.8.2.3.4.6.5 1 .1.2.2.3.2.5l.1.3v.1.1l-.1.1c-.5-.5-.9-1.1-1.4-1.5-.5-.5-1-1-1.6-1.4-1.1-.9-2.3-1.6-3.6-2.3-1.3-.6-2.6-1.1-4-1.4-.7-.2-1.4-.3-2.1-.3-.7-.1-1.4-.1-2.1-.1z"/><path d="m47.4 19.6-.2-.1-.2-.1c-.1 0-.2-.1-.4-.1-.2-.1-.5-.1-.7-.2-.5-.1-1-.1-1.5 0-1 .1-2 .4-2.9 1-.9.5-1.8 1.3-2.4 2.1-.3.4-.6.9-.9 1.4-.1.3-.2.5-.4.8-.1.1-.1.3-.1.4l-.1.2v.1.1l.1.1c.3-.4.6-.8 1-1.2.3-.4.7-.8 1-1.1.7-.7 1.5-1.3 2.4-1.8.8-.5 1.7-.9 2.6-1.1.5-.1.9-.2 1.4-.3s.9-.1 1.4-.1v-.1z"/><path d="m46.3 34.4-.1.2-.1.2c0 .1-.1.2-.2.3-.1.2-.2.4-.4.5-.3.3-.6.7-.9.9-.7.6-1.5 1-2.4 1.3s-1.8.4-2.7.3c-.5 0-.9-.1-1.4-.2-.2-.1-.4-.1-.7-.2-.1 0-.2-.1-.3-.1l-.2-.1h-.1-.1v-.1c.4.1.9.1 1.3.1h1.3c.8-.1 1.7-.2 2.5-.4s1.6-.6 2.3-1c.4-.2.7-.4 1-.7.5-.6.8-.8 1.2-1z"/><path d="m11 28.4.1.2.1.2.2.4c.1.2.3.5.4.7.3.4.6.9 1 1.3.7.8 1.5 1.6 2.3 2.3 1.7 1.4 3.6 2.6 5.6 3.4s4.1 1.3 6.1 1.4c1 0 2 0 2.9-.1.5-.1.9-.2 1.4-.3.2-.1.5-.1.7-.2l.3-.1.2-.1.2-.1v-.2c-.9 0-1.9 0-2.8-.1s-1.9-.2-2.8-.4c-1.9-.4-3.8-.9-5.6-1.7-1.8-.7-3.6-1.7-5.3-2.8l-2.4-1.8c-.8-.6-1.5-1.3-2.3-2h-.3z"/></g></g><path style="stroke-linejoin:round;stroke:#454749;stroke-linecap:round;stroke-miterlimit:10;stroke-width:3.207;fill:#454749" stroke-miterlimit="10" d="m-33.97 1071c-.3453-2.628-2.463-4.151-9.172-3.781-6.708.3695-11.67 5.667-10.85 11.92 1.388 9.867 6.343-1.07 11.56-3.081 5.789-2.504 8.795-2.559 8.466-5.061z"/><g style="fill:#fff" transform="matrix(.8910 -.1683 .1644 1.251 -80.27 1021)"><path style="fill:#fff" d="m20.4 49.2c0 3.6 1.5 3.9 3.7 3.2l-1.2-8.1c-1.6 1.3-2.5 3-2.5 4.9"/><path style="fill:#fff" d="m23.6 43.8 1.2 8.4c.9-.4 2-1 3.1-1.5l-1.2-8.4c-1.2.3-2.2.8-3.1 1.5"/><path style="fill:#fff" d="m27.4 42 1.2 8.2c1-.5 2.1-1 3.1-1.3l-1.1-7.4c-1.1.1-2.2.3-3.2.5"/><path style="fill:#fff" d="m34 41.5c-.9-.1-1.7-.1-2.6-.1l1.1 7.3c.4-.1.7-.2 1.1-.2.8-.1 1.5-.2 2.2-.3l-1-6.6c-.3 0-.6 0-.8-.1"/><path style="fill:#fff" d="m35.5 41.7.9 6.4c1.3-.1 2.3-.2 3.3-.3l-.8-5.5c-.9-.2-2.1-.4-3.4-.6"/><path style="fill:#fff" d="m43.5 45.9c0-1.4-1-2.5-3.8-3.4l.7 5.2c2.1-.3 3.1-.7 3.1-1.8"/></g><path style="stroke:#784421;stroke-width:2.158;fill:#fcd607" d="m-6.506 1095q-3.551.8922-6.62-1.376-3.039-2.321-3.821-6.545l-5.623-30.36q-.5134-2.772.1961-5.345.7391-2.626 2.459-4.44 1.749-1.867 4.129-2.465 2.35-.5445 4.567.3259t3.774 2.874q1.595 1.994 2.116 4.81l5.59 30.18q.7904 4.268-1.195 7.852t-5.574 4.485zm-16.73-54.04q-3.215-2.416-4.062-6.991-.8067-4.356 1.302-8.339 1.045-1.828 2.523-3.028t3.253-1.646q3.74-.9396 7.025 1.642 3.193 2.513 4.008 6.913.8393 4.532-1.205 8.223t-5.859 4.649q-3.815.9587-6.984-1.422z"/><path d="m110.2 1051q0 2.598-1.238 3.664t-4.117 1.066h-15.35q.1152.1559 1.065 1.013.8349.5716 1.583.8575.7774.2598 2.073.4417 1.296.1559 3.138.1559 1.785-.078 4.52-.7535 2.102-.4678 2.965-.4678 2.332 0 3.714 1.221 1.411 1.221 1.411 3.014 0 .6496-.1152 1.013-.3167.9874-1.008 1.767-.6622.7795-1.785 1.403-1.094.5976-3.109 1.247-2.476.6757-5.067.9615-1.814.2079-3.887.2079-4.29 0-7.889-1.117-3.57-1.143-6.132-3.222t-3.887-4.885q-1.324-2.806-1.324-6.133.08632-2.936 1.44-5.613 1.382-2.702 3.685-4.625 2.332-1.949 5.528-3.066t6.91-1.117q4.923.078 8.781 2.053 2.361 1.247 4.146 3.092 1.814 1.819 2.821 3.872 1.036 2.027 1.123 3.95zm-20.59-1.065h7.025q0-.3118-.05752-.5197-.4319-2.573-4.002-2.573-2.102.4677-2.85 2.625-.1152.3118-.1152.4677z" style="stroke:#a00;stroke-width:2.158;fill:#fbf2b6"/><path d="m64.25 1033q1.492-1.437 3.54-1.437h.5057v-2.683q0-2.548 1.719-4.472 1.669-1.789 4.02-1.789 2.377 0 4.096 1.843 1.719 2.006 1.719 4.554v2.548h.6574q1.972 0 3.413 1.491 1.467 1.572 1.467 3.713 0 .5963-.1517 1.22-.1517.6234-.4804 1.22-.3034.5693-.7080 1.057-1.492 1.599-3.54 1.68h-.7080v14.09q0 2.656-1.719 4.499-1.618 1.816-4.046 1.816-2.377 0-4.071-1.816-1.719-1.924-1.719-4.554v-14.15h-.4046q-2.175 0-3.742-1.68-1.34-1.437-1.34-3.442 0-2.196 1.492-3.713z" style="stroke:#a00;stroke-width:2.158;fill:#fbf2b6"/><path d="m45.05 1024q1.663-.302 2.584-.302 3.888 0 6.472 2.3v.1394l4.835-2.346q.6140-.3717 1.458-.3717 1.254 0 2.098.8596 2.149 1.952 2.149 4.809v16.12q0 2.346-1.637 3.833t-4.119 1.487l-4.784-2.462v.2322q-2.379 2.277-6.421 2.277-1.33 0-2.993-.2787-2.379-.4183-4.63-1.812-2.251-1.417-3.914-3.694-1.126-1.719-1.688-3.648-.5628-1.928-.5628-4.414.1791-3.206 1.688-5.924 1.535-2.718 4.016-4.484 2.481-1.789 5.449-2.323zm.4349 13.41q0 1.626 1.049 2.858 1.151 1.278 2.865 1.278 1.023 0 1.944-.4879.9210-.5111 1.458-1.464.4605-.6969.5372-1.371.05116-.5344.05116-1.487-.3837-2.393-2.405-3.229-.8698-.3718-1.637-.3718-1.407 0-2.43.9293-1.023.9294-1.33 2.486-.02562.2323-.05116.4182 0 .1626-.05116.4414z" style="stroke:#a00;stroke-width:2.158;fill:#fbf2b6"/><path d="m.9059 1056q-1.816-1.74-1.816-4.227v-26.03q0-2.486 1.79-4.202 1.816-1.74 4.385-1.74 2.517 0 4.359 1.765.5968.5719.9860 1.243.3892.6465.5968 1.442.2335.7957.2335 1.542v7.434h12.04v-7.434q0-1.169.4671-2.288.4930-1.119 1.349-1.939 1.842-1.765 4.359-1.765 1.194 0 2.361.4476 1.168.4226 1.998 1.268.5968.5719.9860 1.243.3892.6465.5968 1.442.2335.7957.2335 1.542v26.03q0 1.169-.4930 2.288-.4671 1.119-1.323 1.939-1.79 1.716-4.307 1.716-1.22 0-2.283-.4227-1.064-.3978-2.076-1.293-1.816-1.666-1.816-4.227v-8.255h-12.17v8.255q0 2.586-1.79 4.227-.8822.8702-2.024 1.293-1.116.4227-2.283.4227-2.569 0-4.359-1.716z" style="stroke:#a00;stroke-width:2.158;fill:#fbf2b6"/><path d="m62.07 1092q-6.297-2.633-8.291-6.758-1.957-4.141.2114-10.05l3.667-9.987q.5881-1.602 1.926-2.646t3.055-1.364q1.755-.3364 3.502.1862 2.607.7796 3.812 3.029 1.242 2.233.3417 4.686l-3.612 9.837q-.5330 1.452-.04153 2.376.3805.8917 1.407 1.449 2.052.6138 3.252-.055 0.96-.435 1.511-1.937l3.612-9.837q.5789-1.577 1.926-2.646 1.356-1.094 3.083-1.439 1.764-.3614 3.511.1611 1.775.5309 2.932 1.738 1.166 1.182 1.52 2.733.3818 1.559-.2063 3.16l-3.667 9.987q-1.452 3.955-3.812 6.276-2.351 2.297-5.787 3.019-3.426.6975-8.001-.1707-1.756-.3308-2.948-.6874-1.276-.3816-2.903-1.063z" style="stroke:#784421;stroke-width:2.158;fill:#fcd607"/><path d="m43.41 1093q-3.724-.5309-6.417-3.189-2.671-2.655-3.778-6.711-1.103-4.085-.3329-8.613.7918-4.524 3.224-8.164 2.459-3.666 5.939-5.503t7.226-1.303q2.66.3792 4.746 1.829 2.091 1.42 3.551 3.726.8914 1.397 1.454 2.984.5851 1.59.8397 3.25.2768 1.664.2452 3.402-.03162 1.738-.3291 3.438-.4993 2.853-1.732 5.483-1.211 2.633-3.099 4.727-1.884 2.065-4.24 3.324-3.529 1.86-7.297 1.322zm-.6315-17.16q-.4287 2.449.3186 4.151.7695 1.705 2.255 1.916.1330.019.7124-.046 2.505-.2926 3.502-3.783.2501-.9094.3156-1.284.2976-1.7-.09415-2.967-.6726-2.518-2.535-2.783-1.84-.2624-3.362 1.942-.8204 1.183-1.113 2.854z" style="stroke:#784421;stroke-width:2.158;fill:#fcd607"/><path d="m-2.426 1067q1.739-1.783 3.808-2.204 3.328-.6767 7.025 1.823l8.951 6.225 4.992-9.06q2.03-3.665 5.389-4.347 2.069-.4206 4.528.5091 1.307.5192 2.411 1.584 1.406 1.368 1.857 3.07.5501 2.075-.4853 3.771l-8.705 13.77 3.35 12.63q.6983 2.633-.8399 4.936-1.494 2.35-4.523 2.966-2.939.5975-5.612-.9053-2.482-1.374-3.208-4.113l-3.35-12.63-14.74-9q-1.783-1.123-2.333-3.198-.4443-1.676.092-3.467.5081-1.421 1.397-2.358z" style="stroke:#784421;stroke-width:2.158;fill:#fcd607"/></g></svg>