<svg xmlns="http://www.w3.org/2000/svg" version="1.1" width="200px" height="100px" viewBox="0 0 200 100"><g transform="translate(80.08 -1010)"><g style="fill:#454749" transform="matrix(.8935 -.1949 .1649 1.449 298.6 940.4)"></g><g style="fill:#454749" transform="matrix(.9806 -.2052 .1810 1.526 -89.28 1040)"></g><path style="fill:#fff" d="m71.48 1010c-15.19.1097-30.31 5.59-41.34 15.23-19.61-6.064-43.55-4.631-59.47 8.494-.7971-12.62-14.81-21.99-28.12-20.05-13.4.9298-26.22 13.38-21.71 26.09 1.07 4.188 5.461 7.136 7.258 10.51-3.109 11.95 5.86 22.66 6.766 34.31 3.3 12.44 17.74 21.63 31.51 18.01 7.331-1.402 13.82-6.393 17.29-12.06 3.335 4.143 2.936 10.43 8.161 13.58 10.7 9.164 31.15 7.721 38.05-4.878 9.398 3.378 19.53-.4748 29.06 1.471 5.455-1.15 10.6-.1008 15.92 1.031 14.38 2.227 31.3-1.949 38.6-14.46 6.308-7.252 10.08-19.43 1.399-26.44-2.031-1.066-3.943-1.715-1.712-3.816 6.711-11.56 5.188-27.78-6.823-35.91-9.48-7.678-22.32-11.25-34.82-11.1z"/><path style="stroke:#dbdbdb;stroke-width:5.911;fill:#f06" d="m98.71 1031c-25.03-19.84-65.29-1.607-63.86 10.33-11.54-10.82-60.06-11.6-62.68 12.7-2.907 27.08 81 35.63 87.99 38.24 3.78-3.846 65.46-40.05 38.56-61.28"/><path style="stroke:#006a84;stroke-width:2.551;fill:#aef" d="m-37.34 1094q-5.395.8205-10.06-1.266-4.617-2.135-5.806-6.02l-8.542-27.92q-0.78-2.55.2980-4.916 1.123-2.416 3.736-4.084 2.658-1.717 6.274-2.267 3.571-.5009 6.939.2998 3.368.8004 5.734 2.643 2.423 1.834 3.215 4.424l8.493 27.76q1.201 3.926-1.815 7.222t-8.468 4.126zm-25.42-49.71q-4.884-2.222-6.172-6.43-1.226-4.006 1.978-7.67 1.588-1.682 3.833-2.785 2.245-1.104 4.942-1.514 5.682-.8642 10.67 1.51 4.851 2.311 6.089 6.358 1.275 4.168-1.831 7.563t-8.902 4.276q-5.796.8817-10.61-1.308z"/><path d="m66.85 1091q-9.566-2.422-12.6-6.215-2.974-3.809.3211-9.242l5.571-9.186q.8936-1.473 2.926-2.434 2.032-.9605 4.642-1.254 2.666-.3095 5.32.1713 3.96.717 5.792 2.786 1.887 2.054.5192 4.31l-5.487 9.047q-.8098 1.335-.063 2.186.5781.8203 2.138 1.332 3.118.5645 4.94-.05 1.458-.4001 2.296-1.782l5.487-9.047q.8796-1.45 2.926-2.434 2.06-1.007 4.684-1.324 2.68-.3324 5.334.1482 2.696.4884 4.455 1.599 1.772 1.087 2.31 2.513.5801 1.434-.3135 2.907l-5.571 9.186q-2.206 3.637-5.792 5.773-3.572 2.112-8.792 2.777-5.205.6415-12.16-.157-2.668-.3044-4.479-.6323-1.938-.351-4.41-.9775z" style="stroke:#08a;stroke-width:2.551;fill:#fca"/><path d="m38.49 1092q-5.658-.4884-9.749-2.933-4.057-2.442-5.74-6.173-1.675-3.758-.5057-7.922 1.203-4.161 4.898-7.51 3.736-3.372 9.023-5.062 5.286-1.69 10.98-1.199 4.041.349 7.211 1.682 3.178 1.306 5.395 3.427 1.354 1.285 2.21 2.744.8889 1.462 1.276 2.99.4205 1.53.3725 3.129-.0481 1.598-0.5 3.162-.7586 2.624-2.632 5.043-1.839 2.422-4.709 4.348-2.862 1.899-6.441 3.057-5.361 1.71-11.09 1.216zm-.9594-15.78q-.6513 2.253.4840 3.818 1.169 1.568 3.425 1.763.2020.018 1.082-.042 3.806-.2691 5.321-3.48.3799-.8364.4795-1.181.4521-1.564-.1431-2.729-1.022-2.316-3.851-2.56-2.795-.2415-5.107 1.786-1.246 1.088-1.691 2.625z" style="stroke:#08a;stroke-width:2.551;fill:#fca"/><path d="m-31.14 1068q2.642-1.64 5.786-2.027 5.057-.6224 10.67 1.677l13.6 5.726 7.585-8.333q3.085-3.371 8.187-3.998 3.143-.3868 6.879.4684 1.986.4773 3.663 1.457 2.136 1.258 2.821 2.824.8358 1.908-.7373 3.468l-13.23 12.66 5.09 11.62q1.061 2.422-1.276 4.54-2.27 2.162-6.871 2.728-4.464.5497-8.527-.8326-3.77-1.263-4.874-3.783l-5.09-11.62-22.4-8.278q-2.709-1.033-3.545-2.941-.6751-1.541.1398-3.188.7719-1.307 2.123-2.169z" style="stroke:#08a;stroke-width:2.551;fill:#fca"/></g></svg>