<svg xmlns="http://www.w3.org/2000/svg" version="1.1" width="200px" height="100px" viewBox="0 0 200 100"><g transform="translate(0 -952.4)"><g style="fill:#fff" transform="matrix(.8260 0 0 1.01 137.8 36.21)"><path style="fill:#fff" d="m19.67 907.5c-8.449 1.782-13.79 10.18-14.75 18.26-7.579-2.061-16.04-.5448-22.44 4.012-5.701-6.932-17.58-7.621-23.65-1.027-8.017-5.298-20.04-.9916-23.51 7.805-1.555-8.164-7.64-17.19-16.97-16.38-7.49.2040-14.81 5.739-16.18 13.25-3.994-2.073-9.409.6161-12.22-3.51-8.237-6.416-20.75-4.449-28.12 2.307-10.97-1.331-22.22 8.375-21.7 19.58-9.651 6.56-9.003 22.53.1445 29.25-.5403 11.44 11.4 20.82 22.4 19.16 7.389 8.836 22.37 8.094 29.96-.098 7.113 1.239 14.47-2.779 18.6-8.035 6.048 7.759 17.32 7.327 25.57 3.791 5.347-1.368 11.31-2.367 15.32-6.527 9.745 3.365 20.74-.372 28.3-6.461 7.42 6.605 18.59 8.62 27.78 5.279 5.146 4.928 13.32 4.392 19.28 2.004 3.928 3.663 9.788 4.083 14.6 4.305 8.217 8.468 24.65 4.57 27.59-7.066 2.11-5.541 1.461-11.8-.4180-17.25 5.782-9.947 3.605-22.05 6.004-32.85.1075-10.73-10.44-22.07-21.58-18.24-5.242 1.52-8.565 6.52-10.88 10.97-2.469-.6110-4.804-.6971-4.107-3.836-.3996-9.432-7.814-19.5-17.99-18.64-.3460-.0429-.7002-.0867-1.049-.0488z"/></g><g style="fill:#ff2a7f" transform="matrix(1.087 0 0 1.17 1.607 978.1)"><path style="fill:#ff2a7f" d="m50.3 19.6c-4.9 4.9-15 8.4-16.7 6.8-1.6-1.6 1.8-11.8 6.8-16.7 6.9-6.9 16.8 3 9.9 9.9"/><path style="fill:#ff2a7f" d="m13.7 36.4c4.9-4.9 15-8.4 16.7-6.8 1.6 1.6-1.9 11.7-6.8 16.7-6.9 6.9-16.8-3-9.9-9.9"/><path style="fill:#ff2a7f" d="m40.4 46.3c-4.9-4.9-8.4-15-6.8-16.7 1.6-1.6 11.8 1.8 16.7 6.8 6.9 6.9-3 16.8-9.9 9.9"/><path style="fill:#ff2a7f" d="m23.6 9.7c4.9 4.9 8.4 15 6.8 16.7-1.6 1.6-11.8-1.9-16.7-6.8-6.9-6.9 3-16.8 9.9-9.9"/></g><g style="fill:#ff80b2" transform="matrix(1.087 0 0 1.17 1.607 978.1)"><path style="fill:#ff80b2" d="m50.9 35c-7 0-16.6-4.7-16.6-7s9.6-7 16.6-7c9.8 0 9.8 14 0 14"/><path style="fill:#ff80b2" d="m13.1 21c7 0 16.6 4.7 16.6 7s-9.6 7-16.6 7c-9.8 0-9.8-14 0-14"/><path style="fill:#ff80b2" d="m25 46.9c0-7 4.7-16.6 7-16.6s7 9.6 7 16.6c0 9.8-14 9.8-14 0"/><path style="fill:#ff80b2" d="m39 9.1c0 7-4.7 16.6-7 16.6s-7-9.6-7-16.6c0-9.8 14-9.8 14 0"/></g><ellipse style="fill:#c51259" rx="6.498" ry="6.995" cy="1011" cx="36.33"/><g style="stroke:#2d977c;stroke-width:1px;fill:#dbe3e2" transform="matrix(.8260 0 0 1.01 27.32 -9.252)"><path style="stroke:#2d977c;stroke-width:3;fill:#dbe3e2" d="m59 1033q-3.054.7533-5.481-1.529-2.432-2.321-3.03-6.694l-5.333-39.01q-.2487-1.819.0319-3.688.3094-1.877 1.086-3.388 1.623-3.161 4.476-3.864 1.383-.3411 2.717.05 1.358.3453 2.431 1.441 2.456 2.275 2.985 6.145l4.508 32.97 9.97-2.459q1.614-.398 3.058.366 1.468.718 2.477 2.43 1.037 1.705 1.334 3.872.4209 3.297-.9670 6-1.359 2.696-3.722 3.278l-16.54 4.079z"/><path style="stroke:#2d977c;stroke-width:3;fill:#dbe3e2" d="m93.11 1025q-6.957-.2524-10.61-4.842-3.624-4.632-4.224-13.88l-1.015-15.64q-.1627-2.509.6098-4.653.7726-2.144 2.214-3.498 1.468-1.396 3.307-1.611 2.744-.3210 4.843 2.119 2.126 2.398 2.375 6.239l.9993 15.41q.1475 2.274 1.007 3.279.7425 1.019 1.933 1.235 2.16-.2528 2.97-1.809.6927-1.108.5402-3.46l-.9993-15.41q-.1602-2.47.6098-4.653.7675-2.223 2.206-3.615 1.465-1.435 3.304-1.651 1.868-.2186 3.464.8190 1.594.9984 2.602 2.934 1.037 1.933 1.2 4.441l1.015 15.64q.4018 6.194-.7512 10.63-1.156 4.401-4.001 7.222-2.849 2.782-7.443 4.031-1.763.4827-3.018.6295-1.343.1571-3.141.091z"/><path style="stroke:#2d977c;stroke-width:3;fill:#dbe3e2" d="m116.4 1014q-3.204-6.411-3.018-13.53.1236-3.617 1.303-7.262 1.181-3.685 3.133-6.585 1.429-1.98 2.662-3.143 2.404-2.249 5.215-3.259 2.812-1.049 6.238-.8878 1.874.0881 2.836.2909 9.978 1.847 9.726 11.48-.4272 2.893-2.084 4.587-1.656 1.694-4.028 1.582-.4392-.02-1.021-.2055l-.2907-.093-1.539-.545-.7844-.2731-1.25-.4131q-.5229-.1821-1.606-.233-2.342-.1102-3.794 1.593-1.45 1.664-1.527 4.614.0417 1.774.5662 3.019.5255 1.206 1.615 2.163 1.177.961 2.641 1.03.7905.038 1.909-.1469l.1757.013 2.126-.5693q.8563-.2355 2.294-.2856 2.928.1378 4.535 2.576 1.637 2.439 1.529 6.568-.3312 2.583-1.787 4.444-1.455 1.821-4.264 2.752-2.809.9311-6.879.7397-4.887-.3483-8.603-2.846-3.686-2.536-6.028-7.174z"/><path style="stroke:#2d977c;stroke-width:3;fill:#dbe3e2" d="m147.4 1023q-1.814-2.896-1.572-6.659l2.992-46.57q.2317-3.607 2.327-6.01 2.127-2.439 4.841-2.125 1.78.2064 3.22 1.598 1.471 1.355 2.214 3.535.7739 2.143.6203 4.535l-1.441 22.42 5.26-7.724q.8788-1.32 2.321-2.259 1.618-.9184 3.34-.7188 1.051.1218 2.13.7208 1.927 1.132 2.924 3.459 1.029 2.292.8502 5.075-.1336 2.078-.8890 3.768-.8773 1.755-2.026 3.162l-3.5 4.136 6.063 11.37q1.17 2.387.9836 5.288-.1360 2.117-.9574 3.918-.6629 1.622-1.853 2.748-1.158 1.09-2.533 1.444-.8082.2224-1.859.1007-1.605-.1863-3.002-1.335-1.396-1.149-2.185-3.058l-6.065-14.53-.5566 8.664q-.1158 1.803-.7496 3.428-.6020 1.589-1.648 2.771-2.093 2.364-4.749 2.056-2.773-.3214-4.499-3.207z"/><path style="stroke:#2d977c;stroke-width:3;fill:#dbe3e2" d="m186.1 1033q-1.999-.4053-3.501-2.063-1.478-1.613-2.189-3.986-.7067-2.412-.4584-5.147.2930-2.607 1.503-4.67 1.214-2.102 2.985-3.096 1.8-.988 3.799-.5828 3.071.6228 4.841 3.847.8942 1.534 1.239 3.475.3448 1.94.1262 3.886-.4636 4.124-2.931 6.569-2.401 2.378-5.413 1.767zm2.384-21.2q-1.854-.3759-3.254-1.893-1.366-1.551-2.033-3.795-.6373-2.238-.3574-4.728l2.41-21.44q.4199-3.735 2.687-5.981 2.201-2.18 4.924-1.628 2.694.5463 4.367 3.592.7624 1.388 1.067 3.161.3334 1.779.1278 3.607l-2.41 21.44q-.2755 2.451-1.376 4.337-1.096 1.847-2.709 2.754-1.613.9068-3.442.5754z"/></g></g></svg>