<svg xmlns="http://www.w3.org/2000/svg" version="1.1" width="200px" height="100px" viewBox="0 0 200 100"><g transform="translate(0 -952.4)"><path style="fill:#fff" d="m130.3 952.4c-11.54-.1094-21.35 7.391-24.26 15.93-15.62-4.51-33.85-1.3-47.21 5.316-4.719-13.05-27.28-19.04-40.6-10.22-13.53 8.407-10.47 23.5-13.5 35.36-1.681 11.37-6.387 22.93-4.089 34.41 2.894 9.901 15.39 15.87 27.63 16.12 10.18.2759 20.01 2.828 30.13 3.074 6.366.076 12.54-2.271 17.72-4.498 17.38 4.164 36.85-1.155 49.62-10.33 10.98 6.733 25.49 3.876 37.73 1.646 12.84-.8264 29.16-2.799 34.8-13.49 6.673-12.22-6.643-28.56-23.94-26.76-3.8-.065-7.342 1.163-11.09 1.351-3.551-13.63-2.539-29.33-12.96-41.31-5.09-4.309-12.55-6.81-19.99-6.596z"/><path d="m144 1032q-6.232.8364-11.12-1.968-4.899-2.851-6.021-8.132l-10.01-47.11q-.4666-2.197.1451-4.442.6705-2.253 2.283-4.056 3.372-3.769 9.193-4.55 2.822-.3788 5.529.1232 2.756.4474 4.916 1.792 4.948 2.797 5.941 7.47l8.457 39.82 20.34-2.73q3.292-.4423 6.216.5118 2.973.8988 4.988 2.983 2.074 2.077 2.63 4.694.7848 3.98-2.098 7.203-2.825 3.215-7.646 3.862l-33.75 4.529z" style="stroke:#4d4d4d;stroke-width:3.167;fill:#ff2a7f"/><path d="m88.61 1040c-7.327 0-14.02-1.417-20.08-4.252-6.019-2.834-10.77-6.681-14.26-11.54-3.489-4.896-5.255-10.23-5.299-16.01 0-5.779 1.723-11.15 5.168-16.12 3.489-5.007 8.265-8.964 14.33-11.87 6.062-2.908 12.78-4.362 20.15-4.362 5.234 0 10.1.7178 14.59 2.154 4.492 1.399 8.526 3.405 12.1 6.019 2.181 1.583 4.078 3.313 5.691 5.19 1.657 1.877 3.009 3.828 4.056 5.853 1.09 2.025 1.897 4.123 2.421 6.295.5234 2.172.7850 4.344.7850 6.516 0 3.644-.7414 7.215-2.224 10.71-1.439 3.497-3.62 6.718-6.542 9.663-2.922 2.908-6.433 5.356-10.53 7.344-6.149 2.945-12.93 4.417-20.35 4.417z" style="fill:#fc0"/><path style="fill:#fff" d="m82.67 1004c-5.634 2.597-12.92 1.058-16.18-3.42-3.267-4.478-1.332-10.27 4.302-12.86 5.634-2.597 12.92-1.058 16.18 3.419 3.327 4.559 1.332 10.27-4.302 12.86"/><path style="fill:#fff" d="m113.6 1e3c5.123 3.196 6.024 9.143 2.003 13.21-4.021 4.072-11.5 4.788-16.63 1.592-5.123-3.196-6.024-9.143-2.003-13.21 4.094-4.146 11.5-4.788 16.63-1.592"/><g style="fill:#4d4d4d" transform="matrix(1.184 0 0 .9412 -19.48 60.67)"><path style="fill:#4d4d4d" d="m100 1023c-2.927-1.523-8.605-4.478-14.1-7.34-5.5-2.862-11.18-5.816-14.1-7.34-.6210-.3231-1.207-.064-1.437.3793-3.37 6.476-1.602 16.08 8.156 21.15 9.758 5.078 18.63 1.017 22-5.459.2308-.4435.1068-1.072-.5142-1.395"/><circle style="fill:#4d4d4d" transform="matrix(.5017 .8650 -.8650 .5017 0 0)" cy="430" cx="898.8" r="4.5"/><circle style="fill:#4d4d4d" transform="matrix(.6174 -.7866 .7866 .6174 0 0)" cy="706.6" cx="-727.3" r="4.5"/><path style="fill:#4d4d4d" d="m94.89 989.6c1.249-4.343.4420-7.688-1.674-9.521s-5.542-2.155-9.663-.3006c-.4131.1714-.1811 1.431.4587 1.456 2.343.045 4.398 1.032 6.061 2.473s2.933 3.335 3.311 5.647c.116.6297 1.396.6799 1.506.2466"/><path style="fill:#4d4d4d" d="m116.3 995.7c-1.125-4.377-3.516-6.851-6.269-7.359-2.754-.5079-5.87.9510-8.482 4.638-.2692.3571.5691 1.325 1.133 1.023 2.042-1.149 4.315-1.34 6.478-.9405 2.164.3991 4.218 1.388 5.716 3.19.4192.4840 1.548-.1213 1.424-.5509"/></g><path d="m23.64 1039q-6.23-.6932-9.811-4.521-3.573-3.875-2.643-9.154l8.292-47.09q.3866-2.196 1.815-4.18 1.487-1.978 3.698-3.304 4.623-2.772 10.44-2.125 2.821.3138 5.201 1.436 2.446 1.082 3.989 2.873 3.64 3.834 2.817 8.506l-7.008 39.8 20.34 2.262q3.291.366 5.706 1.969 2.482 1.562 3.607 4.021 1.184 2.466.7232 5.082-.7580 3.964-4.711 6.335-3.894 2.377-8.714 1.841l-33.74-3.753z" style="stroke:#4d4d4d;stroke-width:3.167;fill:#5f8dd3"/></g></svg>