<svg xmlns="http://www.w3.org/2000/svg" version="1.1" width="200px" height="100px" viewBox="0 0 200 100"><g transform="translate(80.08 -1010)"><g style="stroke:#1a1772;stroke-width:1.967;fill:#fff" transform="matrix(.9998 0 0 .9195 51.24 961)"><path style="fill:#fff;stroke-width:0" d="m-86.15 53.45c-3.687-.2919-6.134 3.851-7.932 5.311-5.313-3.319-13.65-.2418-13.8 6.527-6.028-1.393-13.06 4.264-11.58 10.64-5.868 1.225-9.974 8.171-6.633 13.46-6.232 2.827-7.448 12.75-.7109 15.77-3.556 4.23-1.906 11.4 2.846 13.75-1.345 9.993.7656 19.99.1035 29.96 1.496 10.39 15.41 17.7 23.8 10.23 1.495-3.208 3.892-.0653 6.271-.6856 4.177.1645 7.958-2.527 11.08-4.426 5.279 1.417 10.6-1.226 14.92-3.641 6.424 1.212 12.43-2.849 18.18-4.031 4.669 1.908 9.627-1.115 14.04-1.029 4.574 2.111 9.936.6329 14.17-.8223 5.669 2.689 11.95-.0423 17.88 1.043 4.928-1.697 9.156 2.439 14.04.8652 4.544-2.036 9.095 1.898 10.39 6.027 8.661 11.99 30.02 13.89 38.22.4062 5.19-8.893 8.54-19.12 9.564-29.31-.1746-7.319-7.666-13.16-13.55-13.87 4.326-6.525 5.294-14.6 9.174-21.37 3.316-8.121-.05815-19.88-9.684-21.29-5.75-1.2-11.65 1.24-15.68 5-3.42.14-7.2 1.82-9.55-1.63-6.59-4.28-14.93-3.18-22.11-2.42-5.593-2.99-12.38-.54-17.96-1.96-9.892-6.529-23.7-4.716-32.67 2.588-2.389-1.435-6.331.7996-6.01-3.084-1.495-5.462-8.57-8.516-13.28-4.943-2.126-6.256-11.17-7.782-15.56-3.045-1.549-2.822-5.015-4.093-8.088-4.002z"/></g><path style="fill:#fc0" transform="matrix(.9277 0 0 .7665 181.5 200.1)" d="m-202 1128 6.008 12.33-12.78-4.979 1.428 13.64-10.31-9.051-3.324 13.31-6.591-12.03-7.676 11.37-2.079-13.56-11.1 8.058 2.684-13.45-13.19 3.776 7.123-11.72-13.68-.9627 10.7-8.58-12.53-5.585 12.99-4.402-9.864-9.533 13.71.3071-6.008-12.33 12.78 4.979-1.428-13.64 10.31 9.051 3.324-13.31 6.591 12.03 7.676-11.37 2.079 13.56 11.1-8.058-2.684 13.45 13.19-3.776-7.123 11.72 13.68.9627-10.7 8.58 12.53 5.585-12.99 4.402 9.864 9.533z"/><g style="stroke:#1a1772;stroke-width:2.5;fill:#38c8ff" transform="matrix(.9277 0 0 .7665 106 947.7)"><path style="stroke:#1a1772;stroke-width:2.5;fill:#38c8ff" d="m-10.93 119.2q.3456.2802.6217.5599l2.252-6.614q.6658-1.955 2.485-2.868 1.847-.9261 3.844-.2461 1.262.4529 2.117 1.487.8620 1.013 1.111 2.328.2486 1.315-.1835 2.584l-8.344 24.5q-.4675 1.373-1.46 2.242-.9644.8554-2.231 1.097-1.266.2420-2.597-.2114l-3.117-3.661-.05666.1664q-2.783 1.559-6.09.4331-.8528-.2904-1.988-.9092-3.129-1.785-4.692-5.172-1.534-3.401-.9738-7.365.2170-1.319.5995-2.442.4887-1.435 1.205-2.584 1.474-2.353 3.534-3.834 2.059-1.481 4.474-1.958 2.922-.6064 5.647.3214 1.976.6729 3.843 2.144zm-9.308 9.202q-.5808 1.706.01473 3.092.5956 1.387 1.989 1.861 1.241.3764 2.329-.1586 1.108-.5279 1.875-1.961l.4817-1.414q.3574-2.617-1.518-3.79-.4709-.2532-.6997-.3311-1.186-.4037-2.322.1378-1.136.5416-1.874 1.892-.1124.1938-.2753.6722z"/><path style="stroke:#1a1772;stroke-width:2.5;fill:#38c8ff" d="m-40.18 135.8q-3.691 0-6.746-1.692-3.032-1.692-4.79-4.592-1.758-2.922-1.78-6.372 0-3.45 1.736-6.416 1.758-2.988 4.812-4.724t6.768-1.736q2.637 0 4.9.8569 2.263.8350 4.065 2.395 1.099.9448 1.912 2.065.8350 1.121 1.362 2.329.5493 1.208.8130 2.505.2637 1.296.2637 2.593 0 2.175-.7471 4.263-.7251 2.087-2.197 3.845-1.472 1.736-3.538 2.922-3.098 1.758-6.833 1.758zm-3.516-12.7q0 1.868 1.011 3.054 1.033 1.187 2.505 1.187.1318 0 .6812-.1099 2.373-.4834 2.747-3.186.08789-.7031.08789-.9888 0-1.296-.5933-2.197-1.077-1.802-2.922-1.802-1.824 0-2.922 1.802-.5933.9668-.5933 2.241z"/><path style="stroke:#1a1772;stroke-width:2.5;fill:#38c8ff" d="m-61.23 134.7q-3.691 0-6.746-1.692-3.032-1.692-4.79-4.592-1.758-2.922-1.78-6.372 0-3.45 1.736-6.416 1.758-2.988 4.812-4.724t6.768-1.736q2.637 0 4.9.8569 2.263.8350 4.065 2.395 1.099.9448 1.912 2.065.8350 1.121 1.362 2.329.5493 1.208.8130 2.505.2637 1.296.2637 2.593 0 2.175-.7471 4.263-.7251 2.087-2.197 3.845-1.472 1.736-3.538 2.922-3.098 1.758-6.833 1.758zm-3.516-12.7q0 1.868 1.011 3.054 1.033 1.187 2.505 1.187.1318 0 .6812-.1099 2.373-.4834 2.747-3.186.08789-.7031.08789-.9888 0-1.296-.5933-2.197-1.077-1.802-2.922-1.802-1.824 0-2.922 1.802-.5933.9668-.5933 2.241z"/><path style="stroke:#1a1772;stroke-width:2.5;fill:#38c8ff" d="m-83.62 132.6q2.315-.5188 3.276-2.101h-2.686q-1.922 0-3.254-1.608-1.31-1.608-1.31-3.865.04368-1.504.6333-2.698.5897-1.219 1.616-1.945 1.048-.7263 2.271-.7263h8.67q4.783 0 4.783 6.251 0 1.816-.3057 3.735-.3057 2.412-1.507 4.98-1.332 2.827-3.407 4.877-2.053 2.023-4.739 3.087-2.664 1.064-5.875 1.064-1.834 0-4.062-.4150-3.057-.6226-5.547-2.153-2.468-1.556-4.324-3.995-1.856-2.438-2.97-5.551-1.289-3.683-1.289-7.471 0-4.98 2.118-9.416 2.14-4.462 6.028-7.367 4.237-3.139 9.653-3.139.6989 0 2.009.1038 2.337.2335 4.564 1.064 2.14.8301 4.018 2.179 3.822 2.983 3.822 6.381 0 2.023-1.572 3.658-1.114 1.167-2.686 1.167-1.157 0-2.468-.6485h-.04367l-1.878-1.167q-.6115-.4150-.9391-.5707-2.73-1.505-5.089-1.505-1.9 0-3.407.9079-1.507.8820-2.511 2.62-1.005 1.738-1.332 4.021-.1310.7263-.1310 1.427 0 .9079.1310 1.764.3931 2.309 1.398 3.969 1.005 1.634 2.533 2.542 1.551.8820 3.494.8820 1.179 0 2.315-.3372z"/></g><g style="stroke:#1a1772;stroke-width:1.967;fill:#00aeef" transform="matrix(.9998 0 0 .9195 51.72 961.5)"><path style="stroke:#1a1772;stroke-width:1.967;fill:#00aeef" d="m43.98 116.2q1.192.2072 2.331.6503 3.169 1.233 4.401 3.926l-.06661.2072 4.615-.6524q.5416-.1622 1.246.1117 1.015.3948 1.494 1.443 1.161 2.479.3346 5.048l-4.663 14.5q-1.139 3.542-2.874 5.967-1.715 2.433-3.971 3.653-2.243 1.249-4.994 1.251-2.737.031-5.803-1.161-.8908-.3464-1.292-.5491-3.773-1.747-5.52-3.778-1.42-1.601-1.909-3.05-.4756-1.42-.09587-2.601.2864-.8908.9946-1.571 1.729-1.752 4.049-.8492.7872.3062 1.515.8690l.1036.0403 1.208 1.099q.04884.0656.2360.2083.2079.1508.3677.3061 1.395 1.172 3.135 1.848 1.662.4132 2.628.0899.9663-.3234 1.457-1.414.1080-.1910.2213-.5432-2.424.3624-4.599-.4835-.8079-.3142-2.143-1.09-1.786-1.114-3.2-2.806-2.028-2.607-2.591-5.786-.5419-3.171.4972-6.402.7801-2.354 2.11-4.097 1.357-1.756 3.086-2.855 1.756-1.112 3.746-1.503 1.997-.4119 3.947-.0263zm-3.43 11.9q-.4789 1.562.1336 2.919.6191 1.336 1.945 1.852.4557.1772.9307.2222 1.989.1911 3.228-1.704.1946-.4604.4811-1.351.2110-1.526-.4066-2.722-.5969-1.188-1.778-1.647-.4143-.1611-.9307-.2222-.9219-.0323-1.88.4108-1.217.6686-1.723 2.243z"/><path style="stroke:#1a1772;stroke-width:1.967;fill:#00aeef" d="m4.73 134.8q-1.261-1.709-1.016-3.779l1.77-14.99q.2572-2.179 1.838-3.371 1.605-1.211 3.675-.9155l3.634 3 .02058-.1743q.1705-.1308.6859-.3674 3.294-1.435 6.279-1.009.8498.1213 2.107.5446 2.125.7687 3.637 2.225 1.512 1.457 2.18 3.302.6684 1.846.4420 3.763l-1.363 11.55q-.1646 1.395-.9739 2.431-.7874 1.04-2 1.553-1.213.5137-2.566.3426-2.092-.2987-3.404-1.948-1.312-1.65-1.062-3.763l1.106-9.37q.1235-1.046-.5351-1.849-.6021-.9058-1.648-1.055-1.046-.1493-1.828.4702-.8604.7191-.9787 1.721l-1.101 9.326q-.2469 2.092-1.904 3.362-1.584 1.214-3.632.9217-2.048-.2924-3.363-1.92z"/><path style="stroke:#1a1772;stroke-width:1.967;fill:#00aeef" d="m-3.23 135.7q-2.064-.0887-3.483-1.601-1.397-1.533-1.322-3.641l.5385-15.15q.04917-1.383.7484-2.497.7220-1.134 1.887-1.744 1.188-.6306 2.571-.5712 1.36.0805 2.478.8102t1.736 1.9q.6401 1.171.5901 2.576l-.5354 15.06q-.0757 2.13-1.599 3.538t-3.609 1.318zm-2.745-27.93q-1.482-1.603-1.401-3.886.07726-2.174 1.717-3.752.7950-.7135 1.753-1.068.9582-.3546 1.99-.3102 2.174.09344 3.675 1.785 1.459 1.646 1.381 3.842-.08038 2.261-1.649 3.711t-3.786 1.354q-2.218-.0953-3.679-1.675z"/><path style="stroke:#1a1772;stroke-width:1.967;fill:#00aeef" d="m-33.09 135.1q-1.495-1.462-1.559-3.548l-.4592-15.11q-.06674-2.196 1.318-3.654 1.406-1.481 3.492-1.557l4.028 2.314-.0053-.1757q.1491-.1594.6228-.4846 3.039-2.002 6.048-2.113.8565-.0315 2.159.1620 2.21.3805 3.916 1.549t2.638 2.871q.9311 1.703.9899 3.635l.3537 11.64q.04272 1.405-.6034 2.572-.6241 1.166-1.745 1.889-1.121.7228-2.482.7948-2.108.0775-3.646-1.317-1.537-1.394-1.602-3.525l-.2870-9.443q-.03204-1.054-0.8-1.729-.7274-.7867-1.782-.7480-1.054.0387-1.735.7893-.7433.8628-.7125 1.873l.2857 9.399q.06407 2.108-1.384 3.656-1.384 1.48-3.448 1.556-2.064.0759-3.601-1.297z"/><path style="stroke:#1a1772;stroke-width:1.967;fill:#00aeef" d="m-43.77 137q-2.046.3140-3.68-.8549-1.638-1.191-1.897-3.236l-1.911-15.06q-.2624-2.067 1.011-3.749t3.319-1.996l4.987 2.407-.02762-.2176.2197-.3665.4722-.6493q1.528-2.12 3.543-2.496.7181-.1102 1.263-.0163 1.347.1260 2.358.9248 1.033.7954 1.427 1.977.1810.7265.2252 1.075.2016 1.589-0.74 2.909-.9444 1.299-3.214 2.468-.2283.1238-.3941.2158t-.4539.2694q-1.055.6056-1.715 1.173-.6384.5639-.9365 1.186-.2764.6193-.3237 1.47-.02837.8252.1512 2.24l.5552 4.374q.1795 1.414-.3214 2.712-.5037 1.275-1.547 2.145-1.043.8701-2.368 1.096z"/><path style="stroke:#1a1772;stroke-width:1.967;fill:#00aeef" d="m-64.67 140.3q-3.691 0-6.746-1.692-3.032-1.692-4.79-4.592-1.758-2.922-1.78-6.372 0-3.45 1.736-6.416 1.758-2.988 4.812-4.724t6.768-1.736q2.637 0 4.9.8569 2.263.8350 4.065 2.395 1.099.9448 1.912 2.065.8350 1.121 1.362 2.329.5493 1.208.8130 2.505.2637 1.296.2637 2.593 0 2.175-.7471 4.263-.7251 2.087-2.197 3.845-1.472 1.736-3.538 2.922-3.098 1.758-6.833 1.758zm-3.516-12.7q0 1.868 1.011 3.054 1.033 1.187 2.505 1.187.1318 0 .6812-.1099 2.373-.4834 2.747-3.186.08789-.7031.08789-.9888 0-1.296-.5933-2.197-1.077-1.802-2.922-1.802-1.824 0-2.922 1.802-.5933.9668-.5933 2.241z"/><path style="stroke:#1a1772;stroke-width:1.967;fill:#00aeef" d="m-113.5 148.4q-.2286-1.292-.2874-1.878l-.5644-24.45q-.0853-2.13.6967-3.906.7996-1.806 2.27-2.857 1.269-.9251 2.575-1.259 2.227-.5698 4.224.4704 2.014 1.011 3.045 3.299l5.426 11.57 1.062-13.23q.2277-2.635 1.704-4.539 1.498-1.909 3.703-2.474 1.285-.3287 2.778-.1103 1.72.2354 3.015 1.48 1.294 1.245 1.984 3.245l7.716 22.62q.1873.5525.4159 1.845.1714 2.108-1.022 3.839-1.172 1.726-3.078 2.214-.8351.2137-1.721 0.14-1.489-.1944-2.604-1.185t-1.54-2.508l-4.056-13.82-1.392 15.92q-.1493 1.94-.6480 3.043-.4815 1.074-1.403 1.685-.9772.6754-1.684.8561-1.456.3726-2.747-.473-1.291-.8455-2.233-2.881l-6.723-13.84 1.016 14.6q.1253 1.594-.5581 3.045t-1.956 2.352q-.8057.5064-1.619.7146-1.884.4821-3.56-.5151t-2.233-3.006z"/></g></g></svg>