<svg xmlns="http://www.w3.org/2000/svg" version="1.1" width="200px" height="100px" viewBox="0 0 200 100"><g transform="translate(80.08 -1010)"><g style="fill:#fff" transform="matrix(1.074 0 0 .9009 73.42 1022)"><path style="fill:#fff" d="m-91.45 15.71c-3.46 13.19-23.82 20.33-34.52 13-8.616-6.759-8.1-4.476-15.93-12.06-1.659 20.3-3.593 32.37 14.46 44.47 2.488 1.8 5.25 3.083 8.182 3.967.4804 10.48.7993 24.32 11.59 29.76 7.711 4.024 17.53-.1579 21.81-7.268 6.274 5.441 16.38 7.189 23.31 2.223 3.568 2.591 8.707-.7088 11.38 3.158 9.956 7.696 25.03 4.822 33.45-3.455 4.307.9117 8.675-2.498 12.42.6211 4.171 2.029 9.153.04081 13.03.3262 9.481 6.774 25.13-1.328 23.75-13.32.3456-3.182 4.769-3.063 5.564-6.357 3.81-6.65.58-14.2-2.83-20.18-.67-2.51 2.55-4.68 2.65-7.38 2.35-7.49 8.77-14.75 5.53-23.19-2.73-10.05-16.34-11.99-23.6-5.68-2.43 2.09-6.35 1.86-9.404 1.82-6.228-5.9-15.97-5.59-23.79-3.89-3.48-1.97-8-1.37-11.41-2.444-8.14-15.77-31.35-17.25-44.4-6.877-8.28-10.58-9.7-8.779-20.89-16.51-.09055 10.44 2.758 20.71-.3629 29.26z"/></g><g style="stroke:#1a1772;stroke-width:2.5;fill:#38c8ff" transform="matrix(.9964 0 0 .6906 108.3 964.5)"><path style="stroke:#1a1772;stroke-width:2.5;fill:#38c8ff" d="m-10.93 119.2q.3456.2802.6217.5599l2.252-6.614q.6658-1.955 2.485-2.868 1.847-.9261 3.844-.2461 1.262.4529 2.117 1.487.8620 1.013 1.111 2.328.2486 1.315-.1835 2.584l-8.344 24.5q-.4675 1.373-1.46 2.242-.9644.8554-2.231 1.097-1.266.2420-2.597-.2114l-3.117-3.661-.05666.1664q-2.783 1.559-6.09.4331-.8528-.2904-1.988-.9092-3.129-1.785-4.692-5.172-1.534-3.401-.9738-7.365.2170-1.319.5995-2.442.4887-1.435 1.205-2.584 1.474-2.353 3.534-3.834 2.059-1.481 4.474-1.958 2.922-.6064 5.647.3214 1.976.6729 3.843 2.144zm-9.308 9.202q-.5808 1.706.01473 3.092.5956 1.387 1.989 1.861 1.241.3764 2.329-.1586 1.108-.5279 1.875-1.961l.4817-1.414q.3574-2.617-1.518-3.79-.4709-.2532-.6997-.3311-1.186-.4037-2.322.1378-1.136.5416-1.874 1.892-.1124.1938-.2753.6722z"/><path style="stroke:#1a1772;stroke-width:2.5;fill:#38c8ff" d="m-40.18 135.8q-3.691 0-6.746-1.692-3.032-1.692-4.79-4.592-1.758-2.922-1.78-6.372 0-3.45 1.736-6.416 1.758-2.988 4.812-4.724t6.768-1.736q2.637 0 4.9.8569 2.263.8350 4.065 2.395 1.099.9448 1.912 2.065.8350 1.121 1.362 2.329.5493 1.208.8130 2.505.2637 1.296.2637 2.593 0 2.175-.7471 4.263-.7251 2.087-2.197 3.845-1.472 1.736-3.538 2.922-3.098 1.758-6.833 1.758zm-3.516-12.7q0 1.868 1.011 3.054 1.033 1.187 2.505 1.187.1318 0 .6812-.1099 2.373-.4834 2.747-3.186.08789-.7031.08789-.9888 0-1.296-.5933-2.197-1.077-1.802-2.922-1.802-1.824 0-2.922 1.802-.5933.9668-.5933 2.241z"/><path style="stroke:#1a1772;stroke-width:2.5;fill:#38c8ff" d="m-61.23 134.7q-3.691 0-6.746-1.692-3.032-1.692-4.79-4.592-1.758-2.922-1.78-6.372 0-3.45 1.736-6.416 1.758-2.988 4.812-4.724t6.768-1.736q2.637 0 4.9.8569 2.263.8350 4.065 2.395 1.099.9448 1.912 2.065.8350 1.121 1.362 2.329.5493 1.208.8130 2.505.2637 1.296.2637 2.593 0 2.175-.7471 4.263-.7251 2.087-2.197 3.845-1.472 1.736-3.538 2.922-3.098 1.758-6.833 1.758zm-3.516-12.7q0 1.868 1.011 3.054 1.033 1.187 2.505 1.187.1318 0 .6812-.1099 2.373-.4834 2.747-3.186.08789-.7031.08789-.9888 0-1.296-.5933-2.197-1.077-1.802-2.922-1.802-1.824 0-2.922 1.802-.5933.9668-.5933 2.241z"/><path style="stroke:#1a1772;stroke-width:2.49;fill:#38c8ff" d="m-86.62 129.1q2.938-.6908 4.157-2.798h-3.409q-2.439 0-4.13-2.141-1.663-2.141-1.663-5.146.05544-2.003.8038-3.592.7483-1.623 2.051-2.59 1.33-.9671 2.882-.9671h11q6.07 0 6.07 8.324 0 2.418-.3880 4.974-.3880 3.212-1.912 6.631-1.691 3.765-4.324 6.493-2.605 2.694-6.014 4.11-3.381 1.416-7.456 1.416-2.328 0-5.155-.5526-3.88-.8289-7.04-2.867-3.132-2.072-5.488-5.319t-3.769-7.391q-1.635-4.904-1.635-9.947 0-6.631 2.688-12.54 2.716-5.941 7.65-9.809 5.377-4.179 12.25-4.179.8869 0 2.55.1382 2.966.3109 5.793 1.416 2.716 1.105 5.1 2.901 4.85 3.972 4.85 8.496 0 2.694-1.996 4.87-1.413 1.554-3.409 1.554-1.469 0-3.132-.8634h-.05542l-2.384-1.554q-.7760-.5526-1.192-.7598-3.464-2.003-6.458-2.003-2.411 0-4.324 1.209-1.912 1.174-3.187 3.488t-1.691 5.353q-.1663.9671-.1663 1.9 0 1.209.1663 2.349.4989 3.074 1.774 5.284 1.275 2.176 3.215 3.385 1.968 1.174 4.434 1.174 1.497 0 2.938-.4490z"/></g><path style="stroke:#000f7f;stroke-width:1.967;fill:#ffce31" d="m-17.72 1023c2.124 4.882 2.638 10.36 1.068 15.79-4.125 14.64-21.84 23.55-39.48 19.96-5.949-1.211-11.18-3.759-15.3-7.1 2.818 10.12 12.21 18.52 25.15 21.16 18.26 3.718 36.63-5.522 41.01-20.67 3.242-11.21-2.113-22.49-12.46-29.14z"/><g style="stroke:#1a1772;stroke-width:2;fill:#bc4bcd" transform="matrix(1.074 0 0 .9009 73.97 1022)"><path style="stroke:#1a1772;stroke-width:2;fill:#bc4bcd" d="m-104.9 84.73q-2.4-2.245-2.766-5.24l-3.619-29.6q-.2702-2.21.6762-4.126.9754-1.92 2.828-2.943 1.186-.6763 2.437-.8292 3.112-.3804 6.301 2.535l17.32 16.09-1.728-14.13q-.3519-2.879 1.46-5.196 1.79-2.255 4.582-2.597 1.396-.1706 2.71.1999 1.34.3379 2.362 1.216 1.041.7877 1.757 2.058.7125 1.241.8831 2.637l3.708 30.33q.05333.4362.05076 1.381-.09528 1.635-.9567 3.039-.8359 1.371-2.175 2.243-1.34.8721-2.997 1.075-1.977.2417-3.698-.5515-1.259-.6430-1.901-1.302l-17.96-17.25 1.799 14.71q.3662 2.995-1.395 5.247-1.71 2.187-4.473 2.524-2.995.3662-5.203-1.519z"/><path style="stroke:#1a1772;stroke-width:2;fill:#bc4bcd" d="m-56.22 81.06q-2.061.1385-3.627-1.21-1.546-1.372-1.687-3.476l-1.016-15.13q-.0928-1.381.4883-2.565.6015-1.208 1.697-1.942 1.116-.7577 2.497-.8505 1.361-.06941 2.546.5336 1.186.6030 1.92 1.699.7562 1.094.8505 2.497l1.01 15.04q.1429 2.127-1.227 3.694-1.37 1.568-3.453 1.707zm-5.59-27.48q-1.638-1.432-1.791-3.712-.1458-2.17 1.322-3.921.7172-.7969 1.633-1.255.9162-.4580 1.947-.5272 2.17-.1458 3.836 1.372 1.619 1.477 1.766 3.669.1517 2.258-1.259 3.872t-3.625 1.763q-2.214.1488-3.829-1.262z"/><path style="stroke:#1a1772;stroke-width:2;fill:#bc4bcd" d="m-39.44 51.46q1.187-.2417 2.395-.2417 3.362 0 5.339 2.087v.2197l4.153-2.307q.4614-.3516 1.208-.3516 1.077 0 1.846.8130 1.846 1.912 1.846 4.636v15.38q0 3.757-.9009 6.68-.8789 2.922-2.637 4.9-1.736 2-4.329 3.01-2.571 1.033-5.823 1.033-.9448 0-1.384-.04394-4.087-.2637-6.35-1.538-1.824-.9888-2.725-2.175-.8789-1.165-.8789-2.417 0-.9448.4614-1.846 1.099-2.285 3.56-2.285.8350 0 1.692.2637h.1099l1.472.5933q.06592.04394.2856.1099.2417.06592.4395.1538 1.67.5933 3.516.5933 1.692-.2197 2.505-.8789t.9448-1.868q.04395-.2197.04395-.5933-2.175 1.23-4.482 1.23-.8569 0-2.351-.2417-2.021-.3955-3.867-1.472-2.703-1.714-4.197-4.504-1.472-2.791-1.472-6.218.02197-2.505.7471-4.636.7471-2.153 2.043-3.823 1.318-1.692 3.076-2.791 1.758-1.121 3.713-1.472zm.3735 12.46q.02197 1.648 1.011 2.703.9888 1.033 2.395 1.033.4834 0 .9448-.1318 1.934-.5493 2.527-2.791.04395-.5054.04395-1.45-.2637-1.516-1.208-2.417-.9229-.9009-2.175-.9009-.4395 0-.9448.1318-.8789.3076-1.648 1.077-.9448 1.077-.9448 2.747z"/><path style="stroke:#1a1772;stroke-width:2;fill:#bc4bcd" d="m-15.02 79.58q-2.034-.1971-3.359-1.783-1.301-1.605-1.098-3.705l2.518-25.98q.1272-1.312.8935-2.386.7882-1.072 1.989-1.617 1.203-.5678 2.585-.4780 1.4.1356 2.471.9238 1.072.7882 1.615 2.011.5678 1.203.4364 2.559l-.7036 7.261q.8276-.3392 1.824-.5959 2.432-.4928 4.466-.2957 1.99.1929 3.569.9860 1.601.7953 2.63 2.021 1.031 1.204 1.511 2.862.5014 1.66.3255 3.475l-1.144 11.77q-.206 2.12-1.837 3.47-1.607 1.32-3.751 1.11-2.067-.31-3.368-1.91-1.28-1.61-1.078-3.68l.9156-9.448q.09537-.9842-.5303-1.817-.6236-.8551-1.627-.9745-1.028-.09961-1.863.5479-.8354.6475-.9392 1.719l-.9198 9.492q-.1314 1.356-.9436 2.447-.7903 1.093-2.013 1.637-1.221.5219-2.577.3905z"/><path style="stroke:#1a1772;stroke-width:2;fill:#bc4bcd" d="m11.38 57.99q1.488-.9065 3.238-.5795l.4320.08075.3997-2.138q.3795-2.03 2.135-3.289 1.692-1.159 3.701-.7835 2.03.3795 3.224 2.123 1.17 1.873.7904 3.903l-.3795 2.03.5616.1050q1.685.3149 2.694 1.733 1.019 1.487.6996 3.193-.08882.4752-.3113.9477t-.5921.8952q-.3440.4051-.7622.7293-1.513 1.036-3.274.7739l-.61-.11-2.1 11.23q-.3957 2.117-2.139 3.311-1.653 1.189-3.726.8011-2.03-.3795-3.207-2.097-1.182-1.808-.7904-3.903l2.108-11.27-.3456-.0646q-1.857-.3472-2.946-1.937-.9307-1.359-.6320-2.957.3270-1.749 1.827-2.721z"/></g></g></svg>