<svg xmlns="http://www.w3.org/2000/svg" version="1.1" width="200px" height="100px" viewBox="0 0 200 100"><g transform="translate(0 -952.4)"><path d="m45.06 952.4c-19.67-.0849-34.18 16.65-39.65 33.27-8.62 17.84-7.89 42.24 9.209 55.37 12.46 10.21 30.93 13.11 46.18 7.336 8.438 6.502 21.69 4.689 29.01-2.551 7.977 5.88 21 4.653 26.98-3.317 6.117 3.857 14.13 4.06 20.93 1.836 19.04 10.8 48.18 6.359 58.37-13.74 4.487-7.505 4.9-16.84 2.365-24.87 5.441-13.22-6.462-26.77-19-31.26-14.39-6.376-32.16-5.034-45.45 3.182-8.735-12.62-31.5-13.16-39.79.1894-2.658-3.589-8.798-3.361-9.606-8.429-8.093-12.68-24.81-17.32-39.55-17.01z" style="fill:#fff"/><path d="m18.65 1027c-6.774-8.728-7.128-20.78-2.907-30.61 2.458-7.745 8.746-25.18 20.08-30.21 11.23-4.979 27.25-2.721 36.81 4.783 6.482 5.086 7.63 14.88 8.144 22.72.4921 7.507-.4539 14.76-2.731 21.93-4.741 14.93-21.25 27.84-38.08 24.43-8.527-1.444-16.56-6.079-21.32-13.05zm13.9-17.01c-.8230 8.131 8.133 16.27 16.63 13.54 9.102-2.561 12.89-14.34 7.512-21.62-3.551-5.461-11.94-7.927-17.65-4.015-4.185 2.57-6.75 7.357-6.492 12.1z" style="stroke:#434343;stroke-width:2.257;fill:#f0c"/><path d="m163.3 1024q4.26-.052 6.389-2.028l-4.785-.8011q-3.424-.5732-5.373-3.271-1.911-2.691-1.317-5.919.4740-2.139 1.838-3.67 1.371-1.568 3.391-2.301 2.059-.7263 4.237-.3615l15.44 2.586q8.52 1.426 6.874 10.37-.4781 2.597-1.528 5.252-1.18 3.359-3.996 6.674-3.118 3.647-7.353 5.959-4.19 2.282-9.255 3.002-5.026.7266-10.75-.2309-3.268-.5471-7.127-1.805-5.283-1.802-9.315-4.734-3.986-2.962-6.651-7.003t-3.829-8.826q-1.326-5.653-.3284-11.07 1.311-7.124 6.253-12.84 4.987-5.743 12.68-8.74 8.374-3.226 18.02-1.611 1.245.2084 3.552.7476 4.101 1.031 7.851 2.882 3.594 1.826 6.585 4.315 6.023 5.407 5.128 10.27-.5327 2.894-3.764 4.763-2.291 1.337-5.092.8684-2.062-.3451-4.225-1.664l-.0779-.013-3.038-2.23q-0.98-.776-1.523-1.096-4.467-2.966-8.668-3.67-3.385-.5667-6.308.2825-2.917.8121-5.164 2.998t-3.432 5.354q-.4246.9998-.6090 2.002-.2390 1.299-.2310 2.562.0924 3.419 1.445 6.094 1.359 2.637 3.844 4.392 2.53 1.724 5.992 2.304 2.101.3517 4.213.2081z" style="stroke:#434343;stroke-width:2.257;fill:#f0c"/><g transform="matrix(1.156 0 0 1.102 -21.72 -99.79)"><circle style="fill:#fff" cx="53.21" r="8.393" cy="980.9"/><circle style="fill:#664e27" cx="53.21" r="3.5" cy="980.7"/><circle style="fill:#fff" cx="72.5" r="8.393" cy="986.5"/><circle style="fill:#664e27" cx="72.5" r="3.5" cy="986.6"/></g><path d="m66.72 1036q-.2699-2.018-.3115-2.924l1.67-37.53q.07951-3.276 1.685-5.863 1.639-2.63 4.404-3.991 2.388-1.202 4.778-1.493 4.075-.4957 7.558 1.435 3.518 1.889 5.125 5.567l8.505 18.64 3.367-20.08q.6998-3.997 3.569-6.662 2.908-2.67 6.944-3.161 2.351-.2860 5.018.3010 3.074.6514 5.269 2.777 2.196 2.125 3.218 5.305l11.42 35.94q.2767.8778.5466 2.896.0772 3.257-2.263 5.706-2.301 2.445-5.788 2.869-1.528.1858-3.116-.077-2.662-.5496-4.562-2.255-1.901-1.706-2.5-4.101l-5.79-21.85-4.257 24.14q-.4822 2.945-1.502 4.55-.9855 1.563-2.713 2.343-1.835.8687-3.128 1.026-2.664.324-4.897-1.189t-3.707-4.79l-10.59-22.33.2261 22.53q.05062 2.462-1.34 4.568t-3.783 3.27q-1.507.6391-2.996.8202-3.448.4195-6.358-1.391-2.91-1.811-3.692-4.981z" style="stroke:#434343;stroke-width:2.257;fill:#f0c"/></g></svg>