<svg xmlns="http://www.w3.org/2000/svg" version="1.1" width="200px" height="100px" viewBox="0 0 200 100"><g transform="translate(80.08 -1010)"><g transform="matrix(1.726 0 0 1.566 -20.8 -802.8)"></g><flowRoot xml:space="preserve" style="letter-spacing:0px;font-size:20px;word-spacing:0px;font-family:sans-serif;line-height:125%;fill:#000000" transform="matrix(1.277 0 0 1.274 -106.8 998.9)"><flowRegion><rect y="113.5" width="180.8" x="5" height="67.5"/></flowRegion><flowPara/></flowRoot><path style="fill:#fff" d="m5.4 1010c-4.788-.8762-8.503 3.593-12.2 4.635-11.5-3.614-24.91.5488-33.07 8.725-11.55-11.34-33.45-5.997-38.28 9.464-4.227 10.65-1.366 24.02 7.492 31.39-7.151 11-.0089 28.53 13.35 30.21 2.466 9.062 13.81 14.02 22.31 10.32 6.453 6.68 18.51 6.976 25.01.2214 6.552 6.705 18.56 6.305 24.73-.2984 6.86 2.595 13.97-1.049 20.55-1.727 7.013.093 13.04 6.108 20.07 2.722 4.748-1.88 9.067 2.582 13.99.6661 5.503-.2597 10.52-6.569 15.5-2.266 14.39 6.25 35.01-4.002 34.18-20.85-.7568-4.954-1.654-10.02.5959-14.63 2.023-16.53-6.206-37.26-24.1-40.77-5.906-1.842-11.91 3.67-17.06-.107-9.241-3.965-18.75 3.77-27.78.3384-6.46-4.781-15.33-.976-21.67 1.105-2.813-.7541-6.883.1633-6.039-4.125-2.07-7.916-8.892-15.21-17.57-15.02z"/><g transform="matrix(1.277 0 0 1.274 -132.2 -377.3)"><path style="fill:#c83771" d="m58.63 1105c-5.09.351-8.895 5.282-8.696 10.94.2445 5.902 4.485 10.19 9.621 10.09 5.09-.3511 8.895-5.282 8.696-10.94-.2445-5.902-4.485-10.2-9.621-10.09"/><ellipse style="fill:#c83771" rx="7.845" transform="matrix(-.03974 -.9992 .9983 -.05794 0 0)" ry="6.919" cy="27.92" cx="-1135"/><path style="fill:#c83771" d="m59.53 1135c-2.545.1754-4.47 2.518-4.325 5.592.09914 2.828 2.242 5.098 4.788 4.922 2.545-.1755 4.47-2.518 4.325-5.592-.09914-2.828-2.242-5.097-4.788-4.922"/><path style="fill:#c83771" d="m70.18 1147c-1.681.1994-3.086 1.88-3.125 3.967.1650 2.031 1.51 3.481 3.238 3.528 1.681-.1994 3.086-1.88 3.125-3.967.03939-2.087-1.352-3.783-3.238-3.528"/></g><path d="m106.1 1066q-.2184 4.556-1.369 6.251-1.151 1.694-3.619 1.291l-13.16-2.149q.0857.2895.8281 1.926.6677 1.119 1.285 1.726.6446.5643 1.74 1.064 1.098.4551 2.677.7129 1.537.1121 3.939-.6883 1.841-.5259 2.582-.4048 1.999.3265 3.081 2.661 1.107 2.339.9561 5.483-.0545 1.139-.1839 1.761-.3545 1.687-1.012 2.957-.6332 1.274-1.648 2.21-.9882.8947-2.771 1.751-2.18.8383-4.425.9763-1.572.1109-3.35-.1803-3.678-.6004-6.669-3.063-2.965-2.505-4.987-6.509t-2.922-9.11q-.8995-5.106-.62-10.94.3208-5.137 1.706-9.64 1.412-4.545 3.548-7.594 2.163-3.09 4.997-4.602t6.018-.9917q4.214.8269 7.356 4.829 1.919 2.518 3.294 6.003 1.402 3.443 2.093 7.184.7182 3.699.6307 7.083zm-17.56-4.751 6.023.9839q.0263-.5466-.006-.9195-.1540-4.571-3.215-5.071-1.841.5259-2.664 4.203-.1250.5307-.1380.8037z" style="stroke:#2d4b9e;stroke-width:2.55;fill:#87cdde"/><path d="m62.19 1093q-3.692-2.019-4.315-6.209-.1902-1.279-.1194-2.358.05208-2.588.9719-4.524.9132-1.98 2.514-2.792.9797-.4964 2.514-.3726l1.058.032.7585.089q1.809.4119 3.169.053l.2867-.1445.5974-.3024q.6452-.327.7422-1.23-.2033-1.368-.8208-1.718-.03064-.032-.1088-.039-.08476-.052-.1632-.061-.06089-.064-.1154-.084l-.4999-.08-1.045.055-1.371-.064-.9975.031q-2.362 0-4.01-.5297-1.63-.5969-2.709-1.805-1.055-1.221-1.952-3.28-.9234-2.236-1.304-4.794-.6296-4.235.2772-8.678.9002-4.488 3.272-8.061 2.396-3.585 6.004-5.413 2.796-1.416 5.158-1.427 3.727 0 5.422 2.423.8508 1.229 1.185 3.479.3213 2.161-.1440 4.389-.4719 2.184-1.653 3.399-.5341.5552-1.132.8578-.9319.472-2.542.5291l-1.58.089h-.7693l-.8279.1351q-.4085.023-.5758.1032-1.41.7138-1.588.8989l-.06945.2249-.1040.3373q-.1214.3936-.08196.6583.08527.5732.6854.9807.1088.039.1935.092.08476.052.1935.09l.4999.08.7825.076 1.878.1874 1.317.044 1.18.1616q1.66.107 3.696 1.353 1.933 1.25 3.229 3.914 1.313 2.608 1.798 5.872 1.023 6.881-1.564 13.5-2.4 6.149-7.562 8.764-.6691.339-2.177.9135-4.512 1.622-7.482.1382z" style="stroke:#2d4b9e;stroke-width:2.55;fill:#87cdde"/><path d="m39.98 1039q1.641-.1506 2.523.093 3.725 1.026 5.839 6.186l-.02196.2715 5.001-3.294q.6467-.5616 1.455-.339 1.201.3308 1.874 2.227 1.752 4.367 1.302 9.932l-2.538 31.4q-.3693 4.569-2.172 7.032t-4.18 1.808l-4.195-6.058-.03651.4524q-2.638 3.806-6.51 2.739-1.274-.3506-2.824-1.332-2.213-1.442-4.151-4.75-1.934-3.354-3.168-8.226-.8078-3.645-1.043-7.548-.2357-3.904.1555-8.744.6761-6.196 2.55-11.09 1.898-4.888 4.553-7.671 2.659-2.829 5.586-3.086zm-1.693 26.22q-.2560 3.166.5551 5.841.9017 2.792 2.544 3.244.9803.2701 1.939-.4373.9627-.7521 1.627-2.465.5508-1.236.7304-2.527.1331-1.027.2830-2.882.0089-4.761-1.795-6.923-.7748-.9536-1.51-1.156-1.348-.3712-2.475 1.168-1.127 1.54-1.666 4.49-.06115.4457-.1149.8008-.02553.3167-.1185.8464z" style="stroke:#2d4b9e;stroke-width:2.55;fill:#87cdde"/><path d="m33.98 1060q.3584 4.526-.5490 6.666t-3.359 2.802l-13.07 3.526q.1196.2452 1.047 1.52.7899.804 1.467 1.13.6978.2738 1.826.293 1.125-.027 2.694-.4494 1.509-.5468 3.746-2.351 1.725-1.298 2.461-1.496 1.986-.5359 3.331 1.274 1.37 1.803 1.617 4.926.08961 1.132.04162 1.792-.1335 1.793-.6145 3.309-.4564 1.51-1.327 2.854-.8493 1.292-2.476 2.887-2.015 1.746-4.183 2.839-1.516.7786-3.281 1.255-3.653.9858-6.872-.1336-3.198-1.171-5.667-4.203t-3.984-7.616-1.974-10.38q-.3314-5.134.4519-10.11.8042-5.024 2.501-8.903 1.717-3.931 4.285-6.611 2.567-2.68 5.73-3.534 4.204-.9946 7.761 1.558 2.183 1.63 3.957 4.434 1.796 2.751 2.937 6.095 1.162 3.292 1.501 6.621zm-17.68 2.874 5.983-1.614q-.04302-.5431-.1208-.8921-.7225-4.382-3.763-3.561-1.725 1.298-2.065 5.226-.05502.5696-.03357.841z" style="stroke:#2d4b9e;stroke-width:2.55;fill:#87cdde"/><path d="m-3.561 1093q-1.461-3.475-1.164-7.831l3.674-53.82q.1859-2.723 1.109-4.905.9232-2.182 2.319-3.241 1.399-1.104 2.972-.7374 1.497.393 2.651 2.138 1.182 1.704 1.734 4.23.5764 2.532.3875 5.3l-3.656 53.55q-.3036 4.448-2.112 7.162-1.922 2.55-4.184 2.023-2.262-.5261-3.732-3.865z" style="stroke:#2d4b9e;stroke-width:2.55;fill:#87cdde"/><path d="m-27.1 1095q-1.948-2.865-2.322-7.294l-3.82-45.19q-.4508-5.333.8938-9.007t3.891-4.408l10.77-3.103q4.04-1.164 7.469 1.136 3.426 2.254 5.63 7.267 2.201 4.968 2.77 11.7.6913 9.662-2.006 16.92t-8.078 10.06q-1.103.5955-2.181.9058l-4.529 1.305.7831 9.264q.4049 4.791-1.074 8.364-1.384 3.5-3.759 4.184-2.448.7055-4.441-2.1zm6.909-38.42 4.627-1.333q1.151-.3314 1.833-2.055.7232-1.829.5551-3.817-.1719-2.034-1.106-3.292-1.007-1.238-2.134-.9132l-4.627 1.333.8519 10.08z" style="stroke:#2d4b9e;stroke-width:2.55;fill:#87cdde"/></g></svg>