<svg xmlns="http://www.w3.org/2000/svg" version="1.1" width="200px" height="100px" viewBox="0 0 200 100"><g transform="translate(0 -952.4)"><g style="fill:#fff" transform="matrix(.9685 0 0 1.384 -72.28 -376.6)"><path style="fill:#fff" d="m216.2 960.4c-15.17 2.291-30.38 1.202-45.65.6465-4.899-.3821-9.433 2.672-14.09.3203-9.977-1.757-20.64-.1855-29.88 3.682-1.717 3.289-3.227-1.738-5.521-2.172-4.783-3.199-10.57-1.544-15.33.6152-9.875 2.917-22.47 3.34-29.22 12.22-5.506 10.4 2.399 21.35 8.162 29.68 5.516 8.879 8.676 20.37 17.8 26.32 9.864 3.584 19.09-3.918 27.51-7.787 2.011-1.959 3.482 2.024 5.953 1.502 5.564 1.278 11.49-1.271 15.61-4.371 5.257 3.963 12.59 3.37 18.25 1.889 6.393 4.383 15.1 2.285 20.98-2 5.826 6.013 16.2 6.871 22.88 1.797 5.683 4.159 13.9 4.415 19.87.7031 5.48 5.038 14.33 4.959 20.38 1.141 9.216 7.546 26.64 2.16 27.24-10.59.1322-13.24-2.104-26.46-4.512-39.39-4.694-11.48-21.39-14.95-30.35-7.088-5.591-5.575-14.26-6.144-21.48-4.887-2.574-1.531-5.586-2.351-8.586-2.236z"/></g><path style="fill:#483e37" d="m12.92 976.8c-3.685.2257-4.828 4.585-4.568 7.647.1587 4.47 2.559 8.373 4.023 12.49 4.732 11.72 9.464 23.44 14.2 35.16.04585 3.01 1.962 7.503 5.697 6.213 2.713-1.16 4.958-3.195 7.46-4.748 8.398-5.73 16.8-11.46 25.2-17.19-2.346-3.306-4.691-6.612-7.037-9.919-9.451 3.432-18.95 7.69-26.28 14.75l-18.69-44.4z"/><path style="fill:#d9e3e8" d="m32.92 1025c-3.784 1.782-6.371 6.527-4.302 10.5 1.367 2.807 4.616 1.221 6.401-.2219 9.527-6.332 19.05-12.66 28.58-19-.7696-3.46-.7929-7.437 1.314-10.46-10.67 6.39-21.33 12.78-32 19.17z"/><path style="fill:#917c6f" d="m37.98 966.8c9.049 13.18 18.1 26.36 27.15 39.55-10.69 6.256-21.38 12.51-32.07 18.77-6.869-16-13.74-31.99-20.61-47.99 8.511-3.441 17.02-6.881 25.53-10.32z"/><g style="fill:#37abc8" transform="matrix(.9685 0 0 1.384 4.961 -384.1)"><path style="stroke:#005c90;stroke-width:2.4;fill:#37abc8" d="m58.9 1021q-2.839.1437-5.031-1.755-2.165-1.931-2.369-4.794l-2.122-29.69q-.1629-2.279.5676-3.976.7576-1.728 2.246-2.686 1.486-.9874 3.678-1.144l13.12-.9377q4.12-.2945 7.368.7658 3.246 1.031 5.436 3.312 2.188 2.252 3.221 5.615.6179 2.071.7370 3.736.4281 5.991-3.379 9.846l-.2150.2797-1.296 1.179-.8015.7035 5.567 6.387q1.63 1.851 1.804 4.277.1149 1.607-.5384 3.152-.6261 1.513-1.983 2.668-1.774 1.478-3.849 1.626-3.74.2673-6.625-3.521l-9.89-12.63.7310 10.23q.1378 1.929-.6866 3.544-.7952 1.614-2.277 2.659-1.484 1.017-3.413 1.154zm5.015-27.23 5.757-.4114q1.023-.0731 1.668-.9122.6721-.8704.5823-2.127-.1002-.9915-.8204-1.616-.7201-.6241-1.568-.5635l-5.991.4281.3717 5.202z"/><path style="stroke:#005c90;stroke-width:2.4;fill:#37abc8" d="m81.68 981.9q.1228-1.666.9651-2.983.8434-1.346 2.219-2.055 1.377-.7386 2.958-.6777l23.45.9028q1.669.0642 2.983.9651 1.315.8716 2.05 2.336.7363 1.436.6721 3.104-.1836 2.485-2.007 4.145t-4.165 1.569l-5.035-.1938-.9670 25.12q-.0733 1.903-1.07 3.418-.9662 1.487-2.554 2.364-1.557.8489-3.46.7756-1.932-.074-3.478-1.043-1.516-.9966-2.39-2.643-.8455-1.645-.7734-3.519l.9670-25.12-4.743-.1826q-2.43-.0935-4.088-1.946-1.629-1.851-1.533-4.34z"/><path style="stroke:#005c90;stroke-width:2.4;fill:#37abc8" d="m122.8 1021q-2.859.267-5.094-1.613t-2.502-4.739l-2.817-30.16q-.1771-1.896.6010-3.646t2.327-2.807q1.546-1.086 3.413-1.26l16.31-1.523q2.509-.2343 4.55 1.458 1.882 1.56 2.116 4.069.2207 2.363-1.429 4.547-1.794 1.904-4.156 2.124l-9.364.8746.4005 4.288 7.934-.7411q1.692-.1580 3.084.5653 1.418.6914 2.336 2.018.9184 1.327 1.071 2.96.0997 1.697-.5917 3.115-.6942 1.389-1.992 2.305-1.297.9156-2.843 1.06l-7.876.7357.8147 8.722q.2670 2.859-1.581 5.12-1.848 2.262-4.707 2.529z"/><path style="stroke:#005c90;stroke-width:2.4;fill:#37abc8" d="m136.1 1015q.0787-1.58.1722-2.28l6.348-28.52q.5057-2.497 2.031-4.27 1.556-1.8 3.761-2.482 1.908-.6090 3.693-.5202 3.043.1515 5.323 2.084 2.311 1.904 2.981 4.93l3.664 15.38 5.202-14.94q1.057-2.969 3.516-4.636 2.488-1.665 5.502-1.515 1.756.0874 3.623.8844 2.155.8993 3.468 2.813 1.313 1.913 1.625 4.481l3.425 29.01q.0821.7081.003 2.288-.3886 2.503-2.432 4.074-2.014 1.572-4.618 1.442-1.141-.057-2.265-.4648-1.868-.7676-3.023-2.321t-1.265-3.466l-1.241-17.49-6.407 17.93q-.7544 2.192-1.718 3.288-.9332 1.068-2.301 1.44-1.459.426-2.424.3779-1.99-.099-3.414-1.548-1.424-1.45-2.052-4.15l-4.683-18.48-2.914 17.28q-.2995 1.892-1.603 3.323-1.303 1.431-3.209 2.011-1.188.2929-2.3.2375-2.575-.1282-4.452-1.894-1.877-1.765-2.016-4.295z"/></g></g></svg>