<svg xmlns="http://www.w3.org/2000/svg" version="1.1" width="200px" height="100px" viewBox="0 0 200 100"><g transform="translate(985.7 -76.65)"><path style="fill:#fff" d="m-856.1 76.66c-9.539 1.132-17.72 7.211-22.99 14.9-2.1 1.996-4.409 6.19-7.445 2.927-7.148-5.19-13.94-14.46-24.08-12.37-6.162.9348-7.172 8.222-4.995 12.82 1.102 2.522.9691 6.985-3.084 5.438-12.56-.4358-25.15-7.688-37.9-4.603-4.656.7591-7.35 6.708-3.247 9.82 6.704 5.188 15.98 6.576 22.29 12.21-12.92 3.715-26.37 4.967-39.55 7.504-4.92.5490-10.73 5.066-7.883 10.36 4.119 7.962 15.03 6.778 22.61 6.475 10.3-.7759 20.48-2.588 30.78-3.328-4.085 3.164-10.62 9.307-5.892 14.49 6.069 5.151 14.36 1.612 20.73-.902 2.937-.9151 6.77-2.933 9.391-2.818-1.201 5.589-4.57 14.32 2.284 17.72 6.498 3.562 13.5-.8416 17.91-5.553 4.675-4.145 10.5-11.63 17.49-6.777 1.885 1.546 6.433 2.169 5.102 5.474-.4983 7.639 5.372 14.42 13.01 15.58 13.44 2.494 29.19-2.617 36.75-14.19 4-6.168 2.425-15.03-4.011-19.03 11.8-2.513 25.48-5.848 32.32-16.54 2.888-6.883-2.862-13.86-8.967-16.7 1.158-9.746-9.446-15.99-18.2-16.4-2.815-.3692-6.181.1575-7.087-3.066-7.113-8.452-20.08-9.478-30.13-6.261-.1043-3.184-1.079-7.402-5.209-7.188z"/><path style="fill:#c83771" d="m-918.6 119.3-57.53 13.68 64.68-1.279-19.38 17.01 35.17-10.61-4.471 23.4 25.34-19.31 38.45 22.38-17.52-34.33c19.84-8.278 18.67-6.028-2.354-12.81l-3.67-34.69-20.27 21.99-27.13-17.39 1.49 20.84-46.5-7.544z"/><path style="fill:#4d4d4d" d="m-900.3 120.6-32.28 7.447 36.3-.6960-10.87 9.256 19.74-5.776-2.509 12.74 14.22-10.51 21.58 12.18-9.834-18.69c11.13-4.506 10.48-3.281-1.321-6.97l-2.06-18.88-11.37 11.97-15.22-9.465.8364 11.34-26.09-4.106z"/><path style="fill:#4d4d4d" d="m-837.8 168c-8.008 2.306-13.71.8584-16.05-2.633-2.748-4.131.1715-9.026-2.202-13.22-1.765-3.119-4.98-5.978-9.831-7.906-5.021-2.012-10.25-3.97-14.09-6.589-1.733-1.182-2.217-1.362-3.207-2.979-6.241-.7105-11.94-5.49-13.4-8.707-2.158-4.788-.6178-10.03 3.588-15.11 2.378-2.889 7.649-6.2 13.77-7.611 2.412-2.89 5.539-5.939 10.48-7.741 4.049-1.475 12.07-2.438 12.07-2.438 4.134-1.927 9.982-3.776 14.76-4.249 4.35-.4301 8.91.1287 11.36 1.818 3.056 2.102 2.633 5.085 2.389 7.801 4.087-.0385 9.025-.0529 12.65.7112 7.042 1.487 10.72 3.719 11.26 8.562.1820 1.639-1.298 3.738-2.523 5.333 7.396 1.012 11.79 4.625 12.19 8.5.2844 3.203-4.397 6.349-9.199 8.698-4.98 2.41-11.22 3.957-17.36 5.205-5.172 1.049-9.856 1.539-15.48 2.53.7560 5.295 12.24 7.005 14.1 12.02 1.136 3.063 1.379 6.693-1.343 9.873-3.321 4.047-7.511 6.268-13.94 8.146z"/><path style="fill:#edc" d="m-841.1 165.4c3.969-.6829 7.122-2.24 10.38-4.904 5.471-4.464 5.412-10.84-1.271-13.84-5-2.324-9.792-3.821-10.39-8.399-.1135-1.245.9923-1.99 4.641-2.569 9.063-1.272 18.34-2.459 26.57-5.327 4.368-1.523 7.797-4.026 9.58-6.469 1.572-2.124-.0612-4.138-2.193-5.635-2.529-1.775-7.367-2.227-11.76-2.213-.0303-.00010-.0598 0-.0903 0 .0279-.01.0544-.01.0839-.01-9.894.0135-16.02 1.767-23.21 4.818-.006.01-.01.01-.0119 0-4.129 1.634-6.257 3.589-6.158 6.249.1545 4.356 6.768 7.465 21.05 4.082.0628-.01.1246-.0164.1863-.026-5.686 2.303-13.42 3.222-19.1 1.894-4.431-1.035-6.515-4.261-6.06-7.069.3485-1.218.6146-2.012 1.321-3.03l-.00069-.0241c-.4356-1.812-2.835-3.45-4.548-4.992-2.899-2.601-8.432-4.59-15.09-3.303l.0678-.0231c5.224-1.107 7.364-1.906 14.7.6774.1497-.7829.1576-2.631.1576-2.631l-.0228.0241c-7.191-.7763-12.55-2.161-14.41-5.885-1.182-2.374.3547-4.907 2.304-7.299-6.997 2.311-11.3 4.923-13.47 9.741-.5943 1.061-1.471 2.66-2.05 4.188 0 0-.2368-1.333.0221-2.168-.4529.0597-.9032.1295-1.351.2032.4470-.0809.8942-.1533 1.341-.2133.4182-1.663.7228-2.908 1.347-4.214-5.601 1.743-9.578 3.864-11.74 7.937-2.564 3.767-.8582 7.743 1.443 10.98 1.062 1.495 2.997 3.072 5.319 4.058.2590-2.134.7820-6.209 2.301-8.34-1.09 2.813.6464 7.446 2.065 9.524 1.787 2.6 3.518 5.137 7.608 6.869 4.782 2.006 8.504 2.48 13.24 5.089.004.0135.0107.0269.0152.0404-.00010 0 .0007.01.0007.01 1.489 1.155 4.169 4.196 5.47 6.878.0865.1749.2507.5246.4566 1.081.0331.0953.0706.1921.0977.2856.00043-.0001.00067-.0001.00049-.01.2468.7204.4718 1.592.4719 2.414.002 2.561-1.457 5.944.6679 9.251.8388 1.306 2.725 2.781 5.744 2.698 1.538-.0423 2.952-.1726 4.275-.4004zm-2.643-45.43c2.724-1.313 6.334-2.728 9.421-3.693.2698-.0722.5283-.1368.8066-.2158l-.0203.01c6.728-1.965 13.08-2.316 19.6-2.355 1.872-1.611 3.434-3.396 3.071-5.148-.1103-2.938-4.594-5.009-9.873-5.56.0244 0 .0481-.01.0709-.01-.1301-.0106-.2613-.0164-.3916-.026-.3160-.0289-.6332-.0558-.9536-.0731-.0469.0005-.095.01-.1420.01-6.746-.3566-13.63.4596-19.92 3.783h.0218c-2.343 1.231-3.635 2.397-4.564 3.218-3.903 3.408-3.003 7.835 2.878 10.07zm-37.44 1.717c-.003-.0192-.007-.0395-.0106-.0587.00087-.01.004-.01.006-.01.00098.0231.004.0452.005.0683zm13.91-7.014h-.0347l.01-.01c.01.01.0192.0001.0267 0zm15.65-3.624c1.046-1.823 2.571-3.256 4.219-4.593h.0244c5.163-2.889 10.1-5.062 15.53-5.585.3029-1.771.3498-4.032-.8687-5.604-3.382-3.058-10.15-2.298-15.3-.5266-9.642 2.999-13.28 7.215-12.58 10.56.5575 2.646 3.371 4.846 8.97 5.749z"/></g></svg>