<svg xmlns="http://www.w3.org/2000/svg" version="1.1" width="200px" height="100px" viewBox="0 0 200 100"><g transform="translate(1117 -13.79)"><path style="fill:#fff" d="m-1058 13.8c-12.59.4828-27.43 6.303-31.6 18.99-1.685 5.568.8705 11.67 5.736 14.88-11.8 2.512-25.48 5.838-32.32 16.51-2.886 6.87 2.861 13.84 8.967 16.67-1.159 9.726 9.444 15.96 18.2 16.37 3.118.2105 6.288.1385 7.38 3.447 7.267 8.06 19.91 9.039 29.84 5.865-.3918 3.768 2.302 8.388 6.72 7.028 8.925-1.778 16.47-7.372 21.47-14.73 2.106-1.969 4.387-6.291 7.451-2.921 7.158 5.182 13.94 14.43 24.08 12.35 6.139-.9612 7.189-8.123 4.987-12.82-1.057-2.503-.9967-7.001 3.136-5.398 12.41.4234 25.13 7.676 37.86 4.589 4.656-.7552 7.346-6.695 3.243-9.798-6.696-5.183-15.99-6.559-22.29-12.19 12.92-3.714 26.37-4.96 39.55-7.488 4.919-.5492 10.73-5.057 7.883-10.34-4.118-7.95-15.03-6.764-22.61-6.464-10.29.7734-20.48 2.585-30.78 3.319 4.084-3.155 10.61-9.284 5.894-14.46-6.065-5.146-14.36-1.617-20.73.8961-2.939.9109-6.757 2.914-9.394 2.811 1.203-5.554 4.571-14.31-2.288-17.69-6.497-3.555-13.5.8437-17.91 5.544-4.676 4.125-10.47 11.6-17.47 6.777-2.498-1.57-6.732-2.627-5.167-6.432.1915-7.607-6.182-13.74-13.64-14.75-2.036-.4217-4.122-.6004-6.202-.5535z"/><path style="fill:#37c8ab" d="m-984.2 71.11 57.53-13.66-64.68 1.276 19.38-16.97-35.17 10.59 4.471-23.35-25.34 19.27-38.45-22.33 17.52 34.27c-19.84 8.263-18.67 6.017 2.354 12.78l3.67 34.63 20.27-21.95 27.13 17.36-1.49-20.8 46.5 7.53z"/><path style="fill:#4d4d4d" d="m-1003 69.86 32.28-7.433-36.3.6947 10.87-9.239-19.74 5.766 2.509-12.71-14.22 10.49-21.58-12.16 9.834 18.65c-11.13 4.497-10.48 3.275 1.321 6.957l2.06 18.85 11.37-11.95 15.22 9.448-.8364-11.32 26.1 4.099z"/><path style="fill:#4d4d4d" d="m-1065 22.53c8.008-2.301 13.71-.8568 16.05 2.628 2.748 4.123-.1715 9.009 2.202 13.2 1.765 3.113 4.98 5.967 9.831 7.891 5.021 2.008 10.25 3.962 14.09 6.577 1.733 1.18 2.217 1.359 3.207 2.973 6.242.7091 11.94 5.479 13.4 8.691 2.158 4.779.6178 10.01-3.588 15.09-2.378 2.883-7.649 6.188-13.77 7.597-2.412 2.885-5.539 5.928-10.48 7.726-4.049 1.472-12.07 2.433-12.07 2.433-4.134 1.923-9.982 3.769-14.76 4.242-4.35.4293-8.91-.1284-11.36-1.814-3.056-2.098-2.633-5.075-2.39-7.787-4.087.03843-9.025.05283-12.65-.7099-7.042-1.484-10.72-3.713-11.26-8.546-.182-1.636 1.298-3.731 2.523-5.323-7.396-1.01-11.79-4.616-12.19-8.484-.2843-3.197 4.397-6.337 9.199-8.681 4.98-2.406 11.22-3.949 17.36-5.195 5.172-1.047 9.856-1.536 15.48-2.525-.756-5.285-12.24-6.992-14.1-11.99-1.136-3.057-1.379-6.681 1.343-9.855 3.321-4.039 7.511-6.257 13.94-8.13z"/><path style="fill:#edc" d="m-1062 25.08c-3.969.6817-7.122 2.236-10.38 4.895-5.471 4.456-5.412 10.82 1.271 13.82 5 2.32 9.792 3.814 10.39 8.384.1134 1.243-.9923 1.986-4.641 2.564-9.064 1.269-18.34 2.455-26.57 5.317-4.368 1.52-7.797 4.018-9.58 6.457-1.572 2.12.061 4.13 2.193 5.624 2.529 1.771 7.367 2.223 11.76 2.208.03.000096.06 0 .09 0-.028.0096-.055.0096-.084.0096 9.894-.01345 16.02-1.764 23.21-4.809.01-.0096.01-.0096.012 0 4.129-1.631 6.257-3.582 6.158-6.237-.1545-4.347-6.768-7.451-21.05-4.074-.063.0096-.1246.01633-.1863.02594 5.686-2.299 13.42-3.216 19.1-1.891 4.431 1.033 6.515 4.253 6.06 7.056-.3485 1.215-.6145 2.008-1.321 3.025l.0006.02402c.4357 1.809 2.835 3.443 4.548 4.983 2.899 2.596 8.432 4.581 15.09 3.297l-.068.02305c-5.224 1.105-7.364 1.902-14.7-.6762-.1497.7815-.1576 2.626-.1576 2.626l.023-.02402c7.191.7748 12.55 2.157 14.41 5.874 1.182 2.37-.3547 4.898-2.304 7.286 6.997-2.307 11.3-4.914 13.47-9.723.5942-1.059 1.471-2.655 2.05-4.181 0 0 .2368 1.331-.023 2.164.453-.05956.9031-.1293 1.351-.2028-.447.08069-.8942.1530-1.341.2129-.4181 1.66-.7228 2.903-1.347 4.206 5.601-1.74 9.578-3.856 11.74-7.923 2.564-3.76.8582-7.728-1.443-10.96-1.062-1.493-2.997-3.067-5.319-4.05-.2589 2.13-.7819 6.198-2.301 8.325 1.09-2.807-.6464-7.433-2.065-9.506-1.787-2.595-3.518-5.128-7.608-6.856-4.782-2.003-8.504-2.476-13.24-5.08 0-.01345-.011-.0269-.015-.04035.00010 0-.0007-.0096-.0007-.0096-1.489-1.152-4.169-4.189-5.47-6.865-.086-.1745-.2507-.5236-.4565-1.079-.033-.0951-.071-.1917-.098-.2850-.0005.000096-.0007.000096-.0005.0096-.2468-.7190-.4719-1.589-.472-2.41 0-2.556 1.457-5.933-.6678-9.234-.8389-1.303-2.725-2.776-5.744-2.693-1.538.04227-2.952.1722-4.275.3996zm2.643 45.34c-2.724 1.31-6.334 2.723-9.421 3.687-.2698.07205-.5284.1365-.8066.2154l.021-.0096c-6.728 1.961-13.08 2.312-19.6 2.351-1.872 1.608-3.434 3.39-3.071 5.139.1102 2.932 4.594 5 9.873 5.55-.024 0-.048.0096-.071.0096.1301.01057.2613.01633.3917.02594.316.02882.6332.05572.9535.07301.047-.00048.095-.0096.1421-.0096 6.746.3559 13.63-.4588 19.92-3.776h-.021c2.342-1.229 3.634-2.393 4.564-3.212 3.903-3.402 3.003-7.821-2.878-10.05zm37.44-1.714c0 .01921.01.03938.011.0586-.0008.0096 0 .0096-.01.0096v-.0682zm-13.91 7.001h.034l-.01.0096c-.01-.0096-.02-.000096-.026 0zm-15.65 3.617c-1.046 1.819-2.571 3.25-4.219 4.585h-.024c-5.163 2.884-10.1 5.053-15.53 5.574-.3029 1.767-.3499 4.025.8687 5.594 3.382 3.053 10.15 2.293 15.3.5257 9.642-2.994 13.28-7.201 12.58-10.54-.5575-2.641-3.371-4.837-8.97-5.738z"/></g></svg>