<svg xmlns="http://www.w3.org/2000/svg" version="1.1" width="200px" height="100px" viewBox="0 0 200 100"><g transform="translate(80.08 -1010)"><g transform="matrix(1.352 0 0 1.229 -12.71 -404.3)"></g><g style="fill:#fff" transform="matrix(1.115 0 0 .9726 100.4 1033)"><path style="fill:#fff" d="m-64.86-20.18c-3.886 1.303-6.667 5.246-10.04 6.705-5.079-6.552-14.26-10.66-22.43-7.545-8.008 2.497-9.765 13.74-3.621 19.11-2.466 1.972-4.829 6.196-5.949 8.006-2.602-10.3-16.11-15.68-25.19-10.1-10.31 2.352-24.24 3.401-28.93 14.69-3.418 9.757 4.143 21.63 14.48 22.49 2.459 10.49 3.573 24.25 14.53 29.62 6.077 2.7 12.97.005 18.91-.2383 3.451 3.909 9.203 2.962 13.47 4.334 5.103 3.372 11.77 3.233 17.32 2.371 12.05 8.105 19.36 16.66 23.3 2.107 3.974.5451 8.031-.7581 11.48-2.465 5.786 3.736 13.72 2.45 18.83-1.615 6.617 1.702 12.99-2.628 16.94-7.258 4.47-.7931 8.485-4.487 13.16-2.508 11.39.4184 21.01-14.51 13.3-23.94.5572-8.14-.4633-16.83-4.336-24.14-6.436-10.08-24.03-6.286-26.79 4.969-2.168.7494-3.652 1.051-3.162-1.695-2.05-15.01-16.73-23.43-27.56-31.86-9.39-7.016-13.71-4.403-17.72-1.032zm60.71 56.04c1.774 1.641-2.605-.1306 0 0z"/></g><g transform="matrix(1.352 0 0 1.229 224.1 -327.9)"><path style="fill:#555c60" d="m-150.1 1134c-1.079.8181-7.089 5.727-8.476 7.772-3.853 5.931 8.476 13.91 10.33 15.75-1.387-2.045-8.168-10.84-7.397-12.68 1.079-2.659 10.02-7.772 10.02-7.772l-4.469-3.068"/><ellipse style="fill:#555c60" rx="11.41" ry="8.3" cy="1132" cx="-142.9"/><path style="fill:#555c60" d="m-152.3 1108c-2.281-2-4.026-4.2-6.173-6.1-1.074-1-2.281-1.8-3.624-2.4-1.342-.6-2.684-.9-3.892-.7-.9394.1-1.879-.4-2.013-1.2-.1342-.8.4026-1.4 1.476-1.5h.2684.1342c2.281 0 4.295.8 5.771 1.8s2.416 2.1 3.355 3.2c1.745 2.3 2.952 4.7 4.697 6.9"/><path style="fill:#555c60" d="m-149.8 1108c1.745-2.2 2.818-4.6 4.697-6.9.9394-1.1 1.879-2.3 3.355-3.2 1.476-1 3.489-1.7 5.771-1.8h.1342c1.074 0 1.879.6 1.879 1.3s-.8052 1.3-1.745 1.4h-.4026c-1.208-.1-2.55.1-3.892.7s-2.416 1.5-3.489 2.4c-2.416 1.9-4.16 4.1-6.308 6.1"/><g style="fill:#6c767a" transform="matrix(1.342 0 0 1 -173.2 1094)"><path d="m16.5 8.6c-7.1 0-12.8 5.6-12.8 12.5 0 8.2 12.9 16.7 12.8 16.7 0 0 12.8-8.5 12.8-16.7 0-6.9-5.8-12.5-12.8-12.5"/><ellipse cy="20.9" cx="24.4" rx="6.5" ry="6.4"/></g><ellipse style="fill:#fcfcfa" rx="7.65" ry="5.7" cy="1115" cx="-140.5"/><ellipse style="fill:#3e4347" rx="5.234" ry="3.9" cy="1115" cx="-140.5"/><ellipse style="fill:#6c767a" rx="8.723" ry="6.4" cy="1115" cx="-161.8"/><ellipse style="fill:#fcfcfa" rx="7.65" ry="5.7" cy="1115" cx="-161.8"/><path style="fill:#3e4347" d="m-156.6 1115c0 2.2-2.281 3.9-5.234 3.9-2.818 0-5.234-1.8-5.234-3.9 0-2.2 2.281-3.9 5.234-3.9 2.952 0 5.234 1.8 5.234 3.9"/><path style="fill:#555c60" d="m-131.8 1131c2-.845 12.4-6.398 15.2-8.691 8.802-6.76-7.602-17.74-9.802-20.16 1.4 2.656 8.202 14.12 6.201 16.3-3.001 3.138-19.6 8.45-19.6 8.45l8.002 4.104"/></g><g style="stroke:#61664c;stroke-width:2.2;fill:#cdde87" transform="matrix(1.115 0 0 .9726 94.37 1049)"><path style="stroke:#61664c;stroke-width:2.2;fill:#cdde87" d="m10 29.29q-1.5.2175-2.847-.3422-1.322-.5411-2.216-1.655-.8973-1.135-1.161-2.651-.2112-1.457.3236-2.822.5316-1.387 1.642-2.303 1.132-.9190 2.633-1.136 2.305-.3341 4.098 1.005 0.89.6259 1.451 1.588.5613.9621.7189 2.049.3341 2.305-1.042 4.147-1.339 1.793-3.6 2.12zm-1.713-11.85q-1.392.2017-2.642-.3053-1.232-.5319-2.073-1.587-.8194-1.058-1.021-2.45l-1.737-11.99q-.3026-2.088.9618-3.781 1.227-1.643 3.271-1.94 2.022-.2931 3.715.9712.7718.5764 1.277 1.458.5270.8783.6751 1.9l1.74 11.98q.1986 1.37-.2867 2.617-.4885 1.225-1.5 2.06-1.011.8349-2.378 1.055z"/><path style="stroke:#61664c;stroke-width:2.2;fill:#cdde87" d="m-17.19 28.89q-2.632-2.175-2.351-4.244.08568-.6314.3466-1.084.5297-1.126 1.645-1.662 1.118-.5579 2.577-.3599.8927.1211 2.121.7091l.8572.3824.6019.3034q1.398.8106 2.575 1.125l.2613.03545.5443.07386q.5879.07977.8370-.2856.09159-.6750-.3461-1.045-.01882-.02473-.08118-.05537-.05941-.05242-.1218-.08305-.03764-.04946-.07823-.07714l-.3930-.2085-.8632-.3389-1.107-.5050-.8196-.3330q-1.929-.8161-3.172-1.628-1.218-.8305-1.87-1.739-.6310-.9061-.9752-2.128-.3324-1.309-.1610-2.572.2836-2.09 1.86-3.739 1.579-1.67 4.187-2.425 2.63-.7518 5.918-.3057 2.547.3457 4.477 1.162 3.039 1.299 3.967 2.955.4627.8389.3120 1.949-.1448 1.067-.9438 1.89-.7961.8011-1.988.9276-.5403.05973-1.085-.01413-.8492-.1152-2.174-.6497l-1.306-.5098-.6296-.2628-.7008-.2281q-.3366-.1344-.4890-.1550-1.285-.1743-1.465-.1544l-.09891.07527-.1484.1129q-.1731.1317-.1908.2624-.03841.2831.3745.6717.08118.05537.1406.1078.05941.05242.1406.1078l.3930.2085.6236.3064 1.497.7353 1.066.4773.9325.4813q1.334.6245 2.76 1.882 1.342 1.224 1.897 2.852 0.58 1.609.3613 3.22-.4609 3.397-3.818 5.425-3.116 1.883-7.819 1.245-.6096-.08273-1.948-.3530-3.987-.8514-6.13-2.539z"/><path style="stroke:#61664c;stroke-width:2.2;fill:#cdde87" d="m-34.26 42.51q-1.826-1.063-2.364-3.103l-6.66-25.24q-.5158-1.955.5108-3.748 1.042-1.82 3.018-2.342 1.296-.3420 2.575.02512 1.294.3402 2.229 1.298.9501.9310 1.292 2.227l3.207 12.15 2.259-5.391q.3718-.9162 1.213-1.775.9690-.8920 2.223-1.223.7648-.2018 1.639-.1599 1.574.1074 2.716 1.079 1.158.9443 1.556 2.453.2971 1.126.082 2.205-.2889 1.144-.8351 2.175l-1.692 3.06 6.421 4.441q1.276.9587 1.69 2.531.3027 1.147.06194 2.302-.1626 1.02-.7905 1.913-.6123.8660-1.517 1.4-.5288.3213-1.294.5232-1.168.3083-2.371.05751-1.202-.2508-2.119-1.054l-7.019-6.102 1.239 4.695q.2579.9773.1165 1.992-.1257.9876-.6418 1.874-1.032 1.772-2.966 2.282-2.018.5326-3.78-.5477z"/><path style="stroke:#61664c;stroke-width:2.2;fill:#cdde87" d="m-67.83 35.14q-.8043-1.938-.05005-3.884l5.463-14.1q.7940-2.049 2.634-2.844 1.868-.8077 3.815-.05339l2.799 3.724.06352-.1639q.1990-.08783.7609-0.2 3.572-.6424 6.378.4453.7990.3097 1.92 1.003 1.882 1.224 2.994 2.975t1.305 3.687q.1923 1.936-.5065 3.739l-4.208 10.86q-.5082 1.311-1.556 2.13-1.028.8272-2.339 1.049-1.312.2222-2.59-.2495-1.967-.7622-2.836-2.654-.8691-1.892-.09897-3.879l3.414-8.81q.3811-.9834-.06139-1.909-.3618-1.012-1.345-1.393-.9834-.3811-1.901.04091-1.019.5006-1.384 1.443l-3.398 8.769q-.7622 1.967-2.695 2.82-1.848.8156-3.774.06927-1.926-.7464-2.803-2.618z"/><path style="stroke:#61664c;stroke-width:2.2;fill:#cdde87" d="m-88.18 18.34q1.233-.7754 1.972-1.057 3.121-1.189 5.969.05361l.04694.1232 3.091-3.552q.3676-.5163 1.045-.7744 1.006-.3833 1.973.1183 2.382 1.068 3.344 3.593l5.429 14.25q.7901 2.074-.02335 3.889-.8135 1.815-2.805 2.574l-4.669-.7136.07823.2053q-1.143 2.74-4.387 3.976-1.068.4068-2.496.6689-2.05.3579-4.327-.1857-2.284-.5641-4.385-2.068-1.482-1.175-2.583-2.707t-1.938-3.729q-.9358-2.888-.6396-5.752.3167-2.872 1.714-5.191 1.389-2.34 3.591-3.72zm4.863 11.71q.5476 1.437 1.804 2.205 1.354.7773 2.73.2532.8213-.3129 1.396-1.026.5671-.7333.6775-1.739.1349-.7568-.03035-1.376-.1389-.4879-.4596-1.33-1.114-1.998-3.017-2.119-.8233-.06255-1.439.1721-1.129.4303-1.638 1.564-.5084 1.134-.2307 2.604.0577.2132.09975.3852.05476.1437.1076.4058z"/><path style="stroke:#61664c;stroke-width:2.2;fill:#cdde87" d="m-111.7 34.9q-2.002-.4090-3.154-2.125-1.126-1.733-.7040-3.799l5.225-25.58q.2639-1.292 1.138-2.279.8960-.9831 2.147-1.4 1.256-.4387 2.621-.2047 1.378.2815 2.361 1.178.9831.8961 1.396 2.169.4387 1.256.1660 2.591l-1.46 7.147q.8586-.2507 1.876-.4016 2.47-.2355 4.472.1736 1.959.4002 3.446 1.354 1.509.9586 2.404 2.285.8996 1.305 1.203 3.004.3248 1.703-.04023 3.49l-2.366 11.58q-.4266 2.088-2.19 3.253-1.737 1.148-3.847.7167-2.023-.5254-3.149-2.258-1.105-1.728-.6869-3.773l1.9-9.3q.1979-.9688-.3371-1.863-.5306-.9157-1.516-1.14-1.012-.2067-1.91.3498-.8986.5565-1.114 1.611l-1.909 9.343q-.2727 1.335-1.195 2.335-.9005 1.005-2.173 1.417-1.269.3912-2.603.1186z"/><path style="stroke:#61664c;stroke-width:2.2;fill:#cdde87" d="m-144.2-.07116q-.4084-1.789-.00085-3.426.3992-1.668 1.522-2.829 1.114-1.191 2.682-1.603l23.25-6.112q1.654-.4350 3.227.1164 1.564.5202 2.749 1.839 1.176 1.288 1.643 3.061.6083 2.668-.6506 4.961-1.259 2.294-3.581 2.904l-4.992 1.312 7.019 26.7q.5317 2.023.0365 3.916-.4744 1.855-1.751 3.255-1.256 1.361-3.142 1.857-1.916.5036-3.737-.04891-1.8-.5913-3.179-2.058-1.35-1.475-1.873-3.466l-7.019-26.7-4.702 1.236q-2.409.6334-4.621-.8145-2.182-1.455-2.878-4.1z"/></g></g></svg>