<svg xmlns="http://www.w3.org/2000/svg" version="1.1" width="200px" height="100px" viewBox="0 0 200 100"><g transform="translate(0 -952.4)"><path style="fill:#fff" d="m123.6 952.5c-4.911-.1615-9.119 3.329-12.94 5.817-10.38-5.605-24.42 1.163-27.8 12.86-2.419-8.493-12.19-15.15-20.04-10.25-2.701 0.88-3.873 6.203-6.871 3.955-6.909-2.515-15.12 2.12-17.5 8.933-7.038-3.979-16.99.2425-18.62 8.396-8.178-4.653-19.24 1.884-19.65 11.81-1.598 13.5 9.91 22.64 14.9 33.71 5.264 9.135 10.69 19.76 20.35 24.22 7.56 2.094 15.71-3.223 18.58-10.68 4.249 2.322 9.371 1.624 13.64.4459 5.167 3.084 11.67.4543 15.7-2.734 3.664 2.638 8.577 3.575 12.74 1.744 6.991 6.817 18.07 8.298 26.45 3.718 4.814 3.923 11.98 3.009 16.47-.8135 3.598 1.868 7.882.8122 11.43.046 6.789 8.204 20.41 4.96 24.72-4.501 2.688-4.462 3.935-9.965 3.113-15.22 8.156-1.612 15.78-6.755 19.09-15.07 5.819-12.16 2.091-29.93-10.72-35.04-5.667-2.842-12.62-2.028-18.07-.2148-5.352-7.829-17.76-8.191-23.41-.5532-1.714-11.12-10.1-21.8-21.56-20.57z"/><path d="m30.37 1036-20.28-33q-.4419-.7096-.7554-1.518-.7410-1.912-.8304-4.151-.07990-2.286.5913-3.998.5760-1.67 1.908-2.682 4.899-2.14 9.08 4.63l12.73 20.36-4.712-24.64q-1.03-5.525.6832-7.778.7041-.9095 1.703-1.346 1.688-.7377 3.671.5026 1.992 1.193 3.883 4.279l12.99 21.02-4.455-23.97q-1.518-7.934 3.38-10.07 1.441-.3716 3.157.4690 1.65.7408 3.075 2.482 1.435 1.694 2.162 3.569.3277.8455.4416 1.57l7.597 38.68q.9964 5.153.04881 8.447t-3.682 4.489q-2.463 1.034-5.221-.3411-2.772-1.411-5.076-4.918l-10.31-15.83 3.226 19.01q.4507 2.597.1359 5.013-.2911 2.406-1.333 4.022t-2.63 2.396q-1.76.7689-3.671.3574-1.902-.4587-3.775-2.134-1.863-1.722-3.736-4.687z" style="stroke:#493b30;stroke-width:2.351;fill:#9dac93"/><path d="m73.49 1034q-2.382.2202-4.313-2.235-1.908-2.497-2.22-6.299l-3.858-47.05q-.1949-2.376.4048-4.507.6253-2.133 1.86-3.444 1.231-1.351 2.839-1.579 1.64-.1516 3.072.953 1.433 1.105 2.373 3.132.9630 1.986 1.164 4.441l1.078 13.15q.8605-.8377 1.936-1.576 2.66-1.563 5.042-1.783 2.331-.2155 4.347.7554 2.041.9685 3.539 2.865 1.494 1.857 2.474 4.679 1.006 2.82 1.275 6.107l1.747 21.31q.3150 3.842-1.206 6.696-1.499 2.812-4.009 3.044-2.45.027-4.358-2.47-1.883-2.5-2.191-6.262l-1.403-17.11q-.1461-1.782-1.08-3.092-.9367-1.35-2.118-1.281-1.204.1113-1.993 1.501-.7895 1.39-.6303 3.33l1.409 17.19q.2013 2.455-.4463 4.63-.6220 2.172-1.882 3.486-1.264 1.274-2.852 1.421z" style="stroke:#493b30;stroke-width:2.351;fill:#9dac93"/><path d="m142.5 989.8q2.267-1.74 4.657-1.227l.5901.1266.9839-3.948q.9342-3.749 3.646-6.149 2.603-2.214 5.347-1.625 2.773.5955 4.104 3.738 1.271 3.382.3367 7.13l-.9342 3.749.7671.1647q2.301.4942 3.437 3.049 1.135 2.68.3498 5.831-.2186.8773-.6242 1.756-.4056.8791-1.008 1.674-.5627.7614-1.214 1.378-2.327 1.979-4.747 1.586l-.8261-.1774-5.168 20.74q-.9739 3.908-3.656 6.189-2.554 2.266-5.387 1.658-2.773-.5955-4.084-3.692-1.301-3.262-.3367-7.13l5.188-20.82-.4722-.1013q-2.537-.5448-3.751-3.41-1.037-2.449-.3016-5.4.8050-3.23 3.102-5.09z" style="stroke:#493b30;stroke-width:2.351;fill:#9dac93"/><path d="m158.3 1039q-2.39-1.213-2.927-4.702-.4985-3.514 1.197-7.279.8398-1.865 1.984-3.267 1.168-1.39 2.584-2.257 1.456-.8913 2.767-1.019 1.351-.1515 2.534.449 2.413 1.225 2.934 4.75.2629 1.632-.0554 3.541-.2950 1.921-1.103 3.714-1.68 3.73-4.67 5.561-2.833 1.735-5.246.5099zm18.4-24.41q-.0461-.024-.4055.014-.3430 0-.4752-.02l.2261-.502-8.965 5.54q-.3430 0-.9693-.316-1.74-.8832-2.006-3.838-.2262-2.979 1.518-6.852l.5470-1.088q1.23-2.416 2.5-3.842 1.309-1.451 2.814-2.008 1.528-.5461 3.323-.164l.1160.059.9644.137q.2179.022.2875.058.1089.011.2179.022 1.052.01 1.585-1.178.3392-.7532.2819-1.575-.0118-1.24-1.961-2.229-.8836-.3164-2.837-.0298-.1251.0246-.6971.2190l-.3753.0739-1.528.5460q-.2986.1569-1.768.3807-1.369.3186-2.506-.2584-.8352-.4239-1.298-1.232-.7835-1.235-.6973-3.262.1024-2.063 1.039-4.143 1.179-2.618 3.178-4.335 2.806-2.497 7.572-3.207 3.707-.3213 6.888 1.161.7656.3886 2.168 1.453 3.986 3.301 5.128 7.538t-.2819 9.551q-.7249 2.496-1.403 4.002-1.276 2.833-3.133 4.931t-4.135 3.233q-2.262 1.099-4.913 1.163z" style="stroke:#493b30;stroke-width:2.351;fill:#9dac93"/><path d="m108 971.3q2.499-.7576 3.883-.7576 5.844 0 9.727 5.77v.3497l7.266-5.886q.9227-.9325 2.191-.9325 1.884 0 3.153 2.156 3.23 4.895 3.23 12.06v40.45q0 5.886-2.461 9.616t-6.19 3.73l-7.19-6.178v.5828q-3.576 5.711-9.65 5.711-1.999 0-4.498-.6994-3.576-1.049-6.959-4.546-3.383-3.555-5.882-9.266-1.692-4.313-2.537-9.15-.8458-4.837-.8458-11.07.2691-8.043 2.537-14.86 2.307-6.819 6.036-11.25 3.729-4.487 8.189-5.828zm.6536 33.63q0 4.08 1.576 7.168 1.73 3.205 4.306 3.205 1.538 0 2.922-1.224 1.384-1.282 2.191-3.672.6920-1.748.8074-3.438.0769-1.34.0769-3.73-.5767-6.003-3.614-8.101-1.307-.9325-2.461-.9325-2.115 0-3.652 2.331-1.538 2.331-1.999 6.236-.0385.5828-.0769 1.049 0 .408-.0769 1.107z" style="stroke:#493b30;stroke-width:2.713;fill:#cdde87"/><path style="fill:#493b30" d="m112.7 973.9c2.307 5.107 3.144 13.71-4.549 17.29-7.693 3.583-13.57-2.672-15.88-7.779-7.132-15.78 13.29-25.3 20.42-9.512z"/><path style="fill:#fff" d="m110.5 975.6c1.871 4.053 3.217 10.99-2.92 13.79-6.137 2.797-10.58-2.797-12.42-6.797-6.337-13.9 8.941-20.86 15.34-6.993"/><path style="fill:#493b30" d="m108 974.5c1.626 3.598-.1114 7.778-3.72 9.459-3.676 1.712-7.862.2899-9.488-3.308-3.985-8.821 9.222-14.97 13.21-6.151"/><path style="fill:#493b30" d="m113.1 975.2c-.058 5.652 2.613 13.83 11.03 13.7 8.414-.1327 11.25-8.398 11.31-14.05.1794-17.47-22.16-17.12-22.34.3524z"/><path style="fill:#fff" d="m115.6 975.8c-.0484 4.53 1.604 11.48 8.513 11.37 6.909-.1047 8.712-7.164 8.759-11.63.0937-15.5-17.11-15.24-17.27.2617"/><path style="fill:#493b30" d="m116.1 974.4c-.0409 3.982 3.204 7.014 7.15 6.951 4.021-.0635 7.255-3.197 7.296-7.179.1002-9.763-14.35-9.535-14.45.2279"/></g></svg>