<svg xmlns="http://www.w3.org/2000/svg" version="1.1" width="200px" height="100px" viewBox="0 0 200 100"><g transform="translate(0 -952.4)"><text style="letter-spacing:0px;font-size:18.84px;word-spacing:0px;font-family:sans-serif;line-height:125%;fill:#000000" xml:space="preserve" transform="scale(1.115 .8971)" y="1147.0577" x="273.13385"><tspan x="273.13385" y="1147.0577"/></text><g style="fill:#fff" transform="matrix(1.049 0 0 .9080 -406.5 122.6)"><path style="fill:#fff" d="m518.4 913.8c-6.382.1810-12.78 2.362-17.58 6.459-5.496 1.624-9.294 6.678-11.46 11.59-11.01-.0554-17.99 11.04-18.25 21.1-.6889 2.297 1.002 6.791-.6562 7.367-4.966-1.18-10.34.6705-14.52-2.729-4.165-2.038-9.126-1.221-13.29-.7148-4.307-4.276-7.666-10.17-14.19-11.41-10.96-3.387-23.37-1.715-33.54 3.256-7.362 4.658-8.673 14.3-6.426 22.1 1.612 10.11 2.189 20.68 5.703 30.31 5.867 10.43 23.48 11.29 29.2.3457 5.477 6.856 16.48 7.308 23.1 2.396 7.544 6.808 18.95 8.762 28.42 5.225 7.162 5.592 17.08 6.546 25.66 4.211 3.867 4.251 10.25 4.705 15.26 4.814 7.909 10.01 27.02 6.59 29.36-6.531.6043-3.922-.8406-8.246 2.232-11.41 1.072-3.373 1.395-8.004 6.035-7.75 6.553-3.249 13.67-5.249 20.38-7.857 7.199-4.768 4.881-17.36-3.758-18.88-1.562-.8065-6.019.5756-3.387-1.881 8.164-11.97 4.547-29.55-7.072-37.95-5.388-4.891-13.8-7.136-20.52-3.707-3.558-4.177-9.273-7.135-14.73-5.961-1.591-1.517-3.767-2.424-5.973-2.4z"/></g><g transform="matrix(.9815 -.1596 .2163 .7245 -353.2 261.8)"><path style="fill:#961623" d="m233.7 1061c-.7092 8.019 5.073 16.23 13.6 17.96 9.212 1.87 18.35-4.439 20.08-12.97.0199-.098.0199-.098.0398-.196-9.346-3.223-22.81 1.288-33.72-4.802"/><path style="fill:#4d4d4d" d="m272.1 1067c2.267-11.17-1.926-19.17-1.926-19.17l-31.95-6.484s-6.998 5.824-9.246 16.9c-2.148 10.58 4.957 22.33 16.21 25.23l2.156.4376c11.49 1.719 22.59-6.231 24.76-16.91m-25.32 14.15c-9.604-1.949-15.99-11.2-15.2-20.13.0213-.6079.1606-1.294.2799-1.882 1.969-9.702 7.965-14.61 7.965-14.61l27.64 5.609s3.511 6.835 1.679 16.36l-.0398.196c-1.909 9.408-12.03 16.54-22.32 14.45"/></g><g style="fill:#42ade2" transform="matrix(.8776 -.7566 1.025 .6478 84.3 998.7)"><path d="m44.5 14.8 9.6-8.3-4.6-3.3z"/><path d="m48.9 16.5 9.1 2v-4.8z"/><path d="m41.3 11.7 2.3-9.7h-4.9z"/></g><g transform="matrix(-.9815 .1596 .2163 .7245 179.1 174.7)"><path style="fill:#961623" d="m233.7 1061c-.7092 8.019 5.073 16.23 13.6 17.96 9.212 1.87 18.35-4.439 20.08-12.97.0199-.098.0199-.098.0398-.196-9.346-3.223-22.81 1.288-33.72-4.802"/><path style="fill:#4d4d4d" d="m272.1 1067c2.267-11.17-1.926-19.17-1.926-19.17l-31.95-6.484s-6.998 5.824-9.246 16.9c-2.148 10.58 4.957 22.33 16.21 25.23-1.351 6.154-3.232 12.4-5.159 14.36-2.793 2.698-9.922-.3811-10.6 2.951l25.68 5.211c.6762-3.332-7.09-3.276-8.61-6.849-1.013-2.552-.3078-9.042.8473-15.24 11.49 1.719 22.59-6.231 24.76-16.91m-25.32 14.15c-9.604-1.949-15.99-11.2-15.2-20.13.0213-.6079.1606-1.294.2799-1.882 1.969-9.702 7.965-14.61 7.965-14.61l27.64 5.609s3.511 6.835 1.679 16.36c-.0199.098-.0398.196-.0398.196-1.909 9.408-12.03 16.54-22.32 14.45"/></g><g style="stroke:#004755;stroke-width:2.4;fill:#ffd42a" transform="matrix(1.049 0 0 .9080 -228.9 98.99)"><path style="stroke-width:2.4" d="m237.8 1024q-2.292-1.848-2.719-4.687l-4.357-28.97q-.5141-3.419 1.089-5.763 1.603-2.345 4.616-2.798l12.75-1.917q4.78-.7189 8.827.7760 4.042 1.466 6.631 4.691 2.584 3.196 3.233 7.513.7832 6.193-2.431 10.82-3.214 4.631-9.586 6.389-1.307.3742-2.581.566l-5.36.806.8932 5.939q.4618 3.071-1.299 5.35-1.649 2.233-4.459 2.656-2.897.4358-5.243-1.374zm8.304-24.56 5.476-.8234q1.362-.2048 2.174-1.305.8615-1.166.6698-2.441-.1961-1.304-1.296-2.116-1.187-.7992-2.519-.5988l-5.476.8235.9716 6.461z"/><path style="stroke-width:2.4" d="m268.7 1023q-2.634-.1674-4.397-2.08-1.762-1.941-1.594-4.574l1.233-19.39q.1692-2.662 2.166-4.42t4.63-1.591l5.657 4.383.0178-.2802.3630-.3989.7468-.6840q2.421-2.237 5.032-2.156.9246.0588 1.583.3257 1.654.5272 2.727 1.805 1.1 1.28 1.309 2.868.0515.9598.023 1.408-0.13 2.045-1.625 3.441-1.494 1.368-4.614 2.211-.3154.092-.5448.1623-.2295.07-.6325.213-1.465.4695-2.427.9991-.9340.5314-1.457 1.23-.4946.7-.7584 1.752-.2340 1.026-.3498 2.847l-.3580 5.632q-.1158 1.821-1.054 3.309-.9368 1.46-2.451 2.264-1.514.8041-3.225.7234z"/><path style="stroke-width:2.4" d="m297.7 1027q-4.512 0-8.245-2.068-3.706-2.068-5.854-5.613-2.148-3.572-2.175-7.788 0-4.216 2.122-7.842 2.148-3.652 5.881-5.774t8.271-2.122q3.223 0 5.989 1.047 2.766 1.021 4.968 2.927 1.343 1.155 2.336 2.524 1.021 1.37 1.665 2.847.6714 1.477.9936 3.062.3223 1.584.3223 3.169 0 2.659-.9131 5.21-.8862 2.551-2.686 4.7-1.799 2.122-4.324 3.572-3.787 2.148-8.352 2.148zm-4.297-15.52q0 2.283 1.235 3.733 1.262 1.45 3.062 1.45.1611 0 .8325-.1343 2.9-.5908 3.357-3.894.1074-.8594.1074-1.208 0-1.584-.7251-2.686-1.316-2.202-3.572-2.202-2.229 0-3.572 2.202-.7251 1.182-.7251 2.739z"/><path style="stroke-width:2.4" d="m314.4 1028q-3.206-2.364-3.013-4.792.0591-.7411.3338-1.285.5444-1.345 1.809-2.042 1.266-.7219 2.978-.5855 1.048.084 2.517.6897l1.023.3901.7207.3147q1.681.854 3.072 1.145l.3068.024.6389.051q0.69.055.9566-.3867.0631-.7921-.4705-1.195-.0234-.028-.0983-.059-.0724-.057-.1473-.089-.0472-.055-.0962-.085l-.4712-.2176-1.027-.339-1.322-.5167-.9762-.335q-2.3-.8262-3.8-1.692-1.472-.8889-2.291-1.906-.7935-1.015-1.273-2.416-.4716-1.503-.3535-2.986.1955-2.453 1.925-4.475 1.732-2.048 4.721-3.095 3.015-1.046 6.874-.738 2.99.2384 5.29 1.065 3.624 1.318 4.812 3.187.5931.9474.4892 2.251-.0998 1.252-.9775 2.262-.8757.9847-2.257 1.209-.6255.1045-1.264.053-.9966-.079-2.574-.615l-1.554-.5098-.7503-.2656-.8311-.2202q-.4007-.1348-.5797-.1488-1.508-.1201-1.716-.086l-.1104.094-.1656.1411q-.1931.1647-.2054.318-.0265.3321.4796.7583.0981.059.1706.1168.0727.056.1706.1169l.4713.2176.7462.3165 1.791.7601 1.273.4872 1.117.5004q1.595.6415 3.337 2.015 1.642 1.34 2.394 3.2.7794 1.837.6287 3.728-.3178 3.986-4.098 6.565-3.508 2.395-9.028 1.955-.7155-.057-2.292-.2856-4.699-.7346-7.305-2.562z"/><path d="m341.5 1006q1.741-.8481 3.642-.3046l.4694.1345.6644-2.324q.6308-2.206 2.703-3.417 1.992-1.106 4.175-.4823 2.207.6309 3.346 2.683 1.1 2.193.4688 4.4l-.6308 2.206.6103.1744q1.831.5235 2.8 2.197.9722 1.751.4420 3.605-.1476.5163-.4428 1.016-.2952.4995-.7480.9287-.4226.4124-.9190.7276-1.781.989-3.702.5158l-.6572-.1879-3.49 12.21q-.6576 2.3-2.71 3.44-1.952 1.143-4.205.4989-2.207-.6309-3.33-2.653-1.12-2.123-.4688-4.4l3.503-12.25-.3756-.1072q-2.019-.5771-3.058-2.449-.8884-1.6-.3918-3.337.5436-1.901 2.304-2.82z"/><path style="stroke-width:2.4" d="m360.2 1040q-1.785-.4981-3.014-1.789-1.21-1.258-1.66-2.945-.4422-1.712.0114-3.538.4836-1.733 1.756-2.995 1.28-1.288 2.973-1.763 1.72-.468 3.505.03 2.742.7651 4.085 3.147.6858 1.139.8380 2.492t-.2083 2.646q-.7651 2.742-3.213 4.122-2.382 1.343-5.072.5921zm3.934-14.1q-1.655-.4621-2.803-1.646-1.114-1.203-1.533-2.798-.3934-1.588.0685-3.243l3.977-14.25q.6930-2.483 2.943-3.751 2.184-1.231 4.615-.5523 2.406.6713 3.674 2.921.5781 1.026.7075 2.261.1552 1.242-.1840 2.458l-3.977 14.25q-.4548 1.63-1.613 2.784-1.151 1.128-2.694 1.562-1.543.4339-3.18 0z"/></g></g></svg>