<svg xmlns="http://www.w3.org/2000/svg" version="1.1" width="200px" height="100px" viewBox="0 0 200 100"><g transform="translate(985.7 -76.65)"><g style="fill:#fff" transform="matrix(1.18 0 0 0.98 206.3 93.48)"><path style="fill:#fff" d="m-968.8-17.17c-14.64.9584-31.98 6.759-37.14 21.98-2.474 6.156.6919 12.64 3.656 17.99-4.698 4.549-5.24 12.46-1.772 17.88-11.87 13.1-5.913 37.5 11.43 42.5 6.454 2.423 13.73 1.767 20.11-.1445 4.851 3.108 10.91.8942 15.79.3887 5.825 3.047 12.3-.4309 18.29 1.312 4.025-.0631 7.863-1.567 11.74-.0566 4.597-.0486 9.148-1.532 13.62.1035 3.916.5968 7.711-1.822 11.01-2.736 7.283 3.716 16.05 3.411 23.6.9941 4.725 2.692 10.6 1.444 15.25.1074 10.02 5.675 24.2-3.777 22.29-15.32.5475-8.558.0879-19.14-7.764-24.46 8.411-6.189 5.56-21.46-4.689-24.18-6.714-1.994-13.69-.3125-20.53-.8457-3.257-8.963-10.71-18.9-21.45-17.37-13.07.6157-22.6 10.92-32.76 17.57-5.019 1.54-2.937-4.202-4.785-6.918-2.876-6.829-8.709-11.83-11.5-18.67-5.384-7.62-15.55-10.18-24.41-10.13z"/></g><flowRoot xml:space="preserve" style="font-size:20px;letter-spacing:0px;word-spacing:0px;font-family:sans-serif;line-height:125%;fill:black"><flowRegion><rect y="-116.1" width="318.5" x="-101.8" height="244.2"/></flowRegion><flowPara/></flowRoot><path style="fill:#ffe1bd" d="m-832.2 122.9c6.19 6.234-11.82 11.12-21.94 11.12-10.13 0-34.89-2.19-29.82-8.761 5.064-6.908 25.04-19.21 35.17-19.21 10.13-.1685 10.69 10.78 16.6 16.85"/><path style="fill:#e6b796" d="m-914.7 116.5-33.2-.3370s9.847 5.56 13.5 13.48l19.69-6.065c-2.532-2.696 0-7.076 0-7.076"/><path style="fill:#594640" d="m-964.5 114.5c-9.847-9.941-3.376-13.82-3.376-13.82 1.407-7.413 25.88-13.31 35.45-12.13 19.69 2.359 17.72 12.8 15.19 13.48l-21.23 12.3s4.635 11.12 17.01 10.61l-23.91 8.593-19.13-19.04"/><path style="fill:#ffe1bd" d="m-918.6 119.5c-8.721 1.685-10.41 4.044-23.63-6.234l5.908-2.022s4.783-.8424.2813-10.78c-1.969-4.549 2.532-10.11 6.752-8.256 8.44 3.875 6.189 6.739 8.44 7.75 4.22 2.022 7.033 0 8.44 1.685.8441 1.011-1.969 2.022-1.688 2.359.2814.6740 1.688.6740 3.376.8424 1.97 0 0 1.516 1.97 2.864 2.251 1.516 3.095 2.022 3.095 2.022-.5627.8424-2.251 1.348-.8441 2.359 2.813 2.19 4.501 4.212-12.1 7.413"/><path style="fill:#c94747" d="m-911.3 107.6c.2814-.5055.8441-1.011.8441-1.348.2813-.5054.2813-.8424-.8441-1.348.5627 0 1.125 0 1.688.3370.5627.3370.8442.6739.8442 1.179v1.011c.5627.1685 1.125.3370 1.688.5055.5626.3370.8441.6740 1.125 1.011.2814.3370.2814.6739.2814 1.011-.8441-.3370-1.688-.8424-2.251-1.011-.2814 0-.5630-.1685-.8441-.1685h-1.125-2.251l.8439-1.179"/><path style="fill:#574137" d="m-932.4 102.2c1.125-.1685 1.97 0 2.814.1685.8441.1685 1.969.1685 3.095.1685 1.125 0 2.251-.1685 3.095-.5055.8441-.3370 1.688-1.011 1.407-1.685-1.688.8424-3.095.8424-5.064.8424-.8441 0-1.969 0-2.813.1685-.8442-.1685-1.97.1685-2.532.8424"/><path style="fill:#e2d8c7" d="m-809.2 129.1c0 31-33.76 31.68-75.68 31.68s-75.4-.6740-75.4-31.68h151.1"/><path style="fill:#c6bbb3" d="m-808.3 131.3h-152.8c-11.53 0-11.53-8.087 0-8.087h152.8c9.847 0 9.847 8.087 0 8.087"/><g style="stroke:#5b768a;stroke-width:2;fill:#b7c4c8" transform="matrix(1.18 0 0 0.98 157.4 2.182)"><path d="m-955.4 163.4q-1.78-2.373-2.747-5.076-.9448-2.703-.9448-5.273 0-2.593.9668-5.208.9888-2.637 2.856-4.966 4.153-5.098 10.99-6.064 1.868-.2637 3.56-.2637 2.461 0 4.395.5493 1.934.5273 3.186 1.428 1.274.8789 1.89 1.956.6372 1.077.6372 2.263 0 1.604-.9009 2.703-.7031.9228-1.428 1.296-.7031.3735-1.846.3735-.9448 0-1.538-.0879-1.143-.1978-3.142-.9448-.9228-.2637-2.395-.2637-2.593 0-4.46 1.516-1.846 1.494-2.461 4.329-.1318.6592-.1318 1.428 0 .7251.1318 1.494.3516 1.868 1.187 3.164.8350 1.296 2.153 1.956 1.318.6372 3.054.6372 2.175 0 5.164-1.033.0439-.022.1978-.0659.1538-.0439.2637-.0659.7690-.1758 1.67-.1758 2.153 0 3.406 1.384 1.121 1.318 1.121 2.834 0 1.384-.9448 2.791-1.187 1.824-4.351 3.01-2.263.9009-5.449.9009-1.604 0-3.384-.2637-4.68-.7251-8.13-3.647-1.318-1.077-2.571-2.615z"/><path d="m-923.6 170q-2.043 0-3.516-1.45-1.45-1.472-1.45-3.582v-26.1q0-1.318.6592-2.461.6812-1.143 1.824-1.802 1.143-.6812 2.527-.7251 1.406 0 2.549.6812t1.802 1.846q.6812 1.143.6812 2.505v7.295q.7910-.4175 1.758-.7690 2.373-.7251 4.417-.7251 2 0 3.647.6372 1.67.6372 2.812 1.758 1.143 1.099 1.78 2.703.6592 1.604.6592 3.428v11.82q0 2.131-1.494 3.625-1.472 1.472-3.625 1.472-2.087-.1099-3.538-1.582-1.428-1.472-1.428-3.56v-9.492q0-.9888-.7031-1.758-.7031-.7910-1.714-.8130-1.033 0-1.802.7251t-.7690 1.802v9.536q0 1.362-.7031 2.527-.6812 1.165-1.846 1.824-1.165.6372-2.527.6372z"/><path d="m-895.7 170q-2.065 0-3.538-1.45-1.45-1.472-1.45-3.582v-15.16q0-1.384.6592-2.527.6812-1.165 1.824-1.824 1.165-.6812 2.549-.6812 1.362.022 2.505.7031 1.143.6812 1.802 1.824.6812 1.143.6812 2.549v15.07q0 2.131-1.472 3.604-1.472 1.472-3.56 1.472zm-3.735-27.8q-1.538-1.538-1.538-3.823 0-2.175 1.582-3.823.7690-.7471 1.714-1.143.9448-.3955 1.978-.3955 2.175 0 3.735 1.626 1.516 1.582 1.516 3.779 0 2.263-1.516 3.779t-3.735 1.516-3.735-1.516z"/><path d="m-886.4 168.6q-1.494-1.494-1.494-3.604v-26.06q0-1.318.6812-2.461t1.846-1.802q1.165-.6812 2.571-.6812 1.34.022 2.461.7251 1.143.6812 1.78 1.824.6592 1.143.6592 2.483v25.93q0 2.153-1.428 3.647-1.538 1.428-3.56 1.428-2.021 0-3.516-1.428z"/><path d="m-873.8 168.6q-1.494-1.494-1.494-3.604v-26.06q0-1.318.6812-2.461t1.846-1.802q1.165-.6812 2.571-.6812 1.34.022 2.461.7251 1.143.6812 1.78 1.824.6592 1.143.6592 2.483v25.93q0 2.153-1.428 3.647-1.538 1.428-3.56 1.428-2.021 0-3.516-1.428z"/><path d="m-836.9 155.8q0 2.197-.9448 3.098-.9448.9009-3.142.9009h-11.71q.0879.1318.8130.8569.6372.4834 1.208.7251.5933.2197 1.582.3735.9888.1318 2.395.1318 1.362-.0659 3.45-.6372 1.604-.3955 2.263-.3955 1.78 0 2.834 1.033 1.077 1.033 1.077 2.549 0 .5493-.0879.8569-.2417.8350-.7690 1.494-.5054.6592-1.362 1.187-.8350.5054-2.373 1.055-1.89.5713-3.867.8130-1.384.1758-2.966.1758-3.274 0-6.021-.9448-2.725-.9668-4.68-2.725-1.956-1.758-2.966-4.131-1.011-2.373-1.011-5.186.0659-2.483 1.099-4.746 1.055-2.285 2.812-3.911 1.78-1.648 4.219-2.593 2.439-.9448 5.273-.9448 3.757.0659 6.702 1.736 1.802 1.055 3.164 2.615 1.384 1.538 2.153 3.274.7910 1.714.8569 3.34zm-15.71-.9009h5.361q0-.2637-.0439-.4394-.3296-2.175-3.054-2.175-1.604.3955-2.175 2.219-.0879.2637-.0879.3955z"/><path d="m-833.4 168.6q-1.45-1.516-1.45-3.604v-15.12q0-2.197 1.428-3.604 1.45-1.428 3.538-1.428l3.955 2.461v-.1758q.1538-.1538.6372-.4614 3.098-1.89 6.108-1.89.8569 0 2.153.2417 2.197.4614 3.867 1.692 1.67 1.23 2.549 2.966.8789 1.736.8789 3.669v11.65q0 1.406-.6812 2.549-.6592 1.143-1.802 1.824-1.143.6812-2.505.7031-2.109 0-3.604-1.45-1.494-1.45-1.494-3.582v-9.448q0-1.055-.7471-1.758-.7031-.8130-1.758-.8130t-1.758.7251q-.7690.8350-.7690 1.846v9.404q0 2.109-1.494 3.604-1.428 1.428-3.494 1.428-2.065 0-3.56-1.428z"/></g></g></svg>