<svg xmlns="http://www.w3.org/2000/svg" version="1.1" width="200px" height="100px" viewBox="0 0 200 100"><g transform="translate(0 -952.4)"><path style="fill:#fff" d="m136.4 952.4c-7.279-.1343-12.05 6.546-14.51 11.95-6.988 1.029-13.63-1.552-20.47-1.165-2.566-.5163-5.661-.7280-7.847-.5569-5.487-14.1-30.04-12.88-34.12 1.549-2.392 3.679-5.631-.9453-8.976-.6099-4.661-.3263-6.82-5.467-11.49-6.348-9.277-3.154-20.07-2.365-28.94 1.509-7.383 4.44-8.727 13.88-6.434 21.32.09434 9.91-.02785 23.61 10.89 28.65 14.98 2.841-10.57 6.422-14.15 14.23-2.48 12.33 9.367 22.62 20.37 26.5 19.11 6.248 39.69 1.235 58.6-3.134 7.477-2.323 14.65-5.535 21.34-9.492 4.897 8.718 15.82 11.91 25.4 11.68 4.929 1.538 9.891-1.936 14.66.3404 4.841.9794 9.363-2.408 13.85-2.222 4.96.4521 9.724 1.203 14.44 2.656 11.02 1.168 22.27-10.89 16.93-21.09 3.184-5.804 2.184-12.93 2.708-18.88 9.803-3.188 12.76-14.5 10.78-23.32-.1087-9.831-7.142-21.13-18.25-21.42-3.465-10.45-19.2-13.63-26.69-5.252-1.378 1.28-2.114 4.304-2.992 1.035-2.995-5.102-9.003-8.353-15.11-7.928z"/><path style="fill:#373e42" d="m82.67 1022c.1008 0 .1008 0 0 0"/><path style="stroke:#373e42;stroke-width:3.679;fill:#c4c8b7" d="m103.3 1006c-1.715-4.934-35.04 2.036-33.33 6.97 1.417 3.84 3.847 7.054 6.72 9.562-4.747 1.635-10.02 3.083-15.64 4.283-5.752 1.153-11.19 1.923-16.37 2.417.7711-3.304.6687-7.044-.7926-10.78-1.67-5.041-35 1.929-33.24 6.755 2.532 6.954 8.366 12.13 14.84 13.95 8.572 2.571 23.7 2.424 39.86-.9326 18.62-3.836 32.96-10.8 36.78-17.09 2.705-3.97 3.187-9.476 1.17-15.13"/><path d="m21.71 999q-2.227.1408-3.971-1.27-1.722-1.434-1.916-3.596l-2.012-22.41q-.1545-1.72.3993-3.011.5748-1.314 1.732-2.055 1.155-.7626 2.875-.9056l10.29-.8557q3.232-.2687 5.795.4958 2.561.7425 4.307 2.441 1.744 1.677 2.595 4.206.5094 1.557.6223 2.814.4060 4.521-2.538 7.477l-.1655.2137-1.004.9056-.6212.5404 4.446 4.763q1.302 1.38 1.466 3.211.1089 1.213-.3860 2.387-.4740 1.15-1.526 2.038-1.376 1.136-3.003 1.272-2.934.2439-5.243-2.586l-7.913-9.429.6932 7.719q.1307 1.456-.4978 2.685-.6056 1.228-1.757 2.035-1.153.7847-2.666.9105zm3.62-20.63 4.516-.3754q.8023-.0667 1.299-.7079.5176-.6652.4324-1.613-.09026-.7479-.6630-1.211-.5728-.4634-1.238-.4082l-4.699.3907.3526 3.926z" style="stroke:#6d0000;stroke-width:2.054;fill:#c15252"/><path d="m51.81 998.3q-5.359-1.032-7.728-4.045-2.345-3.033-1.891-8.238l.7673-8.801q.1231-1.412.9338-2.501.8107-1.09 2.061-1.655 1.275-.5857 2.719-.4692 2.155.1739 3.538 1.796 1.407 1.602 1.219 3.764l-.7558 8.669q-.1115 1.279.4536 1.947.4735.6602 1.373.9327 1.697.1369 2.478-.6219.6461-.5254.7615-1.849l.7558-8.669q.1212-1.39.9338-2.501.8146-1.134 2.066-1.721 1.277-.6078 2.721-.4913 1.467.1184 2.6.8984 1.135.7580 1.722 1.961.6107 1.204.4877 2.616l-.7673 8.801q-.3038 3.485-1.637 5.799-1.331 2.292-3.814 3.491-2.481 1.177-6.161 1.28-1.412.0415-2.398-.038-1.055-.0851-2.44-.3524z" style="stroke:#6d0000;stroke-width:2.054;fill:#c15252"/><path d="m66.11 975.6q.6148-.7094 1.404-1.103.8119-.3959 1.773-.4955l.2287-.0237-.2687-2.399q-.2884-2.575.4097-4.607t2.206-3.234q1.531-1.205 3.476-1.407l2.196-.2277q1.899-.1969 3.462.3313 1.563.5281 2.487 1.546.9239 1.017 1.064 2.272.06409.5722-.0629 1.298-.5154 2.836-3.314 3.26l-.4297.0891-.183.0189q-.1323.0582-.3055.1653-.3055.1653-.3952.3972-.1967.3098-.1671.5739l.1419.8536.2745-.0285q1.235-.1281 2.308.3618t1.784 1.463q.7335.9704.8740 2.225.1793 1.807-1.005 3.221t-3.014 1.604l-.2745.0284 1.247 11.14q.1553 1.387-.4003 2.624-.5581 1.216-1.671 2.021-1.093.7812-2.511.9282-2.153.2009-3.848-1.093-1.698-1.316-1.937-3.451l-1.247-11.14-.183.0189q-2.022-.0798-3.499-1.285-1.414-1.056-1.609-2.794-.2021-1.805.9890-3.153z" style="stroke:#6d0000;stroke-width:2.054;fill:#c15252"/><path d="m92.17 995.6q-1.452-1.606-1.298-3.726l1.105-15.24q.1008-1.391.8972-2.514.8193-1.121 2.084-1.702 1.264-.5808 2.665-.4869l3.718 2.158.0572-.1515q1.412-.7041 3.19-1.051 2.014-.4196 3.666-.3087 3.167.2126 5.974 2.221l.4809.3651.4169.2943.4291-.1931.9287-.4037q1.754-.6589 3-.9747 1.925-.4699 3.761-.3466 2.594.1741 4.714 1.47 2.122 1.274 3.242 3.324 1.144 2.03.9730 4.392l-.8598 11.86q-.1025 1.413-.8988 2.536-.7948 1.101-2.036 1.683-1.219.5839-2.619.4899-2.18-.1464-3.635-1.709-1.455-1.562-1.3-3.704l.6757-9.319q.032-.4416-.1212-.8735-.1302-.4304-.4521-.7626-.2973-.3528-.6992-.5351-.4003-.2044-.8594-.2352-.9410-.0632-1.676.5310t-.8022 1.522l-.6821 9.407q-.1585 2.186-1.804 3.562-1.547 1.294-3.727 1.148-2.18-.1464-3.611-1.729-.6357-.7749-.9554-1.773-.2968-.9963-.2279-1.946l.6853-9.451q.0641-.8833-.5535-1.59-.5930-.7277-1.509-.8114-.9869-.0662-1.768.5248-.7579.5926-.8252 1.52l-.6885 9.495q-.1569 2.164-1.777 3.52-1.596 1.335-3.707 1.193-2.112-.1417-3.568-1.682z" style="stroke:#6d0000;stroke-width:2.054;fill:#bc5b5b"/><path d="m139.9 999q-2.16.1051-3.776-1.279-1.594-1.407-1.706-3.53l-.8019-15.25q-.0732-1.393.5557-2.576.6507-1.206 1.811-1.928 1.182-.7446 2.629-.8150 1.426-.0471 2.657 0.58 1.231.6272 1.981 1.743.7728 1.115.8471 2.53l.7973 15.17q.1127 2.144-1.349 3.701-1.462 1.556-3.645 1.662zm-5.376-27.78q-1.69-1.469-1.811-3.768-.1151-2.189 1.452-3.927.7647-.7908 1.732-1.237.9671-.4460 2.047-.4986 2.275-.1107 3.992 1.446 1.669 1.515 1.785 3.725.1197 2.277-1.386 3.88-1.505 1.603-3.826 1.716-2.321.1129-3.986-1.335z" style="stroke:#6d0000;stroke-width:2.054;fill:#bc5b5b"/><path d="m143.7 992.8q-2.278-3.75-1.874-7.738.2285-2.025 1.286-4.016 1.06-2.013 2.695-3.55 1.192-1.045 2.201-1.639 1.966-1.15 4.206-1.585 2.242-.4567 4.922-.2052 1.466.1376 2.212.2966 7.753 1.506 7.206 6.904-.4401 1.605-1.8 2.478-1.36.8732-3.215.6991-.3435-.0322-.7925-.1634l-.2245-.0655-1.187-.3783-.6048-.1902-.9645-.2907q-.4032-.1268-1.25-.2064-1.832-.1720-3.032.7163-1.197.8662-1.365 2.519-.0318.9979.3340 1.722.3680.7018 1.187 1.29.8875.5948 2.032.7023.6183.058 1.502.007l.1374.0129 1.687-.2198q.6797-.0919 1.808-.0527 2.29.2150 3.461 1.659 1.194 1.447.9595 3.76-.3536 1.435-1.562 2.411-1.206.9543-3.442 1.345-2.236.3906-5.419.0919-3.817-.4251-6.639-2.002-2.797-1.597-4.464-4.311z" style="stroke:#6d0000;stroke-width:2.054;fill:#bc5b5b"/><path d="m169 1e3q-2.135.1398-3.776-1.217-1.62-1.38-1.77-3.501l-1.857-26.24q-.0938-1.325.5136-2.519.6303-1.195 1.777-1.936 1.145-.7628 2.588-.9017 1.469-.0962 2.711.5102t2.014 1.732q.7928 1.102.8898 2.471l.5189 7.332q.7967-.4738 1.782-.8933 2.427-.8912 4.562-1.031 2.089-.1368 3.856.3908 1.79.5262 3.063 1.574 1.272 1.026 2.052 2.595.8027 1.567.9324 3.4l.8409 11.88q.1516 2.142-1.303 3.746-1.433 1.58-3.683 1.728-2.188.0324-3.808-1.348-1.597-1.382-1.745-3.48l-.6752-9.541q-.0704-.9938-.8596-1.719-.7908-.7469-1.848-.6998-1.079.0707-1.831.8521-.7518.7814-.6752 1.864l.6783 9.585q.0969 1.369-.5548 2.588-.6288 1.217-1.798 1.959-1.171.7202-2.594.8134z" style="stroke:#6d0000;stroke-width:2.054;fill:#bc5b5b"/><path d="m120.3 1012q1.517-.1485 2.342-.072 3.481.3225 5.576 2.718l-.0133.1323 4.551-1.824q.5849-.3015 1.341-.2314 1.122.1038 1.796.9891 1.738 2.029 1.467 4.739l-1.531 15.29q-.2228 2.226-1.83 3.5t-3.828 1.068l-4.049-2.732-.0221.2203q-2.346 1.962-5.964 1.627-1.191-.1104-2.653-.5143-2.09-.5941-3.973-2.103-1.881-1.531-3.153-3.828-.8444-1.724-1.165-3.599-.3208-1.876-.0843-4.233.4647-3.026 2.074-5.479 1.632-2.451 4.021-3.919 2.391-1.491 5.099-1.751zm-.8834 12.75q-.1544 1.542.6676 2.797.9092 1.307 2.444 1.45.9161.085 1.787-.3013.8730-.4083 1.444-1.267.4784-.6226.6111-1.255.0967-.5027.1869-1.406-.1163-2.301-1.846-3.262-.7433-.4248-1.43-.4885-1.26-.1167-2.264.6798t-1.427 2.247q-.045.2182-.0858.3923-.0154.1544-.0874.4145z" style="stroke:#6d0000;stroke-width:2.054;fill:#b33232"/><path style="stroke:#6d0000;stroke-width:2.054;fill:#b33232" d="m140.9 1037q-1.677-1.365-1.908-3.456l-1.669-15.14q-.2426-2.201 1.089-3.762 1.352-1.585 3.526-1.807l4.39 2.045-.0195-.1761q.1432-.1704.6125-.53 3.017-2.222 6.152-2.542.8923-.091 2.269.014 2.339.2288 4.214 1.284t2.981 2.701q1.107 1.646 1.32 3.583l1.286 11.67q.1552 1.409-.4278 2.626-.5602 1.215-1.675 2.018-1.115.8037-2.531.9704-2.196.2241-3.912-1.07t-1.951-3.429l-1.043-9.465q-.1164-1.057-.9720-1.682-.8219-.7396-1.92-.6275-1.098.1114-1.75.9131-.7086.9181-.5970 1.931l1.038 9.421q.2329 2.113-1.158 3.769-1.329 1.583-3.48 1.802-2.151.2196-3.864-1.053z"/><path d="m170.9 1038q-1.581-.1406-2.815-1.006-1.213-.8415-1.85-2.143-.6353-1.324-.5328-2.871.1419-1.477 1.021-2.688.8810-1.233 2.236-1.868 1.378-.6332 2.959-.4926 2.428.216 3.925 1.95.7527.8228 1.088 1.898.3357 1.075.2298 2.177-.2245 2.336-2.077 3.817-1.802 1.44-4.185 1.228zm1.154-12.01q-1.466-.1303-2.615-.9217-1.124-.8113-1.722-2.043-.5750-1.229-.4395-2.64l1.167-12.15q.2033-2.116 1.905-3.476 1.652-1.32 3.805-1.129 2.131.1895 3.544 1.827.6446.7465.9429 1.729.3213.9846.2218 2.02l-1.167 12.15q-.1334 1.389-.9330 2.496-.7974 1.085-2.031 1.664-1.234.5793-2.679.473z" style="stroke:#6d0000;stroke-width:2.054;fill:#b33232"/></g></svg>