<svg xmlns="http://www.w3.org/2000/svg" version="1.1" width="200px" height="100px" viewBox="0 0 200 100"><g transform="translate(80.08 -1010)"><path style="fill:#fff" d="m-34.87 1010c-3.81.036-6.466 3.414-7.666 6.405-5.612-3.469-14.35.5213-13.7 7.267-6.427-2.389-13.78 4.098-11.17 10.41.2923 1.677-4.199.6068-5.805 1.575-2.672 1.077-9.276 1.073-5.952 4.855 1.331 3.089 4.087 6.004 5.904 8.363-5.627 2.48-7.36 10.45-2.081 14.13 3.297.8256-.3275 2.278-.6055 4.093-2.195 4.686.8193 11.25 6.515 11.62-3.356 6.01 3.027 13.83 9.882 11.79-1.374 6.699 7.344 12.58 13.27 8.398.6477 3.949.4112 7.4 4.219 9.005 4.498 1.896 8.25-2.008 11.1-5.558 3.439 5.033 12.34 5.407 15.06-.4568.1430-3.384 3 .3276 5.08-.2106 5.089.7136 9.846-3.667 9.898-8.125 6.606 2.055 13.33-4.91 10.45-11.02.2789-1.11 3.692-.9838 4.838-2.416 7.403-5.749 6.568 17.76 16 20.88 6.045 1.939 12.37-1.472 16.6-4.999 6.417 3.154 13.68.2834 20.25 1.611 4.334 11.56 20.4 15 31.39 10.42 11.9-4.259 15.44-17.55 15.53-28.51.2712-6.746 1.102-14.11-.5171-20.54 6.799-6.322 6.566-16.45 6.088-24.79-2.036-8.978-12.13-14.87-21.35-13.44-4.229-1.724-9.221-1.613-13.33.1231-4.848-1.943-10.43-1.629-15.36-.794-6.168-7.407-19.66-5.308-24.08 2.526-2.971-.6716-5.575 2.77-8.026.2695-3.151-1.1-7.104-.4908-9.11-3.595-8.439-6.139-20.25-4.536-29.21-.7815-2.892-2.389-7.158-1.751-10.39-.4318-1.821-6.46-11.61-8.668-15.62-3.572-1.756-2.585-4.771-4.66-8.104-4.498z"/><path style="fill:#fc0" d="m-5.779 1075 5.598 11.08-11.91-4.475 1.331 12.26-9.605-8.134-3.097 11.96-6.141-10.81-7.152 10.22-1.937-12.19-10.34 7.242 2.501-12.09-12.29 3.393 6.637-10.54-12.75-.8653 9.973-7.711-11.67-5.019 12.11-3.956-9.19-8.568 12.78.276-5.598-11.08 11.91 4.475-1.331-12.26 9.605 8.134 3.097-11.96 6.141 10.81 7.152-10.22 1.937 12.19 10.34-7.242-2.501 12.09 12.29-3.393-6.637 10.54 12.75.8653-9.973 7.711 11.67 5.02-12.11 3.956 9.19 8.568z"/><path d="m16.71 1048q2.131-.724 2.845-2.07l-2.547.3797q-1.822.2718-3.286-.7695-1.442-1.044-1.723-2.77-.1456-1.157.2653-2.152.4076-1.016 1.291-1.716.9038-.7035 2.064-.8764l8.222-1.226q4.535-.6762 5.312 4.104.2257 1.388.1743 2.899.0099 1.888-.8099 4.021-.9118 2.35-2.625 4.21-1.695 1.837-4.11 3.03-2.394 1.19-5.439 1.644-1.74.2593-3.904.257-2.977-.044-5.528-.862-2.534-.841-4.597-2.443t-3.506-3.824q-1.68-2.634-2.15-5.53-.6190-3.808.8385-7.499 1.475-3.714 4.8-6.485 3.628-2.999 8.764-3.765.6627-.099 1.918-.2046 2.245-.152 4.461.1677 2.133.3322 4.081 1.098 3.995 1.741 4.417 4.339.2515 1.547-1.036 3.019-.9111 1.05-2.402 1.272-1.098.1637-2.421-.1469l-.04142.01-1.926-.6271q-.6314-.2307-.9614-.3035-2.776-.7644-5.012-.4309-1.802.2686-3.118 1.176-1.319.8874-2.056 2.358-.7366 1.471-.7635 3.263-.03399.5739.05307 1.109.1128.6942.3435 1.33.6597 1.71 1.819 2.837 1.156 1.107 2.718 1.586 1.58.4551 3.423.1803 1.118-.1667 2.153-.5851z" style="stroke:#a60b0b;stroke-width:1.867;fill:#ffb380"/><path d="m35.21 1056q-4.883-.9277-7.047-3.656-2.141-2.746-1.736-7.468l.6841-7.982q.1097-1.28.8465-2.27.7367-.9895 1.874-1.504 1.16-.5333 2.476-.4298 1.964.1544 3.226 1.623 1.285 1.45 1.117 3.411l-.6739 7.862q-.09945 1.16.4165 1.765.4324.598 1.253.8437 1.546.1215 2.257-.5678.5877-.4773.6906-1.678l.6739-7.862q.1080-1.26.8465-2.27.7401-1.029 1.88-1.564 1.162-.5532 2.478-.4497 1.337.1051 2.37.8107 1.035.6854 1.572 1.775.5584 1.091.4487 2.372l-.6841 7.982q-.2709 3.161-1.481 5.261-1.209 2.08-3.468 3.171-2.258 1.071-5.61 1.17-1.286.04-2.184-.031-.9609-.076-2.223-.3157z" style="stroke:#a60b0b;stroke-width:1.867;fill:#ffb380"/><path style="stroke:#a60b0b;stroke-width:1.867;fill:#ffb380" d="m50.8 1034q1.293-1.001 2.988-.9166l.4186.021.1077-1.984q.1023-1.884 1.603-3.237 1.453-1.254 3.4-1.158 1.968.098 3.317 1.532 1.343 1.554 1.241 3.439l-.1023 1.884.5442.027q1.633.081 2.766 1.243 1.151 1.223 1.065 2.807-.02393.441-.1745.8959t-.4466.8822q-.2740.4085-.6285.7527-1.299 1.121-2.998 1.097l-.5861-.029-.5657 10.42q-.1066 1.964-1.604 3.257-1.412 1.276-3.422 1.176-1.968-.098-3.297-1.511-1.346-1.494-1.241-3.439l.5678-10.46-.3349-.016q-1.8-.09-3.03-1.397-1.052-1.118-.9712-2.601.08811-1.624 1.384-2.685z"/><path d="m89.38 1042q-.2348 1.995-1.227 2.716-.9919.7211-3.075.4962l-11.1-1.199q.06922.1286.6790.8611.5523.504 1.068.7819.5389.2601 1.46.501.9231.2209 2.256.3648 1.298.08 3.338-.2253 1.563-.1948 2.187-.1273 1.687.1822 2.576 1.228.9102 1.048.7481 2.424-.05866.4987-.1749.769-.3183.7332-.8886 1.278-.5495.5467-1.418.9377-.8454.3734-2.362.7146-1.852.3251-3.752.3421-1.331.018-2.83-.144-3.103-.3352-5.606-1.474-2.479-1.156-4.145-2.952t-2.37-4.054q-.7044-2.258-.4038-4.811.3279-2.247 1.549-4.196 1.244-1.966 3.084-3.262 1.863-1.314 4.276-1.922t5.099-.3179q3.554.4446 6.167 2.262 1.595 1.142 2.72 2.698 1.148 1.538 1.691 3.192.5666 1.637.4553 3.12zm-14.8-2.426 5.082.5487q.02819-.2394.0053-.4035-.07992-2.008-2.662-2.287-1.563.1949-2.299 1.792-.1115.2303-.1256.3501z" style="stroke:#a60b0b;stroke-width:1.867;fill:#ffb380"/><path d="m86.59 1052q-1.166-1.557-.8868-3.445l2.025-13.67q.2943-1.987 1.832-3.076 1.561-1.106 3.532-.8379l3.406 2.733.02356-.1589q.1659-.1194.6636-.3357 3.179-1.312 6.022-.9254.8093.11 2.001.4951 2.013.6992 3.426 2.026 1.412 1.327 2.01 3.01.5975 1.683.3385 3.432l-1.56 10.53q-.1884 1.272-.9848 2.218-.7756.9489-1.946 1.418-1.17.4694-2.46.3146-1.992-.2707-3.209-1.774t-.9313-3.431l1.266-8.546q.1413-.954-.4701-1.686-.5551-.8255-1.551-.9608-.9961-.1354-1.757.4303-.8382.6566-.9736 1.571l-1.26 8.506q-.2826 1.908-1.894 3.068-1.54 1.108-3.491.8435-1.951-.2649-3.17-1.748z" style="stroke:#a60b0b;stroke-width:1.867;fill:#ffb380"/><path d="m15.99 1065q-.1874-1.405.2746-2.627.4579-1.247 1.461-2.044.9995-.8223 2.304-1.01l19.35-2.788q1.377-.1985 2.608.3528 1.227.5266 2.082 1.634.8506 1.083 1.086 2.481.2790 2.095-.9264 3.751t-3.138 1.934l-4.154.5987 3.547 21.04q.2687 1.594-.2851 3.005-.5338 1.383-1.682 2.352-1.128.9412-2.698 1.168-1.594.2296-3.027-.3428-1.412-.6001-2.413-1.838-.9762-1.241-1.241-2.81l-3.547-21.04-3.913.5639q-2.005.2887-3.682-1.002-1.653-1.294-2.004-3.379z" style="stroke:#7e1414;stroke-width:2.389;fill:#ffe680"/><path d="m53.97 1062q1.587-.3392 2.466-.3481 3.712-.038 6.182 2.396l.000308.149 4.612-2.557q.5855-.4034 1.391-.4119 1.197-.012 2.004.8988 2.055 2.066 2.06 5.122l.02746 17.24q.004 2.51-1.556 4.115-1.56 1.606-3.929 1.63l-4.571-2.587.0004.2485q-2.267 2.458-6.126 2.498-1.27.013-2.858-.2688-2.272-.424-4.423-1.892-2.151-1.494-3.743-3.912-1.077-1.828-1.618-3.884-.5406-2.056-.5448-4.715.1655-3.43 1.602-6.352 1.461-2.922 3.826-4.834 2.366-1.938 5.198-2.538zm.4380 14.33q.0028 1.739 1.006 3.046 1.101 1.355 2.737 1.339.9768-.01 1.855-.5411.8783-.5556 1.39-1.579.4384-.7499.5105-1.471.04782-.5719.04624-1.591-.3704-2.555-2.301-3.43-.8310-.3889-1.564-.3814-1.343.014-2.318 1.018-.9753 1.004-1.266 2.671-.02401.2488-.04808.4476.000279.174-.04804.4726z" style="stroke:#7e1414;stroke-width:2.389;fill:#ffe680"/><path d="m87.57 1062q1.335-.1736 2.674-.072 3.725.2808 5.745 2.801l-.018.2476 4.791-2.256q.5401-.3581 1.368-.2957 1.193.091 1.978 1.071 1.888 2.31 1.665 5.384l-1.262 17.35q-.3082 4.238-1.546 7.46-1.214 3.223-3.324 5.307-2.087 2.11-5.043 3.034-2.933.9502-6.537.6786-1.047-.08-1.53-.1651-4.507-.6387-6.91-2.265-1.94-1.267-2.841-2.681-.8784-1.387-.7756-2.8.07751-1.066.6627-2.044 1.405-2.486 4.132-2.28.9252.07 1.853.4387l.1217.012 1.583.7921q.06941.056.3075.1478.2624.095.4743.2103 1.802.8086 3.847.9627 1.893-.1062 2.848-.7822.9549-.6758 1.2-2.028.06667-.2443.09731-.6657-2.511 1.206-5.068 1.014-.9495-.071-2.585-.4689-2.207-.6149-4.164-1.984-2.854-2.159-4.281-5.431-1.402-3.271-1.121-7.137.2299-2.824 1.208-5.167 1.004-2.366 2.578-4.142 1.6-1.798 3.637-2.891 2.04-1.117 4.235-1.351zm-.6081 14.08q-.1108 1.861.8983 3.133 1.011 1.247 2.569 1.365.5356.041 1.058-.07 2.188-.4581 3.029-2.937.09011-.5664.1676-1.632-.1678-1.732-1.141-2.827-.9487-1.093-2.336-1.198-.4869-.036-1.058.07-.9991.2737-1.914 1.077-1.135 1.136-1.272 3.019z" style="stroke:#7e1414;stroke-width:2.389;fill:#ffe680"/></g></svg>