<svg xmlns="http://www.w3.org/2000/svg" version="1.1" width="200px" height="100px" viewBox="0 0 200 100"><g transform="translate(80.08 -1010)"><g transform="matrix(1.248 0 0 1.036 -9.829 -173.8)"></g><path d="m35.67 1010c-7.634.3096-14.66 3.906-20.25 8.429-3.511.4547-7.462.2753-9.447-2.767-7.164-5.031-18.58-8.38-26.28-2.552-4.587 4.357-3.518 12.38 1.864 15.67-6.869 4.017-11.78 12.26-7.437 19.42 3.485 6.759 13.49 10.34 17.97 14.59-4.167-.4275-8.231-2.464-12.64-1.436-2.833-.2476-6.326 2.771-8.105-.2157-10.63-9.091-26.91-9.662-40.39-6.842-7.871 2.403-12.71 10.44-10.48 17.78.7869 10.08-1.037 21.46 5.17 30.41 7.864 7.395 20.45 4.811 30.31 3.503 3.724-.7316 7.367-2.311 10.62-3.823 5.74 4.208 13.64 5.28 20.62 4.139 4.514 2.382 9.956.5189 14.44.072 5.768 2.868 12.83 1.452 18.33-1.263 4.619 2.686 10.55 2.49 15.5 1.329 5.04 2.331 11.07 1.028 15.89-.9467 4.986 3.276 11.97 3.703 17.44 1.167 8.043 3.793 17.56 1.424 25.8 1.468 11.18 6.248 28.27-4.239 24.35-16.2-.7120-1.996-2.789-3.96-.4399-5.709 1.962-6.984 1.403-14.39 1.224-21.48-3.09-11.03-22.02-14.3-28.48-4.126-1.651 1.616-.9589 5.566-4.314 3.663-5.873-1.102-12.04-.3627-17.61 1.561-2.274-1.526-5.022-2.431-7.822-2.688 9.405-2.814 20.18-9.84 18.98-20.01-2.457-12.64-16.04-19.53-26.66-26.06-5.661-2.981-11.32-6.861-18.12-7.081z" style="fill:#fff"/><g style="stroke-opacity:.9216;stroke:#61664c;stroke-width:2.6;fill:#cdde87" transform="matrix(1.588 0 0 1.251 69.1 -336.3)"></g><g transform="matrix(1.588 0 0 1.251 252.8 -352.6)"><path style="fill:#555c60" d="m-150.1 1134c-1.079.8181-7.089 5.727-8.476 7.772-3.853 5.931 8.476 13.91 10.33 15.75-1.387-2.045-8.168-10.84-7.397-12.68 1.079-2.659 10.02-7.772 10.02-7.772l-4.469-3.068"/><ellipse style="fill:#555c60" rx="11.41" ry="8.3" cy="1132" cx="-142.9"/><path style="fill:#555c60" d="m-152.3 1108c-2.281-2-4.026-4.2-6.173-6.1-1.074-1-2.281-1.8-3.624-2.4-1.342-.6-2.684-.9-3.892-.7-.9394.1-1.879-.4-2.013-1.2-.1342-.8.4026-1.4 1.476-1.5h.2684.1342c2.281 0 4.295.8 5.771 1.8s2.416 2.1 3.355 3.2c1.745 2.3 2.952 4.7 4.697 6.9"/><path style="fill:#555c60" d="m-149.8 1108c1.745-2.2 2.818-4.6 4.697-6.9.9394-1.1 1.879-2.3 3.355-3.2 1.476-1 3.489-1.7 5.771-1.8h.1342c1.074 0 1.879.6 1.879 1.3s-.8052 1.3-1.745 1.4h-.4026c-1.208-.1-2.55.1-3.892.7s-2.416 1.5-3.489 2.4c-2.416 1.9-4.16 4.1-6.308 6.1"/><g style="fill:#6c767a" transform="matrix(1.342 0 0 1 -173.2 1094)"><path d="m16.5 8.6c-7.1 0-12.8 5.6-12.8 12.5 0 8.2 12.9 16.7 12.8 16.7 0 0 12.8-8.5 12.8-16.7 0-6.9-5.8-12.5-12.8-12.5"/><ellipse cy="20.9" cx="24.4" rx="6.5" ry="6.4"/></g><ellipse style="fill:#fcfcfa" rx="7.65" ry="5.7" cy="1115" cx="-140.5"/><ellipse style="fill:#3e4347" rx="5.234" ry="3.9" cy="1115" cx="-140.5"/><ellipse style="fill:#6c767a" rx="8.723" ry="6.4" cy="1115" cx="-161.8"/><ellipse style="fill:#fcfcfa" rx="7.65" ry="5.7" cy="1115" cx="-161.8"/><path style="fill:#3e4347" d="m-156.6 1115c0 2.2-2.281 3.9-5.234 3.9-2.818 0-5.234-1.8-5.234-3.9 0-2.2 2.281-3.9 5.234-3.9 2.952 0 5.234 1.8 5.234 3.9"/><path style="fill:#555c60" d="m-131.8 1131c2-.845 12.4-6.398 15.2-8.691 8.802-6.76-7.602-17.74-9.802-20.16 1.4 2.656 8.202 14.12 6.201 16.3-3.001 3.138-19.6 8.45-19.6 8.45l8.002 4.104"/></g><path d="m-68.92 1093-1.601-24.97q-.1018-1.587.6966-3.018.8254-1.457 2.35-2.302 1.552-.8707 3.384-.9588l9.275-.4463q4.895-.2356 8.934.5153 4.066.7246 7.131 2.393 3.092 1.642 5.234 4.15 2.171 2.507 3.333 5.858.7140 2.179.8667 4.56.2449 5.161-2.349 9.49-2.594 4.328-7.537 6.954-4.916 2.599-11.21 2.902l-11.36.5469q-2.777.1336-4.893-1.53-2.09-1.69-2.247-4.145zm13.27-4.867 3.235-.1557q3.006-.1446 5.231-1.271 2.252-1.153 3.422-3.05t1.024-4.178q-.0588-.9173-.4198-2.069-.8428-2.845-3.731-4.447t-7.096-1.4l-2.719.1309 1.054 16.44z" style="stroke-opacity:.9216;stroke:#61664c;stroke-width:2.842;fill:#cdde87"/><path d="m-19.5 1070q1.888-.1839 2.917-.1077 4.342.3216 6.985 2.985l-.01468.1484 5.646-2.099q.7247-.3451 1.667-.2753 1.4.1037 2.252 1.089 2.194 2.256 1.894 5.299l-1.695 17.17q-.2467 2.499-2.231 3.947-1.985 1.448-4.755 1.243l-5.083-3.018-.02446.2475q-2.896 2.228-7.409 1.894-1.485-.1101-3.313-.5443-2.613-.6423-4.98-2.313-2.365-1.696-3.982-4.258-1.076-1.924-1.502-4.024-.4257-2.1-.1643-4.748.5371-3.4 2.508-6.17 2-2.768 4.956-4.443 2.959-1.7 6.329-2.024zm-.9240 14.31q-.1710 1.732.8707 3.13 1.151 1.456 3.065 1.598 1.143.084 2.222-.3588 1.082-.4682 1.782-1.438.5875-.7042.7440-1.415.1133-.5649.2134-1.579-.1768-2.58-2.346-3.638-.9321-.4677-1.789-.5313-1.571-.1164-2.811.7886-1.24.9052-1.747 2.538-.05298.2455-.1011.4412-.01717.1732-.1035.4659z" style="stroke-opacity:.9216;stroke:#61664c;stroke-width:2.842;fill:#cdde87"/><path d="m5.157 1098q-1.982-1.636-2.108-3.993l-.9132-17.07q-.1327-2.481 1.644-4.143 1.804-1.688 4.525-1.798l5.304 2.571-.01061-.1984q.1912-.1817.8026-.5543 3.924-2.296 7.847-2.453 1.117-.045 2.821.1603 2.892.4059 5.143 1.708t3.501 3.215q1.25 1.914 1.367 4.097l.7035 13.15q.08492 1.588-.7338 2.913-.7901 1.324-2.238 2.153-1.448.8288-3.222.9248-2.749.1105-4.784-1.449-2.035-1.559-2.164-3.965l-.57-10q-.06378-1.191-1.08-1.945-.9655-.881-2.34-.8259-1.375.055-2.247.9107-.9519.9828-.8909 2.124l.5681 10.62q.1274 2.381-1.73 4.146-1.775 1.687-4.467 1.795-2.692.1081-4.726-1.426z" style="stroke-opacity:.9216;stroke:#61664c;stroke-width:2.842;fill:#cdde87"/><path d="m37.83 1097q-1.857-1.766-1.729-4.147l1.585-29.47q.1228-2.282 2.102-3.868 2.01-1.609 4.673-1.502 1.747.07 3.195.8996 1.478.8056 2.266 2.155.8184 1.326.7370 2.839l-.7633 14.19 4.921-5.047q.8213-.8618 2.205-1.502 1.555-.6333 3.245-.5652 1.031.042 2.103.3833 1.917.6492 2.959 2.083 1.072 1.411.9774 3.172-.0707 1.315-.7608 2.406-.8073 1.136-1.89 2.062l-3.304 2.726 6.255 6.964q1.213 1.466 1.114 3.302-.07209 1.34-.8234 2.502-.6015 1.045-1.732 1.794-1.101.7263-2.436.9957-.7839.1671-1.815.1256-1.575-.063-2.974-.7415-1.399-.6782-2.225-1.855l-6.349-8.957-.2949 5.482q-.06138 1.141-.6343 2.187-.5429 1.022-1.532 1.803-1.978 1.561-4.584 1.456-2.721-.1098-4.491-1.872z" style="stroke-opacity:.9216;stroke:#61664c;stroke-width:2.842;fill:#cdde87"/><path d="m97.75 1083q.2203 2.476-.9186 3.573t-3.997 1.288l-15.24 1.017q.1275.1408 1.144.895.8774.4893 1.645.712.7938.1961 2.096.2835 1.3.063 3.129-.059 1.766-.1923 4.424-1.018 2.047-.5849 2.905-.6422 2.315-.1545 3.791.9175 1.504 1.07 1.656 2.779.0551.619-.02862.9733-.2307.9618-.8507 1.75-.5914.7868-1.653 1.455-1.036.642-2.981 1.394-2.401.8079-4.949 1.252-1.783.3184-3.841.4558-4.259.2842-7.927-.542-3.641-.8528-6.362-2.664-2.72-1.811-4.273-4.397t-1.835-5.756q-.1632-2.804.9535-5.444 1.143-2.667 3.267-4.651 2.15-2.012 5.228-3.288t6.766-1.523q4.895-.2522 8.892 1.374 2.45 1.032 4.378 2.672 1.955 1.613 3.13 3.502 1.201 1.862 1.45 3.689zm-20.53.349 6.975-.4656q-.0264-.2971-.1012-.4913-.6468-2.423-4.191-2.186-2.047.5851-2.607 2.69-.08797.3047-.07467.4533z" style="stroke-opacity:.9216;stroke:#61664c;stroke-width:2.842;fill:#cdde87"/><path d="m102.7 1101q-1.976-.089-3.557-1.005-1.554-.8906-2.416-2.322-.8601-1.456-.8133-3.195.09958-1.662 1.131-3.058 1.033-1.421 2.686-2.192 1.683-.7699 3.658-.6811 3.035.1366 4.989 2.015.9802.8895 1.454 2.08.4741 1.19.3998 2.43-.1576 2.629-2.386 4.368-2.168 1.693-5.146 1.559zm.8104-13.52q-1.832-.083-3.304-.9195-1.441-.8605-2.25-2.215-.7801-1.353-.6850-2.94l.8193-13.66q.1427-2.381 2.191-3.98 1.988-1.552 4.679-1.431 2.663.1198 4.508 1.894.8415.8086 1.264 1.897.4514 1.09.3815 2.255l-.8193 13.66q-.0937 1.562-1.031 2.838-.9362 1.251-2.443 1.954-1.506.7032-3.312.6469z" style="stroke-opacity:.9216;stroke:#61664c;stroke-width:2.842;fill:#cdde87"/></g></svg>