<svg xmlns="http://www.w3.org/2000/svg" version="1.1" width="200px" height="100px" viewBox="0 0 200 100"><g transform="translate(985.7 -76.65)"><flowRoot xml:space="preserve" style="font-size:20px;letter-spacing:0px;word-spacing:0px;font-family:sans-serif;line-height:125%;fill:black"><flowRegion><rect y="-116.1" width="318.5" x="-101.8" height="244.2"/></flowRegion><flowPara/></flowRoot><g style="stroke:#000;stroke-linecap:square;stroke-width:3;fill:#deaa87"><path style="fill:#fff;stroke-width:0" d="m-939.3 76.66c5.118-.07542 10.25.09654 15.3.8474 18.86 3.124 38.11 12.41 45.09 27.66 6.278-1.054 13.99 1.083 17.41 5.892 4.626-7.045 18.14-8.515 24.63-2.429 8.296 1.373 16.76.5276 25.15-.1882 11.26-1.227 23.42 4.766 25.56 14.09 2.041 7.168-3.466 14.68-11.96 17.04.3304 1.848 1.555 4.412.9834 6.617-.7711 9.391-16.49 14.03-25 8.037-6.139 3.578-15.94 2.95-20.75-2.076-6.419 1.451-14.68-.6397-18.02-5.823-1.847 2.078-4.985 5.185-8.806 6.02-8.2 1.031-16.42 3.954-24.88 2.588-2.446 2.758-6.565 4.887-10.92 5.432-8.248.4801-17.47 3.31-25.09-.7176-.8960 3.241-2.718 6.312-5.276 8.905-11.78 12.83-39.6 9.745-47.52-4.657-7.347-11.71 3.659-26.48 18.73-29.18-2.22-7.976 2.158-16.37 9.245-21.89-8.622-2.591-15.92-10.33-14.18-18.19 2.302-11.37 17.14-17.82 30.32-17.98z"/><path style="stroke:#5e5e5e;stroke-linecap:square;stroke-width:2.755;fill:#de8787" d="m-965.5 168.9q-7.134-2.76-9.619-8.49-2.38-5.754 1.418-11.14 1.881-2.669 4.755-4.496 2.943-1.8 6.739-2.683 3.901-.9074 7.6-.6521 3.804.2308 7.336 1.598 7.203 2.787 9.653 8.568 1.195 2.683.8108 5.604-.3146 2.948-2.123 5.514-3.761 5.338-11.77 7.202-7.591 1.766-14.79-1.021zm45.71-32.35q-.1385-.0536-1.15-.1186-.9758-.1163-1.358-.1990l.5063-.7185-24 5.67q-.9758-.1163-2.846-.8399-5.195-2.01-6.759-6.795-1.459-4.81 2.447-10.35l1.26-1.537q2.842-3.407 6.065-5.23 3.329-1.847 7.462-2.208 4.202-.3338 9.415.8995l.3463.1340 2.783.5542q.6264.1117.8342.1921.3133.0559.6266.1118 2.997.3756 4.19-1.318.7595-1.078.3716-2.404-.3726-1.973-6.191-4.224-2.602-.8108-8.084-1.038-.3494-.005-1.925.1044l-1.048-.0136-4.202.3338q-.8073.1449-4.928-.0123-3.81.028-7.204-1.285-2.494-.9648-4.032-2.409-2.568-2.235-2.877-5.424-.2726-3.241 1.825-6.217 2.64-3.747 7.861-5.776 7.305-2.987 20.68-2.45 10.47.7837 19.93 4.248 2.286.8843 6.568 3.064 12.25 6.634 16.66 13.76 4.409 7.127 1.81 15.07-1.381 3.711-2.9 5.867-2.857 4.055-7.569 6.738-4.712 2.684-10.89 3.691-6.139.9560-13.67.1328z"/><path style="stroke:#53725f;stroke-width:2.213;fill:#b7c8be" d="m-811.8 150.8q-2.857-.3083-4.64-2.173-1.752-1.884-1.365-4.248.1918-1.171.8570-2.13.6930-.9562 1.824-1.659 1.163-.7222 2.45-.9957 1.318-.2930 2.733-.1404 2.885.3112 4.664 2.199.8455.8701 1.199 1.985.3814 1.118.1971 2.243-.3835 2.341-2.772 3.825-2.263 1.405-5.147 1.094zm10.04-16.47q-.0555-.006-.4068.0707-.3476.0542-0.49.0617l.0517-.3152-7.141 4.476q-.3476.0541-1.097-.0266-2.08-.2245-3.398-1.833-1.286-1.628-.8876-4.059l.1698-.6919q.3931-1.538 1.177-2.531.8150-1.012 2.146-1.555 1.359-.5407 3.317-.6043l.1387.0149 1.028-.0723q.2293-.0211.3125-.0121.1146-.0106.2293-.0211 1.071-.1594 1.192-.9023.0774-.4727-.2722-.9228-.4515-.6902-2.782-.9416-1.01-.0402-2.892.4211-.1183.0331-.6304.2298l-.3550.0992-1.359.5407q-.2477.1336-1.66.4852-1.278.3891-2.637.2424-.9986-.1077-1.755-.4872-1.234-.5684-1.865-1.713-.6274-1.167-.4135-2.473.2692-1.643 1.691-2.91 1.965-1.827 6.554-2.958 3.652-.7515 7.407-.415.9154.0988 2.717.4764 5.219 1.227 7.881 3.416t3.1 5.374q.1486 1.505-.007 2.451-.2913 1.778-1.433 3.236t-3.054 2.443q-1.908.9625-4.578 1.408z"/><path style="stroke:#53725f;stroke-width:2.213;fill:#b7c8be" d="m-845.5 120.5q.1123-1.292.9128-2.314.8015-1.045 2.114-1.598 1.313-.5759 2.823-.5326l22.4.6423q1.594.0457 2.852.7408 1.259.6724 1.965 1.806.7076 1.111.6513 2.405-.1679 1.927-1.904 3.218t-3.973 1.227l-4.81-.1379-.8477 19.47q-.0642 1.475-1.011 2.652-.9183 1.155-2.432 1.839-1.485.6619-3.303.6097-1.846-.0529-3.325-.7998-1.451-.7688-2.291-2.043-.8126-1.273-.7493-2.726l.8477-19.47-4.53-.1299q-2.321-.0666-3.911-1.498-1.562-1.431-1.478-3.36z"/><path style="stroke:#53725f;stroke-width:2.213;fill:#b7c8be" d="m-877.4 145.2q-1.982-1.57-2.016-3.841l-.3527-23.78q-.0336-2.271 1.874-3.856 1.935-1.609 4.705-1.636 2.714-.0265 4.725 1.566.6513.5160 1.08 1.125.4285.5863.6631 1.311.2626.7242.2727 1.405l.1007 6.79 12.98-.1268-.1007-6.79q-.0158-1.067.4727-2.094.5165-1.027 1.429-1.785 1.963-1.632 4.677-1.658 1.287-.0126 2.552.3839 1.265.3737 2.172 1.137.6513.516 1.08 1.125.4285.5863.6631 1.311.2626.7242.2727 1.405l.3527 23.78q.0158 1.067-.5006 2.094-.4885 1.027-1.401 1.785-1.907 1.586-4.621 1.612-1.315.0128-2.468-.3620-1.153-.3521-2.256-1.159-1.981-1.502-2.016-3.841l-.1118-7.539-13.12.1282.1118 7.539q.035 2.362-1.873 3.879-.9395.8041-2.165 1.202-1.197.3978-2.457.4101-2.77.0271-4.724-1.521z"/><path style="stroke:#53725f;stroke-width:2.213;fill:#b7c8be" d="m-903.7 143.7q-2.541-2.269-4.09-4.956-1.522-2.689-1.829-5.334-.3104-2.668.6022-5.452.9379-2.809 3.027-5.387 4.655-5.649 13.2-7.308 2.336-.4528 4.481-.6172 3.12-.2391 5.637.1382 2.515.3547 4.21 1.16 1.721.7805 2.63 1.829.9368 1.046 1.079 2.267.1921 1.65-.8186 2.868-.7810 1.018-1.656 1.473-.8467.4527-2.295.5637-1.198.0918-1.961.059-1.472-.0924-4.097-.6668-1.202-.1816-3.068-.0386-3.287.2520-5.474 1.993-2.161 1.717-2.602 4.693-.0882.6911.004 1.482.0868.7461.3460 1.525.6694 1.888 1.883 3.14 1.214 1.253 2.964 1.803 1.748.5276 3.949.3589 2.758-.2114 6.423-1.564.0531-.0269.2428-.0871t.3264-.0935q.9540-.2556 2.096-.3432 2.73-.2092 4.484 1.093 1.579 1.248 1.76 2.808.1658 1.424-.8638 2.963-1.286 1.992-5.155 3.52-2.762 1.147-6.801 1.456-2.034.1559-4.322.0575-6.021-.2913-10.74-2.963-1.8-.9797-3.572-2.441z"/><path style="stroke:#53725f;stroke-width:2.213;fill:#b7c8be" d="m-926.9 152.8q-.6647-.9453-.8072-1.984l-3.114-22.68q-.2076-1.512.4841-2.831t2.097-2.155q1.403-.8580 3.294-1.029l15.66-1.416q1.418-.1282 2.784.3881 1.391.4912 2.287 1.484.9243.9904 1.104 2.299.1766 1.286-.4534 2.44-.6022 1.151-1.822 1.901-1.193.7476-2.722.8859l-9.01.8146.3873 2.821 7.425-.6713q1.196-.1081 2.42.1925 1.221.2781 2.148.8798.9149.5114 1.474 1.306.5565.7723.6773 1.653.2540 1.851-1.337 3.388-1.736 1.505-4.072 1.716l-7.481.6764.3997 2.912 8.566-.7744q2.559-.2313 4.62 1.045.9736.5289 1.539 1.369.5627.8174.6897 1.743.2634 1.918-1.278 3.406-1.73 1.55-4.122 1.766l-15.32 1.385q-1.835.1660-3.631-.6086-1.771-.7996-2.881-2.322z"/></g></g></svg>