<svg xmlns="http://www.w3.org/2000/svg" version="1.1" width="200px" height="100px" viewBox="0 0 200 100"><g transform="translate(0 -952.4)"><path d="m17.78 952.4c-13.45-.7-21.62 19-15.96 32.1 1.984 14.3 8.821 28.34 5.797 43.05-.7013 16.3 15.77 30.58 28.61 22.4 6.751-2.976 8.904-12.4 13-17.78 6.116 4.805 14.85 3.686 20.29-1.794 4.645 3.415 10.69 3.716 15.7 1.449 9.363 5.075 20.89 4.1 29.58-2.224 5.799 4.312 13.12 4.563 19.6 3.227 4.608 2.828 9.95.206 14.5-.012 6.739 3.663 14.55 2.591 21.54 2.95 11.03 10.24 30.47-2.176 27.6-18.84-.5681-3.254-2.826-6.62-.2486-9.415 2.111-9.84 2.599-20.37 1.963-30.3-3.653-16.14-26.72-19.05-31.04-2.048-3.122-1.776-7.126-1.255-10.18-1.93-1.119-12.97-14.81-22.89-24.65-15.27-4.288 2.839-7.179 8.093-8.479 13.42-2.239.2201-4.715 1.619-6.582 2.057.8234-13.32-13.71-24.23-23.46-16.64-6.056-2.994-12.98-.9433-17.7 4.209-7.434-4.262-16.82-1.59-22.62 4.998-6.153-5.613-15.01-5.574-21.88-1.823-2.914-6.652-8.736-12.08-15.38-11.84z" style="fill:#fff"/><path style="opacity:.8;fill:#a1b8c7" d="m34.64 1015-7.36-46.1c-2.39-13.9-17.18-10.1-14.79 3.8l9.349 45.08c-1.693 2.637-2.473 5.983-1.886 9.404 1.087 6.336 6.298 10.39 11.72 9.12 5.427-1.269 8.898-7.354 7.811-13.69-.5870-3.422-2.411-6.158-4.843-7.83m-3.446 18.73c-4.016.9393-7.924-2.101-8.75-6.916-.5218-3.041.4108-6.159 2.321-8.188l-9.02-46.74c-1.392-8.11 6.554-9.969 7.946-1.859l8.563 46.85c2.323 1.038 4.299 3.344 4.843 6.512.8045 4.689-1.886 9.404-5.902 10.34"/><g style="fill:#ed4c5c" transform="matrix(1.085 -.2539 .2174 1.267 -16.53 965.9)"><path d="m29.23 21.12.57 27.78h4.4l.0084-27.92z"/><path d="m37.6 53c0 3.1-2.5 5.6-5.6 5.6s-5.6-2.5-5.6-5.6 2.5-5.6 5.6-5.6 5.6 2.5 5.6 5.6"/></g><path d="m33.37 1019q-.1193-1.832-.1143-2.651l2.708-33.77q.1876-2.95 1.472-5.213 1.311-2.3 3.401-3.406 1.806-.9791 3.578-1.136 3.021-.2683 5.511 1.625 2.517 1.857 3.555 5.244l5.531 17.18 3.271-17.96q.6729-3.573 2.891-5.851 2.247-2.28 5.239-2.546 1.743-.1548 3.684.4915 2.238.7222 3.772 2.735 1.533 2.013 2.161 4.925l6.994 32.91q.1692.8036.2885 2.635-.07137 2.94-1.892 5.046-1.791 2.103-4.376 2.333-1.133.101-2.292-.2056-1.939-.6125-3.272-2.234-1.333-1.621-1.68-3.808l-3.404-19.96-4.086 21.58q-.4711 2.634-1.285 4.037-.7874 1.366-2.09 1.994-1.386.7031-2.344.7882-1.975.1754-3.56-1.287t-2.542-4.482l-6.922-20.6-.7207 20.33q-.05969 2.223-1.167 4.061t-2.915 2.783q-1.135.5102-2.239.6084-2.556.2269-4.628-1.534-2.072-1.76-2.524-4.654z" style="stroke:#560a0a;stroke-width:3.223;fill:#d23737"/><path d="m110.6 972q.1209 2.752-1.334 4.814-1.455 2.063-3.608 2.192-1.426.0853-2.688-.7586-1.233-.8457-1.997-2.299-.7654-1.487-.8460-3.321-.1179-2.684 1.339-4.712 1.371-1.989 3.611-2.124 2.211-.1324 3.807 1.679 1.598 1.846 1.716 4.529zm-15.65 5.637q-1.452 2.131-3.693 2.265-2.269.1359-3.81-1.747-0.74-.9093-1.23-2.106-.4610-1.198-.5162-2.455-.05671-1.291.2969-2.538.3812-1.283 1.126-2.247 1.345-1.92 3.585-2.054 2.153-.1290 3.719 1.65 1.656 1.842 1.775 4.56.1209 2.752-1.253 4.673zm3.22 45.41q-6.906-.5059-10.41-4.622-3.479-4.151-3.831-12.17l-.5955-13.55q-.09552-2.174.7288-3.994t2.292-2.93q1.496-1.145 3.328-1.255 2.735-.1638 4.756 2.031 2.049 2.159 2.195 5.488l.5865 13.35q.08651 1.97.9138 2.874.7109.9111 1.888 1.147 2.153-.129 3-1.44.7176-.9285.6281-2.967l-.5865-13.35q-.0941-2.14.7288-3.994.8213-1.888 2.288-3.032 1.494-1.179 3.327-1.289 1.862-.1116 3.421.8509 1.558.9285 2.508 2.643.9795 1.712 1.075 3.886l.5955 13.55q.2358 5.367-1.027 9.155-1.264 3.754-4.167 6.074-2.904 2.286-7.503 3.174-1.764.3441-3.015.419-1.338.08-3.123-.051z" style="stroke:#560a0a;stroke-width:3.223;fill:#d23737"/><path d="m135.9 984.5q.5418.2724.9947.5733l.4970-10.8q.1469-3.193 2.141-5.316 2.025-2.155 4.817-1.98 1.773.1453 3.236 1.327 1.464 1.148 2.254 3.003.7898 1.855.6945 3.927l-1.841 40.01q-.1031 2.242-1.057 3.953-.9233 1.679-2.452 2.571t-3.391.7752l-5.294-4.147-.0125.2718q-2.99 3.491-7.616 3.201-1.193-.076-2.864-.5204-4.635-1.347-7.846-5.738-3.181-4.423-3.89-10.57-.1971-2.056-.1127-3.89.1078-2.343.6088-4.356 1.036-4.125 3.132-7.195t5.005-4.796q3.511-2.13 7.322-1.891 2.763.1733 5.674 1.582zm-8.571 17.62q-.1282 2.785 1.13 4.601t3.207 1.938q1.719.039 2.915-1.214 1.225-1.252 1.688-3.709l.1063-2.31q-.4846-4.05-3.299-5.01-.6919-.1796-1.012-.1997-1.658-.1045-2.913 1.18t-1.712 3.605q-.0738.3361-.1098 1.117z" style="stroke:#560a0a;stroke-width:3.223;fill:#d23737"/><path d="m179.3 1003q-.1649 3.396-1.483 4.705-1.318 1.31-4.227 1.117l-15.5-1.026q.1064.2115 1.012 1.396.8072.8028 1.545 1.226.7688.3916 2.066.716 1.299.2903 3.16.4135 1.808.017 4.614-.6824 2.153-.4708 3.025-.4131 2.356.156 3.674 1.845 1.348 1.69 1.234 4.034-.0413.8489-.1807 1.317-.3826 1.269-1.13 2.242-.7184.9745-1.892 1.714-1.143.708-3.22 1.422-2.544.7173-5.18.9176-1.846.1503-3.94.012-4.334-.2869-7.898-1.988-3.534-1.733-5.99-4.621-2.457-2.888-3.616-6.644-1.16-3.756-.9487-8.103.2736-3.832 1.81-7.239 1.568-3.439 4.016-5.798 2.48-2.391 5.779-3.638t7.051-.9981q4.968.4311 8.74 3.27 2.306 1.788 3.992 4.318 1.717 2.498 2.605 5.249.9184 2.718.8836 5.237zm-20.73-2.769 7.097.4699q.0198-.4075-.0252-.683-.2730-3.391-3.879-3.63-2.153.4707-3.046 3.239-.1361.3998-.1460.6034z" style="stroke:#560a0a;stroke-width:3.223;fill:#d23737"/><path d="m182.1 1028q-2.001-.2206-3.561-1.554-1.534-1.296-2.337-3.298-.801-2.036-.6673-4.413.1835-2.269 1.299-4.127 1.119-1.892 2.836-2.865 1.746-.969 3.747-.7485 3.074.3389 4.965 3.007.9510 1.266 1.373 2.919.4223 1.652.2854 3.345-.2902 3.59-2.639 5.859-2.285 2.208-5.302 1.876zm1.492-18.46q-1.856-.2047-3.308-1.424-1.42-1.25-2.174-3.144-.7249-1.89-.5497-4.058l1.509-18.66q.2629-3.251 2.421-5.336 2.095-2.024 4.821-1.723 2.697.2973 4.483 2.817.8142 1.149 1.189 2.659.4043 1.514.2756 3.105l-1.509 18.66q-.1725 2.133-1.188 3.832-1.012 1.665-2.576 2.552-1.564.8866-3.394.7191z" style="stroke:#560a0a;stroke-width:3.223;fill:#d23737"/></g></svg>