<svg xmlns="http://www.w3.org/2000/svg" version="1.1" width="200px" height="100px" viewBox="0 0 200 100"><g transform="translate(80.08 -1010)"><g style="fill:#454749" transform="matrix(.7806 -.1859 .1441 1.382 65.46 932.3)"></g><g style="fill:#454749" transform="matrix(.8567 -.1957 .1581 1.455 -273.5 1027)"></g><path d="m48.62 1010c-4.486-.5456-8.072 3.227-11.27 5.658-5.625-2.223-12.4-.3062-16.32 4.623-5.915-4.808-14.84-2.485-19.29 2.715-7.16-5.435-18.22-1.113-21.27 7.349-3.976-8.751-9.166-20.29-19.61-20.21-9.727-.3565-16.63 9.614-18.92 18.64-9.557 4.275-11.75 16.46-13.23 26.31-3.689 9.33-11.52 19.3-7.827 30.11 3.768 8.49 13.72 7.188 20.59 9.292 5.409 3.43 12.99 5.185 18.29.7002 8.129 15.43 29.57 19.78 42.05 8.18 7.934 3.618 17.04 1.441 24.4-2.768 4.253 3.037 9.35.1804 13.56-.4879 4.672.9654 9.494.8501 14.08 2.067 4.784-.3788 9.574.3717 14.12 1.341 4.763-.8103 9.539.8189 14.1-1.179 3.216 2.907 7.872 3.055 11.76 2.181 8.898 7.18 23.41-.31 23.94-12.41.7205-4.595-.0475-9.421-1.915-13.57 4.929-9.791 2.32-21.44 4.07-31.88-.1141-10.75-10.73-21.26-20.48-16.41-2.945.8078-5.241 5.102-6.92 5.883-5.94-10.29-19.08-13.61-28.94-10.03.04412-8.586-6.961-16.53-14.95-16.1z" style="fill:#fff"/><g style="stroke:#784421;stroke-width:2;fill:#454749" transform="matrix(.6949 .4152 -.5828 1.021 179.1 1155)"></g><path style="fill:#a00" d="m-21.66 1043c5.768 3.446 4.609 7.274-5.857 12.39-3.578 1.698-4.669 6.387-4.956 9.503-.2287 3.014.3877 6.67-5.476 8.781-3.414 1.247-5.382 4.044-6.877 12.05-1.495 8.01-7.866.231-16.24-.9367-10.99-1.638-15.37.8131-5.156-19.38 6.077-12.12 2.331-8.332 5.564-19.55 1.721-5.957 4.987-8.251 9.43-8.199 3.712.027-.5334-12.78 8.583-16.51 11.56-4.738 12.02 16.5 20.98 21.85"/><path d="m-1.769 1061-10-22.7q-.2216-.4858-.3027-1.018-.1916-1.258.2864-2.644.4984-1.414 1.531-2.39.9364-.9614 2.39-1.433 4.953-.7636 7.037 3.867l6.406 13.94 1.896-15.67q.4497-3.511 2.557-4.702.8622-.4794 1.872-.6351 1.707-.2632 3.186.722 1.499.9574 2.436 3.066l6.472 14.38 1.962-15.23q.6097-5.046 5.563-5.81 1.393-.066 2.731.6439 1.304.6409 2.155 1.871.8722 1.203 1.06 2.436.08474.5564.0068 1.014l-2.797 24.62q-.3867 3.278-2.064 5.196t-4.442 2.344q-2.48.3576-4.625-.7975-2.148-1.179-3.353-3.593l-5.349-10.89-1.833 12.04q-.2414 1.647-1.128 3.096-.8628 1.445-2.206 2.321-1.343.8758-2.971 1.176-1.779.2744-3.401-.1936-1.601-.496-2.873-1.736-1.251-1.268-2.201-3.3z" style="stroke:#784421;stroke-width:1.826;fill:#ffe762"/><path d="m48.58 1061q-2.287 0-3.917-1.615-1.606-1.64-1.606-3.989v-16.89q0-1.542.7298-2.815.7541-1.297 2.019-2.031 1.289-.7587 2.822-.7587 1.508.024 2.773.7831 1.265.7588 1.995 2.031.7541 1.273.7541 2.839v16.79q0 2.374-1.63 4.014t-3.941 1.64zm-4.135-30.96q-1.703-1.713-1.703-4.258 0-2.423 1.751-4.259.8514-.832 1.897-1.273 1.046-.4406 2.189-.4406 2.408 0 4.135 1.811 1.679 1.762 1.679 4.209 0 2.521-1.679 4.21t-4.135 1.689q-2.457 0-4.135-1.689z" style="stroke:#784421;stroke-width:1.826;fill:#ffe762"/><path d="m86.61 1051q-.6241 2.365-1.891 3.065-1.267.6998-3.618.072l-12.53-3.347q.05661.1673.6266 1.155.5445.7025 1.087 1.126.5724.4061 1.587.8543 1.021.4245 2.525.8264 1.476.3182 3.872.2998 1.829.033 2.534.221 1.904.5086 2.74 1.922.8588 1.419.4281 3.052-.1560.5914-.3375.8975-.4958.8298-1.247 1.389-.7280.5652-1.795.8879-1.037.3055-2.839.4574-2.184.074-4.369-.23-1.531-.2062-3.224-.6583-3.503-.9357-6.174-2.738-2.641-1.82-4.234-4.271t-2.001-5.295q-.4075-2.844.3914-5.872.7758-2.654 2.524-4.796 1.778-2.159 4.12-3.407 2.373-1.265 5.251-1.586 2.878-.3202 5.911.4899 4.002 1.145 6.678 3.784 1.628 1.65 2.643 3.719 1.044 2.052 1.374 4.14.3596 2.071-.03171 3.841zm-16.56-5.46 5.737 1.532q.0749-.2838.07783-.4856.2652-2.436-2.65-3.215-1.829-.032-2.958 1.768-.1690.2587-.2064.4007z" style="stroke:#784421;stroke-width:1.826;fill:#ffe762"/><path d="m-12.98 1090q2.376-.8279 3.213-2.491l-2.822.3795q-2.019.2717-3.594-1.093-1.552-1.368-1.798-3.546-.1181-1.459.3714-2.694.4867-1.26 1.486-2.107 1.022-.8491 2.307-1.022l9.11-1.225q5.025-.6758 5.707 5.36.1979 1.753.08586 3.65-.05834 2.372-1.041 5.021-1.092 2.918-3.048 5.19-1.936 2.244-4.643 3.65-2.684 1.403-6.057 1.857-1.927.2593-4.313.1734-3.28-.1692-6.063-1.295-2.763-1.154-4.979-3.246t-3.726-4.94q-1.755-3.374-2.168-7.03-.5428-4.808 1.2-9.39 1.762-4.61 5.53-7.964 4.11-3.629 9.8-4.394.7343-.099 2.122-.1835 2.481-.1045 4.912.3818 2.339.4991 4.46 1.536 4.341 2.34 4.711 5.621.2205 1.953-1.254 3.753-1.043 1.284-2.695 1.506-1.216.1635-2.664-.2775l-.04590.012-2.101-.8617q-.6877-.3143-1.049-.4183-3.032-1.067-5.51-.7337-1.996.2686-3.481 1.358-1.487 1.064-2.353 2.884-.8661 1.82-.9615 4.07-.05852.7198.01781 1.396.09894.8764.3299 1.684.6646 2.173 1.901 3.634 1.234 1.436 2.939 2.096 1.725.6324 3.768.3579 1.239-.1667 2.396-.6527z" style="stroke:#784421;stroke-width:1.826;fill:#fcd607"/><path d="m19.49 1084q-.2872 2.072-1.221 2.786-.9340.7146-2.832.4011l-10.12-1.671q.05869.1368.5903.9239.4872.5467.9492.8561.4838.2917 1.318.5776.8369.2653 2.052.466 1.185.132 3.063-.1087 1.437-.144 2.007-.05 1.537.2538 2.314 1.378.7951 1.127.5969 2.557-.07182.518-.1880.7955-.3179.7526-.8597 1.299-.5227.5494-1.332.9243-.7874.3574-2.188.6559-1.707.269-3.447.2147-1.219-.032-2.585-.2574-2.828-.467-5.077-1.75-2.227-1.3-3.687-3.237-1.46-1.936-2.022-4.318-.5629-2.382-.1953-5.033.3815-2.332 1.569-4.318 1.21-2.004 2.941-3.286 1.753-1.3 3.983-1.843 2.23-.5428 4.679-.1385 3.237.5984 5.562 2.593 1.419 1.252 2.391 2.917.9948 1.648 1.432 3.394.4593 1.729.3037 3.271zm-13.45-3.091 4.631.7649q.03448-.2486.01949-.4207-.000381-2.098-2.354-2.487-1.437.1441-2.169 1.782-.1104.236-.1276.3603z" style="stroke:#784421;stroke-width:1.826;fill:#fcd607"/><path d="m16 1093q-1.391-1.325-1.516-3.332l-.8998-14.42q-.08215-1.317.4425-2.469.5438-1.153 1.52-1.856.9760-.7026 2.144-.7893l3.33 1.558.02918-.1491q1.083-.8366 2.511-1.384 1.615-.645 2.994-.7475 2.643-.1964 5.202 1.336l.4409.2821.3796.2239.3317-.2347.7196-.4945q1.372-.8369 2.363-1.289 1.535-.6812 3.068-.7951 2.164-.1608 4.071.7896 1.905.9295 3.075 2.712 1.187 1.76 1.327 3.997l.7003 11.23q.08346 1.338-.4412 2.49-.5259 1.131-1.483 1.832-.9377.6997-2.106.7865-1.82.1352-3.208-1.148t-1.515-3.31l-.5503-8.821q-.02608-.4181-.2041-.8039-.1588-.3872-.4644-.6585-.2877-.2937-.6416-.4143-.3552-.1417-.7382-.1132-.7853.058-1.322.7072-.5368.6489-.4820 1.527l.5555 8.905q.1291 2.069-1.067 3.565-1.124 1.407-2.944 1.542-1.82.1352-3.19-1.17-.6176-.6472-1.001-1.543-.3638-.8969-.4199-1.796l-.5582-8.947q-.05216-.8361-.6467-1.422-.5767-.6082-1.344-.5721-.8236.061-1.399.7129-.5559.6504-.5012 1.528l.5608 8.989q.1278 2.049-1.05 3.522-1.16 1.451-2.922 1.582-1.762.1309-3.149-1.131z" style="stroke:#784421;stroke-width:1.826;fill:#fcd607"/><path d="m65.32 1081q-.2480 2.078-1.168 2.813-.9202.7355-2.824.4649l-10.15-1.443q.06127.1354.6076.9104.4975.5356.9652.8345.4892.2808 1.328.5482.8418.2464 2.06.4196 1.188.1054 3.061-.1775 1.434-.1764 2.005-.095 1.542.2193 2.339 1.326.8162 1.109.6451 2.543-.062.5194-.1729.7994-.3036.7597-.8349 1.318-.5122.5611-1.314.9541-.7804.375-2.175.705-1.702.3075-3.442.2924-1.219 0-2.59-.1992-2.836-.4033-5.109-1.635-2.251-1.25-3.747-3.153t-2.104-4.271q-.6078-2.368-.2904-5.028.3373-2.34 1.487-4.352 1.172-2.031 2.878-3.352 1.728-1.339 3.948-1.932 2.22-.5929 4.675-.2437 3.248.5252 5.61 2.467 1.442 1.219 2.446 2.862 1.026 1.625 1.496 3.361.4919 1.718.3655 3.264zm-13.51-2.787 4.645.6604q.02976-.2493.01153-.421-.04003-2.098-2.401-2.433-1.434.1764-2.135 1.831-.1059.2385-.1208.3632z" style="stroke:#784421;stroke-width:1.826;fill:#fcd607"/><path d="m67.44 1095q-1.801-.1173-3.01-1.581-1.188-1.484-1.078-3.492l.7890-14.43q.07204-1.318.7064-2.368.6547-1.07 1.685-1.632 1.051-.5824 2.258-.5037 1.187.098 2.148.8116.9610.7132 1.476 1.838.5346 1.126.4614 2.465l-.7844 14.35q-.1109 2.029-1.471 3.346-1.361 1.318-3.181 1.199zm-1.811-26.67q-1.261-1.551-1.142-3.726.1132-2.071 1.579-3.549.7096-.6674 1.554-.9902.8446-.3228 1.745-.2641 1.897.1235 3.173 1.76 1.24 1.592 1.126 3.684-.1178 2.154-1.519 3.511t-3.337 1.231q-1.936-.1261-3.179-1.655z" style="stroke:#784421;stroke-width:1.826;fill:#fcd607"/><path d="m72.76 1093q-1.127-1.578-.9432-3.558l1.331-14.34q.1935-2.084 1.559-3.281 1.386-1.216 3.201-1.015l3.221 2.715.01547-.1667q.1472-.1311.5945-.3765 2.859-1.495 5.476-1.206.7449.082 1.85.4362 1.869.649 3.213 1.977 1.343 1.328 1.954 3.059.6111 1.731.4408 3.566l-1.026 11.05q-.1238 1.334-.8166 2.353-.6736 1.02-1.727 1.557-1.053.5364-2.239.4263-1.834-.2027-3.005-1.722-1.171-1.52-.9834-3.541l.8321-8.964q.09287-1-.4946-1.739-.5396-.839-1.456-.9403-.9168-.1014-1.592.5189-.7420.7183-.8310 1.677l-.8282 8.922q-.1858 2.001-1.616 3.275-1.367 1.218-3.163 1.019-1.795-.1985-2.968-1.697z" style="stroke:#784421;stroke-width:1.826;fill:#fcd607"/><path d="m101.5 1098q-1.88-.2126-3.358-1.68-1.453-1.426-2.228-3.655-.7732-2.267-.6731-4.932.1480-2.545 1.175-4.646 1.029-2.14 2.63-3.259 1.628-1.116 3.508-.9033 2.888.3263 4.69 3.283.9057 1.402 1.32 3.246.4138 1.844.3034 3.743-.2341 4.026-2.413 6.609-2.121 2.513-4.954 2.193zm1.204-20.7q-1.744-.1971-3.119-1.538-1.346-1.375-2.073-3.484-.7003-2.106-.5589-4.537l1.217-20.93q.2120-3.647 2.215-6.02 1.944-2.304 4.505-2.014 2.534.2864 4.236 3.079.7761 1.273 1.144 2.959.3954 1.689.2916 3.474l-1.217 20.93q-.1391 2.393-1.073 4.314-.9321 1.883-2.39 2.903t-3.176.8644z" style="stroke:#784421;stroke-width:1.826;fill:#fcd607"/><path style="fill:#fff" d="m-30.29 1057a3.237 4.587 28.56 0 1 -5.053 2.323 3.237 4.587 28.56 0 1 -.5065 -5.645 3.237 4.587 28.56 0 1 5.053 -2.323 3.237 4.587 28.56 0 1 .5066 5.645z"/><path style="fill:#454749" d="m-32.79 1056a1.376 1.882 28.38 0 1 -2.114 .9283 1.376 1.882 28.38 0 1 -.2487 -2.34 1.376 1.882 28.38 0 1 2.114 -.9283 1.376 1.882 28.38 0 1 .2487 2.34z"/><path style="fill:#fff" d="m-40.03 1048a5.098 7.293 28.6 0 1 -7.991 3.717 5.098 7.293 28.6 0 1 -.7644 -8.949 5.098 7.293 28.6 0 1 7.991 -3.717 5.098 7.293 28.6 0 1 .7644 8.949z"/><g style="fill:#454749" transform="matrix(.6949 .4152 -.5828 1.021 -46.64 1011)"><path d="m23.6 23a2.6 2.6 0 0 1 -2.6 2.6 2.6 2.6 0 0 1 -2.6 -2.6 2.6 2.6 0 0 1 2.6 -2.6 2.6 2.6 0 0 1 2.6 2.6z"/><g style="stroke-linejoin:round;stroke:#454749;stroke-width:3;stroke-miterlimit:10;stroke-linecap:round" stroke-miterlimit="10"><path d="m15.7 14.7.1-.1.1-.1.3-.1c.2-.1.4-.1.6-.2.4-.1.7-.2 1.1-.2.8-.1 1.5-.1 2.3-.1 1.5.1 3.1.5 4.5 1.2s2.7 1.6 3.7 2.7c.5.6 1 1.2 1.4 1.8.2.3.4.6.5 1 .1.2.2.3.2.5l.1.3v.1.1l-.1.1c-.5-.5-.9-1.1-1.4-1.5-.5-.5-1-1-1.6-1.4-1.1-.9-2.3-1.6-3.6-2.3-1.3-.6-2.6-1.1-4-1.4-.7-.2-1.4-.3-2.1-.3-.7-.1-1.4-.1-2.1-.1z"/><path d="m47.4 19.6-.2-.1-.2-.1c-.1 0-.2-.1-.4-.1-.2-.1-.5-.1-.7-.2-.5-.1-1-.1-1.5 0-1 .1-2 .4-2.9 1-.9.5-1.8 1.3-2.4 2.1-.3.4-.6.9-.9 1.4-.1.3-.2.5-.4.8-.1.1-.1.3-.1.4l-.1.2v.1.1l.1.1c.3-.4.6-.8 1-1.2.3-.4.7-.8 1-1.1.7-.7 1.5-1.3 2.4-1.8.8-.5 1.7-.9 2.6-1.1.5-.1.9-.2 1.4-.3s.9-.1 1.4-.1v-.1z"/><path d="m46.3 34.4-.1.2-.1.2c0 .1-.1.2-.2.3-.1.2-.2.4-.4.5-.3.3-.6.7-.9.9-.7.6-1.5 1-2.4 1.3s-1.8.4-2.7.3c-.5 0-.9-.1-1.4-.2-.2-.1-.4-.1-.7-.2-.1 0-.2-.1-.3-.1l-.2-.1h-.1-.1v-.1c.4.1.9.1 1.3.1h1.3c.8-.1 1.7-.2 2.5-.4s1.6-.6 2.3-1c.4-.2.7-.4 1-.7.5-.6.8-.8 1.2-1z"/><path d="m11 28.4.1.2.1.2.2.4c.1.2.3.5.4.7.3.4.6.9 1 1.3.7.8 1.5 1.6 2.3 2.3 1.7 1.4 3.6 2.6 5.6 3.4s4.1 1.3 6.1 1.4c1 0 2 0 2.9-.1.5-.1.9-.2 1.4-.3.2-.1.5-.1.7-.2l.3-.1.2-.1.2-.1v-.2c-.9 0-1.9 0-2.8-.1s-1.9-.2-2.8-.4c-1.9-.4-3.8-.9-5.6-1.7-1.8-.7-3.6-1.7-5.3-2.8l-2.4-1.8c-.8-.6-1.5-1.3-2.3-2h-.3z"/></g></g><path style="stroke-linejoin:round;stroke:#454749;stroke-linecap:round;stroke-miterlimit:10;stroke-width:2.927;fill:#454749" stroke-miterlimit="10" d="m-43.58 1077c1.224-2.145.6388-4.549-4.095-8.337s-11.02-2.889-13.94 2.218c-4.535 8.111 4.876 3.05 9.511 4.724 5.297 1.659 7.357 3.437 8.522 1.394z"/><g style="fill:#fff" transform="matrix(.6949 .4152 -.5828 1.021 -47.05 1012)"><path style="fill:#fff" d="m20.4 49.2c0 3.6 1.5 3.9 3.7 3.2l-1.2-8.1c-1.6 1.3-2.5 3-2.5 4.9"/><path style="fill:#fff" d="m23.6 43.8 1.2 8.4c.9-.4 2-1 3.1-1.5l-1.2-8.4c-1.2.3-2.2.8-3.1 1.5"/><path style="fill:#fff" d="m27.4 42 1.2 8.2c1-.5 2.1-1 3.1-1.3l-1.1-7.4c-1.1.1-2.2.3-3.2.5"/><path style="fill:#fff" d="m34 41.5c-.9-.1-1.7-.1-2.6-.1l1.1 7.3c.4-.1.7-.2 1.1-.2.8-.1 1.5-.2 2.2-.3l-1-6.6c-.3 0-.6 0-.8-.1"/><path style="fill:#fff" d="m35.5 41.7.9 6.4c1.3-.1 2.3-.2 3.3-.3l-.8-5.5c-.9-.2-2.1-.4-3.4-.6"/><path style="fill:#fff" d="m43.5 45.9c0-1.4-1-2.5-3.8-3.4l.7 5.2c2.1-.3 3.1-.7 3.1-1.8"/></g></g></svg>