<svg xmlns="http://www.w3.org/2000/svg" version="1.1" width="200px" height="100px" viewBox="0 0 200 100"><g transform="translate(80.08 -1010)"><path d="m-46.36 1010c-16.37 6.095-31.44 21.23-33.22 41.26-3.424 25.13 11.19 53.71 34.57 58.08 14.83 3.074 29.69-7.733 36.52-21.67 4.798.7442 9.268-4.227 13.68-.7303 6.26 2.512 12.93.049 19.06-.5881 4.517 1.042 8.926-2.773 13.15.2004 7.718 1.743 15.75.2035 23.42 2.036 3.09-.1294 6.102-1.695 8.759-2.99 5.818 5.826 14.87 4.76 21.11 1.096 10.57 8.016 26.79-2.808 25.47-17.06-.0586-4.325-2.821-9.507 1.145-12.53 5.476-8.56 1.77-21.11-5.751-26.31-5.118-13.53-25.62-14.08-30.28.097-3.759.2498-2.17-5.089-4.263-7.352-4.327-9.709-16.66-13.81-24.32-6.495-3.511 2.8-5.594 7.543-6.916 11.74-4.709-.4387-9.738 4.422-13.6.047-4.642-2.912-10.41-1.871-14.82.4868-2.673-1.012-6.149-.091-8.425-.7346-3.89-12-19.61-16.61-27.53-6.833-1.167 1.399-1.721 3.981-3.085 1.086-4.519-5.043-11.67-7.483-17.62-6.038.2686-4.272-3.361-7.646-7.055-6.807z" style="fill:#fff"/><path d="m-38 1075q-2.082-2.779-2.082-6.107v-32.89q0-2.456 1.157-4.427 1.186-1.971 3.123-2.844 1.244-.5815 2.487-.5815 3.094 0 5.871 3.619l15.04 19.94v-15.7q0-3.199 2.053-5.493 2.024-2.23 4.801-2.23 1.388 0 2.632.5817 1.272.5493 2.169 1.648.9255 1.002 1.475 2.488.5495 1.454.5495 3.005v33.7q0 .4847-.1157 1.519-.2892 1.777-1.301 3.199-.9833 1.39-2.4 2.165-1.417.7755-3.066.7755-1.967 0-3.557-1.099-1.157-.8724-1.706-1.68l-15.53-21.29v16.35q0 3.328-1.996 5.558-1.938 2.165-4.685 2.165-2.979 0-4.916-2.359z" style="stroke:#1a1772;stroke-width:2.609;fill:#bc4bcd"/><path d="m9.537 1042q1.835-.6194 2.871-.7309 4.376-.4708 7.558 2.401l.01663.193 5.161-3.834q.6465-.589 1.597-.6911 1.411-.1518 2.463.9359 2.651 2.442 2.992 6.398l1.924 22.32q0.28 3.249-1.385 5.505-1.665 2.257-4.457 2.557l-5.677-2.83.02773.3216q-2.406 3.44-6.954 3.93-1.497.161-3.401-.024-2.727-.2908-5.427-1.948-2.702-1.689-4.845-4.64-1.472-2.244-2.335-4.845-.8634-2.602-1.16-6.043-.1810-4.46 1.193-8.406 1.403-3.949 3.985-6.694 2.579-2.777 5.854-3.876zm2.089 18.51q.1941 2.251 1.521 3.829 1.448 1.63 3.377 1.422 1.151-.1239 2.13-.9108.9753-.8192 1.466-2.203.4350-1.021.4410-1.963-.0062-.746-.1198-2.065-.7173-3.266-3.091-4.18-1.023-.4094-1.887-.3165-1.583.1704-2.624 1.581-1.041 1.41-1.2 3.603-.0011.3248-.0077.5851.01941.2252-.0049.6174z" style="stroke:#1a1772;stroke-width:2.609;fill:#bc4bcd"/><path d="m33.21 1071q-3.561-4.937-3.833-10.78-.1097-2.97.8174-6.066.9255-3.128 2.659-5.688 1.279-1.757 2.417-2.826 2.22-2.071 4.92-3.166 2.699-1.128 6.078-1.325 1.848-.1081 2.807-.034 9.93.554 10.3 8.46-.2351 2.408-1.756 3.953t-3.86 1.681q-.4332.025-1.017-.071l-.2918-.048-1.549-.2982-.7888-.1482-1.255-.2179q-.5259-.099-1.594-.036-2.31.1345-3.629 1.667-1.32 1.5-1.207 3.921.1544 1.447.7498 2.415.5939.936 1.726 1.614 1.219.6731 2.663.5891.7798-.045 1.868-.3031l.1733-.011 2.054-.6697q.8270-.2746 2.238-.454 2.888-.1682 4.625 1.672 1.765 1.839 1.924 5.227-.1605 2.145-1.473 3.807-1.314 1.63-4.017 2.661t-6.718 1.265q-4.828.184-8.642-1.503-3.787-1.721-6.386-5.29z" style="stroke:#1a1772;stroke-width:2.609;fill:#bc4bcd"/><path d="m61.45 1079q-2.686-.157-4.521-2.4-1.805-2.273-1.66-5.371l1.794-38.33q.09063-1.936 1.036-3.563.9739-1.626 2.521-2.506 1.549-.9126 3.371-.8708 1.848.1081 3.303 1.196t2.241 2.849q.8168 1.73.7231 3.731l-.5015 10.71q1.068-.5524 2.363-.9944 3.169-.8825 5.855-.7256 2.628.1535 4.75 1.216 2.151 1.064 3.576 2.798 1.426 1.701 2.154 4.106.7562 2.406.6308 5.084l-.8126 17.36q-.1465 3.13-2.213 5.21-2.036 2.049-4.867 1.884-2.736-.3217-4.541-2.595-1.776-2.272-1.633-5.337l.6525-13.94q.06798-1.452-.8034-2.636-.8698-1.216-2.197-1.326-1.357-.079-2.418.9265t-1.135 2.587l-.6555 14q-.09365 2.001-1.098 3.657-.9754 1.658-2.551 2.536-1.574.8464-3.365.7418z" style="stroke:#1a1772;stroke-width:2.609;fill:#bc4bcd"/><path d="m87.01 1046q1.536-1.904 3.865-2.179l.5752-.068-.3010-3.181q-.2859-3.02 1.454-5.533 1.697-2.345 4.372-2.661 2.703-.3194 4.866 1.635 2.181 2.147 2.467 5.167l.2858 3.02.7478-.088q2.243-.2649 4.05 1.309 1.844 1.667 2.085 4.205.0669.7069-.0357 1.466-.1026.7594-.4096 1.511-.2813.7156-.6867 1.348-1.517 2.096-3.838 2.468l-.8053.095 1.581 16.71q.2980 3.149-1.451 5.565-1.637 2.37-4.398 2.697-2.703.3193-4.834-1.606-2.172-2.05-2.467-5.167l-1.587-16.77-.4602.054q-2.473.2922-4.445-1.489-1.685-1.523-1.91-3.901-.2463-2.603 1.28-4.603z" style="stroke:#1a1772;stroke-width:2.609;fill:#bc4bcd"/><path style="stroke:#000f7f;stroke-width:2.053;fill:#ffce31" d="m-14.71 1079c-4.264 3.434-9.443 5.272-15.01 4.852-14.99-1.014-27.3-18.02-27.54-37.87-.08002-6.695 1.281-12.93 3.64-18.15-9.172 5.41-15.31 17.5-15.13 32.07.2454 20.56 13.01 38.18 28.54 39.36 11.49.8674 21.25-7.549 25.5-20.26z"/></g></svg>