<svg xmlns="http://www.w3.org/2000/svg" version="1.1" width="200px" height="100px" viewBox="0 0 200 100"><g transform="translate(985.7 -76.65)"><flowRoot xml:space="preserve" style="font-size:20px;letter-spacing:0px;word-spacing:0px;font-family:sans-serif;line-height:125%;fill:black"><flowRegion><rect y="-116.1" width="318.5" x="-101.8" height="244.2"/></flowRegion><flowPara/></flowRoot><path d="m-838.6 76.94c-5.382 3.302-13.75 10.2-19.29 8.988-1.884-3.921-2.457-10.1-8.904-5.71-27.67 9.107-60.06 8.924-87.57-.4703-9.422.3823-10.02 9.56-11.75 15.08-2.092 10.54 1.272 21.78 9.67 30.23-13.13-2.697-29.8 5.287-28.49 16.69 2.214 6.427-5.354 14.22 4.032 19.47 5.501 5.684 18.36 2.481 23.03 5.33 1.4 9.099 17.97 14.15 25.27 6.034 2.554-4.5 8.289-7.08 12.5-2.562 8.54 3.033 15.97-2.797 24.1 1.243 8.743-.3572 16.84-.2197 25.36-.2796 7.55-4.62 15.97.5124 24.67-2.067 6.661-1.979 13.93.6280 20.71-2.351 8.196.7762 16.66-.1158 24.77-1.242 7.136-2.35 12.37-9.422 8.402-15.18 10.94-5.901 6.814-20.59-5.248-23.81-4.722-3.032-15.84.2449-17-1.686 6.248-13.84 1.273-30.13-12.41-40.2-3.3-1.638-8.344-9.367-11.85-7.502z" style="fill:#fff"/><path d="m-973 155.2q-1.585-.8986-2.128-1.719-.5214-.8192-.4044-2.037.1713-1.114.9073-1.859 1.374-1.362 3.249-1.252.7672.0452 1.522.2238l1.879.5133 1.714.4532 1.235.3076.4592.1277q.4640.0777.7363.1440.8625.1682 1.523.2071.6820.0402 1.229-.0786.7848-.1384 1.079-.3056.4289-.2264.461-0.56.0352-.3670-.3914-.6102-.0821-.0384-.3314-.1202l-.8087-.2825-.5412-.1661-2.28-.5872-.4411-.0931-2.814-0.82q-2.317-.6398-3.881-1.537-1.682-1.005-2.526-2.481-.8227-1.474-.6609-3.159.1298-1.351.8974-2.648.7888-1.296 2.172-2.305 1.546-1.15 3.843-1.854 2.296-.7036 5.135-.8050 1.118-.0349 2.29.0342 2.429.1430 4.619.7753 2.416.7294 3.539 1.534 1.146.7889 1.446 1.897.1490.6799.0977 1.214-.1026 1.068-.8795 1.794-.7098.6964-1.575.9978-.8435.3027-1.973.2362-1.193-.0702-2.674-.493l-.3313-.1202-1.227-.391-.5232-.1315-1.192-.3051-.6068-.1532-.4198-.0918q-.1263-.0242-.2541-.0317-.1049-.023-.3180-.0355-1.215-.0715-1.689.1857-.4076.2277-.4397.5613-.0207.2169.2204.3821.2216.1473.6808.2750l.8135.2324.2919.0843.8577.2183 1.423.3523 2.814 0.82q2.209.6502 3.684 1.358 1.127.5361 1.958 1.256.8538.7046 1.393 1.558.5608.8551.7758 1.74.2150.8851.1236 1.836-.2612 2.719-2.93 4.844-4.092 3.333-11.42 2.901-.5541-.0327-1.869-.1771-5.156-.5385-7.537-1.853z" style="stroke:#4d4d4d;stroke-width:1.721;fill:#bbe6f1"/><path d="m-946 167.2q-1.348-1.2-1.263-2.787l1.067-19.96q.0858-1.605 1.574-2.644 1.511-1.056 3.582-.9878l3.71 1.829.009-.1671q2.495-1.459 5.847-1.349 1.708.056 3.267.5089 1.58.4536 2.987 1.337 1.679 1.009 2.789 2.637 1.132 1.628 1.472 3.665.1741 1.144.1339 1.897-.0581 1.086-.4337 2.112-.7977 2.519-2.794 4.245t-4.879 2.436q-1.906.4399-3.785.3784-1.986-.065-3.729-.6580l-.4840-.1498-.419-.1644-.2877 5.382q-.0858 1.605-1.598 2.694-1.49 1.073-3.412 1.01-2.007-.0657-3.355-1.265zm8.941-16.42q-.051 1.355.8234 2.204.8966.8331 2.284.8786 1.452.0476 2.42-.8584.9682-.9060 1.062-2.661-.1403-.9758-.8342-1.601-.6716-.6415-1.711-.8095-1.772-.058-2.883.7093-1.088.7513-1.162 2.139z" style="stroke:#4d4d4d;stroke-width:1.721;fill:#bbe6f1"/><path d="m-880 153q-.1296 1.67-1.1 2.311t-3.104.5396l-11.37-.5409q.0775.1043.7387.6888.5901.3968 1.13.6069.5630.1944 1.514.3570.9521.1459 2.317.2108 1.326.0129 3.387-.3250 1.581-.2265 2.22-.1960 1.728.0822 2.691.9158.9843.8346.8949 1.987-.0324.4175-.1359.6472-.2839.6234-.8348 1.1-.5295.4776-1.393.8388-.8404.3455-2.366.6920-1.868.3469-3.802.4393-1.354.0697-2.89-.003-3.178-.1512-5.789-.9961-2.588-.8606-4.383-2.287t-2.636-3.276q-.8412-1.85-.6753-3.988.2105-1.884 1.347-3.556 1.159-1.688 2.961-2.843 1.825-1.17 4.249-1.776 2.424-.6054 5.175-.4745 3.644.2236 6.404 1.629 1.687.8848 2.917 2.133 1.253 1.233 1.897 2.588.6668 1.339.6349 2.578zm-15.2-1.41 5.205.2476q.0156-.2004-.0167-.3360-.1916-1.668-2.837-1.794-1.581.2265-2.243 1.586-.1009.1963-.1087.2965z" style="stroke:#4d4d4d;stroke-width:1.721;fill:#bbe6f1"/><path d="m-876.6 162.2q-1.452-1.138-1.451-2.744l.0145-19.84q.00071-1.004.6639-1.873.6631-.8696 1.796-1.371 1.133-.5181 2.501-.5175 1.304.017 2.393.5532 1.111.5191 1.73 1.389.6405.8702.6397 1.891l-.0144 19.74q-.00097 1.64-1.391 2.777-1.497 1.087-3.463 1.086-1.966-.00077-3.419-1.089z" style="stroke:#4d4d4d;stroke-width:1.721;fill:#bbe6f1"/><path d="m-841.1 150.2q.1356 1.67-.7260 2.4-.8615.7302-2.994.8363l-11.37.5655q.0935.096.8420.6119.6483.3365 1.218.4926.5894.1383 1.559.2074.9679.0525 2.333-.0154 1.318-.1159 3.309-.6508 1.533-.378 2.172-.4098 1.728-.0859 2.815.6478 1.109.7327 1.202 1.885.0339.4174-.0325.6554-.1831.6461-.6543 1.172-.4499.5253-1.249.9674-.7793.4243-2.238.9160-1.799.5254-3.704.8045-1.333.2004-2.868.2768-3.178.1581-5.902-.4272-2.704-.6030-4.711-1.844t-3.134-2.996q-1.127-1.754-1.301-3.891-.0892-1.89.7736-3.659.8828-1.787 2.489-3.108 1.626-1.338 3.935-2.174 2.309-.8357 5.06-.9726 3.651-.1314 6.612.9954 1.814.7144 3.232 1.834 1.439 1.102 2.292 2.384.8735 1.264 1.038 2.496zm-15.3.0742 5.204-.2589q-.0162-.2004-.0697-.3318-.4541-1.637-3.099-1.505-1.533.3780-1.975 1.791-.0691.2046-.0609.3048z" style="stroke:#4d4d4d;stroke-width:1.721;fill:#bbe6f1"/><path d="m-836.5 159.4q-1.544-1.045-1.736-2.627l-1.392-11.46q-.2023-1.665 1.051-2.834 1.273-1.187 3.294-1.338l4.056 1.58-.0162-.1332q.1348-.1277.5745-.3957 2.826-1.656 5.74-1.873.8297-.0617 2.107.0279 2.17.1914 3.9 1.004 1.73.8123 2.741 2.065 1.011 1.252 1.189 2.718l1.072 8.827q.1295 1.066-.4248 1.981-.5330.9136-1.577 1.512-1.044.5987-2.361.7135-2.042.1520-3.623-.8394-1.58-.9915-1.776-2.607l-0.87-7.162q-.0972-.7994-.8852-1.279-.7556-.5655-1.777-.4895-1.021.0761-1.635.6763-.6677.6883-.5747 1.454l.8659 7.128q.1942 1.599-1.115 2.839-1.251 1.186-3.251 1.334-2 .1489-3.578-.8260z" style="stroke:#4d4d4d;stroke-width:1.721;fill:#bbe6f1"/><path d="m-804.9 158.2q-2.199.0844-3.855-1.075-1.636-1.177-1.746-2.931-.0545-.8689.2826-1.636.3584-.7675 1.089-1.399.7510-.6486 1.671-.9855.9406-.3544 2.029-.3962 2.22-.0853 3.877 1.091.7827.5394 1.237 1.309.4761.7690.5285 1.604.1089 1.738-1.434 3.07-1.461 1.262-3.681 1.347zm4.747-13.01q-.0427.002-.2936.095-.2520.0767-.3576.0975l-.0147-.2339-4.605 4.013q-.2520.0767-.8283.0988-1.601.0615-2.863-.9620-1.242-1.041-1.355-2.846l.0102-.5196q.0344-1.157.4548-1.96.4407-.8209 1.348-1.358.9291-.5382 2.389-.7953l.1067-.004 0.76-.1632q.1687-.0401.2327-.0425.0843-.02.1687-.04.7772-.2308.7426-.7823-.022-.3509-.3610-.6394-.4562-.4515-2.249-.3826-.7653.0796-2.101.6167-.0833.0368-.4346.2344l-.2499.1101-.9291.5382q-.1634.1235-1.165.5305-.8938.4196-1.94.4598-.7684.0295-1.401-.1639-1.023-.2790-1.691-1.041-.6693-.7783-0.73-1.747-.0765-1.22.7764-2.291 1.166-1.536 4.422-2.85 2.616-.9380 5.494-1.099.7044-.027 2.122.0525 4.129.3272 6.5 1.626t3.24 3.561q.3669 1.075.4109 1.776.0828 1.32-.5280 2.499t-1.88 2.099q-1.27.9030-3.2 1.513z" style="stroke:#4d4d4d;stroke-width:1.721;fill:#bbe6f1"/><path style="fill:#f59" d="m-871.8 98.47c-13.95 2.596-29.44 3.505-43.97 1.652 2.376 9.883 8.919 20 23.36 27.09 14.43 7.478 32.93 12.65 52.28 16.13 12.53-10.9 21.34-23.46 19.48-36.22-1.509-7.66-8.054-14.82-16.22-21.23-8.669 5.917-21.4 10.05-34.93 12.58z"/><path style="fill:#428bc1" d="m-935.5 111.3v-.1271z"/><g style="fill:#4d4d4d" transform="matrix(2.593 0 0 1.312 481.9 -142.3)"><path style="fill:#4d4d4d" d="m-508.3 199.6c.5813 1.55-.9689 7.46-4.941 8.914-3.972 1.453-8.914-2.132-9.495-3.682-.5813-1.55 3.488-.4844 7.46-1.938 3.972-1.453 6.395-4.844 6.976-3.294"/><path style="fill:#4d4d4d" d="m-508.5 187c-1.26-.0969-3.682-.2907-5.038.1938-1.26.4844-3.197 2.228-4.069 3.1-.7751.7751-.7751 1.26-.3876 1.744.3876.5813 1.26.6782 1.938.1938 0 0 2.325-2.325 3.391-2.713 1.066-.3876 4.457-.0969 4.457-.0969.7751-.0969 1.356-.6782 1.356-1.356-.1938-.5813-.4844-.9689-1.647-1.066"/></g><path style="fill:#5fbcd3" d="m-909.1 93.94c-15.3-.02047-30.91-1.882-43.72-6.228-4.148 9.743-5.489 20.38 3.099 29.64 8.511 10 22.92 18.44 39.22 25.43 6.411-.2560 8.994-3.731 13.78-5.377 16.83-8.747 31.46-19.63 33.58-32.1.9012-5.815-.4023-11.67-2.986-17.34-12.66 4.182-27.97 5.96-42.97 5.974z"/><path d="m-913 163q-2.009-.0169-3.425-1.133-1.395-1.133-1.373-2.739l.1588-11.54q.0145-1.054.6676-1.918.6747-.8810 1.793-1.374 1.14-.5090 2.486-.4977 1.325.0279 2.429.5559t1.733 1.403q.6505.8755.6358 1.946l-.1578 11.48q-.0224 1.623-1.47 2.731-1.447 1.109-3.477 1.092zm-3.342-21.19q-1.48-1.184-1.456-2.923.0228-1.656 1.579-2.898.7558-.5625 1.679-.8558.9230-.2934 1.927-.2849 2.116.0178 3.616 1.269 1.458 1.217 1.435 2.89-.0237 1.723-1.514 2.865t-3.649 1.124q-2.158-.0182-3.617-1.185z" style="stroke:#4d4d4d;stroke-width:1.721;fill:#bbe6f1"/><g style="fill:#4d4d4d" transform="matrix(2.376 .4133 -.8170 1.202 -934.3 53.49)"><path style="fill:#4d4d4d" d="m33.6 42.8c.6 1.6-1 7.7-5.1 9.2s-9.2-2.2-9.8-3.8 3.6-.5 7.7-2 6.6-5 7.2-3.4"/><path style="fill:#4d4d4d" d="m19.3 35c-1.3-.1-3.8-.3-5.2.2-1.3.5-3.3 2.3-4.2 3.2-.9.8-.9 1.3-.5 1.8.4.6 1.3.7 2 .2 0 0 2.4-2.4 3.5-2.8s4.6-.1 4.6-.1c.8-.1 1.4-.7 1.4-1.4-.1-.7-.4-1.1-1.6-1.1"/><path style="fill:#4d4d4d" d="m33.4 29.8c-1.3-.1-3.8-.3-5.2.2-1.3.5-3.3 2.3-4.2 3.2-.8.8-.8 1.3-.4 1.8.4.6 1.3.7 2 .2 0 0 2.4-2.4 3.5-2.8s4.6-.1 4.6-.1c.8-.1 1.4-.7 1.4-1.4-.2-.6-.5-1-1.7-1.1"/></g></g></svg>