<svg xmlns="http://www.w3.org/2000/svg" version="1.1" width="200px" height="100px" viewBox="0 0 200 100"><g transform="translate(985.7 -76.65)"><g style="fill:#fff" transform="matrix(.9205 0 0 .8621 -137.1 100.8)"><path style="fill:#fff" d="m-759.4-28.03c-12.44.9997-24.4 5.493-36.2 8.984-6.153 4.004-12.01 8.63-18.9 11.27-3.638 2.293-6.64 6.614-9.104 9.236-.2947-9.492-10.91-15.23-19.39-13.47-5.374-2.752-11.65.8114-15.77 3.115-5.587-5.667-15.87-6.464-21.71-.8496-7.352-11.04-24.63-10.09-34.02-2.236-7.429 6.303-9.931 18.18-4.633 26.41-4.638 10.61 5.62 22.51 16.63 21.71 6.716-1.427 20.41-4.244 19.09 2.018-3.735 17.73-25.55 29.83-11.06 41.52 5.344 5.034 13.14 6.939 20.22 5.844 4.465 2.256 9.548-.006 13.83-.6504 4.497 1.975 9.586.1829 13.9-.2871 7.202 3.082 15.36 1.011 22.71 3.367 4.104.1825 7.98-1.611 11.4-3.684 5.575 1.439 11.24 3.188 16.94 3.695 10.65-.3589 19.26-13.53 14.03-22.7 9.241 10.6 25.64 8.02 36.55 1.629 9.525-4.954 16.57-16.96 11.51-27.41-2.541-3.157 3.181-2.311 5.162-3.516 9.867-2.888 21.41-8.854 23.5-19.85.5057-6.857-4.262-12.93-9.703-16.43-1.242-12.01-14.72-18.02-25.48-17.78-2.593-7.656-12.32-9.952-19.52-9.926z"/></g><path style="fill:#4d4d4d" d="m-833.8 152.5c-7.371 1.988-12.62 0.74-14.78-2.27-2.53-3.561.1579-7.781-2.027-11.4-1.625-2.689-4.584-5.154-9.049-6.816-4.622-1.734-9.433-3.422-12.97-5.68-1.595-1.019-2.041-1.174-2.952-2.568-5.745-.6125-10.99-4.733-12.33-7.507-1.986-4.128-.5686-8.646 3.302-13.03 2.189-2.49 7.041-5.345 12.68-6.562 2.22-2.492 5.098-5.12 9.65-6.673 3.727-1.272 11.11-2.102 11.11-2.102 3.805-1.661 9.188-3.256 13.58-3.664 4.004-.3708 8.202.1109 10.46 1.567 2.813 1.812 2.424 4.384 2.199 6.726 3.762-.03319 8.307-.04561 11.65.6132 6.482 1.282 9.867 3.207 10.36 7.381.1676 1.413-1.195 3.223-2.322 4.598 6.808.8724 10.86 3.987 11.22 7.328.2617 2.761-4.047 5.474-8.468 7.498-4.584 2.078-10.33 3.411-15.98 4.487-4.76.9043-9.072 1.327-14.25 2.181.6959 4.565 11.27 6.04 12.98 10.36 1.046 2.64 1.269 5.771-1.236 8.512-3.057 3.489-6.914 5.404-12.83 7.023z"/><path style="fill:#edc" d="m-836.8 150.3c3.653-.5888 6.555-1.931 9.558-4.228 5.036-3.849 4.982-9.343-1.17-11.94-4.602-2.004-9.013-3.294-9.563-7.241-.1044-1.074.9134-1.716 4.272-2.215 8.343-1.096 16.88-2.12 24.46-4.592 4.02-1.313 7.177-3.471 8.818-5.577 1.447-1.831-.0563-3.567-2.019-4.858-2.327-1.53-6.781-1.92-10.83-1.907-.0279-.00008-.0551 0-.0831 0 .0257-.009.0501-.009.0772-.009-9.107.0116-14.75 1.523-21.36 4.153-.006.009-.009.009-.011 0-3.801 1.409-5.759 3.094-5.668 5.388.1422 3.755 6.23 6.436 19.38 3.519.0578-.009.1147-.0141.1715-.0224-5.234 1.986-12.35 2.778-17.58 1.633-4.078-.8923-5.997-3.674-5.578-6.094.3208-1.05.5657-1.735 1.216-2.612l-.00064-.0208c-.401-1.562-2.609-2.974-4.186-4.304-2.669-2.242-7.762-3.957-13.89-2.847l.0624-.0199c4.808-.9540 6.778-1.643 13.53.5840.1378-.6750.1451-2.268.1451-2.268l-.021.0208c-6.619-.6693-11.55-1.863-13.26-5.074-1.088-2.047.3265-4.231 2.12-6.293-6.44 1.992-10.4 4.245-12.4 8.398-.5470.9150-1.354 2.293-1.887 3.611 0 0-.2180-1.15.0204-1.869-.4169.0515-.8313.1117-1.243.1752.4114-.0697.8231-.1322 1.234-.1839.3849-1.434.6653-2.507 1.24-3.633-5.156 1.503-8.816 3.331-10.81 6.843-2.36 3.248-0.79 6.675 1.328 9.467.9775 1.289 2.759 2.649 4.896 3.498.2384-1.84.7198-5.353 2.118-7.191-1.004 2.425.5950 6.42 1.9 8.211 1.645 2.241 3.238 4.429 7.003 5.922 4.402 1.73 7.828 2.138 12.19 4.388.004.0116.01.0232.014.0348-.00009 0 .00065.009.00065.009 1.371.9954 3.837 3.618 5.035 5.93.0796.1508.2308.4523.4202.9318.0305.0822.065.1656.0899.2462.00039-.00008.00061-.00008.00045-.009.2271.6211.4343 1.373.4343 2.081.002 2.208-1.341 5.125.6148 7.976.7720 1.126 2.508 2.398 5.287 2.326 1.416-.0365 2.717-.1488 3.935-.3452zm-2.433-39.16c2.507-1.132 5.83-2.352 8.671-3.184.2483-.0622.4863-.1179.7424-.1860l-.0187.009c6.193-1.694 12.04-1.997 18.04-2.031 1.723-1.389 3.161-2.928 2.827-4.438-.1015-2.533-4.229-4.319-9.088-4.794.0225 0 .0443-.0086.0653-.0086-.1198-.0091-.2405-.01414-.3605-.02242-.2909-.02491-.5829-.04811-.8778-.06302-.0432.000432-.0874.0086-.1307.0086-6.209-.3074-12.54.3963-18.34 3.261h.0201c-2.156 1.061-3.345 2.067-4.201 2.774-3.593 2.938-2.764 6.755 2.649 8.681zm-34.46 1.481c-.003-.0165-.006-.0341-.01-.0506.0008-.009.004-.009.006-.009.0009.0199.004.039.005.0589zm12.81-6.047h-.0319l.009-.009c.009.009.0177.00008.0246 0zm14.4-3.124c.9632-1.572 2.366-2.807 3.884-3.96h.0225c4.752-2.491 9.3-4.364 14.3-4.815.2788-1.527.322-3.477-.7996-4.831-3.113-2.637-9.347-1.981-14.08-.4540-8.875 2.586-12.23 6.22-11.58 9.102.5131 2.281 3.103 4.178 8.257 4.956z"/><g style="stroke:#4d4d4d;stroke-width:2;fill:#ff80b2" transform="matrix(.9205 0 0 .8621 -135.1 67.12)"><path style="stroke:#4d4d4d;stroke-width:2.214;fill:#f59" d="m-874.7 86.86q.4458.2093.8168.4366l.6644-7.706q.1964-2.278 1.909-3.741 1.739-1.486 4.066-1.285 1.476.1517 2.669 1.036 1.195.8599 1.812 2.207.6163 1.347.4888 2.825l-2.461 28.55q-.1379 1.599-.9735 2.797-.8093 1.175-2.106 1.771-1.296.5962-2.847.4625l-4.322-3.107-.0167.1939q-2.576 2.414-6.429 2.082-.9935-.0857-2.378-.4492-3.837-1.088-6.415-4.313-2.552-3.247-3.002-7.656-.1170-1.475-.004-2.783.1442-1.672.6088-3.097.9597-2.92 2.78-5.058t4.288-3.292q2.979-1.428 6.154-1.154 2.302.1985 4.699 1.284zm-7.56 12.36q-.1713 1.987.8368 3.319t2.632 1.472q1.434.0747 2.46-.7888 1.051-.8615 1.494-2.605l.1421-1.648q-.3108-2.908-2.638-3.67-.5732-.1471-.8398-.1701-1.381-.1191-2.458.7646t-1.512 2.531q-.0693.2382-.1174.7955z"/><path style="stroke:#4d4d4d;stroke-width:2.214;fill:#f59" d="m-855.7 113.6q-2.285.0644-3.96-1.494-1.651-1.584-1.716-3.918l-.4-16.76q-.0432-1.532.6506-2.817.7174-1.31 1.961-2.075 1.267-0.79 2.799-.8332 1.508-.01818 2.794.6999t2.051 1.962q.7893 1.243.8332 2.799l.4701 16.68q.0665 2.358-1.517 4.033-1.583 1.675-3.893 1.74zm-5-30.64q-1.75-1.654-1.821-4.183-.0679-2.407 1.631-4.28.8277-.8506 1.861-1.318 1.033-.4671 2.176-.4993 2.407-.06785 4.184 1.683 1.727 1.703 1.795 4.135.0706 2.504-1.56 4.229-1.63 1.725-4.086 1.794-2.456.06922-4.181-1.561z"/><path style="stroke:#4d4d4d;stroke-width:2.214;fill:#f59" d="m-850.4 107.1q-2.347-4.156-1.854-8.531.2745-2.221 1.425-4.392 1.153-2.195 2.906-3.858 1.277-1.129 2.353-1.767 2.097-1.233 4.472-1.675 2.378-.4666 5.206-.1483 1.547.1741 2.334.3606 8.171 1.776 7.504 7.698-.4914 1.756-1.943 2.694t-3.41.7176q-.3626-.04081-.8351-.1919l-.2363-.07555-1.248-.4342-.6363-.2185-1.015-.3345q-.4242-.1457-1.318-.2463-1.934-.2177-3.216.7394-1.28.9329-1.484 2.746-.0499 1.096.3250 1.897.3776.7768 1.233 1.436.9284.6675 2.137.8035.6526.0735 1.587.0319l.1450.0163 1.786-.215q0.72-.0903 1.912-.0294 2.417.2721 3.631 1.877 1.239 1.608.9529 4.146-.3971 1.571-1.691 2.624-1.291 1.03-3.66 1.424-2.37.3941-5.729.0159-4.028-.5269-6.986-2.304-2.931-1.798-4.648-4.807z"/><path style="stroke:#4d4d4d;stroke-width:2;fill:#ff80b2" d="m-836 75.89q-1.626-1.35-1.82-3.45l-1.398-15.1q-.1276-1.378.4433-2.601.5928-1.224 1.692-1.988 1.099-.7637 2.433-.8873l3.85 1.541.0295-.1572q1.218-.9071 2.838-1.521 1.831-.7212 3.406-.8670 3.019-.2795 5.986 1.255l.5117.2836.44.2241.3736-.2552.8108-.5385q1.548-.9156 2.671-1.417 1.739-.7568 3.49-.9189 2.472-.2289 4.678.7144 2.204.9214 3.587 2.757 1.403 1.812 1.62 4.153l1.088 11.75q.1296 1.4-.4413 2.623-.5729 1.201-1.65 1.962-1.055.7597-2.39.8832-2.079.1924-3.7-1.114t-1.818-3.429l-.8547-9.233q-.0405-.4376-.2540-.8371-.1916-.4015-.5482-.6775-.3367-.2998-.7447-.4165-0.41-.1386-.8476-.09807-.8970.08304-1.495.7783-.5976.6953-.5126 1.614l.8628 9.32q.2005 2.166-1.13 3.768-1.251 1.506-3.329 1.698-2.079.1924-3.68-1.138-.7232-.6612-1.184-1.589-.4392-.9303-.5263-1.871l-.8669-9.364q-.081-.8752-.7763-1.473-.6754-.6215-1.553-.5624-.9408.08709-1.582.7864-.6195.6973-.5345 1.616l.8709 9.408q.1985 2.144-1.112 3.722-1.29 1.554-3.303 1.74-2.013.1863-3.632-1.098z"/><path style="stroke:#4d4d4d;stroke-width:2.214;fill:#f59" d="m-823 115.5q-2.243.2907-4.066-1.092-1.801-1.41-2.102-3.725l-3.714-28.66q-.1876-1.447.3735-2.795.5852-1.351 1.746-2.237 1.157-.9103 2.671-1.155 1.544-.2001 2.895.3851t2.241 1.77q.9103 1.157 1.104 2.653l1.038 8.008q.8090-.5708 1.82-1.094 2.502-1.134 4.745-1.424 2.195-.2845 4.095.1806 1.924.4619 3.338 1.53 1.411 1.043 2.338 2.714.9518 1.667 1.211 3.669l1.682 12.98q.3032 2.34-1.124 4.193-1.407 1.826-3.771 2.132-2.307.1764-4.109-1.233-1.777-1.413-2.074-3.704l-1.35-10.42q-.1407-1.085-1.022-1.83-.8844-.7683-1.997-.6486-1.134.1469-1.875 1.052-.7411.9054-.5879 2.087l1.357 10.47q.1938 1.496-.4124 2.874-.5821 1.375-1.767 2.265-1.188.8652-2.683 1.059z"/><path style="stroke:#4d4d4d;stroke-width:2;fill:#ff80b2" d="m-835 40.16q-.1515 1.773-1.42 2.944-1.269 1.171-2.889 1.032-1.073-.09164-1.942-.7613-.8471-.6678-1.29-1.676-.4413-1.03-.3403-2.212.1477-1.73 1.415-2.878 1.199-1.132 2.885-.9885 1.664.1421 2.698 1.465 1.032 1.345.8841 3.075zm-12.19 2.002q-1.273 1.214-2.958 1.07-1.708-.1459-2.694-1.509-.4731-.6579-.7341-1.474-.2392-.8143-0.17-1.624.0711-.8319.4449-1.594.3976-.7820 1.039-1.323 1.174-1.091 2.859-.9466 1.62.1384 2.634 1.438 1.076 1.349.926 3.1-.1515 1.773-1.347 2.862zm-1.855 3.899q1.447-.1630 2.236-.09572 3.328.2843 5.354 2.641l-.0112.1314 4.327-1.858q.5553-.3054 1.278-.2437 1.073.09164 1.726.9634 1.682 1.996 1.452 4.689l-1.298 15.19q-.1889 2.211-1.71 3.493-1.521 1.281-3.644 1.1l-3.896-2.67-.0187.2189q-2.219 1.972-5.678 1.676-1.138-.09725-2.539-.4815-2.002-.5680-3.817-2.046-1.812-1.5-3.052-3.767-.8249-1.702-1.151-3.561-.3264-1.858-.1263-4.201.4113-3.008 1.922-5.459 1.532-2.449 3.798-3.932 2.268-1.504 4.85-1.791zm-.7069 12.66q-.1309 1.533.6676 2.77.8823 1.288 2.349 1.414.8757.0748 1.703-.3176.8293-.4143 1.366-1.273.4502-.6231.5701-1.252.0868-.4998.1634-1.397-.1358-2.283-1.798-3.219-.7144-.4139-1.371-0.47-1.204-.1029-2.155.6981-.9505.8009-1.339 2.245-.0406.2171-.0774.3903-.0131.1532-.0793.4122z"/><path style="stroke:#4d4d4d;stroke-width:2;fill:#ff80b2" d="m-868.7 69.92q-2.037.1645-3.621-1.162-1.564-1.351-1.734-3.453l-2.101-26.02q-.1061-1.314.4589-2.506.5870-1.194 1.673-1.943 1.084-.7709 2.46-.9262 1.402-.1132 2.595.4738 1.194.5870 1.944 1.695.7709 1.084.8806 2.442l.5872 7.271q.7548-.4798 1.69-.9081 2.307-.9138 4.344-1.078 1.993-.1610 3.687.3415 1.716.5007 2.945 1.526 1.227 1.003 1.992 2.551.7862 1.546.9330 3.364l.9516 11.78q.1716 2.124-1.197 3.734-1.349 1.586-3.495 1.759-2.089.05853-3.653-1.292-1.542-1.352-1.71-3.433l-.7641-9.461q-.0796-.9856-.8423-1.696-.7645-.7318-1.774-.6724-1.029.08313-1.738.8678-.7082.7847-.6215 1.858l.7677 9.505q.1097 1.358-.4974 2.575-.5852 1.216-1.693 1.966-1.109.7289-2.467.8386z"/><path style="stroke:#4d4d4d;stroke-width:2;fill:#ff80b2" d="m-893 59.24q-2.12-3.754-1.675-7.706.2480-2.006 1.287-3.968 1.041-1.983 2.626-3.485 1.154-1.02 2.125-1.596 1.894-1.113 4.04-1.513 2.148-.4215 4.703-.1340 1.397.1573 2.108.3258 7.381 1.605 6.779 6.954-.4439 1.586-1.755 2.434-1.312.8474-3.08.6483-.3275-.03687-.7544-.1734l-.2134-.06825-1.128-.3923-.5748-.1974-.9168-.3022q-.3832-.1316-1.191-.2225-1.747-.1966-2.905.6680-1.156.8427-1.341 2.48-.0451.9899.2936 1.714.3411.7017 1.114 1.297.8387.6030 1.93.7259.5895.06636 1.434.02875l.1310.01475 1.614-.1942q.6504-.08156 1.728-.02663 2.183.2458 3.281 1.696 1.119 1.453.8609 3.745-.3587 1.419-1.527 2.371-1.166.9301-3.307 1.286-2.141.3560-5.176.01439-3.639-.4760-6.311-2.081-2.647-1.625-4.199-4.342z"/><path style="stroke:#4d4d4d;stroke-width:2;fill:#ff80b2" d="m-907.9 62.68q-1.831-.8342-2.592-1.78-.7384-.9485-.9372-2.54-.1170-1.469.4309-2.578 1.03-2.033 2.949-2.273.7849-.09801 1.592-.0216l2.028.2782 1.845.2346 1.325.1446.4960.07092q.4878.0055.7794.03553.913.041 1.589-.04341.6977-.08713 1.218-.3514.7550-.3379 1.008-.6131.3734-.3788.3190-.8148-.0599-.4797-.5532-.7059-.0927-.03272-.3652-.08726l-.8884-.1991-.5887-.1036-2.45-.2919-.4688-.03004-3.05-.4828q-2.502-.3519-4.311-1.189-1.957-.9514-3.191-2.679-1.213-1.731-1.488-3.933-.2205-1.766.2158-3.592.4581-1.829 1.589-3.409 1.259-1.796 3.391-3.169 2.131-1.373 4.966-2.082 1.117-.2724 2.317-.4221 2.486-.3104 4.857.05784 2.624.4473 3.965 1.254 1.36.7824 1.951 2.148.3269.8449.4141 1.543.1742 1.395-0.42 2.488-.5343 1.041-1.327 1.605-.7714.5613-1.927.7056-1.221.1525-2.823-.09029l-.3652-.08726-1.338-.2536-.5614-.06276-1.281-.1501-.6514-.07367-.4470-.03276q-.1335-.0055-.2644.01087-.1117-.0082-.3298.01904-1.243.1552-1.654.5830-.3516.3761-.2972.8121.0354.2834.3215.4470.2616.1445.7576.2154l.8803.1337.3161.0491.9212.1064 1.526.1637 3.05.4828q2.396.3873 4.066.9980 1.275.4607 2.3 1.219 1.044.7333 1.809 1.723.7875.9867 1.234 2.082.4468 1.096.6020 2.338.4438 3.554-1.693 6.832-3.257 5.123-10.76 6.06-.5669.07079-1.93.1524-5.336.3564-8.078-.8513z"/><path style="stroke:#4d4d4d;stroke-width:2.214;fill:#f59" d="m-797.7 115.5q-1.675-.0968-3.012-1.002-1.314-.8799-2.036-2.286-.7214-1.43-.6718-3.133.094-1.627.9766-2.989.8840-1.386 2.292-2.133 1.432-.7457 3.107-.6489 2.574.1486 4.221 1.998.8265.8761 1.222 2.044t.3254 2.382q-.1486 2.574-2.049 4.267-1.849 1.647-4.375 1.502zm.7642-13.23q-1.554-.0897-2.798-.9168-1.218-0.85-1.896-2.18-.6542-1.329-.5644-2.883l.7726-13.38q.1346-2.331 1.881-3.887 1.695-1.51 3.978-1.378 2.258.1304 3.814 1.877.7093.7962 1.062 1.864.3768 1.069.3109 2.211l-.7726 13.38q-.0883 1.53-.8911 2.775-.8014 1.221-2.083 1.902-1.282.6812-2.813.6172z"/></g></g></svg>