<svg xmlns="http://www.w3.org/2000/svg" version="1.1" width="200px" height="100px" viewBox="0 0 200 100">	<g transform="translate(80.08 -1010)"><path style="fill:#fff" d="m74.51 1010c-4.247-.5139-6.85 8.224-10.49 3.481-7.625-5.411-19.85 1.094-18.42 11.79-.09784 2.784-4.642.3215-6.161 2.762-7.213 4.067-8.63 15.98-2.02 21.44-5.362-1.693-10.32 3.721-15.1 3.342-3.118-2.98-10.07-.4885-9.691-6.583-2.026-7.173-7.985-12.99-14.78-13.76 1.245-6.185-3.736-11.2-8.189-13.41-2.465-7.383-10.9-8.631-16.73-6.512-5.971-2.137-13.47 1.768-14.95 8.769-6.867 1.887-8.821 12.59-5.215 17.5-16.37-4.252-36.16 12.21-32.39 31.85.7906 3.709 4.771 7.117 1.256 10.44-5.035 10.97 2.149 26.16 13.35 27.12 9.764 3.654 20.6.7922 29.54-3.051 7.913 4.887 17.24 1.95 25.53 2.054 4.885 1.722 10.39.5356 14.58-2.64 5.675 5.923 14.77 5.418 21.1 1.597 6.597 4.117 14.47 2.07 21.27.7059 4.891 2.012 9.94-3.309 14.27.5405 4.545 1.804 9.521.6091 13.97-.5824 9.742 4.373 20.02-.661 30.02.6022 10.75-1.109 18.76-15.68 12.39-26.15-1.107-3.237-6.035-4.727-2.693-8.188 4.722-9.294-.3594-24.17-10.91-23.64-1.961-.053-8.203.9312-6.62-2.654 7.495-8.237.5014-25.32-10.33-22.39-.1121-7.507-5.115-15.49-12.59-14.42z"/><g transform="matrix(1.754 0 0 1.769 -19.86 -1042)"></g><flowRoot xml:space="preserve" style="letter-spacing:0px;font-size:20px;word-spacing:0px;font-family:sans-serif;line-height:125%;fill:#000000" transform="matrix(1.297 0 0 1.439 -107.2 993.3)"><flowRegion><rect y="113.5" width="180.8" x="5" height="67.5"/></flowRegion><flowPara/></flowRoot><path style="fill:#ffe700" transform="matrix(1.117 0 0 1.261 176.2 -241.4)" d="m-84.94 1035-2.236 10.48-9.488-4.982-8.992 5.83-3.186-10.23-10.48-2.236 4.982-9.488-5.83-8.992 10.23-3.186 2.236-10.48 9.488 4.982 8.992-5.83 3.186 10.23 10.48 2.236-4.982 9.488 5.83 8.992z"/><g style="stroke:#2d4b9e;stroke-width:3;fill:#87cdde" transform="matrix(1.016 0 0 1.129 7.43 -196.8)"><path d="m-72.85 1146q-2.285-1.406-3.135-2.783-.8203-1.377-.8203-3.516.0879-1.963.9961-3.34 1.699-2.52 4.277-2.52 1.055 0 2.109.2344l2.637.7031 2.402.6153 1.729.4101.6445.1758q.6445.088 1.025.1758 1.201.2051 2.109.2051.9375 0 1.67-.2637 1.055-.3223 1.436-.6445.5566-.4395.5566-1.025 0-.6446-.6152-1.025-.1172-.059-.4688-.1758l-1.143-.4102-.7617-.2343-3.193-.7911-.6152-.1171-3.955-1.143q-3.252-.8789-5.508-2.285-2.432-1.582-3.779-4.072-1.318-2.49-1.318-5.449 0-2.373.8789-4.717.9082-2.344 2.666-4.248 1.963-2.168 5.01-3.633t6.914-1.934q1.523-.1758 3.135-.1758 3.34 0 6.416.8789 3.398 1.025 5.039 2.314 1.67 1.26 2.227 3.164.2930 1.172.2930 2.109 0 1.875-.9668 3.223-.8789 1.289-2.021 1.904-1.113.6152-2.666.6152-1.641 0-3.721-.5859l-.4688-.1758-1.729-.5567-.7324-.1758-1.67-.4101-.8496-.2051-.5859-.1172q-.1758-.029-.3516-.029-.1465-.029-.4395-.029-1.67 0-2.285.4981-.5274.4394-.5274 1.025 0 .3808.3516.6445.3223.2344.9668.4102l1.143.3222.4102.1172 1.201.293 1.992.4687 3.955 1.143q3.105.9082 5.215 1.992 1.611.8203 2.842 1.992 1.26 1.143 2.109 2.578.8789 1.436 1.289 2.959.4102 1.523.4102 3.193 0 4.775-3.369 8.76-5.156 6.24-15.23 6.24-.7617 0-2.578-.1172-7.119-.4102-10.55-2.461z"/><path d="m-42.94 1141q-3.807-4.308-4.323-9.586-.2333-2.685.5774-5.532.8079-2.876 2.457-5.274 1.222-1.65 2.329-2.671 2.161-1.978 4.849-3.094 2.684-1.146 6.096-1.479 1.866-.1826 2.84-.1601 10.07.045 10.77 7.189-.1388 2.192-1.614 3.661t-3.837 1.7q-.4374.043-1.032-.017l-.2973-.03-1.58-.1987-.8044-.098-1.279-.1398q-.5362-.065-1.615.04-2.333.2282-3.604 1.677-1.274 1.42-1.06 3.607.2158 1.304.8583 2.153.6396.8205 1.813 1.383 1.261.5536 2.719.411.7873-.077 1.878-.3602l.1749-.017 2.051-.7011q.8256-.2868 2.246-.5141 2.916-.2852 4.749 1.302 1.862 1.584 2.162 4.646-.07416 1.95-1.334 3.516-1.263 1.536-3.956 2.595-2.693 1.058-6.746 1.455-4.878.3888-8.808-.9635-3.903-1.384-6.681-4.498z"/><path d="m-12.31 1147q-2.722-.1232-4.595-2.144-1.843-2.048-1.716-4.858l1.574-34.77q.07951-1.756 1.026-3.238.9762-1.481 2.538-2.29 1.563-.8384 3.409-.8134 1.873.085 3.354 1.061 1.481.9762 2.289 2.567.8384 1.563.7562 3.378l-0.44 9.716q1.079-.5083 2.388-.9183 3.205-.8227 5.926-.6995 2.663.1206 4.82 1.069 2.186.9495 3.64 2.511 1.456 1.532 2.208 3.707.7813 2.176.6713 4.605l-.7129 15.75q-.1285 2.839-2.209 4.739-2.05 1.872-4.918 1.742-2.774-.2722-4.617-2.32-1.814-2.047-1.688-4.827l.5725-12.64q.05963-1.317-.8305-2.384-.8888-1.096-2.234-1.186-1.376-.062-2.444.8572-1.068.9194-1.133 2.353l-.5751 12.7q-.08216 1.815-1.089 3.323-.9775 1.51-2.568 2.318-1.59.7786-3.404.6964z"/><path d="m24.2 1114q1.87-.5237 2.922-.6035 4.44-.3367 7.61 2.332l.01329.1752 5.297-3.369q.6657-.5206 1.63-.5937 1.431-.1086 2.477.8992 2.64 2.268 2.913 5.861l1.538 20.27q.2238 2.95-1.504 4.962t-4.561 2.226l-5.698-2.682.02216.2921q-2.5 3.069-7.115 3.419-1.519.1152-3.445-.091-2.757-.3199-5.46-1.878-2.706-1.587-4.822-4.306-1.449-2.064-2.276-4.44-.8266-2.376-1.064-5.502-.1013-4.047 1.363-7.596 1.494-3.551 4.159-5.986 2.663-2.464 6.001-3.393zm1.775 16.82q.1551 2.045 1.47 3.502 1.436 1.507 3.394 1.359 1.169-.089 2.174-.7819 1.003-.7224 1.526-1.967.4594-.9163.4828-1.77.0075-.6763-.08337-1.874-.6664-2.976-3.054-3.852-1.029-.392-1.905-.3256-1.607.1219-2.687 1.379t-1.282 3.241q-.0071.2944-.01854.5303.01551.2045-.01633.5594z"/><path d="m48.39 1115q1.793-1.478 4.164-1.378l.5854.025.1226-2.898q.1164-2.751 2.195-4.746 2.014-1.85 4.736-1.735 2.751.1164 4.658 2.191 1.899 2.25 1.782 5.002l-.1164 2.752.7610.032q2.283.097 3.883 1.777 1.626 1.77 1.528 4.082-.02724.644-.2313 1.31-.2041.6658-.6119 1.294-.3773.5999-.8679 1.107-1.8 1.654-4.175 1.642l-.8196-.035-.6439 15.22q-.1213 2.868-2.196 4.775-1.956 1.882-4.766 1.763-2.751-.1164-4.63-2.16-1.902-2.162-1.782-5.002l.6464-15.28-.4683-.02q-2.517-.1065-4.255-1.998-1.486-1.617-1.394-3.783.1003-2.371 1.897-3.937z"/><path d="m66.93 1121q-.1456-2.457 1.419-4.281 1.563-1.854 3.961-1.996l20.68-1.225q.5557-.033 1.615.022 1.679.106 2.779 1.332 1.098 1.197 1.193 2.806.06585 1.111-.2881 2.072-.1581.3028-.6636 1.184l-10.24 13.9 7.809-.4626q1.579-.094 2.971.6163 1.39.6806 2.26 1.979.8694 1.298.9646 2.907.0971 1.638-.6111 3.059t-1.948 2.287q-1.242.8366-2.821.9302l-21.76 1.289q-1.141.067-1.67.04-1.882-.065-3.126-1.253-1.217-1.219-1.323-3.003-.06757-1.14.3878-2.371.1547-.3613.5880-.974l10.19-13.72-6.229.369q-2.369.1405-4.197-1.483-1.8-1.654-1.941-4.023z"/></g><path style="fill:#c83771" transform="matrix(.6498 0 0 .7339 38.09 287.4)" d="m-84.94 1035-2.236 10.48-9.488-4.982-8.992 5.83-3.186-10.23-10.48-2.236 4.982-9.488-5.83-8.992 10.23-3.186 2.236-10.48 9.488 4.982 8.992-5.83 3.186 10.23 10.48 2.236-4.982 9.488 5.83 8.992z"/><g transform="matrix(1.754 0 0 1.769 170.4 -974.4)"></g></g></svg>