<svg xmlns="http://www.w3.org/2000/svg" version="1.1" width="200px" height="100px" viewBox="0 0 200 100"><g transform="translate(0 -952.4)"><g transform="matrix(-1.04 0 0 1.214 -472.6 -223.3)"><g transform="translate(-247.5 12.12)"></g></g><path d="m99.39 952.4c-5.379-.3231-10.31 3.228-13.51 6.722-10.58-3.486-24.77-2.247-31.78 7.156-5.795 9.806 4.174 16.04-.08608 25.2-1.438 3.09-6.311 8.916-9.823 5.83-8.113-7.129-21.12-6.269-31.35-3.58-8.957 1.165-13.57 10.41-12.75 18.61 1.404 8.685-.001049 17.75 2.873 26.17 2.34 8.02 10.86 12.15 18.88 11.33 7.893.072 15.8-2.211 22.66-5.765 6.316 3.68 14.06 1.492 20.87 3.027 4.136-1.442 7.876.1261 11.88.6447 3.889.538 7.523-2.486 10.96-2.491 5.838 1.938 12.1 1.191 18.07 2.171 3.458-.075 6.735-3.188 9.78-.4074 6.111 2.726 13.62.276 18.28-3.134 5.184 5.125 15.14 3.634 18.14-3.023 4.033.2513 7.595-1.823 10.52-4.369.3757 7.406 4.763 16.5 13.55 15.86 8.013.3378 19.27-3.69 19.29-13.02-.0403-4.304-3.153-7.789-5.24-11.11-.1948-5.051-2.039-10.02-5.171-14.01 6.659-.6292 13.47-4.545 14.35-11.68 1.361-7.181-3.713-15.25-11.21-16.34-.2760-7.263 1.274-15.85-4.968-21.26-8.019-8.564-24.44-8.52-30.3 2.489-2.618 4.333-.5611 8.027-3.14 10.75-2.013 2.124-5.433 3.586-8.307 2.959-6.516-1.422-3.787-12.44-14.23-13.92-3.784-1.509-8.468-1.101-12.06-1.387-1.414-7.423-8.441-13.54-16.18-13.41z" style="fill:#fff"/><path d="m73.37 1006q-2.593.2547-4.381-1.305-1.79-1.584-2.079-4.464l-2.384-23.74q-.1628-1.621.5061-3.08t1.937-2.365q1.265-.9308 2.88-1.089l8.318-.8172q1.052-.1034 2.216-.0712 2.503.0718 4.555.8234 2.052.7515 3.59 2.042 1.535 1.267 2.449 2.985.9382 1.716 1.14 3.725.0729.7260.06526 1.142.0176 2.882-1.339 5.117l0.11.1114.7288.3683.7532.3659.3203.2374q1.113.7461 1.934 1.79.8457 1.041 1.342 2.288.4933 1.222.6343 2.626.1676 1.67-.1833 3.342-.3534 1.648-1.282 3.23-.7714 1.175-1.599 2.039-1.476 1.538-3.343 2.381-1.867.8432-4.412 1.093l-12.48 1.226zm3.519-23.51 2.642-.2596q.7340-.0721 1.29-.6888.4749-.4377.4093-1.091-.0656-.6534-.6720-1.034-.6113-.4287-1.443-.3470l-2.544 0.25.3183 3.17zm1.229 12.98 5.48-.5384q.6606-.0654 1.082-.5462.4211-.4812.3506-1.183-.07533-.7502-.5667-1.215-.4938-.4891-1.203-.4194l-5.48.5384.3377 3.364z" style="stroke:#594640;stroke-width:2.358;fill:#1e859e"/><path d="m101.9 1005q-2.311 0-3.958-1.605-1.623-1.629-1.623-3.964v-16.78q0-1.532.7376-2.797.7622-1.289 2.041-2.019 1.303-.7539 2.852-.7539 1.524.0244 2.803.7782 1.278.7539 2.016 2.019.7622 1.265.7622 2.821v16.68q0 2.359-1.647 3.988t-3.983 1.629zm-4.18-30.76q-1.721-1.702-1.721-4.232 0-2.408 1.77-4.232.8605-.8269 1.918-1.265 1.057-.4378 2.213-.4378 2.434 0 4.18 1.8 1.696 1.751 1.696 4.183 0 2.505-1.696 4.183t-4.18 1.678q-2.483 0-4.18-1.678z" style="stroke:#594640;stroke-width:2.358;fill:#1e859e"/><path d="m109.9 1001q-2.879-2.484-2.504-4.764.1146-.6961 0.42-1.189.6260-1.23 1.889-1.79 1.267-.5844 2.893-.3224.9949.1603 2.352.8470l.9475.4483.6642.3534q1.539.9379 2.846 1.321l.2912.0469.6067.0978q.6552.1056.9447-.2913.1225-.7441-.3560-1.166-.0203-.0279-.0892-.0636-.0649-.0597-.1338-.0954-.0406-.0557-.0851-.0877l-.4334-.2423-.9554-.4003-1.223-.5912-.9069-.3925q-2.134-.9597-3.499-1.894-1.337-.9547-2.041-1.98-.6788-1.021-1.027-2.383-.3329-1.458-.1036-2.85.3794-2.304 2.192-4.082 1.816-1.802 4.756-2.56 2.964-.7545 6.628-.1642 2.839.4574 4.973 1.417 3.361 1.527 4.35 3.386.4926.9418.2910 2.166-.1936 1.176-1.112 2.063-.9143.8629-2.252.9678-.6061.0501-1.213-.0476-.9464-.1525-2.412-.7828l-1.445-.6024-.6964-.3093-.7771-.2730q-.3724-.1586-.5423-.1859-1.432-.2306-1.634-.2140l-.1129.0803-.1693.1206q-.1975.1407-.2212.2847-.0513.3120.3989.7542.0892.0636.1541.1234.0649.0597.1541.1234l.4334.2423.6884.3573 1.652.8576 1.178.5594 1.029 0.56q1.474.7302 3.031 2.164 1.464 1.394 2.037 3.211.6009 1.797.3084 3.573-.6165 3.744-4.432 5.889-3.541 1.992-8.783 1.148-.6795-.1096-2.168-.448-4.434-1.059-6.781-2.99z" style="stroke:#594640;stroke-width:2.358;fill:#1e859e"/><path d="m14.93 1035-1.875-24.42q-.1192-1.552.5365-2.967.6784-1.441 1.969-2.294 1.313-.8791 2.882-.9971l7.943-.5966q4.192-.3151 7.671.3504 3.501.6394 6.162 2.22 2.684 1.554 4.571 3.974 1.912 2.417 2.976 5.679.6560 2.121.8348 4.449.3138 5.049-1.823 9.332t-6.322 6.938q-4.162 2.63-9.556 3.035l-9.733.7311q-2.378.1786-4.226-1.414-1.826-1.619-2.01-4.02zm11.28-4.994 2.77-.2081q2.574-.1934 4.459-1.335 1.908-1.168 2.873-3.045.9654-1.877.7941-4.108-.0689-.8971-.4016-2.018-.7798-2.771-3.288-4.29t-6.112-1.248l-2.329.1749 1.235 16.08z" style="stroke:#594640;stroke-width:2.358;fill:#37abc8"/><path d="m56.08 1009q1.618-.1927 2.5-.1248 3.726.2864 6.013 2.877l-.01144.1455 4.825-2.093q.6188-.3426 1.428-.2804 1.201.091 1.939 1.052 1.899 2.195 1.665 5.177l-1.322 16.83q-.1924 2.449-1.883 3.88t-4.068 1.248l-4.382-2.922-.01906.2427q-2.466 2.201-6.339 1.903-1.275-.098-2.845-.5114-2.245-.6118-4.288-2.232-2.041-1.645-3.447-4.144-.9375-1.877-1.319-3.931-.3811-2.054-.1773-4.648.4345-3.333 2.104-6.058 1.694-2.724 4.216-4.384 2.524-1.684 5.412-2.023zm-.6826 14.02q-.1334 1.697.7706 3.06.9983 1.418 2.641 1.545.9805.076 1.903-.366.9244-.4655 1.517-1.42.4984-.6935.6272-1.391.0928-.5539.1709-1.548-.1714-2.526-2.039-3.548-.8029-.452-1.538-.5085-1.348-.1041-2.405.7909-1.057.8945-1.478 2.496-.04361.2405-.08327.4327-.01334.1696-.08517.4568z" style="stroke:#594640;stroke-width:2.358;fill:#37abc8"/><path d="m76.83 1037q-1.73-1.57-1.883-3.875l-1.107-16.7q-.1609-2.427 1.331-4.083 1.515-1.682 3.845-1.834l4.596 2.431-.01286-.194q.1605-.181.6777-.5558 3.321-2.312 6.682-2.53.9568-.062 2.422.1109 2.487.3504 4.442 1.589 1.955 1.238 3.063 3.091t1.25 3.989l.8529 12.86q.1029 1.553-.5738 2.864-.6523 1.31-1.878 2.145-1.226.8349-2.745.9579-2.355.1529-4.13-1.34-1.774-1.494-1.931-3.847l-.6920-10.44q-.07724-1.165-.9629-1.887-.8446-.8469-2.022-.7705-1.178.077-1.91.9281-.7975.978-.7235 2.094l.6888 10.39q.1545 2.33-1.404 4.088-1.49 1.681-3.796 1.83-2.306.1496-4.079-1.319z" style="stroke:#594640;stroke-width:2.358;fill:#37abc8"/><path d="m104 1036q-1.534-1.758-1.415-4.065l.8615-16.71q.1252-2.429 1.801-3.903 1.702-1.497 4.035-1.379l4.28 2.943.0105-.1942q.1806-.1614.7384-.4741 3.57-1.914 6.934-1.744.9576.049 2.393.3886 2.429.6337 4.225 2.088t2.679 3.422q.8832 1.968.7730 4.106l-.6636 12.87q-.0801 1.554-.9064 2.779-.8017 1.226-2.117 1.914-1.316.6885-2.839.636-2.357-.119-3.944-1.806t-1.466-4.043l.5384-10.44q.0601-1.166-.7347-1.985-.7394-.9383-1.918-.9978-1.179-.06-2.006.7024-.9070.8797-.9646 1.997l-.5359 10.4q-.1202 2.332-1.875 3.899-1.677 1.498-3.986 1.382-2.308-.1164-3.896-1.779z" style="stroke:#594640;stroke-width:2.358;fill:#37abc8"/><g style="stroke:#594640;stroke-width:2;fill:#37abc8" transform="matrix(-1.04 0 0 1.214 -497 -255.3)"><g transform="translate(-247.5 12.12)"></g></g><g transform="matrix(-1.04 0 0 1.214 -155.8 -180.6)"><g transform="translate(-247.5 12.12)"><path style="fill:#ffe1bd" d="m-65.15 936.5l-10.1 5.699c-1.348 2.408 1.757 5.191-.8008 7.1-.9309 2.011 2.53.8182 2.332 2.669 1.441-.2037 2.524-1 .7689.4558-.8657 1.272 1.246 1.249.9957 2.78 1.922 1.485 4.699-1.042 6.129-1.396l-.8258 3.692c2.033-.3672 4.066-.7344 6.1-1.102-.4922-2.721-.9844-5.441-1.477-8.162 1.063-.2375 1.878-.5846 1.009-1.676-1.377-3.353-2.754-6.707-4.132-10.06z"/><path style="fill:#594640" d="m-72.95 936.9c3.595-2.128 8.835-2.741 11.97.5032 2.952 4.034 2.079 9.692-.4718 13.7-3.239-.4961-1.359-5.357-4.8-5.4-2.095-.3127-.3691-4.622-2.838-5.195-2.384-1.052-5.104 2.338-6.624 1.692-.4910-2.104.9713-4.304 2.762-5.296z"/><g style="fill:#784421" transform="translate(-94.85 933.2)"><path style="fill:#784421" d="m51.4 53.5c-.7438 1.738 1.727 4.971 2.991 3.847.5352-2.807 1.173-5.6 1.643-8.416-.06-1.75-2.02-1.82-3.33-2.03l-1.3 6.6z"/><path style="fill:#784421" d="m16.1 57.5c-1.737-.7480-4.973 1.736-3.846 2.984 2.841.5059 5.67 1.101 8.519 1.55 1.77 0 1.96-1.92 2.23-3.23-2.3-.43-4.6-.87-6.9-1.3z"/></g><path style="fill:#37abc8" d="m-51.35 954.1c-2.951.1971-5.976.0703-8.861.4936-3.01.5786-6.043 1.059-9.038 1.7-1.648 1.036-2.787 2.736-4.209 4.064-.6139.8216-1.272 1.458-2.256.7355-1.613-.5648-3.225-1.13-4.838-1.694-.4329 1.234-.8659 2.467-1.299 3.701 2.663.8405 5.263 1.95 7.968 2.614 1.547-.1267 2.22-1.803 3.326-2.703.6081-.5342 1.466-1.764 1.916-1.857.2634 3.849.5268 7.697.7903 11.55h12.6c-1.023-4.803-2.047-9.607-3.07-14.41 2.09-.0632 4.18-.1263 6.27-.1895.9004 1.9 1.801 3.799 2.701 5.699 1.167-.5996 2.333-1.199 3.5-1.799-1.167-2.355-2.258-4.752-3.473-7.082-.4571-.6236-1.274-.9072-2.027-.8186z"/><path style="fill:#ffe1bd" d="m-47.75 962.4c-1.142.4626-3.251.878-2.403 2.592.9305 1.653 2.708 4.013 5.003 3.108 3.1-.7516 1.375-6.084-1.017-6.223-.5431.1234-1.06.3355-1.583.5234z"/><path style="fill:#3e4347" d="m-51.65 978.2c-1.2-1.833-2.4-3.667-3.6-5.5h-12.6l-8.5 5.8c-.8 4.033-1.6 8.067-2.4 12.1 2.267.4667 4.533.9333 6.8 1.4.6333-3.133 1.267-6.267 1.9-9.4l8.6-4.2c1.867 1.967 3.733 3.933 5.6 5.9 4.133.8 8.267 1.6 12.4 2.4l1.3-6.7c-3.167-.6-6.333-1.2-9.5-1.8z"/><path style="fill:#ffe1bd" d="m-80.75 961.5c.5101-1.076 1.69-2.85-.08134-3.425-1.848-.4512-4.736-.9439-5.719 1.325-1.614 2.688 3.29 5.221 5.053 3.581.2947-.4692.5107-.9817.7469-1.481z"/></g></g></g></svg>