<svg xmlns="http://www.w3.org/2000/svg" version="1.1" width="200px" height="100px" viewBox="0 0 200 100"><g transform="translate(1117 -13.79)"><path style="fill:#fff" d="m-1102 13.79c-14.79.1591-21.01 20.66-8.505 27.71 1.507 1.802 6.294.8578 4.404 3.907-1.385 9.962-5.511 21.61 1.468 30.64 3.442 3.875 9.444 4.585 13.95 6.343 7.337 10.87 23.53 14.16 36.42 11.16 4.226 5.056 12.19 6.162 18.48 4.916 4.579 6.218 14.37 8.41 21.65 5.475 3.728 2.48 8.692 3.078 13.13 2.308 7.926 6.443 19.49 6.846 29.38 5.176 3.862 1.25 8.14-.2224 11.67-.9524 5.531 4.667 14.25 3.829 20.24.9937 10.38 3.854 24.08-5.963 19.88-16.06-1.312-1.659 2.391-3.599 1.614-5.64 1.124-6.92 2.88-16.38-4.874-20.83 7.031-6.434 5.386-18.2-2.781-23.29-3.725-4.259-9.238-7.511-12.72-11.54 2-5.787-.0516-12.38-5.713-15.81-9.144-5.287-22.94-4.742-30.83 2.296-3.046 2.48-4.425 6.629-4.918 9.772-9.193-.7270-21.42 2.701-23.02 12.07.36 1.46.3102 4.031-1.784 2.71-7.556-6.599-11.49.1767-17.13-.6731-2.725-.4108-5.444-1.068-7.949-2.121-9.357-3.934-13.93-17.71-25.83-15.42-3.69-9.265-15.94-11.53-25.6-11.12-6.808-.6223-13.71-1.898-20.63-2.031z"/><g style="stroke:#4d4d4d;stroke-width:2;fill:#87aade" transform="matrix(.9356 0 0 .8451 -61.11 8.485)"><path style="stroke-width:1.634" d="m-931.5 112.7q-1.729-.2186-3.063-1.14-1.312-.8965-1.985-2.221-.6697-1.347-.5269-2.878.1846-1.46 1.171-2.619.9894-1.181 2.486-1.744 1.522-.5602 3.25-.3416 2.656.3359 4.261 2.133.8083.8549 1.155 1.939.3465 1.084.2088 2.174-.2921 2.31-2.35 3.688-2.002 1.341-4.608 1.011zm1.502-11.88q-1.603-.2028-2.846-1.046-1.215-.8620-1.845-2.115-.6056-1.25-.4292-2.644l1.518-12.01q.2645-2.092 2.156-3.358 1.835-1.229 4.191-.9311 2.33.2947 3.846 1.992.6912.7737.9986 1.764.3325.9940.2030 2.018l-1.518 12.01q-.1736 1.373-1.071 2.432-.8949 1.038-2.258 1.552-1.363.5139-2.944.3360z"/><path d="m-967 112.3q-2.592-.3141-4.237-2.38-1.613-2.09-1.289-4.766l4.012-33.11q.2026-1.672 1.214-3.02 1.04-1.345 2.59-2.005 1.554-.6884 3.317-.5314 1.784.2162 3.128 1.256 1.345 1.04 2.002 2.618.6884 1.554.4790 3.282l-1.121 9.254q1.068-.4080 2.348-.7053 3.122-.5550 5.714-.2409 2.536.3073 4.529 1.369 2.02 1.065 3.297 2.662 1.28 1.569 1.842 3.702.5896 2.136.3092 4.449l-1.817 15q-.3276 2.704-2.453 4.369-2.094 1.641-4.825 1.31-2.631-.4602-4.244-2.551-1.585-2.087-1.265-4.735l1.459-12.04q.1520-1.254-.6217-2.338-.7703-1.111-2.049-1.295-1.31-.1587-2.397.6428-1.087.8016-1.252 2.167l-1.466 12.1q-.2094 1.728-1.28 3.097-1.043 1.373-2.622 2.03-1.575.6293-3.303.4199z"/><path d="m-999 103.8q-2.921-5.228-2.279-10.71.3569-2.785 1.812-5.503 1.459-2.748 3.668-4.825 1.609-1.409 2.962-2.203 2.638-1.535 5.62-2.077 2.986-.5721 6.532-.1569 1.94.2271 2.926.4655 10.24 2.275 9.372 9.701-.6264 2.2-2.453 3.369t-4.282.8813q-.4546-.05324-1.047-.2455l-.296-.09612-1.564-.5518-.7971-.2777-1.271-.4254q-.5314-.1851-1.653-.3164-2.425-.2839-4.039.9097-1.611 1.163-1.877 3.437-.0688 1.375.3971 2.382.4694.9767 1.54 1.809 1.161.8427 2.677 1.02.8184.0958 1.991.0488l.1818.0213 2.243-.2597q.9038-.1092 2.4-.0263 3.031.3549 4.546 2.376 1.545 2.024 1.172 5.207-.5070 1.969-2.136 3.283-1.625 1.285-4.601 1.766-2.975.4812-7.188-.0121-5.051-.6837-8.752-2.93-3.667-2.273-5.805-6.057z"/><path d="m-1007 106.1q-2.955-.4122-4.772-2.781-1.781-2.395-1.36-5.413l3.026-21.69q.2762-1.98 1.447-3.483 1.207-1.53 2.973-2.245 1.802-.7420 3.782-.4658 1.945.3033 3.443 1.506 1.499 1.202 2.214 2.969.7464 1.771.4658 3.782l-3.008 21.56q-.4254 3.049-2.825 4.861t-5.386 1.396zm.2034-40.51q-1.893-2.507-1.437-5.776.4339-3.112 3.026-5.154 1.249-.9153 2.68-1.293 1.431-.3772 2.908-.1711 3.112.4341 5.019 3.072 1.853 2.566 1.415 5.709-.4517 3.238-2.923 5.104t-5.646 1.423q-3.175-.4429-5.041-2.914z"/><path d="m-1030 101.5q-1.928-2.662-1.409-5.902l6.407-40.03q.3241-2.025 1.651-3.613t3.278-2.314q1.956-.7599 4.116-.4142 2.053.3633 3.602 1.719 1.588 1.327 2.285 3.239.7318 1.917.4023 3.976l-6.374 39.83q-.5295 3.308-3.09 5.251-2.714 1.816-5.819 1.319t-5.049-3.058z"/><path d="m-1046 97.22q-3.298-.4404-5.35-3-2.046-2.595-1.606-5.893l3.242-24.28q.4451-3.333 3.11-5.371 2.665-2.037 5.963-1.597l6.734 6.006.047-.3508.4913-.4701.9991-.7952q3.24-2.603 6.518-2.273 1.158.1546 1.963.5477 2.035.8074 3.272 2.508 1.272 1.706 1.396 3.722-.019 1.212-.094 1.773-.3419 2.562-2.345 4.187-1.998 1.59-5.996 2.378-.4048.08881-.6995.1566-.2949.06778-.8142.2127-1.883.4629-3.14 1.045-1.221.5870-1.94 1.42-.6833.8373-1.107 2.138-.3839 1.27-.6882 3.551l-.9416 7.053q-.3045 2.281-1.615 4.07-1.306 1.754-3.28 2.634-1.974.8792-4.12.6286z"/><path d="m-1051 39.91q-.4215 2.936-2.644 4.763-2.223 1.827-4.905 1.442-1.776-.2550-3.158-1.452-1.346-1.192-1.987-2.912-.6359-1.756-.3549-3.714.411-2.864 2.629-4.654 2.104-1.77 4.895-1.369 2.755.3954 4.349 2.696 1.588 2.337 1.177 5.201zm-20.47 2.167q-2.234 1.899-5.025 1.499-2.827-.4058-4.338-2.768-.7243-1.14-1.081-2.523-.3201-1.378-.1277-2.719.1978-1.377.8926-2.61.7362-1.263 1.855-2.101 2.057-1.703 4.848-1.302 2.682.3850 4.245 2.644 1.661 2.347 1.245 5.247-.4214 2.936-2.515 4.634zm-5.444 48.76q-8.414-2.207-11.89-7.403-3.43-5.228-2.202-13.78l2.076-14.46q.3329-2.32 1.727-4.044t3.436-2.541q2.082-.8480 4.366-.5202 3.407.4891 5.446 3.297 2.08 2.777 1.57 6.33l-2.045 14.25q-.3019 2.102.5313 3.258.688 1.135 2.091 1.669 2.682.3850 3.999-.7949 1.078-.8072 1.39-2.982l2.045-14.25q.3278-2.284 1.727-4.044 1.405-1.796 3.451-2.649 2.088-.8842 4.372-.5565 2.32.3330 4.044 1.727 1.729 1.358 2.546 3.399.8533 2.046.5203 4.366l-2.076 14.46q-.8221 5.727-3.166 9.424-2.338 3.66-6.4 5.408-4.056 1.712-9.914 1.537-2.248-.06362-3.806-.2873-1.668-.2393-3.842-.8105z"/><path d="m-1116 23.39q.3348-2.203 1.59-3.865 1.26-1.702 3.162-2.503 1.907-.8399 4.002-.5960l31.08 3.617q2.212.2574 3.866 1.59 1.658 1.294 2.485 3.317.8308 1.984.5734 4.196-.5003 3.285-3.095 5.303-2.594 2.018-5.698 1.657l-6.674-.7767-3.874 33.29q-.2935 2.522-1.774 4.434-1.438 1.878-3.638 2.88-2.158.9680-4.68.6745-2.561-.2980-4.516-1.745-1.912-1.481-2.905-3.759-.9544-2.274-.6655-4.757l3.874-33.29-6.286-.7315q-3.22-.3748-5.234-3.008-1.975-2.629-1.591-5.927z"/></g><path style="fill:#4d4d4d" d="m-954.7 23.51c5.529.06891 8.877 1.888 9.693 4.294.9540 2.843-1.84 5.14-1.137 7.956.5232 2.093 2.018 4.288 4.73 6.234 2.804 2.024 5.749 4.052 7.686 6.218.8744.9776 1.147 1.165 1.466 2.263 3.829 1.49 6.534 5.216 6.84 7.312.453 3.117-1.531 5.852-5.177 8.034-2.065 1.242-6.048 2.224-10.21 1.969-2.087 1.237-4.658 2.441-8.145 2.614-2.855.1421-8.134-.6979-8.134-.6979-2.996.3865-7.065.4310-10.19-.1270-2.846-.5085-5.636-1.62-6.869-3.013-1.538-1.734-.6978-3.369-.0222-4.883-2.604-.6871-5.744-1.536-7.903-2.603-4.189-2.074-6.097-3.991-5.509-6.857.1986-.9704 1.542-1.916 2.625-2.617-4.505-1.863-6.606-4.696-6.114-6.984.4336-1.884 4.011-2.874 7.512-3.385 3.626-.5164 7.886-.3195 12.03.03083 3.487.2966 6.557.8286 10.32 1.238.535-3.164-6.434-6.137-6.654-9.33-.1344-1.951.4074-4.073 2.746-5.422 2.886-1.741 5.974-2.287 10.42-2.247z"/><path style="fill:#edc" d="m-953.1 25.55c-2.652-.2975-4.954.04733-7.537 1.007-4.332 1.607-5.516 5.268-1.847 8.15 2.731 2.199 5.488 3.888 4.99 6.614-.1668.7329-1.012.9677-3.441.6660-6.002-.8443-12.12-1.774-17.9-1.559-3.067.1143-5.725.9531-7.327 2.043-1.406.9440-.7549 2.381.3130 3.608 1.266 1.455 4.253 2.554 7.048 3.308.0188.0052.0386.01052.0574.01565-.0197.000608-.0368-.0041-.0556-.0092 6.288 1.709 10.52 1.768 15.67 1.268.008-.0038.008-.0038.008.0022 2.936-.2195 4.663-.9698 5.111-2.511.7370-2.522-2.869-5.45-12.59-5.991-.0421-.0055-.082-.01216-.1233-.01743 4.054-.3325 9.143.4831 12.5 2.229 2.616 1.362 3.322 3.571 2.494 5.1-.4549.6369-.7762 1.046-1.42 1.506l-.005.01389c-.0707 1.113 1.14 2.468 1.932 3.649 1.343 1.993 4.477 4.092 8.952 4.51l-.0476.0014c-3.531-.2726-5.044-.1864-9.207-2.938-.2452.4225-.6045 1.479-.6045 1.479l.0192-.0098c4.419 1.692 7.556 3.415 8.024 5.871.2958 1.565-1.166 2.749-2.863 3.781 4.888-.1096 8.125-.8585 10.43-3.242.581-.5048 1.444-1.268 2.106-2.043 0 0-.1052.8048-.4303 1.238.2992.04443.5986.08251.8972.1180-.2995-.03126-.5975-.06735-.8927-.1105-.5845 0.88-1.017 1.54-1.664 2.18 3.893-.02639 6.826-.5510 8.982-2.509 2.351-1.713 2.03-4.286 1.189-6.54-.3879-1.041-1.315-2.28-2.601-3.247-.5736 1.177-1.687 3.421-3.061 4.378 1.232-1.422 1.017-4.377.5145-5.813-.6370-1.799-1.25-3.553-3.516-5.255-2.653-1.979-4.927-2.896-7.435-5.212.003-.0077-.002-.01739-.002-.02574.00007.000018.00094-.0057.00094-.0057-.7248-.9198-1.844-3.127-2.156-4.889-.0212-.1151-.0587-.3440-.0828-.6983-.003-.0603-.008-.1224-.007-.1806-.00035-.000032-.00047-.000066-.002.0054-.0186-.4554.006-.9938.1630-1.465.4910-1.467 2.066-3.152 1.35-5.415-.2826-.8934-1.198-2.066-3.132-2.542-.9855-.2427-1.909-.4134-2.793-.5125zm-7.031 26.48c-1.982.2794-4.547.4635-6.693.4808-.1852-.0055-.3619-.01336-.5538-.01638l.0152-.0019c-4.651-.04195-8.752-.9427-12.91-2.052-1.498.5980-2.833 1.349-2.938 2.416-.4935 1.702 1.958 3.666 5.206 4.898-.0153-.0041-.0323-.0028-.0466-.0068.0804.02857.1629.05472.2439.08286.1952.07135.3915.1418.5917.2073.0297.0078.0618.01088.0922.01916 4.217 1.375 8.745 2.101 13.38 1.291l-.0134-.0036c1.724-.2987 2.769-.7423 3.516-1.051 3.133-1.275 3.41-3.967.1023-6.267zm24.11 5.512c-.004.01103-.00093.02431-.004.03559-.003.0053-.002.0055-.008.0038.005-.01323.008-.02591.0131-.03914zm-10.18 1.603c.007.0019.0153.0041.0216.0059l-.008.0038c-.005-.0072-.0127-.0035-.0165-.0045zm-10.64-.6401c-1.014.8625-2.258 1.419-3.561 1.899l-.0153-.0041c-3.834.7591-7.39 1.146-10.94.5033-.5320.9616-.9955 2.249-.5227 3.361 1.562 2.339 6.011 3.078 9.618 2.956 6.701-.0447 9.823-1.827 10.02-3.864.1531-1.612-1.212-3.36-4.597-4.849z"/></g></svg>