<svg xmlns="http://www.w3.org/2000/svg" version="1.1" width="200px" height="100px" viewBox="0 0 200 100"><g transform="translate(0 -952.4)"><path style="fill:#fff" d="m79.34 952.4c-4.487-.5407-8.363 2.49-11.88 4.019-8.529-3.265-19.75 1.324-22.22 9.812-1.895.9254-3.39 2.545-4.545 4.113-5.556-4.663-15.86-3.367-18.92 3.303-6.81-5.528-18.64-2.19-20.99 6.001-3.278 9.588 4.502 18.31 6.47 27.3 2.507 7.028 5.347 15.8 13.42 18.71 6.408 1.979 13.66-1.286 17.43-5.804 5.4 3.976 13.66 3.285 18.74-.4208 1.727.8006 3.179 2.062 2.244 3.979-.03753 15.21 14.3 30.58 31.28 28.78 8.45-.6483 16.32-5.517 20.5-12.4 8.418 1.091 16.42-2.781 24.05-5.428 1.766-2.489 3.696 1.431 6.128 1.406 4.45 1.388 9.693.3392 13.06-2.616 5.014 1.353 10.48-.8031 13.82-4.365 8.772 4.617 20.61-2.4 20.76-11.66.3120-2.584-.2449-5.276-1.102-7.658 10.92-4.018 15.7-17.37 9.913-26.85-5.677-10.72-21.78-13.55-31.86-6.675-1.904 1.454-3.479 2.826-6.057 2.009-4.801-.0836-10.47 9.773-17.14 9.67-7.321-.1126-10.25-15-18.43-11.19-3.378 1.139-3.809 7.278-7.314 7.1-7.292-.3706-5.04-15.76-13.42-16.23-2.405-.5050-5.158-.2621-7.406-.3037-1.584-7.425-7.784-14.92-16.55-14.6z"/><path d="m17.15 1014-9.858-25.9q-.2185-.5551-.2956-1.162-.1822-1.434.3081-3.007.5110-1.605 1.554-2.707.9468-1.086 2.409-1.61 4.974-.8243 7.027 4.466l6.315 15.93 2.025-17.82q.4787-3.993 2.602-5.33.8685-.5381 1.883-.7061 1.714-.2841 3.19.8508 1.496 1.103 2.419 3.512l6.378 16.43 2.088-17.32q.6513-5.738 5.625-6.563 1.397-.063 2.734.7573 1.302.7414 2.147 2.15.8654 1.377 1.044 2.783.0806.6341-.0012 1.154l-2.999 28q-.4137 3.728-2.111 5.896-1.697 2.167-4.474 2.628-2.491.3849-4.633-.9496-2.146-1.362-3.334-4.121l-5.28-12.44-1.933 13.69q-.2551 1.872-1.156 3.514-.8767 1.637-2.231 2.622-1.354.9845-2.989 1.312-1.787.2961-3.41-.2514-1.602-.579-2.868-2.002-1.245-1.455-2.181-3.777z" style="stroke:#493b30;stroke-width:1.78;fill:#9dac93"/><path d="m87.96 1006q-3.221-2.284-3.221-4.931 0-.8080.2196-1.421.4148-1.504 1.562-2.368 1.147-.8916 2.782-.8916 1 0 2.44.5294l1 .3343.7076.2786q1.659.7801 3.001.9751h.2928 0.61q.6588 0 .8784-.5016 0-.8637-.5368-1.254-.02442-.0274-.09759-.0563-.07317-.0563-.1464-.0837-.04883-.0563-.09759-.0837l-.4636-.1951-1-.2786-1.293-.4458-.9516-.2786q-2.245-.6965-3.733-1.504-1.464-.8358-2.318-1.867-.8296-1.031-1.391-2.507-.5612-1.588-.5612-3.204 0-2.675 1.488-5.015 1.488-2.368 4.246-3.761 2.782-1.393 6.466-1.393 2.855 0 5.1.6965 3.538 1.114 4.807 3.037.6344.9752.6344 2.396 0 1.365-.7564 2.535-.7564 1.142-2.05 1.504-.5856.1671-1.196.1671-.9516 0-2.489-.4457l-1.513-.4180-.7320-.2228-.8052-.1672q-.3904-.1114-.5612-.1114-1.44 0-1.635.0563l-.09759.1114-.1464.1671q-.1708.1950-.1708.3622 0 .3622.5124.7801.0976.0563.1708.1114.07317.0563.1708.1114l.4636.1950.7320.2786 1.757.6686 1.244.4179 1.098.4458q1.562.5572 3.318 1.895 1.659 1.309 2.513 3.26.8784 1.922.8784 3.984 0 4.346-3.392 7.467-3.148 2.898-8.418 2.898-.6832 0-2.196-.1115-4.514-.3901-7.125-2.145z" style="stroke:#493b30;stroke-width:1.78;fill:#9dac93"/><path d="m90.82 1034q2.402-1.058 3.067-2.932l-2.933.5954q-2.099.426-3.943-.967-1.821-1.398-2.368-3.767-.3173-1.589.03714-2.972.3481-1.41 1.293-2.4.9684-.9948 2.304-1.266l9.467-1.922q5.222-1.06 6.739 5.502.4405 1.906.5724 3.989.2514 2.6-.4372 5.562-.7687 3.263-2.537 5.874-1.751 2.579-4.426 4.29-2.651 1.707-6.157 2.418-2.003.4066-4.536.4646-3.49.024-6.579-1.03-3.072-1.087-5.691-3.235-2.618-2.148-4.59-5.169-2.301-3.581-3.219-7.556-1.208-5.228.02877-10.35 1.255-5.158 4.794-9.069 3.865-4.234 9.779-5.434.7631-.1549 2.219-.3364 2.608-.2729 5.242.1047 2.538.397 4.916 1.397 4.897 2.284 5.721 5.851.4908 2.124-.8297 4.188-.9330 1.472-2.65 1.821-1.264.2566-2.852-.1338l-.04773.01-2.334-.8091q-.7684-.3002-1.164-.3909-3.346-.9743-5.921-.4515-2.075.4211-3.5 1.708-1.431 1.26-2.107 3.307-.6753 2.047-.4792 4.516.03313.7914.2030 1.527.2203.9531.5710 1.823.9893 2.336 2.489 3.856 1.493 1.493 3.383 2.107 1.907.5822 4.029.1514 1.288-.2614 2.446-.8671z" style="stroke:#493b30;stroke-width:1.78;fill:#9dac93"/><path d="m126.1 1014q.5592 2.736-.2419 4.043-.8012 1.307-3.198 1.737l-12.77 2.293q.1294.1469 1.105.9079.818.4774 1.503.6665.7030.1574 1.82.1554 1.112-.03 2.646-.3046 1.469-.3489 3.6-1.469 1.649-.8066 2.368-.9357 1.941-.3484 3.354.7313 1.437 1.075 1.823 2.963.1398.6841.1223 1.084-.0511 1.087-.4584 2.011-.3834.9199-1.184 1.744-.7820.7928-2.32 1.778-1.915 1.081-4.011 1.77-1.465.4899-3.19.7997-3.571.6409-6.807 0-3.218-.6705-5.798-2.477t-4.287-4.564q-1.706-2.757-2.422-6.26-.5601-3.105-.0098-6.126.5687-3.052 2.072-5.421 1.522-2.401 3.941-4.055 2.42-1.654 5.511-2.209 4.115-.6534 7.751.8497 2.233.9606 4.116 2.637 1.901 1.644 3.182 3.656 1.299 1.98 1.785 3.992zm-17.36 1.954 5.847-1.05q-.0671-.3283-.1598-.5386-.9131-2.645-3.885-2.111-1.649.8067-1.808 3.19-.0288.3455.005.5097z" style="stroke:#493b30;stroke-width:1.78;fill:#9dac93"/><path d="m127.4 1030q-2.269-.032-3.874-1.894-1.58-1.889-1.537-4.563l.5302-33.09q.0268-1.671.7819-3.11.7795-1.438 2.062-2.256 1.282-.8457 2.82-.8798 1.561.0222 2.816.9034 1.255.8814 1.963 2.368.7331 1.459.7054 3.186l-.1481 9.249q.8868-.5170 1.967-.9476 2.65-.8823 4.918-.8504 2.22.0311 4.037.8648 1.841.8340 3.087 2.273 1.246 1.411 1.921 3.454.6993 2.044.6623 4.356l-.2401 14.99q-.0433 2.702-1.733 4.573-1.664 1.844-4.055 1.81-2.315-.1718-3.896-2.061-1.556-1.889-1.514-4.535l.1928-12.03q.0201-1.254-.7450-2.24-.7646-1.014-1.886-1.058-1.147-.016-2.015.8912-.8686.9073-.8905 2.272l-.1937 12.09q-.0277 1.727-.8320 3.193-0.78 1.466-2.086 2.284-1.306.7896-2.819.7683z" style="stroke:#493b30;stroke-width:1.78;fill:#9dac93"/><path d="m148.8 996.8q1.523-1.401 3.496-1.301l.4873.0252.1596-2.754q.1515-2.615 1.923-4.506 1.714-1.754 3.98-1.639 2.29.1166 3.837 2.093 1.537 2.143 1.386 4.758l-.1515 2.615.6334.0326q1.9.0967 3.2 1.698 1.32 1.685 1.192 3.883-.0355.6121-.2187 1.244-.1833.6324-.5355 1.228-.3262.5693-.7450 1.05-1.533 1.568-3.511 1.551l-.6822-.035-.8382 14.47q-.1580 2.726-1.924 4.534-1.667 1.784-4.006 1.666-2.29-.1165-3.815-2.064-1.542-2.06-1.386-4.758l.8414-14.52-.3898-.019q-2.095-.1066-3.506-1.908-1.206-1.54-1.087-3.599.1306-2.253 1.658-3.738z" style="stroke:#493b30;stroke-width:1.78;fill:#9dac93"/><path d="m172.7 1024q-2.482-.3709-3.923-2.646-1.412-2.299-.9208-5.188.2435-1.431.8879-2.604.6685-1.17 1.704-2.03 1.065-.8848 2.209-1.222 1.173-.3607 2.402-.177 2.506.3745 3.942 2.677.6841 1.061.9219 2.423.2618 1.365.0277 2.741-.4870 2.861-2.674 4.679-2.072 1.722-4.578 1.347zm9.851-20.14q-.0482-.01-.3607.087-.3079.067-.4330.076l.0656-.3851-6.542 5.483q-.3079.067-.9584-.03-1.807-.2702-2.857-2.233-1.021-1.986-.5152-4.958l.1934-.8457q.4436-1.88 1.194-3.094.7789-1.238 1.98-1.905 1.225-.6634 2.943-.7450l.1205.0178.9049-.0905q.2022-.0267.2745-.0163.1010-.0126.2022-.0267.9477-.1968 1.102-1.105.0983-.5778-.1788-1.127-.3508-.8423-2.375-1.145-.8815-.0466-2.559.5203-.1058.0415-.5669.2820l-.3172.1218-1.225.6634q-.2255.1638-1.485.5962-1.144.4780-2.324.3015-.8674-.1296-1.505-.5918-1.044-.6919-1.522-2.09-.4740-1.425-.2024-3.021.3418-2.008 1.668-3.559 1.838-2.236 5.93-3.628 3.246-.9254 6.513-.5218.7951.1188 2.348.5766 4.49 1.489 6.68 4.158t2.367 6.561q.0329 1.839-.1637 2.994-.3699 2.174-1.464 3.957t-2.832 2.991q-1.733 1.18-4.099 1.729z" style="stroke:#493b30;stroke-width:1.78;fill:#9dac93"/><path d="m65.28 968q1.975-.5610 3.068-.5610 4.618 0 7.686 4.272v.2590l5.742-4.359q.7291-.6905 1.732-.6905 1.489 0 2.491 1.597 2.552 3.625 2.552 8.933v29.95q0 4.359-1.944 7.121t-4.891 2.762l-5.681-4.575v.4316q-2.825 4.229-7.625 4.229-1.58 0-3.554-.5179-2.825-.7768-5.499-3.366-2.673-2.632-4.648-6.862-1.337-3.194-2.005-6.776-.6684-3.582-.6684-8.2.2127-5.956 2.005-11 1.823-5.049 4.77-8.329 2.947-3.323 6.471-4.316zm.5165 24.9q0 3.021 1.246 5.308 1.367 2.374 3.402 2.374 1.215 0 2.309-.9064 1.094-.9495 1.732-2.719.5468-1.295.6380-2.546.06076-.9927.06076-2.762-.4557-4.445-2.856-5.999-1.033-.6905-1.944-.6905-1.671 0-2.886 1.726t-1.58 4.618q-.03042.4316-.06076.7768 0 .3021-.06076.8199z" style="stroke:#493b30;stroke-width:2.075;fill:#cdde87"/><path style="fill:#493b30" d="m68.96 970c1.823 3.782 2.485 10.15-3.594 12.8-6.079 2.653-10.72-1.979-12.54-5.76-5.635-11.69 10.5-18.73 16.14-7.043z"/><path style="fill:#fff" d="m67.23 971.3c1.478 3.002 2.542 8.14-2.307 10.21-4.849 2.072-8.357-2.071-9.816-5.033-5.007-10.29 7.065-15.45 12.12-5.179"/><path style="fill:#493b30" d="m65.27 970.4c1.285 2.664-.08801 5.76-2.939 7.004-2.905 1.268-6.213.2147-7.497-2.45-3.149-6.532 7.287-11.09 10.44-4.555"/><path style="fill:#493b30" d="m69.28 971c-.04583 4.186 2.065 10.24 8.713 10.14 6.649-.0983 8.892-6.219 8.938-10.4.1417-12.94-17.51-12.68-17.65.2610z"/><path style="fill:#fff" d="m71.25 971.4c-.03824 3.354 1.268 8.499 6.727 8.422 5.459-.0775 6.884-5.305 6.921-8.615.07404-11.47-13.52-11.28-13.65.1938"/><path style="fill:#493b30" d="m71.65 970.4c-.03232 2.949 2.532 5.194 5.65 5.148 3.177-.0474 5.732-2.368 5.765-5.317.0792-7.23-11.34-7.061-11.41.1688"/></g></svg>