<svg xmlns="http://www.w3.org/2000/svg" version="1.1" viewBox="0 0 100 100"><g transform="translate(0 -270.5)"><path d="m49.45 270.6c-14.8 0.8767-28.91 7.737-38.05 17.78-4.126 5.266-7.054 11.16-11.32 16.36 1.201-0.5111-0.4726 1.517 0 2.218-0.2043 1.637 2.161 2.446 0.9542 4.018-0.9022 2.98 0.2507 7.856 4.564 7.996 1.225 0.0371 2.55-1.278 3.017 0.3114 1.747 2.564-0.1685 5.514 1.153 8.223 1.832 5.141 2.622 11.86 8.945 14.49 2.84 8.398 8.289 16.27 16.63 21.38 6.326 4.582 14.87 9.199 23.35 6.329 7.864-3.105 14.71-8.118 20.31-13.78 3.637-3.902 5.746-8.801 7.732-13.31 7.042-3.411 8.773-10.8 10.35-17.07 0.7211-2.344-0.6168-5.283-2.018-6.699 3.122-1.786 4.156-5.2 3.577-8.233 0.8432-3.439 2.829-7.718-0.5356-10.67-3.182-4.97-4.028-10.99-8.698-15.27-6.69-7.23-17.13-11.13-27.52-12.19-4.087-0.8678-8.184-2.011-12.44-1.891z" fill="#fff"/><path d="m88.21 323.6h-0.006c-0.007 0.0277-6.018 21.29-10.96 27.86-3.89 5.173-17.42 15.27-24.46 15.28-7.036 0.0105-20.6-10.05-24.51-15.22-4.968-6.563-11.06-27.8-11.07-27.83h-0.0006c-0.7825-2.568-1.202-5.263-1.207-8.043-0.0318-17.5 16.37-31.71 36.64-31.74 20.27-0.0272 36.72 14.14 36.75 31.64 0.006 2.78-0.4033 5.476-1.177 8.046z" stroke="#e4e3e2" stroke-width="2.278" fill="#f3ebe6"/><path d="m62.38 351.5c0.3079 0.4059-1.261 4.149-3.24 4.975-2.501 1.085-4.752-0.032-6.594-0.508-1.679-0.4354-4.16-0.0603-5.8-0.7122-1.856-0.738-6.985-4.038-6.586-4.674 0.1964-0.3136 4.096 2.061 6.665 2.802 1.634 0.4723 4.028 0.1058 5.673 0.508 1.702 0.4145 3.689 1.488 5.998 0.9902 2.094-0.4514 3.534-3.844 3.885-3.381z" fill="#d4737e"/><g transform="matrix(1.693 0 0 1.124 12.07 240.1)"><path d="m17.2 79.26a3.276 3.055 0 0 1 -2.346 2.93 3.276 3.055 0 0 1 -3.678 -1.267 3.276 3.055 0 0 1 0.2582 -3.649" stroke="#deaf8f" stroke-width="2.612" fill="#e3dbdb"/><circle cy="79.24" cx="14" r="2.793" fill="#fff"/><path d="m15.7 78.29c-0.5442-0.9596-1.762-1.296-2.726-0.7475-0.9597 0.5438-1.298 1.764-0.7554 2.724 0.5442 0.9608 1.763 1.297 2.723 0.7524 0.9655-0.5468 1.302-1.768 0.758-2.728zm-2.542 2.781c-0.4175-0.2139-0.6135-0.6628-0.4376-1.002 0.1785-0.3368 0.6584-0.4352 1.076-0.2164 0.4194 0.2157 0.6148 0.6641 0.4414 1.002-0.1766 0.3387-0.6584 0.4352-1.08 0.2164z" fill="#6c5d53"/></g><g transform="matrix(1.693 0 0 1.124 45.44 240)"><path d="m17.2 79.26a3.276 3.055 0 0 1 -2.346 2.93 3.276 3.055 0 0 1 -3.678 -1.267 3.276 3.055 0 0 1 0.2582 -3.649" stroke="#deaf8f" stroke-width="2.612" fill="#e3dbdb"/><circle cy="79.24" cx="14" r="2.793" fill="#fff"/><path d="m15.7 78.29c-0.5442-0.9596-1.762-1.296-2.726-0.7475-0.9597 0.5438-1.298 1.764-0.7554 2.724 0.5442 0.9608 1.763 1.297 2.723 0.7524 0.9655-0.5468 1.302-1.768 0.758-2.728zm-2.542 2.781c-0.4175-0.2139-0.6135-0.6628-0.4376-1.002 0.1785-0.3368 0.6584-0.4352 1.076-0.2164 0.4194 0.2157 0.6148 0.6641 0.4414 1.002-0.1766 0.3387-0.6584 0.4352-1.08 0.2164z" fill="#6c5d53"/></g><g transform="matrix(.6718 0 0 .4420 -227.6 299.1)"><g transform="translate(41.13 -5.071)"><path opacity=".656" d="m342.8 95.72c3.25 0 6.62-0.36 9.49-1 4.69-1.06 10.54-5.25 14.31-11.5 4.14-6.86 5.05-11.74 3.74-16.6-1.68-6.27-12.41-8.5-21.88-8.5-9.74 0-21.02 2.32-23.75 6.75-4.6 7.46-1.42 20.89 1.26 25 3.45 5.28 12.92 5.85 16.83 5.85zm67.54-0.1412c-3.25 0-6.62-0.36-9.49-1-4.69-1.06-10.54-5.25-14.31-11.5-4.14-6.86-5.05-11.74-3.74-16.6 1.68-6.27 12.41-8.5 21.88-8.5 9.74 0 21.02 2.32 23.75 6.75 4.6 7.46 1.42 20.89-1.26 25-3.45 5.28-12.92 5.85-16.83 5.85z"/><path d="m407 55.61c-12.71 0-20.02 2.96-30.27 2.96s-17.55-2.96-30.27-2.96c-15.11 0.33-21.27-6.809-27.83-0.252-2.899 2.896 0.0996 12.29 0.0996 12.29 0.0228 2.97 0.92 5.3 3.36 16.52 2.21 10.16 9.44 11.53 14.62 12.41 7.33 1.23 15.92 0.53 21.87-2.99 7.65-4.52 12.17-12.77 13.93-20.23 0.98-4.16 3.75-3.89 4.23-3.89s3.25-0.27 4.23 3.89c1.75 7.46 6.27 15.71 13.93 20.23 5.95 3.51 14.53 4.22 21.87 2.99 5.17-0.87 12.41-2.24 14.62-12.41 2.44-11.22 3.337-13.55 3.36-16.52 0 0 2.941-9.233 0.0996-12.09-6.543-6.585-12.74 0.3928-27.85 0.05278zm-54.75 38.31c-8.43 1.9-21.83 1.43-25.79-4.64-2.59-3.97-5.7-17.25-1.25-24.47 4.73-7.67 41.58-10.06 44.72 1.62 2.47 9.19-6.85 25.04-17.68 27.49zm74.75-4.64c-3.96 6.07-17.35 6.54-25.79 4.64-10.83-2.44-20.15-18.3-17.68-27.49 3.14-11.68 40-9.29 44.72-1.62 4.45 7.21 1.34 20.5-1.25 24.47z" fill="#800033"/></g></g><path d="m94.59 313.5c-2.312-6.979 5.305-8.051-2.149-14.42-2.912-14.45-16.01-21.95-31.94-23.21-14.62-5.602-29.32 1.712-40.81 9.248-4.427 3.057-9.02 11.01-10.72 13.58 12.03-4.253-14.81 12.65-0.7503 6.236-3.936 2.979-4.329 16.27-0.9018 6.541 6.474 5.857 7.554 12.86 14.35 17.4-1.617-10.56 19.56-23.27 24.19-18.68-6.183 5.846-4.745 11.32 2.109 3.509 4.518-4.492 14.74-8.674 4.681-1.086-7.202 4.551-7.296 8.607 0.9931 2.92 5.024-3.628 21.15-18.43 13.16-4.23-4.354 13.17 8.529-13.88 10.02 0.7863 2.999 7.675 4.409 12.51 4.736 20.52 2.303-7.739 6.996-14 13.03-19.12z" fill="#5b0225"/><path d="m48.44 345.4c-0.215 1.041 0.6761 1.889 1.642 2.06 0.995 0.1753 6.801-0.0692 7.087-0.231 0.4225-0.2391-5.079 0.2316-4.946-0.8322 0.4796-3.822-0.1748-13.68-0.1748-13.68s-3.102 10.23-3.608 12.68z" fill="#e1e1e1"/></g></svg>
