<svg xmlns="http://www.w3.org/2000/svg" version="1.1" viewBox="0 0 100 100"><g transform="translate(0 -270.5)"><g transform="translate(607.4 672.1)"><path d="m-577.2-401.5c-2.722 0.73-0.3178 3.914-2.181 5.346-2.992 3.764-9.352 2.809-13.2 5.679-3.109 1.733-5.723 4.506-5.983 7.755-7.662 4.052-11.41 13.22-6.966 20.16 0.4636 9.048 5.67 18.06 14.51 23.31 1.718 5.61 4.731 11.02 4.995 16.87 2.328 5.083 8.756 7.759 11.06 12.87 5.933 8.141 19.66 10.29 29.1 5.433 4.64-2.145 7.936-5.873 10.1-9.849 4.017-3.386 9.365-7.283 8.315-12.66 1.062-4.925 3.97-9.444 4.69-14.47 1.619-3.531 6.38-4.802 8.413-8.141 2.732-3.472 5.423-7.233 6.908-11.15-0.5106-3.658-6.714-4.168-6.612-8.084-1.884-6.856 1.678-14.63-3.033-20.99-2.716-1.025-4.974 2.757-7.326 0.4225-3.998-2.687-7.05-7.038-12.68-7.295-13.06-2.925-27.75 1.236-39.73-5.181-0.1298 0.0268-0.2548-0.0654-0.3844-0.0357z" fill="#fff"/><path d="m-524.7-348.5c-2.585 8.41-4.912 17.01-9.468 24.84-4.043 5.228-9.814 9.42-16.06 12.67-3.99 2.507-9.313 2.295-13.25-0.1776-6.076-3.227-11.73-7.311-15.7-12.43-4.654-7.957-7.043-16.7-9.69-25.26-3.606-12.07 2.864-25.79 15.61-32.03 11.99-6.283 28.61-4.692 38.73 3.63 9.154 7.127 12.92 18.57 9.816 28.75z" stroke="#7c5c4c" stroke-width="3" fill="#8a6859"/><path d="m-587.4-342.3c-9.815-5.557-13.9-15.28-13.22-24.04-4.649 1.921-1.577-13.66 7.853-14 3.924-0.9887 4.933-6.39-0.6319-3.369 1.374-6.676 18.53-5.239 19.25-12.75 10.98 4.215 22.54 0.9694 33.19 3.43 11.27-1.106 12.04 10.97 21.58 7.884 2.91 8.26-3.797 19.35 7.847 24.88-4.515 3.593-4.216 10.95-14.24 14.14-6.934 3.258 2.627-9.288-7.54-9.083-1.496-5.133-7.736-2.659-9.416-3.798 0.561-3.777-9.452-16.02-5.411-6.159-0.0372 5.758-9.944-9.225-5.4 0.7783 0.6294 5.419-8.672-6.436-5.253 0.8973-3.196 6.41-9.65-8.949-12.99-0.1151-4.581 3.017-8.31 1.744-5.469-2.177-10.97 4.193-4.587 14.92-10.26 20.8l-0.3512 1.35z" fill="#1c1f24"/><path d="m-563.7-329.2c2.029-1.708 4.072-0.6 5.944-0.3513 1.706 0.2286 3.927-0.6373 5.662-0.1464 3.175 0.2983 6.347 6.336 6.161 5.517-0.0916-0.404-3.046-2.854-5.68-3.291-1.676-0.2798-3.817 0.5611-5.482 0.366-1.722-0.1999-3.908-1.13-5.93-0.1483-8.131-0.5007-2.649-0.1408-0.675-1.945z" fill="#d4737e"/><path fill="#93aca7" transform="scale(-1,1)" stroke="#4e5553" stroke-width="2.724" d="m575.4-348.2a3.706 2.938 0 0 1 -2.654 2.817 3.706 2.938 0 0 1 -4.16 -1.218 3.706 2.938 0 0 1 0.2921 -3.508"/><ellipse rx="3.159" ry="2.685" cy="-348.3" cx="-571.7" fill="#fff"/><path d="m-569.7-347.3c-0.6156 0.9226-1.993 1.246-3.083 0.7186-1.086-0.5228-1.469-1.696-0.8545-2.619 0.6156-0.9238 1.994-1.247 3.08-0.7234 1.092 0.5258 1.472 1.7 0.8574 2.623zm-2.875-2.674c-0.4723 0.2056-0.694 0.6373-0.495 0.9635 0.2019 0.3238 0.7447 0.4184 1.217 0.208 0.4744-0.2074 0.6954-0.6385 0.4993-0.9635-0.1998-0.3256-0.7447-0.4184-1.221-0.208z" fill="#333"/><path fill="#93aca7" transform="scale(-1,1)" stroke="#4e5553" stroke-width="2.724" d="m546.8-348.2a3.706 2.938 0 0 1 -2.654 2.817 3.706 2.938 0 0 1 -4.16 -1.218 3.706 2.938 0 0 1 0.2921 -3.508"/><ellipse rx="3.159" ry="2.685" cy="-348.2" cx="-543" fill="#fff"/><path d="m-541.1-347.2c-0.6156 0.9226-1.993 1.246-3.083 0.7186-1.086-0.5228-1.469-1.696-0.8545-2.619 0.6156-0.9238 1.994-1.247 3.08-0.7234 1.092 0.5258 1.472 1.7 0.8574 2.623zm-2.875-2.674c-0.4723 0.2056-0.694 0.6373-0.495 0.9635 0.2019 0.3238 0.7447 0.4184 1.217 0.208 0.4744-0.2074 0.6954-0.6385 0.4993-0.9635-0.1998-0.3256-0.7447-0.4184-1.221-0.208z" fill="#333"/><path d="m-576-355.5c0.7086 0.4578 8.09 6.496 10.01 3.682 1.691-2.473-5.227-2.359-10.01-3.682z" fill="#1a1a1a"/><path d="m-540-355.2c-0.7086 0.4578-8.09 6.496-10.01 3.682-1.691-2.473 5.227-2.359 10.01-3.682z" fill="#1a1a1a"/><path d="m-559.3-339.9c-0.1348 0.8547 0.4239 1.552 1.03 1.692 0.6238 0.144 4.264-0.0568 4.444-0.1897 0.2649-0.1963-3.185 0.1902-3.101-0.6834 0.3007-3.139-0.1096-11.23-0.1096-11.23s-1.945 8.405-2.262 10.41z" fill="#715a4e"/><path d="m-562.7-306.5c-4.621-1.023-8.058-4.344-9.677-8.05-2.558-3.705-7.724-5.797-9.299-10.04-0.6227-2.173 2.473-2.908 4.228-2.079 3.179-0.6725 4.146-3.672 5.8-5.734 3.028-4.229 9.802-5.662 15.11-4.014 6.021-1.944 13.68 0.45 16.27 5.576 1.216 2.082 3.399 4.942 6.511 3.803 3.591 0.1095 2.499 3.537 0.875 5.061-2.557 3.004-6.636 4.971-8.396 8.486-1.143 2.152-2.697 4.225-5.161 5.435-4.768 2.613-10.91 2.858-16.26 1.553zm-3.108-25.08c-4.003 1.075-5.507 5.519-3.632 8.529 1.065 2.374 3.77 4.731 7.001 4.259 3.253-0.8487 4.709-3.815 5.442-6.394 1.428-1.481 1.171 2.528 2.264 3.266 1.056 1.938 3.529 3.866 6.214 3.099 3.745-1.095 5.956-4.704 5.69-7.952-0.2633-2.532-2.596-4.754-5.578-5.141-4.406-0.9712-9.007-0.5098-13.49-0.3891-1.327 0.1247-2.649 0.3401-3.908 0.7237z" fill="#373e48"/></g></g></svg>
