<svg xmlns="http://www.w3.org/2000/svg" version="1.1" viewBox="0 0 100 100"><g transform="translate(0 -270.5)"><g transform="translate(494.1 -35.47)"><path d="m-452.8 306c-7.504 0.532-9.73 7.09-7.054 11.25 1.497 1.595-2.864 1.17-4.255 1.62-7.532 1.213-15.29 4.016-18.36 9.228-6.858 6.64-13.59 14.63-11.02 23.13 0.9718 6.303 0.032 13.6 6.053 18.85 1.605 1.595 5.382 1.719 4.914 4.115 2.599 9.023 5.644 19.28 17.27 24.91 8.547 4.88 20.62 9.122 31.62 5.58 14.23-3.826 26.4-12.5 28.35-23.3 1.497-5.467 3.959-10.8 7.679-15.72 6.038-11.78 4.789-26.03-6.848-35.98-3.469-4.954-10.16-8.712-18.12-9.47-8.609-0.6846-14.78-5.69-19.03-10.54-2.88-2.127-6.854-3.832-11.2-3.666z" fill="#fff"/><path d="m-443 330c-17.15-0.175-32.97 8.737-37.19 20.15-2.533 5.862-1.406 12.05 0.8672 17.85 2.246 6.448 4.049 13 7.091 19.29 3.421 4.816 9.005 9.087 16.24 11.17 4.789 2.393 10.74 4.279 16.75 3.19 5.116-0.8814 9.148-3.442 13.91-4.893 6.813-3.351 12.15-8.385 13.62-14.17 2.505-7.063 5.117-14.13 7.029-21.28 2.458-11.85-7.277-24.43-23.27-29.13-4.727-1.441-9.886-2.191-15.05-2.193z" stroke="#ebd0be" stroke-width="3.301" fill="#f3dccc"/><path d="m-399.3 347.2c-2.732-4.698-2.668-10.69-8.202-14.21-3.51-1.918-4.047-6.362-8.788-7.793-6.267-2.717-19.34-0.9763-28.12-12.73-2.805-1.859-8.303-5.373-11.23-1.784-1.285 3.248 4.217 8.62 0.2924 9.748-3.628 0.8109-7.415 1.715-10.94 2.456-5.289-0.1994-9.094 3.409-11.92 6.327-2.091 3.584-6.004 6.118-8.308 9.607-2.834 4.336-2.908 9.366-1.513 14 0.8363 4.743-0.3369 10.25 3.962 14.2 1.738 1.476 6.327 2.807 5.305-0.3973 0.6432-6.42 0.8119-12.94 2.685-19.23 2.162-5.591 9.609-10.68 17.71-9.264 10.04 2.811 21.06 1.969 31.21-0.0533 6.63-1.012 12.61 2.876 14.85 7.348 1.356 2.44 2.049 5.098 1.943 7.746 3.421 5.252-0.9034 11.47 2.752 16.64 6.257-4.381 6.9-11.2 7.847-17.21 0.1326-1.805 0.8239-3.607 0.4766-5.409z" fill="#6f916f"/><path d="m-425.8 384s-17.2 3.46-20.49 3.42c-4.163-0.0508-13.73-4.519-13.73-4.519 6.453 4.353 5.81 6.377 13.65 6.935 7.423 0.5278 17.02-3.865 20.57-5.836z" fill="#d4737e"/><path d="m-449.1 377.6c-0.292 1.511 0.9181 2.743 2.23 2.99 1.351 0.2545 9.236-0.1005 9.624-0.3354 0.5738-0.347-6.898 0.3362-6.717-1.208 0.6513-5.548-0.2374-19.86-0.2374-19.86s-4.213 14.86-4.9 18.41z" fill="#e1b598"/><g transform="matrix(2.298 -.4256 .5541 1.439 -538.1 252.3)"><path fill="#e3dbdb" stroke="#deaf8f" stroke-width="2.612" d="m17.2 79.26a3.276 3.055 0 0 1 -2.346 2.93 3.276 3.055 0 0 1 -3.678 -1.267 3.276 3.055 0 0 1 0.2582 -3.649"/><circle cx="14" cy="79.24" r="2.793" fill="#fff"/><path d="m15.7 78.29c-0.5442-0.9596-1.762-1.296-2.726-0.7475-0.9597 0.5438-1.298 1.764-0.7554 2.724 0.5442 0.9608 1.763 1.297 2.723 0.7524 0.9655-0.5468 1.302-1.768 0.758-2.728zm-2.542 2.781c-0.4175-0.2139-0.6135-0.6628-0.4376-1.002 0.1785-0.3368 0.6584-0.4352 1.076-0.2164 0.4194 0.2157 0.6148 0.6641 0.4414 1.002-0.1766 0.3387-0.6584 0.4352-1.08 0.2164z" fill="#6c5d53"/></g><g transform="matrix(2.298 -.4256 .5541 1.439 -501.2 252)"><path fill="#e3dbdb" stroke="#deaf8f" stroke-width="2.612" d="m17.2 79.26a3.276 3.055 0 0 1 -2.346 2.93 3.276 3.055 0 0 1 -3.678 -1.267 3.276 3.055 0 0 1 0.2582 -3.649"/><circle cx="14" cy="79.24" r="2.793" fill="#fff"/><path d="m15.7 78.29c-0.5442-0.9596-1.762-1.296-2.726-0.7475-0.9597 0.5438-1.298 1.764-0.7554 2.724 0.5442 0.9608 1.763 1.297 2.723 0.7524 0.9655-0.5468 1.302-1.768 0.758-2.728zm-2.542 2.781c-0.4175-0.2139-0.6135-0.6628-0.4376-1.002 0.1785-0.3368 0.6584-0.4352 1.076-0.2164 0.4194 0.2157 0.6148 0.6641 0.4414 1.002-0.1766 0.3387-0.6584 0.4352-1.08 0.2164z" fill="#6c5d53"/></g><path opacity=".7590" d="m-448.6 361.5c0 4.842-4.973 9.092-13.78 9.092-11.02 0-13.9-6.271-13.9-13.6l0.0335-0.5696c0.1817-3.078 3.297-5.012 7.086-5.012h13.69c3.681 0 6.682 1.912 6.749 4.908zm10.17 0c0 4.842 4.973 9.092 13.78 9.092 11.02 0 13.9-6.271 13.9-13.6l-0.0337-0.5696c-0.1817-3.078-3.297-5.012-7.086-5.012h-13.69c-3.681 0-6.682 1.912-6.749 4.908z"/><path d="m-405.8 352.9c0-2.591-30.31-5.099-32.53-0.1095-0.1682 0.3779-0.2961 0.493-0.7402 0.5094-0.5383 0.0164-2.227-0.1205-4.367-0.1205-2.079 0-3.762 0.126-4.313 0.1205-0.4845-0.006-0.6191-0.115-0.794-0.5094-2.221-4.99-32.53-2.476-32.53 0.1095 0 1.577-0.2692 4.223 0.5383 4.426 1.4 0.3505 1.992-0.4496 2.416 2.092 0.2086 1.254 1.588 1.128 2.786 1.128-2.14-8.139 3.068-8.254 6.325-8.583 7.631-0.7668 18.77-0.7887 20.09 5.384 0.5922 2.771 0.2019 4.311-0.5518 6.885 0.7267-0.0106 1.11-0.0383 1.608-0.4108 1.599-2.787 1.537-5.028 1.043-7.4 0.545-0.4601 2.53-0.5203 3.378-0.5532 0.8815 0.0329 2.947 0.0931 3.439 0.608-0.7593 2.472-0.2753 5.258 0.9757 7.345 0.4979 0.3725 0.8815 0.3998 1.608 0.4108-0.7537-2.574-1.144-4.113-0.5518-6.885 1.326-6.173 12.46-6.151 20.09-5.384 3.264 0.3286 8.465 0.4436 6.325 8.583 1.198 0 2.577 0.126 2.786-1.128 0.4239-2.547 1.023-1.741 2.416-2.092 0.821-0.2027 0.5585-2.849 0.5585-4.426z" fill="#8dd35f"/></g></g></svg>
