<svg xmlns="http://www.w3.org/2000/svg" version="1.1" viewBox="0 0 100 100"><g transform="translate(0 -270.5)"><path d="m50.84 270.6c-26.92 0.6144-49.17 19.8-46.68 38.95-2.051 10.8-7.773 22.49-0.8263 33.01 4.485 9.642 6.223 21.54 19.02 27.64 4.165 1.674 7.524-2.596 6.167-5.162 1.466-5.286 6.12-9.653 8.862-14.58 6.752 4.546 17.8 7.425 26.04 3.147 1.511-0.3926 3.85-2.576 3.589-0.3357 0.7181 3.781 3.544 8.655 9.5 9.084 7.739-0.617 9.354-7.131 12.37-11.2 4.849-5.753 12.97-11.66 10.73-19.07-1.333-7.916-5.78-15.97-2.335-23.92 2.308-16.36-13.14-34.09-36.31-37.01-3.331-0.4733-6.744-0.6244-10.13-0.5398z" fill="#fff"/><path d="m86.69 318.5h-0.006c-0.007 0.0215-5.619 16.53-10.24 21.64-3.631 4.018-16.27 11.86-22.84 11.87-6.569 0.008-19.23-7.808-22.88-11.82-4.638-5.098-10.33-21.59-10.34-21.62h-0.00059c-0.7306-1.994-1.122-4.088-1.127-6.247-0.0297-13.59 15.28-24.63 34.21-24.65 18.92-0.0211 34.28 10.98 34.31 24.57 0.006 2.159-0.3766 4.253-1.099 6.249z" stroke="#7e6d63" stroke-width="1.94" fill="#967967"/><path d="m23.43 366c-11.69-6.872-10.8-18.46-16.82-27.45-5.448-11.39 3.38-22.51 2.794-33.99 0.429-18.65 26.68-34.61 52.26-29.93 22.88 3.546 34.63 22.23 29.49 37.85-2.593 10.34 10.74 22.03-1.715 31.03-7.236 5.021-11.85 24.73-17.51 9.138-1.14-10.33-4.846-16.89 6.124-24.12 3.28-11.23 3.349-24.84-13.28-30.52-9.514-3.51-15 10.9-27.81 8.777-18.32 1.797-11.89 16.91-5.495 24.66 1.457 2.871 5.526 6.241 0.2078 3.609 10.23 11.79-7.785 19.59-8.243 30.96z" fill="#4d4d4d"/><path d="m40.42 309.3c-2.5 0.328-11.04 3.944-11.04 3.944s8.106-4.62 12.1-5.008c2.97-0.2893 8.705 0.3285 8.144 1.419-0.4513 0.8782-3.771-1.068-9.2-0.3557z" fill="#4d4d4d"/><path fill="#e3dbdb" transform="matrix(.7976 -.6032 .8892 .4574 0 0)" stroke="#806558" stroke-width="4.044" d="m-287.6 308.5a4.864 4.934 0 0 1 -3.483 4.731 4.864 4.934 0 0 1 -5.461 -2.045 4.864 4.934 0 0 1 0.3834 -5.892"/><ellipse rx="5.198" ry="3.242" cy="317.2" cx="42.19" fill="#fff"/><path d="m38.41 317c-0.1953 1.275 1.302 2.406 3.357 2.526 2.044 0.1224 3.863-0.8122 4.06-2.086 0.1966-1.276-1.302-2.407-3.347-2.529-2.056-0.1232-3.873 0.8142-4.069 2.089zm6.844-0.9506c0.408 0.4814 0.2273 1.039-0.4033 1.244-0.6318 0.2013-1.468-0.0248-1.871-0.511-0.4089-0.4845-0.2279-1.041 0.3975-1.247 0.6309-0.2044 1.468 0.0248 1.877 0.5135z" fill="#5b5b5b"/><path d="m47.03 341.1c1.587 1.473 3.457 0.7307 5.097 0.6539 1.495-0.0715 3.329 0.751 4.873 0.4747 2.77-0.0331 6.09-4.583 5.851-3.95-0.1179 0.3121-2.905 2.053-5.221 2.23-1.473 0.1138-3.241-0.6839-4.697-0.6361-1.506 0.0479-3.483 0.6413-5.134-0.2598-7.068-0.1223-2.301-0.0574-0.7702 1.488z" fill="#d4737e"/><path d="m47.05 331.5c-0.3421 1.047 1.076 1.9 2.613 2.071 1.583 0.1763 10.82-0.0696 11.28-0.2323 0.6724-0.2404-8.083 0.2329-7.87-0.8368 0.7631-3.843-0.2782-13.75-0.2782-13.75s-4.936 10.29-5.741 12.75z" fill="#7e6d63"/><path d="m65.75 310.7c2.5 0.328 11.04 3.944 11.04 3.944s-8.106-4.62-12.1-5.008c-2.97-0.2893-8.705 0.3285-8.144 1.419 0.4513 0.8782 3.771-1.068 9.2-0.3557z" fill="#4d4d4d"/><path fill="#e3dbdb" transform="matrix(.7976 -.6032 .8892 .4574 0 0)" stroke="#806558" stroke-width="3.643" d="m-277.4 324a4.382 4.445 0 0 1 -3.138 4.262 4.382 4.445 0 0 1 -4.92 -1.843 4.382 4.445 0 0 1 0.3454 -5.308"/><ellipse rx="4.683" ry="2.921" cy="317.9" cx="64.47" fill="#fff"/><path d="m61.06 317.7c-0.1759 1.149 1.173 2.168 3.024 2.276 1.841 0.1102 3.481-0.7318 3.658-1.88 0.1771-1.15-1.173-2.169-3.016-2.279-1.852-0.111-3.489 0.7336-3.666 1.882zm6.166-0.8565c0.3676 0.4338 0.2048 0.936-0.3634 1.121-0.5692 0.1814-1.323-0.0224-1.686-0.4604-0.3684-0.4365-0.2053-0.9378 0.3581-1.123 0.5684-0.1841 1.323 0.0224 1.691 0.4627z" fill="#5b5b5b"/></g></svg>
