<svg xmlns="http://www.w3.org/2000/svg" version="1.1" viewBox="0 0 100 100"><g transform="translate(0 -270.5)"><path d="m53.69 270.6c-8.585 0.7695-17.93-0.023-25.54 4.312-7.347 3.537-15.98 6.274-20.48 12.92-5.812 7.604-7.642 16.92-7.591 25.94-0.3662 8.091 0.4993 16.58 5.268 23.69 1.904 3.58 2.391 7.748 5.949 10.52 2.574 2.521 6.115 4.481 10.03 4.705 6.135 7.642 15.64 12.39 24.41 17.31 5.832 2.194 11.02-2.202 15.46-4.856 6.414-3.58 11.94-8.262 17.06-13.1 5.174-2.158 9.672-5.494 12.44-9.929 5.342-6.188 9.796-13.77 9.258-21.74-1.081-3.888-1.587-7.833-1.265-11.85-0.597-8.464-6.506-15.74-11.62-22.6-3.66-3.752-9.399-5.141-13.19-8.778-5.398-4.546-12.78-6.733-20.19-6.536z" fill="#fff"/><path d="m73.37 350.6c-3.993 5.037-17.09 12.81-22.23 15.4-1.051 0.5304-2.768 0.5304-3.82-0.0006-5.137-2.594-18.23-10.36-22.23-15.4-4.864-6.131-11.08-28.24-11.09-28.27-0.778-2.584-1.195-5.297-1.199-8.095-0.0312-17.62 16.25-31.91 36.37-31.94 20.12-0.027 36.45 14.23 36.48 31.84 0.006 2.798-0.4004 5.511-1.168 8.098-0.0102 0.027-6.242 22.21-11.12 28.37z" stroke="#dbb497" stroke-width="2.277" fill="#f3c9ad"/><path d="m18.38 319.7c16.56-11.53 27.94-1.591 23.63-1.745-0.6757-0.016-8.149-5.706-23.63 1.745z" fill="#025"/><path d="m41.46 340.9c-0.1763 1.339 0.5543 2.431 1.346 2.651 0.8158 0.2256 5.576-0.089 5.811-0.2973 0.3465-0.3077-4.165 0.2981-4.055-1.071 0.3932-4.918-0.1434-17.6-0.1434-17.6s-2.544 13.17-2.958 16.32z" fill="#dbb497"/><path d="m41.29 350.7c1.696 1.319 3.403 0.4633 4.967 0.2712 1.426-0.1764 3.282 0.4922 4.731 0.1131 2.653-0.2304 5.304-4.892 5.149-4.26-0.0765 0.312-2.546 2.204-4.747 2.541-1.4 0.216-3.19-0.4332-4.581-0.2826-1.439 0.1544-3.266 0.8727-4.956 0.1145-6.795 0.3866-2.214 0.1088-0.5641 1.502z" fill="#bd5863"/><path fill="#e3dbdb" transform="matrix(.7354 .6777 .8473 -.5312 0 0)" stroke="#dbb497" stroke-width="3.628" d="m307.1-223.7a4.436 4.354 0 0 1 -3.177 4.175 4.436 4.354 0 0 1 -4.981 -1.805 4.436 4.354 0 0 1 0.3497 -5.199"/><ellipse rx="4.37" ry="3.322" transform="scale(1,-1)" cy="-324.3" cx="34.06" fill="#fff"/><path d="m30.88 324.5c-0.1642-1.306 1.095-2.466 2.822-2.589 1.718-0.1254 3.248 0.8323 3.414 2.138 0.1653 1.308-1.095 2.467-2.815 2.592-1.729 0.1263-3.256-0.8343-3.422-2.141zm5.755 0.9742c0.3431-0.4934 0.1911-1.065-0.3391-1.275-0.5313-0.2063-1.235 0.025-1.573 0.5236-0.3439 0.4964-0.1916 1.067 0.3342 1.278 0.5305 0.2094 1.235-0.025 1.578-0.5262z" fill="#6c5d53"/><path fill="#e3dbdb" transform="matrix(-.7354 .6777 -.8473 -.5312 0 0)" stroke="#dbb497" stroke-width="3.628" d="m258.6-285.7a4.436 4.354 0 0 1 -3.177 4.175 4.436 4.354 0 0 1 -4.981 -1.805 4.436 4.354 0 0 1 0.3497 -5.199"/><ellipse rx="4.37" ry="3.322" transform="scale(-1)" cy="-324.3" cx="-54.14" fill="#fff"/><path d="m57.32 324.5c0.1642-1.306-1.095-2.466-2.822-2.589-1.718-0.1254-3.248 0.8323-3.414 2.138-0.1653 1.308 1.095 2.467 2.815 2.592 1.729 0.1263 3.256-0.8343 3.422-2.141zm-5.755 0.9741c-0.3431-0.4933-0.1911-1.064 0.3391-1.275 0.5313-0.2063 1.235 0.025 1.573 0.5236 0.3439 0.4965 0.1916 1.067-0.3342 1.278-0.5305 0.2094-1.235-0.025-1.578-0.5263z" fill="#6c5d53"/><path d="m69.7 319.8c-16.56-11.53-27.94-1.591-23.63-1.745 0.6757-0.017 8.149-5.706 23.63 1.745z" fill="#025"/><path d="m70.94 350.6c2.432-8.702 8.446-17.65 5.126-26.77-2.597-6.399-10.94-2.677-16.04-5.837-6.762-2.77-10.15-9.398-9.784-15.73-0.1209-4.723-2.944-11.14-9.208-11.25-4.789 1.017-3.342 8.487-9.682 5.798-6.574 2.237-6.439 9.553-7.435 14.73-1.507 6.115-1.868 12.39-0.5052 18.56 1.233 4.954 0.6378 10.14 1.117 15.03-1.82 7.975-11.66-0.4857-13.54-4.59-0.602-5.482-5.717-9.543-6.321-15.15 0.0895-5.11-1.86-10.3-0.0317-15.32-0.9702-5.807 0.7424-10.99 3.568-16.02 2.119-6.605 8.232-11.73 15.57-13.84 6.774-3.545 14.23-7.632 22.49-6.295 6.158-0.9479 12.67-1.487 18.41 1.223 6.513 1.702 9.873 7.451 15.9 9.676 5.403 1.793 6.145 7.518 9.697 11.08 3.537 5.062 5.763 11.16 4.169 17.09 1.155 4.984 3.564 10.16-0.0874 14.9-1.363 5.018-4.459 9.438-8.404 12.65-0.8014 4.758-10.11 7.499-15 10.06z" fill="#214478"/></g></svg>
