<svg xmlns="http://www.w3.org/2000/svg" version="1.1" viewBox="0 0 100 100"><path stroke-width="1.253" fill="#fff" d="m49.09 0.03853c-17.31-0.2102-36.07 6.214-43.12 18.84-9.817 14.8-6.343 32.43 1.889 47.14 2.601 9.33 4.221 20.14 14.87 26.44 17.29 12.14 48.72 9.34 60.86-6.23 5.68-6.84 6.01-15.21 9.03-22.72 2.8-3.16 6.35-6.23 6.29-10.3 2.49-14.12 1.49-29.87-10.59-41.53-9.09-9.286-24.71-12.06-39.23-11.64z"/><path d="m49.67 8.877c-18.51-0.267-35.82 10.07-40.48 23.58-2.821 7.12-1.631 14.7 1.329 21.66 2.5 7.027 4.4 14.17 5.866 21.35 3.143 9.432 13.71 17.38 26.63 18.67 12.18 1.598 25.98-1.209 33.44-9.071 5.21-4.942 6.966-11.24 8.318-17.32 1.893-7.447 4.886-14.72 6.636-22.17 2.62-13.98-8.08-28.74-25.36-34.16-5.15-1.688-10.77-2.553-16.37-2.541z" stroke="#d7b49e" stroke-width="3.759" fill="#f3c9ad"/><path stroke-width="1.253" fill="#28220b" d="m12.85 62.13c-8.494-13.39-10.56-31.34-0.46-44.51 7.56-9.566 21.03-14.23 33.91-13.77 12.91-1.243 27.5 0.521 37.12 8.97 10.82 10.62 12.38 26.3 9.338 39.82 0.05409 3.85-5.771 9.341-6.06 2.617 1.037-8.843-1.63-17.6-2.186-26.42-0.7373-2.737-4.963-8.307-7.198-6.358 3.82 4.567-2.827 7.964-7.556 5.641-7.75-0.24-14.35-4.497-20.43-8.206-7.494-1.051-11.79 6.028-18.11 8.2-4.41 0.4243-11.52 6.101-14.13 1.604 1.854-3.937-3.022-3.083-2.663 0.4014-1.522 7.372 0.3658 14.87-0.6297 22.29-0.1952 3.25-0.5017 6.495-0.9597 9.724z"/><path stroke-width="1.253" fill="#d4737e" d="m28.09 77.73c-0.5365-0.3601 2.198-3.681 5.647-4.414 4.36-0.9624 8.284 0.02837 11.49 0.4507 2.926 0.3863 7.251 0.05347 10.11 0.6318 3.235 0.6547 12.17 3.582 11.48 4.147-0.3423 0.2783-7.139-1.829-11.62-2.486-2.848-0.419-7.021-0.09385-9.888-0.4507-2.966-0.3677-6.43-1.32-10.45-0.8784-3.651 0.4005-6.161 3.41-6.772 3z"/><path stroke-width="1.253" fill="#2b2200" d="m79.16 80.46c-4.31-1.85-4.12-2.82-18.9-5.28-5.32-0.89-7.78-1.31-10.58-4.16-6.03 6.14-15.65 2.46-29.46 9.42 1.124-5.753 7.122-10.25 18.34-13.73 5.229-1.625 6.755-0.4398 11.12 0.0898 2.058-0.2243 4.295-0.8975 6.909-0.8077 5.111 0.0359 20.8 5.78 22.55 14.47z"/><g transform="matrix(1.994 0 0 1.104 2.921 -41.21)"><path d="m17.2 79.26a3.276 3.055 0 0 1 -2.346 2.93 3.276 3.055 0 0 1 -3.678 -1.267 3.276 3.055 0 0 1 0.2582 -3.649" stroke="#deaf8f" stroke-width="2.612" fill="#e3dbdb"/><circle cy="79.24" cx="14" r="2.793" fill="#fff"/><path fill="#6c5d53" d="m15.7 78.29c-0.5442-0.9596-1.762-1.296-2.726-0.7475-0.9597 0.5438-1.298 1.764-0.7554 2.724 0.5442 0.9608 1.763 1.297 2.723 0.7524 0.9655-0.5468 1.302-1.768 0.758-2.728zm-2.542 2.781c-0.4175-0.2139-0.6135-0.6628-0.4376-1.002 0.1785-0.3368 0.6584-0.4352 1.076-0.2164 0.4194 0.2157 0.6148 0.6641 0.4414 1.002-0.1766 0.3387-0.6584 0.4352-1.08 0.2164z"/></g><g transform="matrix(1.994 0 0 1.104 40.9 -41.54)"><path d="m17.2 79.26a3.276 3.055 0 0 1 -2.346 2.93 3.276 3.055 0 0 1 -3.678 -1.267 3.276 3.055 0 0 1 0.2582 -3.649" stroke="#deaf8f" stroke-width="2.612" fill="#e3dbdb"/><circle cy="79.24" cx="14" r="2.793" fill="#fff"/><path fill="#6c5d53" d="m15.7 78.29c-0.5442-0.9596-1.762-1.296-2.726-0.7475-0.9597 0.5438-1.298 1.764-0.7554 2.724 0.5442 0.9608 1.763 1.297 2.723 0.7524 0.9655-0.5468 1.302-1.768 0.758-2.728zm-2.542 2.781c-0.4175-0.2139-0.6135-0.6628-0.4376-1.002 0.1785-0.3368 0.6584-0.4352 1.076-0.2164 0.4194 0.2157 0.6148 0.6641 0.4414 1.002-0.1766 0.3387-0.6584 0.4352-1.08 0.2164z"/></g><g transform="matrix(1.483 0 0 1.125 -797.3 152.5)"><path opacity=".5960" d="m592.6-86.5c-1.158 1.079-3.056 1.491-6.652 1.491-4.798 0-7.937-0.5347-10.01-4.665-1.614-3.208-2.266-6.652-1.482-7.839 1.084-1.639 4.204-2.752 7.687-3.081 6.049 2.875 10.3 8.639 10.46 14.09zm-35.13-14.19c-3.748 0.103-7.403 1.153-8.963 3.459-1.069 1.575-0.8291 6.157-0.1079 8.31 0.9812 2.939 2.487 3.915 8.055 3.915 4.798 0 7.937-0.5347 10.01-4.665 0.206-0.4121 0.3974-0.8291 0.574-1.246-1.585-3.993-5.082-7.682-9.571-9.772zm36.49 11.78c-0.3483 1.04-0.7653 1.83-1.403 2.423-0.1619-5.455-4.41-11.22-10.46-14.1 4.597-0.4366 9.807 0.4857 11.76 3.365 1.069 1.575 0.8291 6.152 0.1079 8.31zm-26.05-8.595c-1.369-2.075-5.995-3.302-10.48-3.174 4.494 2.085 7.986 5.774 9.576 9.772 1.182-2.816 1.589-5.563 0.9076-6.598z"/><path fill="#1a1a1a" d="m596.6-99.57c-4.824-2.973-17.73-3.439-22.32 0.07359-0.3924 0.2306-2.075-0.26-3.086-0.26-0.9566 0-2.659 0.5151-3.086 0.26-3.276-2.11-24.76-4.263-22.49 2.419 0.4464 0.2011 0.7408 0.4808 0.7162 0.9713-0.157 2.757 0.6034 6.338 0.937 7.324 0.4268 1.271 1.197 3.635 4.557 4.219 2.86 0.4955 8.06 0.726 10.76-0.0834 4.901-1.462 6.963-10.3 7.052-12.82l0.005 0.0099c0.1962-0.883 2.855-0.883 3.056 0l0.005-0.0099c0.0834 2.517 2.196 11.36 7.096 12.82 2.703 0.8094 7.903 0.5789 10.76 0.0834 3.36-0.5838 4.131-2.948 4.557-4.219 0.3336-0.991 1.094-4.567 0.9419-7.324-0.0245-0.4906 0.2747-0.7702 0.7162-0.9713 0.4886-1.029 0.4928-2.076-0.1817-2.492zm-34.53 13.61c-2.482 0.7408-7.025 0.7898-9.669 0.3287-2.227-0.3876-3.159-1.599-3.777-3.449-0.726-2.159-0.9174-6.628 0.0785-8.094 3.316-4.896 16.62-3.949 19.03-0.2845 1.079 1.643-1.015 10.11-5.666 11.5zm31.69-3.115c-0.6181 1.849-1.555 3.061-3.777 3.449-2.644 0.4611-7.187 0.4121-9.669-0.3287-4.651-1.388-6.745-9.856-5.666-11.5 2.419-3.665 15.72-4.611 19.03 0.2845 0.9959 1.462 0.8045 5.936 0.0785 8.094z"/></g><path stroke-width="1.253" fill="#d7b49e" d="m45.5 59.51c-0.3179 2.166 0.9997 3.933 2.428 4.288 1.472 0.3649 10.06-0.1441 10.48-0.4809 0.6249-0.4976-7.512 0.4822-7.313-1.732 0.7091-7.956-1.712-16.11-1.712-16.11s-3.134 8.94-3.882 14.03z"/></svg>
