<svg xmlns="http://www.w3.org/2000/svg" version="1.1" viewBox="0 0 100 100"><g transform="translate(0 -270.5)"><path d="m48.43 270.6c-18.85 0.5436-38.36 9.784-45.4 25.49-6.124 12.31-1.993 26.15 3.852 37.89 2.991 7.174 7.865 13.94 14.99 18.52 6.141 7.564 14.33 14.3 24.56 17.41 8.058 2.439 15.86-2.226 21.8-6.469 6.882-4.83 12.08-11.15 17-17.44 5.438-9.384 13.07-18.25 14.39-29 2.63-17.52-8.62-36.62-28.11-43.07-7.291-2.439-15.28-3.539-23.09-3.309z" fill="#fff"/><path d="m85.85 324.6h-0.006c-0.007 0.0269-5.863 20.69-10.68 27.08-3.79 5.028-16.97 14.84-23.83 14.85-6.855 0.0101-20.07-9.77-23.88-14.79-4.84-6.379-10.78-27.02-10.79-27.05h-0.000591c-0.7624-2.496-1.171-5.115-1.176-7.817-0.03101-17.01 15.95-30.82 35.69-30.84 19.75-0.0264 35.78 13.74 35.81 30.75 0.006 2.701-0.393 5.322-1.146 7.82z" stroke="#cfcfcf" stroke-width="2.217" fill="#f3ebe6"/><path d="m46.07 337.8c-0.2789 1.275 0.877 2.315 2.13 2.525 1.291 0.2148 8.822-0.0848 9.193-0.2831 0.5481-0.293-6.589 0.2838-6.416-1.02 0.6221-4.684-0.2268-16.76-0.2268-16.76s-4.024 12.54-4.68 15.54z" fill="#cfcfcf"/><path d="m39.74 345.8c-0.3125 0.3436 1.281 3.771 3.29 4.625 2.54 1.114 4.825 0.2516 6.695-0.0641 1.704-0.2891 4.223 0.1915 5.888-0.2929 1.884-0.5483 7.091-3.187 6.686-3.777-0.1995-0.2911-4.158 1.596-6.766 2.104-1.659 0.3246-4.089-0.1431-5.759 0.1183-1.728 0.2691-3.745 1.109-6.089 0.5289-2.126-0.5257-3.589-3.634-3.945-3.242z" fill="#d4737e"/><path d="m47.6 312.2c-7.715-2.18-11.25-2.178-19.81-1.299-0.2586 0.0263-1.465 0.2825-1.571 0.1139 7.088-1.389 13.07-1.838 19.76 0.4769 0.2378 0.0825 1.656 0.5387 1.624 0.7078z" fill="#4d4d4d"/><path d="m51.83 314.3c7.715-3.396 11.25-3.392 19.81-2.023 0.2586 0.0409 1.465 0.44 1.571 0.1774-7.088-2.163-13.07-2.863-19.76 0.7427-0.2377 0.1285-1.656 0.839-1.624 1.102z" fill="#4d4d4d"/><path fill="#c4b7c8" transform="matrix(.9819 -.1893 .3443 .9388 0 0)" stroke="#a7b3bf" stroke-width="4.11" d="m-68.18 326.4a5.92 4.186 0 0 1 -4.24 4.014 5.92 4.186 0 0 1 -6.646 -1.735 5.92 4.186 0 0 1 0.4666 -4.999"/><ellipse rx="5.127" ry="3.717" cy="320.3" cx="39.8" fill="#fff"/><path d="m37.31 322.4c1.522 0.9688 3.837 0.86 5.178-0.2509 1.337-1.103 1.189-2.785-0.331-3.754-1.523-0.9703-3.839-0.8604-5.177 0.2436-1.345 1.109-1.192 2.792 0.3295 3.762zm2.733-4.607c0.853 0.0865 1.464 0.5654 1.363 1.069-0.1067 0.5015-0.8796 0.8348-1.736 0.742-0.8574-0.088-1.466-0.5664-1.369-1.067 0.1022-0.503 0.8797-0.8348 1.742-0.7437z" fill="#93a7ac"/><path fill="#c4b7c8" transform="matrix(.9819 -.1893 .3443 .9388 0 0)" stroke="#a7b3bf" stroke-width="4.11" d="m-47.34 330a5.92 4.186 0 0 1 -4.24 4.014 5.92 4.186 0 0 1 -6.646 -1.735 5.92 4.186 0 0 1 0.4666 -4.999"/><ellipse rx="5.127" ry="3.717" cy="319.8" cx="61.51" fill="#fff"/><path d="m59.02 321.8c1.522 0.9688 3.837 0.86 5.178-0.2509 1.337-1.103 1.189-2.785-0.331-3.754-1.523-0.9703-3.839-0.8605-5.177 0.2436-1.345 1.109-1.192 2.792 0.3295 3.762zm2.733-4.607c0.853 0.0865 1.464 0.5654 1.363 1.069-0.1067 0.5015-0.8796 0.8348-1.736 0.742-0.8574-0.088-1.466-0.5664-1.369-1.067 0.1022-0.503 0.8797-0.8348 1.742-0.7437z" fill="#93a7ac"/><path d="m66.14 276.3c-23.06-6.75-51.02 4.145-57.04 18.74-8.296 12.57-2.894 25.95 3.031 38.31 1.756 4.999 10.06 19.4 18.82 14.37-4.593-7.241-21.47-28.28-9.669-24.06-1.306-1.049-2.212-16.73 12.37-16.84 7.338-1.632 17.45-13.54 16.76-12.1 17.98 23.73 0.5762-3.796 12.16 0.9762 0.5469 4.629 13.85 19.03 8.049 7.682-1.28-2.83-3.13-14.11-0.483-4.85 2.778 10.9 23.76 22.5 9.827 33.02-6.864 2.971-11.12 18.71-0.2477 15.61 5.424-10.67 15.17-20.69 16.02-32.11 0.2453-14.35-5.433-32.86-29.6-38.75z" fill="#e6c131"/></g></svg>
