<svg xmlns="http://www.w3.org/2000/svg" version="1.1" viewBox="0 0 100 100"><g transform="translate(0 -270.5)"><path d="m49.45 270.6c-14.8 0.8767-28.91 7.737-38.05 17.78-4.126 5.266-7.054 11.16-11.32 16.36 1.201-0.5111-0.4726 1.517 0 2.218-0.2043 1.637 2.161 2.446 0.9542 4.018-0.9022 2.98 0.2507 7.856 4.564 7.996 1.225 0.0371 2.55-1.278 3.017 0.3114 1.747 2.564-0.1685 5.514 1.153 8.223 1.832 5.141 2.622 11.86 8.945 14.49 2.84 8.398 8.289 16.27 16.63 21.38 6.326 4.582 14.87 9.199 23.35 6.329 7.864-3.105 14.71-8.118 20.31-13.78 3.637-3.902 5.746-8.801 7.732-13.31 7.042-3.411 8.773-10.8 10.35-17.07 0.7211-2.344-0.6168-5.283-2.018-6.699 3.122-1.786 4.156-5.2 3.577-8.233 0.8432-3.439 2.829-7.718-0.5356-10.67-3.182-4.97-4.028-10.99-8.698-15.27-6.69-7.23-17.13-11.13-27.52-12.19-4.087-0.8678-8.184-2.011-12.44-1.891z" fill="#fff"/><path d="m88.21 323.6h-0.006c-0.007 0.0277-6.018 21.29-10.96 27.86-3.89 5.173-17.42 15.27-24.46 15.28-7.036 0.0105-20.6-10.05-24.51-15.22-4.968-6.563-11.06-27.8-11.07-27.83h-0.0006c-0.7825-2.568-1.202-5.263-1.207-8.043-0.0318-17.5 16.37-31.71 36.64-31.74 20.27-0.0272 36.72 14.14 36.75 31.64 0.006 2.78-0.4033 5.476-1.177 8.046z" stroke="#7e6d63" stroke-width="2.278" fill="#967967"/><path d="m62.38 351.5c0.3079 0.4059-1.261 4.149-3.24 4.975-2.501 1.085-4.752-0.032-6.594-0.508-1.679-0.4354-4.16-0.0603-5.8-0.7122-1.856-0.738-6.985-4.038-6.586-4.674 0.1964-0.3136 4.096 2.061 6.665 2.802 1.634 0.4723 4.028 0.1058 5.673 0.508 1.702 0.4145 3.689 1.488 5.998 0.9902 2.094-0.4514 3.534-3.844 3.885-3.381z" fill="#9b3440"/><g transform="matrix(1.693 0 0 1.124 12.07 240.1)"><path d="m17.2 79.26a3.276 3.055 0 0 1 -2.346 2.93 3.276 3.055 0 0 1 -3.678 -1.267 3.276 3.055 0 0 1 0.2582 -3.649" stroke="#deaf8f" stroke-width="2.612" fill="#e3dbdb"/><circle cy="79.24" cx="14" r="2.793" fill="#fff"/><path d="m15.7 78.29c-0.5442-0.9596-1.762-1.296-2.726-0.7475-0.9597 0.5438-1.298 1.764-0.7554 2.724 0.5442 0.9608 1.763 1.297 2.723 0.7524 0.9655-0.5468 1.302-1.768 0.758-2.728zm-2.542 2.781c-0.4175-0.2139-0.6135-0.6628-0.4376-1.002 0.1785-0.3368 0.6584-0.4352 1.076-0.2164 0.4194 0.2157 0.6148 0.6641 0.4414 1.002-0.1766 0.3387-0.6584 0.4352-1.08 0.2164z" fill="#6c5d53"/></g><g transform="matrix(1.693 0 0 1.124 45.44 240)"><path d="m17.2 79.26a3.276 3.055 0 0 1 -2.346 2.93 3.276 3.055 0 0 1 -3.678 -1.267 3.276 3.055 0 0 1 0.2582 -3.649" stroke="#deaf8f" stroke-width="2.612" fill="#e3dbdb"/><circle cy="79.24" cx="14" r="2.793" fill="#fff"/><path d="m15.7 78.29c-0.5442-0.9596-1.762-1.296-2.726-0.7475-0.9597 0.5438-1.298 1.764-0.7554 2.724 0.5442 0.9608 1.763 1.297 2.723 0.7524 0.9655-0.5468 1.302-1.768 0.758-2.728zm-2.542 2.781c-0.4175-0.2139-0.6135-0.6628-0.4376-1.002 0.1785-0.3368 0.6584-0.4352 1.076-0.2164 0.4194 0.2157 0.6148 0.6641 0.4414 1.002-0.1766 0.3387-0.6584 0.4352-1.08 0.2164z" fill="#6c5d53"/></g><path opacity=".8070" d="m30.35 339.1c2.183 0 4.448-0.1591 6.376-0.442 3.151-0.4685 7.081-2.321 9.614-5.083 2.781-3.032 3.393-5.189 2.513-7.337-1.129-2.771-8.338-3.757-14.7-3.757-6.544 0-14.12 1.025-15.96 2.984-3.09 3.297-0.954 9.234 0.8465 11.05 2.318 2.334 8.68 2.586 11.31 2.586zm45.37-0.0624c-2.183 0-4.448-0.1591-6.376-0.442-3.151-0.4685-7.081-2.321-9.614-5.083-2.781-3.032-3.393-5.189-2.513-7.337 1.129-2.771 8.338-3.757 14.7-3.757 6.544 0 14.12 1.025 15.96 2.984 3.09 3.297 0.954 9.234-0.8465 11.05-2.318 2.334-8.68 2.586-11.31 2.586z"/><path d="m73.46 321.4c-8.539 0-13.45 1.308-20.34 1.308-6.886 0-11.79-1.308-20.34-1.308-10.15 0.1459-14.29-3.009-18.7-0.1114-1.947 1.28 0.0669 5.433 0.0669 5.433 0.0153 1.313 0.6181 2.343 2.257 7.302 1.485 4.491 6.342 5.096 9.822 5.485 4.925 0.5437 10.7 0.2343 14.69-1.322 5.14-1.998 8.176-5.644 9.359-8.942 0.6584-1.839 2.519-1.719 2.842-1.719 0.3225 0 2.183-0.1193 2.842 1.719 1.176 3.297 4.212 6.944 9.359 8.942 3.997 1.551 9.762 1.865 14.69 1.322 3.473-0.3845 8.338-0.9901 9.822-5.485 1.639-4.959 2.242-5.989 2.257-7.302 0 0 1.976-4.081 0.0669-5.345-4.396-2.911-8.559 0.1736-18.71 0.0233zm-36.78 16.93c-5.664 0.8398-14.67 0.6321-17.33-2.051-1.74-1.755-3.83-7.625-0.8398-10.82 3.178-3.39 27.94-4.447 30.04 0.716 1.659 4.062-4.602 11.07-11.88 12.15zm50.22-2.051c-2.66 2.683-11.66 2.891-17.33 2.051-7.276-1.078-13.54-8.089-11.88-12.15 2.11-5.163 26.87-4.106 30.04-0.716 2.99 3.187 0.9003 9.061-0.8398 10.82z" fill="#18819a"/><path d="m94.59 313.5c-2.312-6.979 5.305-8.051-2.149-14.42-2.912-14.45-16.01-21.95-31.94-23.21-14.62-5.602-29.32 1.712-40.81 9.248-4.427 3.057-9.02 11.01-10.72 13.58 12.03-4.253-14.81 12.65-0.7503 6.236-3.936 2.979-4.329 16.27-0.9018 6.541 6.474 5.857 7.554 12.86 14.35 17.4-1.617-10.56 19.56-23.27 24.19-18.68-6.183 5.846-4.745 11.32 2.109 3.509 4.518-4.492 14.74-8.674 4.681-1.086-7.202 4.551-7.296 8.607 0.9931 2.92 5.024-3.628 21.15-18.43 13.16-4.23-4.354 13.17 8.529-13.88 10.02 0.7863 2.999 7.675 4.409 12.51 4.736 20.52 2.303-7.739 6.996-14 13.03-19.12z" fill="#045"/><path d="m48.44 345.4c-0.215 1.041 0.6761 1.889 1.642 2.06 0.995 0.1753 6.801-0.0692 7.087-0.231 0.4225-0.2391-5.079 0.2316-4.946-0.8322 0.4796-3.822-0.1748-13.68-0.1748-13.68s-3.102 10.23-3.608 12.68z" fill="#7e6d63"/></g></svg>
