<svg xmlns="http://www.w3.org/2000/svg" version="1.1" viewBox="0 0 100 100"><g transform="translate(0 -270.5)"><g transform="translate(131.2 -320.1)"><path d="m-97.04 590.7c-14.69 0.5723-26.64 11.35-29.53 23.3-5.772 13.84-6.204 29.26-1.207 43.32 3.121-2.679 4.441-6.92 6.824-9.599 1.613 0.4062 3.353 0.1069 4.856-0.47 1.724 3.536 2.699 7.497 1.546 11.19 0.529 10.47 3.305 22.49 14.12 28.78 9.162 4.817 20.57 3.598 30.63 2.396 10.96-2.146 16.93-11.8 19.04-20.55 1.751-6.261 1.127-12.79 1.708-19.1 0.588-0.8131 0.2419-3.625 1.749-2.105 3.606 2.26 10.47 0.3882 9.703-3.989-0.07681-0.9588 2.099-0.2736 2.734-1.172 5.144-3.164 3.421-9.292 3.141-13.87-0.8895-10.71-3.421-22.66-13.43-30.01-11.07-7.434-25.92-6.556-39.14-7.286-4.243-0.3166-8.479-0.7797-12.74-0.8411z" fill="#fff"/><path d="m-82.08 603.7c-14.68-0.1993-28.25 9.578-31.54 22.03-1.956 6.369-0.9089 13.08 1.531 19.22 2.325 7.03 4.527 14.1 6.451 21.22 2.563 5.403 8.435 8.682 13.56 12.04 5.326 2.675 12.11 2.669 17.81 0.9617 3.885-1.52 6.99-4.197 10.29-6.492 3.37-2.657 5.978-6.154 6.473-10.18 2.141-8.009 5.051-15.85 7.364-23.81 2.922-12.36-4.225-25.99-17.12-31.76-4.547-2.109-9.681-3.227-14.83-3.226z" stroke="#b38e6e" stroke-width="3.126" fill="#d6a57c"/><path d="m-77.14 610.3c6.874-0.8889 13.21 2.976 16.83 7.86 6.456 7.907 8.333 17.93 14.75 25.83 1.001 2.118 5.076 1.888 3.14-0.7257-1.815-5.36-4.376-10.63-4.883-16.25 1.241-3.733 2.273 3.639 3.298 5.243 1.257 2.776 2.103 6.128 5.026 7.917 4.649 0.1747 2.608-5.569 2.99-8.192-0.332-9.751-2.631-19.84-9.164-27.91-8.213-6.709-19.94-7.713-30.62-7.888-5.161-0.1532-10.37-0.0523-15.43-1.037-11.02-1.327-23.22 3.665-27.53 13.01-2.797 5.965-5.683 11.98-6.829 18.41-1.378 6.765-1.492 13.74-0.1819 20.52 4.044-7.037 5.299-15 8.867-22.2 1.424-1.682-0.1901 2.938-0.3839 4.115-1.147 4.893-3.28 9.714-3.182 14.76 1.652 2.596 4.846-2.444 6.18-3.903 5.223-7.431 5.222-17.39 12.94-23.48 3.299-2.97 8.318-3.37 12.56-1.889 3.348 1.374 8.61 1.338 9.142-2.798-0.0642-1.248 1.41-1.331 2.468-1.388z" fill="#4d4d4d"/><path d="m-56.53 658.1c-1.534 0.5978-2.648 1.008-3.578 1.452-5.661 2.579-6.236 8.616-7.215 14.3-2.973-3.584-2.513-4.195-6.426-4.738-4.802-0.7174-6.401-1.032-8.155 0.5534-1.359-0.9429-1.854-1.445-5.137-0.9565-5.846 0.7891-6.136 0.6866-7.88 3.245-0.1248 0.2016-1.414 1.705-1.564 1.899-0.2848-1.36 0.025-1.404-0.7895-4.4-0.8594-3.098-1.224-5.541-3.468-7.963-2.169-2.06-6.885-3.604-9.194-4.134 0 2.6 0.3648 6.484 0.4347 6.983 0.8744 6.101 4.357 15.63 10.57 19.63 5.197 3.208 10.98 2.989 17.04 2.989 3.123 0 9.024 0.1469 12.62-1.045 4.882-1.291 8.265-4.936 10.19-8.264 3.358-5.613 5.202-11.23 5.202-20.29-1.774 0.4578-2.119 0.509-2.658 0.7379zm-25.54 19.67c-6.322-0.125-9.497-3.484-9.497-3.484 0.2548-1.893 3.433-1.978 5.526-2.07 8.384-0.1093 13.45-0.3963 13.81 2.07 0 0-3.852 3.672-9.835 3.484z" fill="#333"/><path fill="#c4b7c8" transform="matrix(.9750 -.2223 .2962 .9551 0 0)" stroke="#b38e6e" stroke-width="3.732" d="m-276.9 602.9a5.004 4.085 0 0 1 -3.583 3.917 5.004 4.085 0 0 1 -5.618 -1.693 5.004 4.085 0 0 1 0.3944 -4.878"/><ellipse rx="4.303" ry="3.69" cy="638.4" cx="-96.15" fill="#fff"/><path d="m-98.25 640.4c1.277 0.9617 3.221 0.8537 4.346-0.2491 1.122-1.095 0.9978-2.765-0.2778-3.727-1.278-0.9632-3.222-0.8541-4.344 0.2418-1.129 1.101-1 2.772 0.2766 3.734zm2.293-4.573c0.7159 0.0858 1.228 0.5612 1.144 1.061-0.08954 0.4978-0.7383 0.8287-1.457 0.7366-0.7196-0.0874-1.231-0.5622-1.149-1.059 0.08579-0.4993 0.7383-0.8287 1.462-0.7382z" fill="#483e37"/><path fill="#c4b7c8" transform="matrix(.9750 -.2223 .2962 .9551 0 0)" stroke="#b38e6e" stroke-width="3.732" d="m-252.8 608.9a5.004 4.085 0 0 1 -3.583 3.917 5.004 4.085 0 0 1 -5.618 -1.693 5.004 4.085 0 0 1 0.3944 -4.878"/><ellipse rx="4.303" ry="3.69" cy="638.7" cx="-70.9" fill="#fff"/><path d="m-72.99 640.8c1.277 0.9617 3.221 0.8537 4.346-0.2491 1.122-1.095 0.9978-2.765-0.2778-3.727-1.278-0.9632-3.222-0.8541-4.344 0.2418-1.129 1.101-1 2.772 0.2766 3.734zm2.293-4.573c0.7159 0.0858 1.228 0.5612 1.144 1.061-0.08954 0.4978-0.7383 0.8287-1.457 0.7366-0.7196-0.0874-1.231-0.5622-1.149-1.059 0.08579-0.4993 0.7383-0.8287 1.462-0.7383z" fill="#483e37"/><path d="m-50.77 636.1c-6.887-9.162-25.8 3.12-26.87-0.7219-0.2113-0.7704 0.2877-1.221 1.106-1.51 9.629-3.337 22.37-6.142 25.77 2.232z" fill="#1a1a1a"/><path d="m-110.5 636.7c5.896-7.844 22.08 2.671 23.01-0.618 0.1809-0.6596-0.2463-1.046-0.9465-1.293-8.243-2.857-19.15-5.258-22.06 1.911z" fill="#1a1a1a"/><path d="m-86.88 660.6c-0.2511 2.22 0.7897 4.031 1.918 4.395 1.162 0.374 7.944-0.1477 8.278-0.4929 0.4935-0.51-5.933 0.4942-5.777-1.775 0.5602-8.154-0.2042-29.18-0.2042-29.18s-3.624 21.83-4.214 27.06z" fill="#b38e6e"/></g></g></svg>
