<svg xmlns="http://www.w3.org/2000/svg" version="1.1" viewBox="0 0 100 100"><g transform="translate(0 -270.5)"><path d="m45.89 270.5c-13.76 0.2022-28.9 5.376-32.81 15.26-7.513 14.45-14.19 29.85-10.8 45.39 3.76 10.76-0.3276 21.71-2.224 32.45-0.5704 3.339 3.34 6.858 8.376 6.481 9.424 0.8497 18.94-0.047 28.24-1.145 2.099-6.102-6.232-10.74-6.272-16.63 7.002 4.373 16.75 9.124 26.56 6.522 4.331-1.133 8.037-3.127 11.69-5.058-0.6664 4.996-5.473 9.31-6.379 14.19 1.833 1.853 5.99 0.8174 8.628 1.718 8.412 0.9972 17.68 1.571 25.54-1.188 5.011-3.731 4.179-9.539 1.004-13.74-3.847-16.35 7.274-33.05-0.0641-49.27-2.755-7.106-2.56-15.01-8.461-21.43-8.468-10.39-27.24-13.28-43.02-13.55z" fill="#fff"/><path d="m89.19 319.4h-0.007c-0.009 0.024-6.477 18.47-11.8 24.18-4.186 4.489-18.75 13.25-26.32 13.26-7.572 0.01-22.17-8.722-26.38-13.2-5.347-5.695-11.91-24.12-11.91-24.15h-0.00066c-0.8422-2.228-1.294-4.567-1.299-6.979-0.0342-15.19 17.62-27.51 39.43-27.54 21.81-0.024 39.52 12.26 39.55 27.45 0.007 2.412-0.4341 4.751-1.266 6.981z" stroke="#8e6d5a" stroke-width="2.202" fill="#967967"/><g transform="matrix(.6582 0 0 .4603 -524.7 225.7)"><path fill="#c4b7c8" transform="matrix(.9761 -.2175 .3025 .9532 0 0)" stroke="#b4beb0" stroke-width="7.381" d="m802.5 397.9a9.995 7.999 0 0 1 -7.158 7.67 9.995 7.999 0 0 1 -11.22 -3.316 9.995 7.999 0 0 1 0.7879 -9.552"/><ellipse rx="8.605" ry="7.21" cy="206.6" cx="894.2" fill="#fff"/><path d="m890 210.5c2.555 1.879 6.44 1.668 8.69-0.4867 2.244-2.14 1.995-5.403-0.5555-7.283-2.556-1.882-6.443-1.669-8.688 0.4724-2.257 2.152-2 5.416 0.553 7.297zm4.586-8.936c1.432 0.1678 2.456 1.097 2.287 2.073-0.1791 0.9727-1.476 1.619-2.913 1.439-1.439-0.1707-2.461-1.099-2.298-2.07 0.1716-0.9757 1.476-1.619 2.924-1.443z" fill="#917c6f"/></g><path d="m50.52 344c-1.452-0.201-10.59-0.7576-10.59-0.7576s11.98 3.359 14.73 3.041c0.5134-0.044 5.16-3.08 5.16-3.08s-3.914 1.542-9.295 0.7966z" fill="#a52f3c"/><g transform="matrix(.6582 0 0 .4603 -551.3 225.7)"><path fill="#c4b7c8" transform="matrix(.9761 -.2175 .3025 .9532 0 0)" stroke="#b4beb0" stroke-width="7.381" d="m802.5 397.9a9.995 7.999 0 0 1 -7.158 7.67 9.995 7.999 0 0 1 -11.22 -3.316 9.995 7.999 0 0 1 0.7879 -9.552"/><ellipse rx="8.605" ry="7.21" cy="206.6" cx="894.2" fill="#fff"/><path d="m890 210.5c2.555 1.879 6.44 1.668 8.69-0.4867 2.244-2.14 1.995-5.403-0.5555-7.283-2.556-1.882-6.443-1.669-8.688 0.4724-2.257 2.152-2 5.416 0.553 7.297zm4.586-8.936c1.432 0.1678 2.456 1.097 2.287 2.073-0.1791 0.9727-1.476 1.619-2.913 1.439-1.439-0.1707-2.461-1.099-2.298-2.07 0.1716-0.9757 1.476-1.619 2.924-1.443z" fill="#917c6f"/></g><path d="m47.52 336.9c-0.2314 1.273 0.7276 2.311 1.767 2.52 1.071 0.2144 7.319-0.085 7.627-0.2826 0.4548-0.2924-5.467 0.2833-5.323-1.018 0.5162-4.675-0.1882-16.73-0.1882-16.73s-3.339 12.52-3.883 15.51z" fill="#8e6d5a"/><path opacity=".7590" d="m45.92 322.5c0 4.088-4.519 7.677-12.52 7.677-10.02 0-12.63-5.295-12.63-11.48l0.0305-0.4809c0.1651-2.599 2.996-4.232 6.439-4.232h12.44c3.345 0 6.072 1.614 6.133 4.144zm9.245 0c0 4.088 4.519 7.677 12.52 7.677 10.02 0 12.63-5.295 12.63-11.48l-0.031-0.4809c-0.1651-2.599-2.996-4.232-6.439-4.232h-12.44c-3.345 0-6.072 1.614-6.133 4.144z"/><path d="m84.75 315.3c0-2.188-27.54-4.306-29.56-0.092-0.1529 0.3191-0.269 0.4162-0.6726 0.4301-0.4892 0.014-2.024-0.1018-3.968-0.1018-1.889 0-3.418 0.1064-3.919 0.1018-0.4402-0.01-0.5625-0.097-0.7215-0.4301-2.018-4.213-29.56-2.09-29.56 0.092 0 1.332-0.2446 3.566 0.4892 3.737 1.272 0.296 1.81-0.3796 2.195 1.766 0.1895 1.059 1.443 0.9527 2.531 0.9527-1.944-6.872 2.788-6.969 5.748-7.247 6.934-0.6475 17.06-0.666 18.26 4.546 0.5381 2.34 0.1834 3.64-0.5014 5.813 0.6603-0.01 1.009-0.032 1.461-0.3469 1.453-2.353 1.397-4.245 0.9477-6.248 0.4953-0.3885 2.299-0.4394 3.069-0.4671 0.801 0.028 2.678 0.079 3.125 0.5133-0.69 2.087-0.2502 4.439 0.8866 6.202 0.4525 0.3145 0.801 0.3376 1.461 0.3469-0.6848-2.174-1.039-3.473-0.5014-5.813 1.205-5.212 11.32-5.193 18.26-4.546 2.966 0.2775 7.692 0.3746 5.748 7.247 1.088 0 2.342 0.1064 2.531-0.9527 0.3852-2.15 0.9294-1.47 2.195-1.766 0.746-0.1711 0.5075-2.405 0.5075-3.737z" fill="#37abc8"/><path d="m67.76 366.2s17.04 2.844 26.36 0.041c5.212-9.325-1.105-4.1-1.429-14.92-1.694-14.25 6.201-28.43 1.798-42.6-0.5516-1.258-1.28-2.465-2.165-3.594-0.9344-9.813-4.26-21.35-16.09-26.32-14.95-5.366-33.27-7.75-48.39-1.479-4.781 1.694-8.269 4.92-10.08 8.806-4.258 8.541-8.732 17.09-10.54 26.24-1.84 6.589-1.756 13.41 0.1924 19.98 2.441 7.33 0.1621 14.91-0.5542 22.31-0.928 6.975-3.397 4.569-1.503 11.9 10.54 2.05 27.36-0.1922 27.36-0.1922-0.2876-4.34-6.464-8.435-6.425-12.78-0.1303-9.293 3.134-18.51 1.518-27.83-1.155-4.963-2.534-10.11-0.4822-15.08 1.692-5.438 6.739-10.15 13.47-11.85 5.003-2.374 11.92-5.34 17.39-2.222 6.297 6.096 12.16 13.47 12.08 21.69 0.6698 5.568-0.8788 11.24 0.444 16.77 2.446 4.917 2.519-3.959 2.928-5.984 0.2252-5.356 0.7948-10.72 0.8329-16.07-0.7642-5.365-5.372-9.609-9.469-13.63 6.732 5.681 15.63 11.91 14.76 20.52-0.4711 2.947-1.633 5.795-2.086 8.744 3.411 8.942-8.794 9.049-3.98 25.85" fill="#333"/></g></svg>
