<svg xmlns="http://www.w3.org/2000/svg" version="1.1" viewBox="0 0 100 100"><g transform="translate(0 -270.5)"><path d="m51.6 270.6c-18.3-0.3907-37.95 7.085-45.7 21.18-7.667 12.16-8.235 27.65 0.4575 39.56 10.2 7.383 7.29 21.04 18.19 28.04 1.154 0.6205 2.839 0.2024 2.955 1.7 8.206 10.03 27.52 12.95 38.81 4.732 3.849-2.336 6.292-5.99 9.532-8.636 6.542-0.1711 9.788-5.948 10.1-10.62 0.605-4.403 1.993-9.007 6.336-12 7.199-8.688 8.604-19.83 7.238-30.03-1.915-13.43-11.68-27.29-28.13-31.67-6.344-1.786-13.11-2.39-19.8-2.271zm-24.35 47.68c-0.2621 0.112 0.087-0.2794 0 0z" fill="#fff"/><path d="m73.94 350.7c-2.402 4.187-9.804 11.98-15.1 13.79-3.929 1.34-13.11 1.34-17.04 0-5.295-1.806-12.7-9.604-15.1-13.79-2.793-4.866-7.454-20.59-7.46-20.61-0.6864-2.116-1.054-4.336-1.058-6.625-0.027-14.42 14.34-26.12 32.09-26.14 17.75-0.023 32.16 11.64 32.19 26.06 0.005 2.29-0.3532 4.511-1.031 6.628-0.01 0.022-4.685 15.81-7.488 20.69z" stroke="#d2d2d2" stroke-width="1.935" fill="#f3ebe6"/><path d="m27.19 354.8c-8.356-8.153-5.837-20.16-16.81-27.33-10.25-17.22-2.438-41.63 20.94-49.99 16.99-4.72 40.35-4.983 53.07 6.373 12.84 13.67 14.64 33.43 4.14 48.3-9.389 3.405-5.067 22.54-13.25 19.86 0.2702-6.805 8.269-20.88 4.107-22.49 2.631-8.032-5.128-15.69-11.8-21.79-0.001-1.336-1.451 12.52-7.268 3.669-4.574-3.377-13.51-18.87-8.37-6.003 0.6191 12.11-12.51-13.02-12.43 0.5279-2.568 4.588 8.611 24.04-1.39 11.48-6.186-4.052 1.422-22.68-7.673-10.47-4.931 6.211-0.8097 18.62-11.83 14.89-2.18 11.46 13.25 18.88 7.038 30.34 0.4617 0.892 1.01 1.755 1.529 2.627z" fill="#fc0"/><g transform="matrix(1.874 -.3412 .4519 1.154 -26.39 238.6)"><path d="m17.2 79.26a3.276 3.055 0 0 1 -2.346 2.93 3.276 3.055 0 0 1 -3.678 -1.267 3.276 3.055 0 0 1 0.2582 -3.649" stroke="#deaf8f" stroke-width="2.612" fill="#e3dbdb"/><circle cy="79.24" cx="14" r="2.793" fill="#fff"/><path d="m15.7 78.29c-0.5442-0.9596-1.762-1.296-2.726-0.7475-0.9597 0.5438-1.298 1.764-0.7554 2.724 0.5442 0.9608 1.763 1.297 2.723 0.7524 0.9655-0.5468 1.302-1.768 0.758-2.728zm-2.542 2.781c-0.4175-0.2139-0.6135-0.6628-0.4376-1.002 0.1785-0.3368 0.6584-0.4352 1.076-0.2164 0.4194 0.2157 0.6148 0.6641 0.4414 1.002-0.1766 0.3387-0.6584 0.4352-1.08 0.2164z" fill="#6c5d53"/></g><g transform="matrix(1.874 -.3412 .4519 1.154 3.624 238.3)"><path d="m17.2 79.26a3.276 3.055 0 0 1 -2.346 2.93 3.276 3.055 0 0 1 -3.678 -1.267 3.276 3.055 0 0 1 0.2582 -3.649" stroke="#deaf8f" stroke-width="2.612" fill="#e3dbdb"/><circle cy="79.24" cx="14" r="2.793" fill="#fff"/><path d="m15.7 78.29c-0.5442-0.9596-1.762-1.296-2.726-0.7475-0.9597 0.5438-1.298 1.764-0.7554 2.724 0.5442 0.9608 1.763 1.297 2.723 0.7524 0.9655-0.5468 1.302-1.768 0.758-2.728zm-2.542 2.781c-0.4175-0.2139-0.6135-0.6628-0.4376-1.002 0.1785-0.3368 0.6584-0.4352 1.076-0.2164 0.4194 0.2157 0.6148 0.6641 0.4414 1.002-0.1766 0.3387-0.6584 0.4352-1.08 0.2164z" fill="#6c5d53"/></g><path opacity=".7590" d="m46.59 326.1c0 3.881-4.056 7.288-11.24 7.288-8.989 0-11.33-5.027-11.33-10.9l0.0273-0.4566c0.1482-2.467 2.689-4.017 5.779-4.017h11.17c3.002 0 5.45 1.532 5.505 3.934zm8.298 0c0 3.881 4.056 7.288 11.24 7.288 8.989 0 11.33-5.027 11.33-10.9l-0.0276-0.4566c-0.1482-2.467-2.689-4.017-5.779-4.017h-11.17c-3.002 0-5.45 1.532-5.505 3.934z"/><path d="m81.44 319.2c0-2.077-24.72-4.087-26.53-0.088-0.1372 0.3029-0.2415 0.3952-0.6037 0.4083-0.439 0.013-1.817-0.097-3.562-0.097-1.696 0-3.068 0.101-3.518 0.097-0.3952 0-0.5049-0.092-0.6476-0.4083-1.811-4-26.53-1.984-26.53 0.088 0 1.264-0.2195 3.385 0.439 3.548 1.142 0.281 1.624-0.3604 1.97 1.677 0.1701 1.005 1.295 0.9044 2.272 0.9044-1.745-6.524 2.503-6.616 5.159-6.88 6.223-0.6147 15.31-0.6323 16.39 4.316 0.483 2.222 0.1646 3.455-0.45 5.519 0.5927-0.01 0.9055-0.031 1.312-0.3293 1.304-2.234 1.254-4.03 0.8506-5.931 0.4445-0.3688 2.064-0.4171 2.755-0.4434 0.7189 0.026 2.404 0.075 2.804 0.4873-0.6193 1.981-0.2245 4.214 0.7958 5.888 0.4061 0.2986 0.7189 0.3205 1.312 0.3293-0.6147-2.064-0.933-3.297-0.45-5.519 1.081-4.948 10.16-4.93 16.39-4.316 2.662 0.2634 6.904 0.3556 5.159 6.88 0.9769 0 2.102 0.101 2.272-0.9044 0.3457-2.042 0.8342-1.396 1.97-1.677 0.6696-0.1624 0.4555-2.283 0.4555-3.548z" fill="#d40055"/><path d="m45.94 341.2c-0.2648 1.096 0.8326 1.99 2.022 2.17 1.225 0.1847 8.375-0.073 8.727-0.2433 0.5204-0.2518-6.255 0.244-6.091-0.8765 0.5906-4.026-0.2153-14.41-0.2153-14.41s-3.82 10.78-4.443 13.36z" fill="#c8c8c8"/><path d="m43.78 351c1.635 1.529 3.692 0.8914 5.466 0.8974 1.617 0.01 3.552 0.9048 5.233 0.7098 2.99 0.1053 6.812-4.208 6.52-3.597-0.1438 0.3014-3.242 1.876-5.75 1.934-1.596 0.039-3.461-0.8345-5.034-0.8599-1.627-0.028-3.791 0.4578-5.525-0.5113-7.62-0.4723-2.479-0.171-0.9093 1.426z" fill="#d4737e"/></g></svg>
