<svg xmlns="http://www.w3.org/2000/svg" version="1.1" viewBox="0 0 100 100"><g transform="translate(0 -270.5)"><path d="m45.39 270.5c-15.24 1.438-26.77 13.46-31.33 26.21-1.517 3.598-2.257 7.691-3.49 11.16-13.57 0.6856-13.62 20.13-2.738 24.71 3.929 1.815 8.619 1.418 12.75 0.4356 3.501 9.621 4.698 20.92 13.6 27.98 5.227 5.173 12.14 10.16 20.32 9.424 8.131-0.1922 15.15-4.856 20.01-10.52 3.075-2.882 5.485-6.456 7.411-9.952 8.379-0.9307 15.59-7.608 17.04-15.18 0.5147-1.99-0.123-4.204-0.3361-6.018 1.775-1.924 1.902-5.098-0.0334-6.969 1.379-6.797 0.9089-14.97-4.582-20.18-1.808-0.4782-2.835-1.601-2.967-3.323-3.027-7.92-6.834-17.1-15.87-20.68-6.199-1.918-12.95-2.176-18.8-5.053-3.521-1.171-7.207-2.138-10.99-2.038z" fill="#fff"/><path d="m54.26 288.6c-18.04 0.0256-32.69 13.39-32.66 29.85 0.005 2.614 0.3777 5.15 1.074 7.565h0.00055c0.008 0.0265 5.521 15.21 6.948 21.32 1.277 5.467 6.953 9.901 9.508 12.32 2.935 2.778 6.603 6.889 15.13 6.853 8.525 0.0363 12.19-4.074 15.13-6.853 2.555-2.417 8.231-6.851 9.508-12.32 1.427-6.107 6.941-21.29 6.947-21.32h0.001c0.6964-2.415 1.07-4.95 1.074-7.565 0.0279-16.46-14.62-29.83-32.66-29.85z" stroke="#ba967f" stroke-width="2.085" fill="#caa891"/><path d="m92.77 327.4c4.032 0.7576 6.336-6.345 0.8576-2.548 4.834-5.625 1.437-24.37-3.483-20.73-3.24-6.053-6.7-24.17-20.39-24.77-10.3-0.862-20.03-9.316-30.53-4.181-15.22 5.302-22.94 21.79-24.73 36.84-12.6-6.431-13.82 18.05-0.9844 17.73 14.23 1.676 21.55-13.32 25.82-24.4 3.366-14.41 22.1-18.68 29.61-5.164 6.646 9.155 0.9997 23.48 11.4 30.76 6.868 2.107 6.076 6.556 2.802 15.08 9.415-1.938 17.65-14.93 9.624-18.61z" fill="#442178"/><path fill="#333" stroke="#7b5e6c" stroke-width="3.646" d="m48.76 321.8a5.525 3.532 0 0 1 -3.957 3.386 5.525 3.532 0 0 1 -6.203 -1.464 5.525 3.532 0 0 1 0.4355 -4.217"/><ellipse rx="4.71" transform="scale(-1,1)" ry="3.228" cy="321.8" cx="-43.13" fill="#fff"/><path d="m40.26 323c0.9178 1.109 2.972 1.498 4.597 0.864 1.619-0.6285 2.19-2.039 1.274-3.148-0.9178-1.111-2.973-1.499-4.592-0.8697-1.628 0.6321-2.195 2.044-1.278 3.154zm4.286-3.214c0.7041 0.2472 1.035 0.7662 0.738 1.158-0.301 0.3893-1.11 0.503-1.814 0.2501-0.7073-0.2493-1.037-0.7676-0.7444-1.158 0.2978-0.3915 1.11-0.503 1.821-0.2501z" fill="#67536c"/><path fill="#333" transform="scale(-1,1)" stroke="#7b5e6c" stroke-width="3.646" d="m-57.81 323.7a5.525 3.532 0 0 1 -3.957 3.386 5.525 3.532 0 0 1 -6.203 -1.464 5.525 3.532 0 0 1 0.4355 -4.217"/><ellipse rx="4.71" ry="3.228" cy="323.7" cx="63.44" fill="#fff"/><path d="m66.31 324.9c-0.9178 1.109-2.972 1.498-4.597 0.864-1.619-0.6285-2.19-2.039-1.274-3.148 0.9178-1.111 2.973-1.499 4.592-0.8697 1.628 0.6321 2.195 2.044 1.278 3.154zm-4.286-3.214c-0.7041 0.2472-1.035 0.7662-0.738 1.158 0.301 0.3893 1.11 0.503 1.814 0.2501 0.7073-0.2493 1.037-0.7676 0.7444-1.158-0.2978-0.3915-1.11-0.503-1.821-0.2501z" fill="#67536c"/><path d="m46.26 354.2c-0.3829-0.4445-0.0418-5.325 1.468-6.692 1.897-1.777 4.185-0.8031 5.935-0.5442 1.596 0.2379 3.672-0.6632 5.293-0.1523 1.835 0.5785 7.256 3.727 7.082 4.58-0.0857 0.4205-4.17-1.809-6.633-2.264-1.567-0.2911-3.569 0.5839-5.125 0.3809-1.61-0.208-3.654-1.176-5.545-0.1544-1.715 0.9263-2.04 5.353-2.477 4.846z" fill="#d4737e"/><path d="m73.04 313.9c-3.279 3.31-6.426 4.855-15.11 8.802-0.281 0.1418-0.4758 0.267-0.6638 0.327-0.9075 0.2562-1.902-0.4361-1.979-1.301-0.3452-3.283 14.09-6.104 17.75-7.828z" fill="#4d4d4d"/><path d="m35.74 313.2c3.228 3.128 6.327 4.588 14.88 8.319 0.2766 0.134 0.4684 0.2524 0.6535 0.309 0.8935 0.2421 1.872-0.4122 1.949-1.23 0.3398-3.103-13.87-5.769-17.48-7.398z" fill="#4d4d4d"/><path d="m51.48 338.5c-0.1581 0.9328 0.497 1.693 1.207 1.846 0.7314 0.1571 5-0.062 5.21-0.207 0.3106-0.2142-3.734 0.2076-3.636-0.7458 0.3526-3.425-0.1285-12.26-0.1285-12.26s-2.281 9.172-2.652 11.36z" fill="#ba967f"/></g></svg>
