<svg xmlns="http://www.w3.org/2000/svg" version="1.1" viewBox="0 0 100 100"><g transform="translate(0 -270.5)"><g transform="translate(610.2 88.78)"><path d="m-561.2 181.8c-17.32-0.2103-36.07 6.215-43.12 18.84-9.816 14.8-6.344 32.44 1.889 47.14 2.602 9.326 4.224 20.13 14.88 26.44 17.29 12.09 48.72 9.364 60.86-6.23 5.678-6.839 6.004-15.21 9.03-22.72 2.792-3.164 6.348-6.236 6.284-10.3 2.465-14.12 1.479-29.87-10.59-41.53-9.094-9.288-24.72-12.06-39.23-11.65z" fill="#fff"/><path d="m-560.5 190.7c-18.51-0.2668-35.81 10.08-40.47 23.58-2.821 7.121-1.63 14.7 1.329 21.66 2.499 7.027 4.4 14.17 5.866 21.35 3.143 9.433 13.71 17.38 26.63 18.67 12.18 1.597 25.98-1.21 33.44-9.072 5.21-4.942 6.966-11.23 8.318-17.32 1.893-7.448 4.886-14.72 6.635-22.18 2.624-13.98-8.08-28.74-25.36-34.17-5.153-1.685-10.77-2.549-16.38-2.537z" stroke="#8f7b68" stroke-width="3.759" fill="#a89583"/><path d="m-597.4 244c-8.49-13.39-10.55-31.34-0.4516-44.51 7.559-9.563 21.03-14.23 33.9-13.78 12.91-1.24 27.5 0.5243 37.12 8.973 10.82 10.62 12.38 26.3 9.338 39.82 0.0541 3.85-5.771 9.341-6.06 2.616 1.037-8.843-1.63-17.6-2.186-26.42-0.7373-2.736-4.963-8.308-7.197-6.359 3.82 4.567-2.826 7.964-7.556 5.641-7.751-0.2399-14.35-4.497-20.42-8.206-7.494-1.051-11.79 6.027-18.11 8.2-4.411 0.4243-11.52 6.101-14.13 1.604 1.854-3.937-3.022-3.083-2.663 0.4015-1.522 7.372 0.3658 14.87-0.6297 22.3-0.1952 3.25-0.5018 6.495-0.9596 9.724z" fill="#540"/><path d="m-582.2 259.5c-0.5365-0.3601 2.198-3.681 5.647-4.414 4.36-0.9625 8.284 0.0284 11.49 0.4507 2.926 0.3863 7.251 0.0535 10.11 0.6318 3.235 0.6547 12.17 3.582 11.48 4.147-0.3423 0.2783-7.139-1.829-11.62-2.486-2.848-0.419-7.021-0.0939-9.887-0.4507-2.966-0.3678-6.43-1.32-10.45-0.8784-3.651 0.4005-6.161 3.41-6.772 3z" fill="#d4737e"/><path d="m-531.1 262.2c-4.306-1.849-4.117-2.818-18.89-5.277-5.312-0.8886-7.773-1.31-10.58-4.164-6.034 6.139-15.65 2.459-29.46 9.424 1.124-5.753 7.122-10.25 18.34-13.73 5.229-1.624 6.755-0.4398 11.12 0.0898 2.058-0.2244 4.294-0.8975 6.909-0.8078 5.111 0.0359 20.8 5.78 22.56 14.47z" fill="#6c5d53"/><g transform="matrix(1.994 0 0 1.105 -607.4 140.6)"><path fill="#e3dbdb" stroke="#deaf8f" stroke-width="2.612" d="m17.2 79.26a3.276 3.055 0 0 1 -2.346 2.93 3.276 3.055 0 0 1 -3.678 -1.267 3.276 3.055 0 0 1 0.2582 -3.649"/><circle cx="14" cy="79.24" r="2.793" fill="#fff"/><path d="m15.7 78.29c-0.5442-0.9596-1.762-1.296-2.726-0.7475-0.9597 0.5438-1.298 1.764-0.7554 2.724 0.5442 0.9608 1.763 1.297 2.723 0.7524 0.9655-0.5468 1.302-1.768 0.758-2.728zm-2.542 2.781c-0.4175-0.2139-0.6135-0.6628-0.4376-1.002 0.1785-0.3368 0.6584-0.4352 1.076-0.2164 0.4194 0.2157 0.6148 0.6641 0.4414 1.002-0.1766 0.3387-0.6584 0.4352-1.08 0.2164z" fill="#6c5d53"/></g><g transform="matrix(1.994 0 0 1.105 -569.4 140.3)"><path fill="#e3dbdb" stroke="#deaf8f" stroke-width="2.612" d="m17.2 79.26a3.276 3.055 0 0 1 -2.346 2.93 3.276 3.055 0 0 1 -3.678 -1.267 3.276 3.055 0 0 1 0.2582 -3.649"/><circle cx="14" cy="79.24" r="2.793" fill="#fff"/><path d="m15.7 78.29c-0.5442-0.9596-1.762-1.296-2.726-0.7475-0.9597 0.5438-1.298 1.764-0.7554 2.724 0.5442 0.9608 1.763 1.297 2.723 0.7524 0.9655-0.5468 1.302-1.768 0.758-2.728zm-2.542 2.781c-0.4175-0.2139-0.6135-0.6628-0.4376-1.002 0.1785-0.3368 0.6584-0.4352 1.076-0.2164 0.4194 0.2157 0.6148 0.6641 0.4414 1.002-0.1766 0.3387-0.6584 0.4352-1.08 0.2164z" fill="#6c5d53"/></g><path opacity=".5960" d="m-528.6 236.9c-1.717 1.214-4.533 1.678-9.866 1.678-7.116 0-11.77-0.6016-14.85-5.249-2.394-3.61-3.361-7.485-2.197-8.82 1.608-1.844 6.235-3.097 11.4-3.466 8.971 3.235 15.27 9.72 15.51 15.86zm-52.1-15.97c-5.559 0.1159-10.98 1.297-13.29 3.891-1.586 1.772-1.23 6.927-0.1601 9.35 1.455 3.306 3.689 4.405 11.95 4.405 7.116 0 11.77-0.6016 14.85-5.249 0.3056-0.4637 0.5893-0.9328 0.8513-1.402-2.35-4.493-7.538-8.644-14.19-11zm54.12 13.25c-0.5166 1.17-1.135 2.059-2.081 2.727-0.2401-6.138-6.541-12.62-15.52-15.86 6.817-0.4913 14.54 0.5464 17.44 3.787 1.586 1.772 1.23 6.922 0.1601 9.35zm-38.63-9.671c-2.03-2.335-8.891-3.715-15.55-3.571 6.665 2.346 11.84 6.497 14.2 11 1.753-3.168 2.357-6.259 1.346-7.424z" fill="#2b0011"/><path d="m-522.6 222.2c-7.155-3.345-26.29-3.869-33.1 0.0828-0.582 0.2594-3.078-0.2926-4.576-0.2926-1.419 0-3.943 0.5796-4.576 0.2926-4.858-2.374-36.72-4.796-33.36 2.721 0.6621 0.2263 1.099 0.5409 1.062 1.093-0.2328 3.102 0.8949 7.131 1.39 8.241 0.633 1.43 1.775 4.09 6.759 4.747 4.242 0.5575 11.95 0.8169 15.96-0.0938 7.268-1.645 10.33-11.59 10.46-14.42l0.007 0.0111c0.291-0.9936 4.234-0.9936 4.533 0l0.007-0.0111c0.1237 2.832 3.256 12.78 10.52 14.42 4.009 0.9108 11.72 0.6513 15.96 0.0938 4.984-0.6568 6.126-3.317 6.759-4.747 0.4948-1.115 1.622-5.139 1.397-8.241-0.0363-0.552 0.4074-0.8666 1.062-1.093 0.7246-1.158 0.7309-2.336-0.2695-2.804zm-51.21 15.32c-3.681 0.8335-10.42 0.8887-14.34 0.3698-3.303-0.436-4.686-1.799-5.602-3.88-1.077-2.429-1.361-7.457 0.1164-9.108 4.918-5.509 24.64-4.443 28.23-0.3202 1.601 1.849-1.506 11.38-8.403 12.94zm46.99-3.505c-0.9168 2.081-2.306 3.444-5.602 3.88-3.922 0.5188-10.66 0.4637-14.34-0.3698-6.897-1.562-10-11.09-8.403-12.94 3.587-4.123 23.31-5.189 28.23 0.3202 1.477 1.645 1.193 6.679 0.1164 9.108z" fill="#f06"/><path d="m-564.7 241.3c-0.3179 2.167 0.9997 3.933 2.428 4.288 1.471 0.3649 10.06-0.1441 10.48-0.4809 0.6248-0.4976-7.511 0.4822-7.313-1.732 0.7091-7.956-1.712-16.11-1.712-16.11s-3.134 8.94-3.882 14.03z" fill="#8f7b68"/></g></g></svg>
