<svg xmlns="http://www.w3.org/2000/svg" version="1.1" viewBox="0 0 100 100"><g transform="translate(0 -270.5)"><path d="m50.3 270.6c-10.44 1.027-21.39 2.151-30.61 6.591-16.28 9.734-22.19 27.99-18.75 43.8 1.533 6.602 4.461 13.29 9.587 18.51 3.564 0.8447 2.728 4.807 4.851 6.819 6.027 9.887 15.46 18.88 27.89 23.43 10.53 2.743 21.9-1.639 28.54-8.459 8.199-6.741 14.48-15.15 17.56-24.38 5.79-3.181 6.42-9.484 9.09-14.3 7.018-21.61-10.7-46.96-37.74-51.26-3.42-0.5926-6.924-0.8455-10.42-0.7642z" fill="#fff"/><path d="m78.94 346.6c-4.458 5.743-14.97 16.06-22.36 18.3-2.903 0.8804-9.469 0.8804-12.37 0-7.394-2.242-17.91-12.56-22.36-18.3-4.382-5.644-9.637-25.57-9.644-25.6-0.8435-2.627-1.295-5.384-1.3-8.228-0.0343-17.91 17.62-32.44 39.43-32.47 21.82-0.0278 39.52 14.46 39.56 32.36 0.006 2.844-0.4341 5.602-1.267 8.232-0.0109 0.0278-5.28 20.03-9.677 25.7z" stroke="#dbb497" stroke-width="2.391" fill="#f3c9ad"/><path d="m14.23 335.6c-2.776-9.283-2.884-20.48 6.346-27.56 3.401-4.854 7.809-11.25 15.7-6.938 14.53 2.207 30.29 3.054 42.94 9.824 9.116 4.619 10.01 14.2 7.921 21.91 0.8194 0.2756 5.097-8.229 6.237-11.75 4.76-13.45-2.079-28.54-14.36-38.03-11.11-8.13-27.96-10.98-41.98-6.35-8.141-0.0145-15.95 3.026-20.52 8.52-13.21 13.45-14.7 33.2-4.099 48.01 1.034 0.0142 0.5007 2.816 1.821 2.361z" fill="#6c6753"/><g transform="matrix(1.263 0 0 1.042 19.36 -48.4)"><path d="m19.05 355.8a5.476 3.921 0 0 1 -3.922 3.759 5.476 3.921 0 0 1 -6.148 -1.625 5.476 3.921 0 0 1 0.4317 -4.682" stroke="#deaf8f" stroke-width="3.825" fill="#e3dbdb"/><ellipse rx="4.668" ry="3.583" cy="355.8" cx="13.7" fill="#fff"/><path d="m16.54 354.6c-0.9098-1.231-2.946-1.663-4.557-0.9591-1.604 0.6977-2.17 2.263-1.263 3.495 0.9097 1.233 2.947 1.664 4.552 0.9654 1.614-0.7017 2.176-2.269 1.267-3.501zm-4.249 3.568c-0.6979-0.2744-1.026-0.8505-0.7315-1.286 0.2984-0.4322 1.101-0.5584 1.798-0.2776 0.7011 0.2768 1.028 0.8521 0.7379 1.286-0.2952 0.4346-1.101 0.5584-1.805 0.2776z" fill="#6c5d53"/></g><g transform="matrix(-1.263 0 0 1.042 80.95 -47.49)"><path d="m19.05 355.8a5.476 3.921 0 0 1 -3.922 3.759 5.476 3.921 0 0 1 -6.148 -1.625 5.476 3.921 0 0 1 0.4317 -4.682" stroke="#deaf8f" stroke-width="3.825" fill="#e3dbdb"/><ellipse rx="4.668" ry="3.583" cy="355.8" cx="13.7" fill="#fff"/><path d="m16.54 354.6c-0.9098-1.231-2.946-1.663-4.557-0.9591-1.604 0.6977-2.17 2.263-1.263 3.495 0.9097 1.233 2.947 1.664 4.552 0.9654 1.614-0.7017 2.176-2.269 1.267-3.501zm-4.249 3.568c-0.6979-0.2744-1.026-0.8505-0.7315-1.286 0.2984-0.4322 1.101-0.5584 1.798-0.2776 0.7011 0.2768 1.028 0.8521 0.7379 1.286-0.2952 0.4346-1.101 0.5584-1.805 0.2776z" fill="#6c5d53"/></g><path d="m61.56 348.8c-0.591 0.0158-1.199 0.0396-1.784 0.0807-0.6735 0.0443-1.282 0.1092-1.844 0.1946-1.032 0.1566-2.061 0.3686-3.143 0.5837-1.704 0.3417-3.312 0.6201-5.108 0.6185-0.2878 0-0.5776-0.0111-0.8673-0.0269-1.466-0.087-2.919-0.3432-4.204-0.6517-1.33-0.3227-2.596-0.6343-3.874-0.7783-0.2456-0.0269-0.497-0.0458-0.7426-0.0664-0.7848-0.0569-1.604-0.0822-2.408-0.0996 3.327 2.208 7.921 3.224 12.41 3.228 4.626 0.002 8.209-1.333 11.56-3.083z" fill="#de8787"/><path d="m47.58 340.9c-0.1911 1.361 0.601 2.471 1.46 2.695 0.8845 0.2293 6.046-0.0906 6.3-0.3022 0.3756-0.3127-4.516 0.303-4.397-1.088 0.4264-4.999-0.1554-17.89-0.1554-17.89s-2.758 13.39-3.208 16.59z" fill="#dbb497"/><path d="m24.25 316.7c6.552-5.412 11.03-2.558 20.14-1.119 0.5562 0.0879 4.16 0.1829 3.495 1.231-0.3179 0.5014-1.34 0.4417-1.911 0.433-9.01-0.1389-13.39-5.424-21.72-0.5443z" fill="#4d4d4d"/><path d="m76.61 317c-6.552-5.412-11.03-2.558-20.14-1.119-0.5562 0.0879-4.16 0.1829-3.495 1.231 0.3179 0.5014 1.34 0.4417 1.911 0.433 9.01-0.1389 13.39-5.424 21.72-0.5443z" fill="#4d4d4d"/></g></svg>
