<svg xmlns="http://www.w3.org/2000/svg" version="1.1" viewBox="0 0 100 100"><g transform="translate(0 -270.5)"><path d="m38.51 270.6c-16.02 1.499-28.26 13.1-34.26 25.46-8.546 17.64-4.075 39.79 12.26 52.91 3.955 3.387 8.54 6.321 11.06 10.72 6.466 8.616 19.67 13.38 30.96 9.572 9.376-2.945 16.38-10.55 18.44-18.97 1.925-2.031 3.638-4.254 5.625-6.212 2.691 1.875 6.853 0.3892 7.735-2.394 2.044-2.888 3.138-6.328 4.591-9.319 3.297 0.3779 5.875-2.808 4.851-5.458-0.2722-14.1-0.8749-29.59-11.44-41.12-7.409-8.267-18.77-14.71-31.04-14.83-4.702 0.8991-9.488 1.03-14.16-0.067-1.528-0.2039-3.074-0.3354-4.621-0.281z" fill="#fff"/><path d="m50.13 285.3c-17.26-0.0273-31.22 13.95-31.25 31.22-0.005 2.743 0.3434 5.404 1.003 7.94h0.002c0.006 0.0273 4.54 18.15 7.893 27.45 2.863 7.951 11.82 15.12 22.35 15.12s19.49-7.167 22.35-15.12c3.352-9.307 7.886-27.43 7.892-27.45h0.002c0.6586-2.537 1.007-5.197 1.002-7.94-0.0262-17.27-13.99-31.25-31.25-31.22z" stroke="#dbb497" stroke-width="1.566" fill="#f3c9ad"/><path d="m90.52 294.7c-6.38-10.9-18.73-20.1-33.24-20.7-7.613 3.041-15.82-2.028-23.51 0.7118-13.8 3.803-23.11 15.07-27.49 26.64-5.39 14.6-1.412 31.58 10.65 42.83 3.913 3.922 8.466 7.34 13.39 10.26-4.464-6.422-10.54-13.5-8.475-21.47 3.157-9.981 8.888-20.18 19.49-25.59 4.756-3.204 7.874-7.783 11.29-12 4.817 9.737 15.03 16.45 19.98 26.12 1.309 5.654-1.249 11.18-2.069 16.73 1.619-1.089 2.908-7.178 4.403-5.68-0.11 6.574-2.96 12.8-6.029 18.7 7.148-3.495 10.76-10.26 15.9-15.51-1.175 2.087-0.106 9.243 2.311 3.978 3.369-4.704 4.382-10.28 6.456-15.44-0.4647 1.993 3.137 7.808 2.461 2.661-0.2567-10.84-0.5842-22.04-5.528-32.18z" fill="#803300"/><path d="m46.34 341.9c-0.2504 2.782 0.7874 5.049 1.912 5.506 1.159 0.4685 7.92-0.185 8.253-0.6174 0.4921-0.6389-5.916 0.619-5.76-2.224 0.5585-10.21-1.348-20.68-1.348-20.68s-2.468 11.48-3.058 18.02z" fill="#dbb497"/><path d="m45.38 353.7c1.742 1.369 3.496 0.4809 5.103 0.2815 1.465-0.1832 3.372 0.5108 4.861 0.1173 2.726-0.2391 5.449-5.078 5.289-4.421-0.0787 0.3238-2.615 2.287-4.876 2.638-1.439 0.2242-3.277-0.4497-4.706-0.2933-1.478 0.1602-3.355 0.9058-5.091 0.1189-6.981 0.4013-2.274 0.1129-0.5795 1.559z" fill="#bc6759"/><path fill="#dbb497" transform="matrix(.9808 -.1950 .3350 .9422 0 0)" stroke="#deb393" stroke-width="3.554" d="m-71.24 328a5.053 3.669 0 0 1 -3.619 3.518 5.053 3.669 0 0 1 -5.673 -1.521 5.053 3.669 0 0 1 0.3983 -4.381"/><ellipse rx="4.372" ry="3.269" cy="323.7" cx="35.18" fill="#fff"/><path d="m33.05 325.5c1.298 0.852 3.272 0.7563 4.415-0.2206 1.14-0.97 1.014-2.449-0.2822-3.302-1.298-0.8534-3.273-0.7567-4.413 0.2142-1.147 0.9756-1.016 2.455 0.2809 3.308zm2.33-4.051c0.7272 0.076 1.248 0.4972 1.162 0.9401-0.0908 0.441-0.75 0.7342-1.48 0.6526-0.731-0.0774-1.25-0.4981-1.168-0.9386 0.087-0.4424 0.75-0.7342 1.485-0.6541z" fill="#2d1650"/><path fill="#dbb497" transform="matrix(.9808 -.1950 .3350 .9422 0 0)" stroke="#deb393" stroke-width="3.554" d="m-47.17 330.7a5.053 3.669 0 0 1 -3.619 3.518 5.053 3.669 0 0 1 -5.673 -1.521 5.053 3.669 0 0 1 0.3983 -4.381"/><ellipse rx="4.372" ry="3.269" cy="321.6" cx="59.71" fill="#fff"/><path d="m57.58 323.4c1.298 0.852 3.272 0.7563 4.415-0.2206 1.14-0.97 1.014-2.449-0.2822-3.302-1.298-0.8534-3.273-0.7567-4.413 0.2142-1.147 0.9756-1.016 2.455 0.2809 3.308zm2.33-4.051c0.7272 0.076 1.248 0.4972 1.162 0.94-0.0908 0.441-0.75 0.7342-1.48 0.6526-0.731-0.0774-1.25-0.4981-1.168-0.9386 0.0869-0.4424 0.75-0.7342 1.485-0.6541z" fill="#2d1650"/><path d="m24.53 315.8c19.29-4.924 23.67 5.149 19.67 2.015-4.16-3.256-13.76-2.967-19.67-2.015z" fill="#4d4d4d"/><path d="m72.65 314.2c-19.29-4.924-23.67 5.149-19.67 2.015 4.16-3.256 13.76-2.967 19.67-2.015z" fill="#4d4d4d"/></g></svg>
