<svg xmlns="http://www.w3.org/2000/svg" version="1.1" viewBox="0 0 100 100"><g transform="translate(0 -270.5)"><g transform="translate(378.9 326.2)"><path d="m-308.1-55.62c-16.71 5.556-35.1-3.273-52.12 1.445-8.052 1.34-10.07 8.288-12.28 13.26-6.807 13.98-10.08 30.46-0.2886 44.13 1.47 1.569 3.916 2.958 6.613 2.654 4.17 10.73 2.491 23.52 13.35 32.3 8.546 6.951 22.44 6.691 33.98 5.697 9.07-0.8684 16.85-5.621 20.33-11.89 6.205-9.464 4.214-20.9 10.06-30.24 7.193-0.8798 8.762-7.287 9.323-11.8 1.414-11.35-4.832-22.2-9.047-32.82-3.629-6.039-10.27-12.52-19.91-12.73z" fill="#fff"/><path d="m-290.3-6.375c-3.645 8.892-6.94 17.88-10.81 26.72-3.34 3.997-8.37 7.096-13.3 9.97-5.654 3.205-13.41 5.523-20.23 2.885-7.867-2.769-14.29-7.48-19.6-12.54-2.444-4.081-3.642-8.538-5.592-12.77-2.109-5.668-5.053-11.18-6.596-16.95-3.022-12.85 6.365-26.74 22.35-32.13 14.91-5.421 34.13-2.308 44.87 7.106 8.897 7.395 12.21 18.1 8.907 27.71z" stroke="#e6caa8" stroke-width="3" fill="#ffe1bd"/><path d="m-334.9 11.61c-0.2942 1.641 0.9253 2.979 2.247 3.249 1.362 0.2764 9.308-0.1092 9.699-0.3643 0.5783-0.377-6.952 0.3653-6.769-1.312 0.6564-6.027-0.2393-21.57-0.2393-21.57s-4.246 16.14-4.938 20z" fill="#e6caa8"/><path fill="#333" transform="scale(-1,1)" stroke="#6b8e6f" stroke-width="4.666" d="m351.1-5.792a6.769 4.721 0 0 1 -4.848 4.527 6.769 4.721 0 0 1 -7.599 -1.957 6.769 4.721 0 0 1 0.5336 -5.638"/><ellipse rx="5.77" ry="4.315" cy="-5.821" cx="-344.2" fill="#fff"/><path d="m-340.7-4.234c-1.124 1.483-3.641 2.003-5.632 1.155-1.983-0.8402-2.683-2.725-1.561-4.208 1.124-1.484 3.642-2.004 5.627-1.163 1.995 0.8449 2.689 2.732 1.566 4.216zm-5.252-4.296c-0.8627 0.3304-1.268 1.024-0.9042 1.548 0.3688 0.5204 1.36 0.6724 2.223 0.3343 0.8666-0.3333 1.27-1.026 0.912-1.548-0.3649-0.5233-1.36-0.6724-2.231-0.3343z" fill="#333"/><path d="m-307.9-6.393a6.769 4.721 0 0 1 -4.848 4.527 6.769 4.721 0 0 1 -7.599 -1.957 6.769 4.721 0 0 1 0.5336 -5.638" stroke="#caaa84" stroke-width="4.666" fill="#333"/><ellipse rx="5.77" ry="4.315" transform="scale(-1,1)" cy="-6.422" cx="314.8" fill="#fff"/><path d="m-318.3-4.835c1.124 1.483 3.641 2.003 5.632 1.155 1.983-0.8401 2.683-2.725 1.561-4.208-1.124-1.484-3.642-2.004-5.627-1.163-1.995 0.8449-2.689 2.732-1.566 4.216zm5.252-4.296c0.8627 0.3304 1.268 1.024 0.9041 1.548-0.3688 0.5204-1.36 0.6724-2.223 0.3343-0.8666-0.3333-1.27-1.026-0.912-1.548 0.3649-0.5233 1.36-0.6724 2.231-0.3343z" fill="#333"/><path d="m-298.6-14.15c-5.977 7.922-21.47-3.067-22.46 0.2788-0.1954 0.671 0.2103 1.072 0.8862 1.336 7.959 3.045 18.53 5.665 21.58-1.614z" fill="#1a1a1a"/><path d="m-362.2-48.15c9.674-4.172 20.89-2.489 31.18-1.337 8.153 0.9215 16.86 1.383 24.56-1.495 9.008 1.899 14.1 9.345 16.52 16.29 2.151 5.807 3.735 11.77 6.065 17.52 0.7382 5.197-0.0899 10.75-3.181 15.35-4.342 2.437-4.212-4.702-6.141-6.699-5.125-7.482-12.89-14.24-22.89-16.98-3.229-1.364-7.956-0.4314-4.115 2.548 1.993 2.524 4.284 4.917 5.741 7.705-3.085 1.322-5.882-2.371-8.201-3.808-3.532-2.875-7.161-5.701-11.25-8.019 2.518 3.79 3.404 7.863 7.004 10.98 1.991 1.721 4.888 7.568 0.2608 5.517-9.401-2.895-11.53-14.14-20.23-17.91-4.867-0.0633-0.434 4.83 0.4269 6.683 1.623 1.599 2.425 7.38-1.271 4.126-3.168-2.365-3.795-7.4-8.829-7.661-5.875-0.1778-5.818 5.865-5.18 9.318-0.2786 2.581 0.5155 6.666-1.807 8.311-0.7538-1.207-1.605-4.707-1.884-1.21-0.8584 3.635 0.8197 8.729-1.404 11.46-3.071-1.798-3.389-5.432-4.87-8.13-3.939-11.68 0.2388-23.89 5.467-34.81 1.236-2.622 2.552-5.22 4.028-7.755z" fill="#483e37"/><path d="m-359.5-13.81c5.977 7.922 21.47-3.067 22.46 0.2788 0.1954 0.671-0.2103 1.072-0.8862 1.336-7.959 3.045-18.53 5.665-21.58-1.614z" fill="#1a1a1a"/><path d="m-300.6 11.52c-1.654 0.6108-2.856 1.03-3.858 1.483-6.105 2.635-6.725 8.803-7.781 14.62-3.206-3.662-2.71-4.286-6.93-4.841-5.178-0.733-6.903-1.054-8.794 0.5655-1.466-0.9634-1.999-1.477-5.539-0.9774-6.304 0.8063-6.617 0.7016-8.498 3.316-0.1346 0.206-1.525 1.742-1.687 1.941-0.3071-1.389 0.0269-1.435-0.8514-4.496-0.9268-3.166-1.32-5.662-3.74-8.137-2.339-2.105-7.425-3.683-9.915-4.224 0 2.656 0.3934 6.625 0.4688 7.135 0.943 6.234 4.699 15.97 11.4 20.05 5.604 3.278 11.84 3.054 18.38 3.054 3.368 0 9.732 0.1501 13.61-1.068 5.265-1.319 8.913-5.044 10.99-8.444 3.621-5.735 5.609-11.47 5.609-20.73-1.913 0.4678-2.285 0.5201-2.867 0.754zm-27.54 20.1c-6.817-0.1278-10.24-3.559-10.24-3.559 0.2748-1.934 3.702-2.021 5.96-2.115 9.042-0.1117 14.5-0.4049 14.89 2.115 0 0-4.154 3.752-10.61 3.559z" fill="#6c5d53"/></g></g></svg>
