<svg xmlns="http://www.w3.org/2000/svg" version="1.1" viewBox="0 0 100 100"><g transform="translate(0 -270.5)"><g transform="translate(496.1 555.5)"><path d="m-451.8-284.9c-9.545 1.43-19.61 2.126-28.46 5.654-8.899 5.612-10.68 15.56-15.22 23.56-1.819 3.827 0.9001 7.6 1.204 11.43 1.685 5.939 4.356 11.61 6.098 17.54 1.355 4.828 5.794 8.393 6.802 13.28 4.34 13.66 17.15 26.45 34.17 28.39 15.89 1.432 30.21-8.607 36.74-20.36 3.136-5.573 4.34-11.82 8.476-17.01 6.804-10.57 8.104-24.09 1.832-35.08-1.618-5.066-1.107-11.33-6.465-15.01-6.293-5.265-14.8-8.099-23-10.42-4.962-0.7716-10.02 2.586-14.61-0.1307-2.384-0.9337-4.88-1.944-7.569-1.84z" fill="#fff"/><path d="m-444.4-274.1c-17.33-0.2633-33.43 10.11-37.74 23.51-2.498 6.705-1.569 13.81 0.7005 20.46 2.538 8.157 4.564 16.52 8.811 24.24 5.235 7.558 13.7 14.5 24.55 16.32 10.67 1.551 20.52-4.078 26.97-10.4 7.156-6.526 8.969-15.36 11.75-23.47 2.236-7.852 5.669-15.86 3.574-24-2.72-13.94-17.96-25.69-35.6-26.55-1.004-0.0618-2.013-0.092-3.019-0.0906z" stroke="#b38e6e" stroke-width="3.499" fill="#d6a57c"/><path d="m-409.5-220.5c-4.038-9.788-0.2766-20.44-3.533-30.33-1.905-4.362-7.65-4.762-12.28-4.603-6.277-0.2277-12.38-1.706-18.05-3.986-6.791-2.414-14.67-4.059-21.73-1.445-3.669 1.631-9.754 2.88-10.13 6.972-1.488 8.207-1.164 16.55-1.264 24.81-0.5902 2.113-0.6624 8.14-4.068 6.948-3.953-5.452-4.619-12.05-7.218-17.95-0.5271-2.71-3.913-5.113-1.43-7.493-1.794-3.188-4.016-6.777 0.0727-9.441 1.785-2.66-0.0486-5.411 2.979-7.609 2.036-4.204 3.903-8.535 8.388-11.32 3.283-2.689 8.104-1.475 12.09-2.695 4.849-0.773 9.668-2.371 14.65-2.103 4.991 0.8081 9.533 4.486 14.86 2.885 4.36-3.042 8.401 0.2148 12.63 1.501 6.795 2.3 14.53 5.534 16.79 12.01 0.9616 2.987-0.3453 6.228 1.736 8.975 1.97 3.482 3.936 7.148 3.561 11.12 0.0943 7.287-2.092 14.57-5.791 21.1-0.6619 0.9392-1.418 1.83-2.27 2.65z" fill="#536c5d"/><path d="m-425.8-204.3c-3.244-0.6599-10.53-4.091-14.42-4.091-1.184 0-2.563 0.1945-4.468 0.6182-5.677-1.063-4.022-0.9863-10.74 0.7362-2.571 0.6599-3.982 1.73-7.931 2.646 0.6893-1.271 0.5758-4.042 4.671-9.335 0.0243-0.0348 0.0486-0.0764 0.0811-0.1181 4.338 3.633 8.223-1.146 10.2-2.257 0.8515 0.5418 2.554 2.591 4.12 2.355 1.622 0 2.903-1.229 3.828-2.362 1.095 0.5765 3.098 3.869 5.344 3.869 1.419 0 2.773-0.9655 3.909-1.889 1.395 1.271 4.557 6.14 5.409 9.828z" fill="#37483e"/><path d="m-454.6-201c-0.3706-0.2998 0.7139-3.818 2.621-4.874 2.405-1.369 4.86-0.7842 6.807-0.6855 1.775 0.0913 4.258-0.6584 6.024-0.3724 1.998 0.3237 7.695 2.313 7.375 2.933-0.1572 0.3059-4.469-1.09-7.196-1.294-1.735-0.131-4.13 0.5963-5.866 0.5281-1.796-0.0692-3.974-0.6621-6.264 0.1649-2.077 0.7498-3.079 3.941-3.501 3.6z" fill="#d4737e"/><path fill="#c4b7c8" transform="matrix(.9750 -.2221 .2965 .9550 0 0)" stroke="#b38e6e" stroke-width="4.137" d="m-363.9-334.7a5.549 4.526 0 0 1 -3.974 4.34 5.549 4.526 0 0 1 -6.23 -1.876 5.549 4.526 0 0 1 0.4374 -5.405"/><ellipse rx="4.773" ry="4.088" cy="-237.8" cx="-459.3" fill="#fff"/><path d="m-461.6-235.6c1.417 1.065 3.572 0.9458 4.82-0.2759 1.244-1.213 1.107-3.063-0.3081-4.129-1.418-1.067-3.573-0.9463-4.818 0.2678-1.252 1.22-1.109 3.07 0.3067 4.137zm2.544-5.066c0.794 0.0951 1.362 0.6218 1.269 1.176-0.0992 0.5515-0.8188 0.918-1.616 0.816-0.7981-0.0968-1.365-0.6229-1.275-1.174 0.095-0.5532 0.8188-0.9181 1.622-0.8179z" fill="#535d6c"/><path fill="#c4b7c8" transform="matrix(-.9750 -.2221 -.2965 .9550 0 0)" stroke="#b38e6e" stroke-width="4.137" d="m490.7-135.9a5.549 4.526 0 0 1 -3.974 4.34 5.549 4.526 0 0 1 -6.23 -1.876 5.549 4.526 0 0 1 0.4374 -5.405"/><ellipse rx="4.773" ry="4.088" transform="scale(-1,1)" cy="-237.7" cx="432.9" fill="#fff"/><path d="m-430.6-235.5c-1.417 1.065-3.572 0.9458-4.82-0.2759-1.244-1.213-1.107-3.063 0.3081-4.129 1.418-1.067 3.573-0.9463 4.818 0.2679 1.252 1.22 1.109 3.07-0.3067 4.137zm-2.544-5.066c-0.794 0.0951-1.362 0.6218-1.269 1.176 0.0994 0.5515 0.8188 0.918 1.616 0.816 0.7981-0.0968 1.365-0.6229 1.275-1.174-0.0951-0.5532-0.8188-0.918-1.622-0.8179z" fill="#535d6c"/><path d="m-471.6-249.2c5.031 3.211 10.8 4.023 22.68 5.827 0.3885 0.0779 0.6659 0.1693 0.9154 0.173 1.194-0.0289 2.21-1.414 2.046-2.65-0.5613-4.711-20.62-2.506-25.64-3.35z" fill="#37483e"/><path d="m-419.4-249.3c-5.031 3.211-10.8 4.023-22.68 5.827-0.3885 0.0779-0.6659 0.1693-0.9154 0.173-1.194-0.0289-2.21-1.414-2.046-2.65 0.5613-4.711 20.62-2.506 25.64-3.35z" fill="#37483e"/><path d="m-446.7-217.2c1.235 0 9.972-0.9689 9.972-0.9689s-3.071-0.0241-3.821-0.7658c-2.57-2.541-4.752 0.607-4.754-3.153-0.004-3.778-0.1783-14.21-1.396-14.18-1.587 0.0432-4.613 12.93-3.964 17.43 0.1608 1.102 2.57 1.635 3.964 1.635z" fill="#b38e6e"/></g></g></svg>
