<svg xmlns="http://www.w3.org/2000/svg" version="1.1" viewBox="0 0 100 100"><g transform="translate(0 -270.5)"><path d="m48.92 270.6c-24.56 0.883-44.71 17.2-47.64 34.95-4.446 17.81 3.489 35.65 11.98 52.07 3.085 4.775 9.828 9.852 17.57 8.162 1.385-0.6497 3.625-2.399 4.704-0.491 5.539 3.702 14.05 7.329 21.27 3.92 4.565-1.768 8.315-4.534 12.57-6.588 4.653 4.036 15.16 1.855 15.59-3.665 8.14-15.13 18.11-31.19 14.14-47.93-1.88-14.39-10.34-29.89-28.52-36.73-6.65-2.562-14.17-3.941-21.67-3.698z" fill="#fff"/><path d="m76.28 352.1c-4.238 4.537-18.14 11.54-23.59 13.87-1.116 0.4778-2.938 0.4778-4.054-0.00047-5.453-2.337-19.35-9.334-23.59-13.87-5.162-5.523-11.76-25.44-11.77-25.47-0.8258-2.328-1.268-4.771-1.273-7.291-0.033-15.87 17.25-28.75 38.6-28.77 21.36-0.0247 38.69 12.81 38.72 28.68 0.005 2.52-0.425 4.964-1.24 7.295-0.0107 0.0247-6.625 20.01-11.8 25.55z" stroke="#ba967f" stroke-width="2.227" fill="#caa891"/><path d="m65.95 276.6c-22.55-7.914-49.88 4.86-55.76 21.98-8.11 14.73-2.829 30.42 2.963 44.91 1.717 5.861 9.837 22.75 18.4 16.85-0.177-6.756-12.88-12.73-6.095-14.09-10.92 0.5895-13.54-19.16-3.358-14.12-1.277-1.23-2.163-19.62 12.1-19.74 7.174-1.913 17.06-15.88 16.38-14.19-0.9535 6.801-13.28 15.52-13.15 16.28 12.56 0.6269 18.72-19.11 25.04-15.14 0.5347 5.427 13.54 22.32 7.869 9.007-1.251-3.318-3.06-16.54-0.4722-5.687 2.716 12.77 23.22 26.38 9.607 38.71-6.71 3.483-10.87 21.94-0.2421 18.31 5.303-12.52 14.83-24.25 15.66-37.65 0.2398-16.83-5.312-38.52-28.93-45.44z" fill="#536c53"/><path d="m26.24 319.4c10.4-0.818 12.19 0.8271 17.76 2.507 0.3054 0.0894 1.02 0.188 1.211-0.0471 0.5071-0.6309-2.097-1.541-2.996-1.836-5.89-2.043-9.551-1.968-15.97-0.6237z" fill="#405040"/><path d="m60.91 349.5c-0.5785 0.0141-1.174 0.0351-1.747 0.0715-0.6593 0.0392-1.255 0.0967-1.805 0.1724-1.011 0.1388-2.017 0.3266-3.077 0.5172-1.668 0.3028-3.242 0.5495-5 0.5481-0.2818 0-0.5654-0.009-0.8491-0.0239-1.435-0.0771-2.857-0.3042-4.116-0.5775-1.302-0.286-2.541-0.5621-3.793-0.6897-0.2404-0.0238-0.4865-0.0407-0.727-0.0589-0.7683-0.0505-1.57-0.0728-2.357-0.0883 3.257 1.957 7.754 2.857 12.15 2.861 4.529 0.001 8.036-1.182 11.32-2.732z" fill="#de8787"/><path fill="#dbb497" transform="matrix(.9859 -.1676 .3841 .9233 0 0)" stroke="#ba967f" stroke-width="3.559" d="m-88.02 335.7a5.403 3.439 0 0 1 -3.869 3.298 5.403 3.439 0 0 1 -6.066 -1.426 5.403 3.439 0 0 1 0.4259 -4.107"/><ellipse rx="4.699" ry="3.003" cy="325.5" cx="36.99" fill="#fff"/><path d="m34.71 327.2c1.395 0.7827 3.516 0.6948 4.745-0.2027 1.225-0.8911 1.089-2.25-0.3033-3.033-1.396-0.784-3.518-0.6952-4.744 0.1968-1.233 0.8963-1.092 2.256 0.302 3.039zm2.504-3.722c0.7817 0.0698 1.341 0.4568 1.249 0.8636-0.0976 0.4052-0.8061 0.6745-1.59 0.5995-0.7857-0.0711-1.344-0.4576-1.255-0.8623 0.0935-0.4064 0.8061-0.6745 1.597-0.6009z" fill="#2d1650"/><path fill="#c4b7c8" transform="matrix(-.9859 -.1676 -.3841 .9233 0 0)" stroke="#ba967f" stroke-width="3.559" d="m-182.4 318.8a5.403 3.439 0 0 1 -3.869 3.298 5.403 3.439 0 0 1 -6.066 -1.426 5.403 3.439 0 0 1 0.4259 -4.107"/><ellipse rx="4.699" ry="3.003" transform="scale(-1,1)" cy="325.6" cx="-62.54" fill="#fff"/><path d="m64.83 327.3c-1.395 0.7827-3.516 0.6948-4.745-0.2027-1.225-0.8911-1.089-2.25 0.3033-3.033 1.396-0.784 3.518-0.6952 4.744 0.1968 1.233 0.8963 1.092 2.256-0.302 3.039zm-2.504-3.722c-0.7816 0.0698-1.341 0.4568-1.249 0.8636 0.0976 0.4052 0.8061 0.6745 1.59 0.5995 0.7857-0.0711 1.344-0.4576 1.255-0.8622-0.0935-0.4064-0.8061-0.6745-1.597-0.6009z" fill="#2d1650"/><path d="m46.72 342.5c-0.1871 1.206 0.5884 2.19 1.429 2.388 0.8659 0.2032 5.919-0.0803 6.167-0.2678 0.3677-0.2771-4.42 0.2685-4.304-0.9646 0.4174-4.43-0.1522-15.85-0.1522-15.85s-2.7 11.86-3.14 14.7z" fill="#ba967f"/><path d="m72.34 319.1c-10.4-0.818-12.19 0.8271-17.76 2.507-0.3054 0.0894-1.02 0.188-1.211-0.0471-0.5071-0.6309 2.097-1.541 2.996-1.836 5.89-2.043 9.551-1.968 15.97-0.6237z" fill="#405040"/></g></svg>
