<svg xmlns="http://www.w3.org/2000/svg" version="1.1" viewBox="0 0 100 100"><path d="m71.65 0.05055c-4.643 0.05215-7.959 5.297-12.66 4.155-2.369 0.2012-4.835 1.311-7.022-0.07272-6.387-0.728-11.88 3.939-18.11 3.995-6.102 0.8985-12.15 3.041-16.82 7.203-3.012 1.873-8.004 0.5315-9.416 4.631-0.9408 1.24 0.6954 3.236-1.197 3.629-4.899 2.979-7.742 9.285-5.814 14.88 1.457 8.584 4.966 16.81 8.873 24.43 1.447-0.05116 1.409 0.8712 1.713 2.205 3.43 12.53 10.31 25.25 22.49 30.94 14.56 7.685 33.92 3.871 44.56-8.747 6.826-7.453 9.793-17.43 12.67-26.86 2.621-3.68 5.331-7.457 6.114-12.02 2.327-6.486 3.585-13.45 2.66-20.32 0.3736-3.263 0.4119-7.796-3.311-9.134-2.78-0.43-4.84-2.26-7.31-3.53-1.58-1.41-2.42-3.52-4.56-4.3-2.36-1.05-1.79-4.477-4.5-5.168-1.085-0.5637-2.705-0.515-2.472-2.142-0.7043-2.557-3.307-4.138-5.884-3.78z" stroke-width=".9976" fill="#fff"/><path d="m50.67 17.1c-17.19-0.2404-33.14 9.231-37.42 21.47-2.477 6.124-1.555 12.62 0.6946 18.68 2.516 7.45 4.525 15.09 8.736 22.14 5.191 6.903 13.59 13.24 24.34 14.9 10.58 1.417 20.35-3.725 26.74-9.498 7.095-5.961 8.893-14.03 11.65-21.44 2.217-7.172 5.621-14.48 3.544-21.92-2.697-12.73-17.81-23.47-35.3-24.25-0.9959-0.0565-1.996-0.084-2.993-0.0827z" stroke="#b88e71" stroke-width="2.29" fill="#d6a57c"/><path fill="#540" d="m11.08 55.2c-2.358-8.27-7.796-16.44-5.888-24.99 1.01-3.311 7.895-4.575 8.297-7.923-1.19-1.358-3.333-2.752 0.5968-1.928 4.528-0.1571 6.288-3.669 9.795-5.208 3.095-2.001 7.2-3.376 11.65-3.491 5.685-0.8882 10.28-3.721 16.12-4.223 3.486-0.1387-1.488 4.397 2.805 2.293 1.923-1.324 6.371-3.773 5.414-0.3228 4.95-1.326 7.655-5.148 13.25-5.842 3.325 1.02-5.967 4.335-1.495 4.214 5.073-2.025-2.386 2.389-0.3469 3.681 2.177-0.4049 6.653-4.199 8.052-1.955-1.197 0.9593-3.424 5.348 0.3958 3.346 5.893 0.5296 5.297 5.812 10.55 7.051 2.954 0.3553-1.404 3.086 2.82 2.457 2.203-0.4973 4.268-0.1911 2.136 1.319-0.136 2.906 1.407 5.748 0.9697 8.68 0.09932 5.324-1.565 10.58-3.709 15.69-0.4794 2.222-1.27 8.121-6.313 6.352-1.971-2.893 0.4847-6.18 0.229-9.235 0.5164-5.277 0.2728-11.36-5.775-15.43-6.667-4.056-16.65-3.757-25.14-3.101-5.337 0.7329-10.59-0.2118-15.91-0.4827-6.958-0.3532-15.61 0.1804-19.75 4.269-4.975 5.606-5.437 12.27-5.224 18.56-0.8274 1.802 2.157 8.032-3.526 6.211z"/><path fill="#8f6441" d="m51.18 68.3c-7.567 0.5236-12.93 2.684-19.13 7.709-6.08 4.61-10.8 11.53-11.82 15.46 23.3-23.51 39.43-22.62 61.91-0.006-2.83-10.2-18.21-23.1-30.96-23.2z"/><path fill="#d4737e" d="m43.61 77.7c2.385-1.751 4.786-0.6153 6.987-0.3602 2.006 0.2344 4.616-0.6536 6.655-0.1501 3.732 0.3059 7.461 6.497 7.242 5.657-0.1077-0.4143-3.58-2.927-6.676-3.375-1.97-0.2869-4.486 0.5753-6.443 0.3753-2.024-0.205-4.593-1.159-6.97-0.1521-9.558-0.5134-3.114-0.1444-0.7934-1.995z"/><path fill="#b88e71" d="m46.43 63.2c-0.2938 1.875 0.9241 3.403 2.244 3.711 1.36 0.3158 9.295-0.1247 9.686-0.4162 0.5775-0.4306-6.943 0.4172-6.76-1.499 0.6555-6.884-1.582-13.94-1.582-13.94s-2.897 7.736-3.588 12.14z"/><g transform="matrix(1.843,0,0,1.367,6.551,-57.5)"><path d="m17.2 79.26a3.276 3.055 0 0 1 -2.346 2.93 3.276 3.055 0 0 1 -3.678 -1.267 3.276 3.055 0 0 1 0.2582 -3.649" stroke="#deaf8f" stroke-width="2.612" fill="#e3dbdb"/><circle cy="79.24" cx="14" r="2.793" fill="#fff"/><path fill="#6c5d53" d="m15.7 78.29c-0.5442-0.9596-1.762-1.296-2.726-0.7475-0.9597 0.5438-1.298 1.764-0.7554 2.724 0.5442 0.9608 1.763 1.297 2.723 0.7524 0.9655-0.5468 1.302-1.768 0.758-2.728zm-2.542 2.781c-0.4175-0.2139-0.6135-0.6628-0.4376-1.002 0.1785-0.3368 0.6584-0.4352 1.076-0.2164 0.4194 0.2157 0.6148 0.6641 0.4414 1.002-0.1766 0.3387-0.6584 0.4352-1.08 0.2164z"/></g><g transform="matrix(1.843 0 0 1.367 42.88 -57.7)"><path d="m17.2 79.26a3.276 3.055 0 0 1 -2.346 2.93 3.276 3.055 0 0 1 -3.678 -1.267 3.276 3.055 0 0 1 0.2582 -3.649" stroke="#deaf8f" stroke-width="2.612" fill="#e3dbdb"/><circle cy="79.24" cx="14" r="2.793" fill="#fff"/><path fill="#6c5d53" d="m15.7 78.29c-0.5442-0.9596-1.762-1.296-2.726-0.7475-0.9597 0.5438-1.298 1.764-0.7554 2.724 0.5442 0.9608 1.763 1.297 2.723 0.7524 0.9655-0.5468 1.302-1.768 0.758-2.728zm-2.542 2.781c-0.4175-0.2139-0.6135-0.6628-0.4376-1.002 0.1785-0.3368 0.6584-0.4352 1.076-0.2164 0.4194 0.2157 0.6148 0.6641 0.4414 1.002-0.1766 0.3387-0.6584 0.4352-1.08 0.2164z"/></g><path opacity=".656" d="m28.08 60.7c2.13 0 4.338-0.1749 6.219-0.4859 3.073-0.5151 6.907-2.551 9.378-5.588 2.713-3.333 3.309-5.705 2.451-8.066-1.101-3.047-8.133-4.13-14.34-4.13-6.383 0-13.77 1.127-15.56 3.28-3.014 3.625-0.9306 10.15 0.8257 12.15 2.261 2.566 8.467 2.843 11.03 2.843zm44.26-0.0686c-2.13 0-4.338-0.1749-6.219-0.4859-3.073-0.5151-6.907-2.551-9.378-5.588-2.713-3.333-3.309-5.705-2.451-8.066 1.101-3.047 8.133-4.13 14.34-4.13 6.383 0 13.77 1.127 15.56 3.28 3.014 3.625 0.9306 10.15-0.8257 12.15-2.261 2.566-8.467 2.843-11.03 2.843z"/><path fill="#37c871" d="m70.12 41.2c-8.329 0-13.12 1.438-19.84 1.438-6.717 0-11.5-1.438-19.84-1.438-9.902 0.1604-13.94-3.309-18.24-0.1224-1.9 1.407 0.06527 5.973 0.06527 5.973 0.01494 1.443 0.6029 2.575 2.202 8.028 1.448 4.937 6.186 5.603 9.581 6.03 4.804 0.5977 10.43 0.2575 14.33-1.453 5.013-2.196 7.975-6.205 9.129-9.83 0.6422-2.021 2.457-1.89 2.772-1.89 0.3146 0 2.13-0.1312 2.772 1.89 1.147 3.625 4.109 7.634 9.129 9.83 3.899 1.706 9.522 2.051 14.33 1.453 3.388-0.4228 8.133-1.088 9.581-6.03 1.599-5.452 2.187-6.584 2.202-8.028 0 0 1.927-4.487 0.06527-5.876-4.288-3.2-8.349 0.1909-18.25 0.0256zm-35.88 18.62c-5.524 0.9233-14.31 0.6949-16.9-2.255-1.697-1.929-3.735-8.382-0.8192-11.89 3.1-3.727 27.25-4.888 29.31 0.7872 1.619 4.466-4.489 12.17-11.59 13.36zm48.99-2.255c-2.595 2.95-11.37 3.178-16.9 2.255-7.097-1.186-13.2-8.892-11.59-13.36 2.058-5.676 26.21-4.514 29.31-0.7872 2.916 3.504 0.8781 9.962-0.8192 11.89z"/></svg>
