<svg xmlns="http://www.w3.org/2000/svg" version="1.1" viewBox="0 0 100 100"><g transform="translate(0 -270.5)"><path d="m45.39 270.5c-15.24 1.438-26.77 13.46-31.33 26.21-1.517 3.598-2.257 7.691-3.49 11.16-13.57 0.6856-13.62 20.13-2.738 24.71 3.929 1.815 8.619 1.418 12.75 0.4356 3.501 9.621 4.698 20.92 13.6 27.98 5.227 5.173 12.14 10.16 20.32 9.424 8.131-0.1922 15.15-4.856 20.01-10.52 3.075-2.882 5.485-6.456 7.411-9.952 8.379-0.9307 15.59-7.608 17.04-15.18 0.5147-1.99-0.123-4.204-0.3361-6.018 1.775-1.924 1.902-5.098-0.0334-6.969 1.379-6.797 0.9089-14.97-4.582-20.18-1.808-0.4782-2.835-1.601-2.967-3.323-3.027-7.92-6.834-17.1-15.87-20.68-6.199-1.918-12.95-2.176-18.8-5.053-3.521-1.171-7.207-2.138-10.99-2.038z" fill="#fff"/><path d="m54.26 288.6c-18.04 0.0256-32.69 13.39-32.66 29.85 0.005 2.614 0.3777 5.15 1.074 7.565h0.00055c0.008 0.0265 5.521 15.21 6.948 21.32 1.277 5.467 6.953 9.901 9.508 12.32 2.935 2.778 6.603 6.889 15.13 6.853 8.525 0.0363 12.19-4.074 15.13-6.853 2.555-2.417 8.231-6.851 9.508-12.32 1.427-6.107 6.941-21.29 6.947-21.32h0.001c0.6964-2.415 1.07-4.95 1.074-7.565 0.0279-16.46-14.62-29.83-32.66-29.85z" stroke="#dbb497" stroke-width="2.085" fill="#f3c9ad"/><path d="m92.77 327.4c4.032 0.7576 6.336-6.345 0.8576-2.548 4.834-5.625 1.437-24.37-3.483-20.73-3.24-6.053-6.7-24.17-20.39-24.77-10.3-0.862-20.03-9.316-30.53-4.181-15.22 5.302-22.94 21.79-24.73 36.84-12.6-6.431-13.82 18.05-0.9844 17.73 14.23 1.676 21.55-13.32 25.82-24.4 3.366-14.41 22.1-18.68 29.61-5.164 6.646 9.155 0.9997 23.48 11.4 30.76 6.868 2.107 6.076 6.556 2.802 15.08 9.415-1.938 17.65-14.93 9.624-18.61z" fill="#2c5aa0"/><g transform="matrix(.8162 0 0 .7481 36.54 155.4)"><path d="m14.97 222.5a6.769 4.721 0 0 1 -4.848 4.527 6.769 4.721 0 0 1 -7.599 -1.957 6.769 4.721 0 0 1 0.5336 -5.638" stroke="#333" stroke-width="4.666" fill="#333"/><ellipse rx="5.77" ry="4.315" transform="scale(-1,1)" cy="222.5" cx="-8.078" fill="#fff"/><path d="m4.561 224.1c1.124 1.483 3.641 2.003 5.632 1.155 1.983-0.8401 2.683-2.725 1.561-4.208-1.124-1.484-3.642-2.004-5.627-1.163-1.995 0.8449-2.689 2.732-1.566 4.216zm5.252-4.296c0.8627 0.3304 1.268 1.024 0.9041 1.548-0.3688 0.5204-1.36 0.6724-2.223 0.3343-0.8666-0.3333-1.27-1.026-0.912-1.548 0.3649-0.5233 1.36-0.6724 2.231-0.3343z" fill="#333"/></g><g transform="matrix(-.8162 0 0 .7481 70.03 157.3)"><path d="m14.97 222.5a6.769 4.721 0 0 1 -4.848 4.527 6.769 4.721 0 0 1 -7.599 -1.957 6.769 4.721 0 0 1 0.5336 -5.638" stroke="#333" stroke-width="4.666" fill="#333"/><ellipse rx="5.77" ry="4.315" transform="scale(-1,1)" cy="222.5" cx="-8.078" fill="#fff"/><path d="m4.561 224.1c1.124 1.483 3.641 2.003 5.632 1.155 1.983-0.8401 2.683-2.725 1.561-4.208-1.124-1.484-3.642-2.004-5.627-1.163-1.995 0.8449-2.689 2.732-1.566 4.216zm5.252-4.296c0.8627 0.3304 1.268 1.024 0.9041 1.548-0.3688 0.5204-1.36 0.6724-2.223 0.3343-0.8666-0.3333-1.27-1.026-0.912-1.548 0.3649-0.5233 1.36-0.6724 2.231-0.3343z" fill="#333"/></g><path d="m46.26 354.2c-0.3829-0.4445-0.0418-5.325 1.468-6.692 1.897-1.777 4.185-0.8031 5.935-0.5442 1.596 0.2379 3.672-0.6632 5.293-0.1523 1.835 0.5785 7.256 3.727 7.082 4.58-0.0857 0.4205-4.17-1.809-6.633-2.264-1.567-0.2911-3.569 0.5839-5.125 0.3809-1.61-0.208-3.654-1.176-5.545-0.1544-1.715 0.9263-2.04 5.353-2.477 4.846z" fill="#d4737e"/><path d="m73.04 313.9c-3.279 3.31-6.426 4.855-15.11 8.802-0.281 0.1418-0.4758 0.267-0.6638 0.327-0.9075 0.2562-1.902-0.4361-1.979-1.301-0.3452-3.283 14.09-6.104 17.75-7.828z" fill="#003380"/><path d="m35.74 313.2c3.228 3.128 6.327 4.588 14.88 8.319 0.2766 0.134 0.4684 0.2524 0.6535 0.309 0.8935 0.2421 1.872-0.4122 1.949-1.23 0.3398-3.103-13.87-5.769-17.48-7.398z" fill="#003380"/><path d="m51.48 338.5c-0.1581 0.9328 0.497 1.693 1.207 1.846 0.7314 0.1571 5-0.062 5.21-0.207 0.3106-0.2142-3.734 0.2076-3.636-0.7458 0.3526-3.425-0.1285-12.26-0.1285-12.26s-2.281 9.172-2.652 11.36z" fill="#dbb497"/></g></svg>
