<svg xmlns="http://www.w3.org/2000/svg" version="1.1" viewBox="0 0 100 100"><g transform="translate(0 -270.5)"><path d="m48.43 270.6c-18.85 0.5436-38.36 9.784-45.4 25.49-6.124 12.31-1.993 26.15 3.852 37.89 2.991 7.174 7.865 13.94 14.99 18.52 6.141 7.564 14.33 14.3 24.56 17.41 8.058 2.439 15.86-2.226 21.8-6.469 6.882-4.83 12.08-11.15 17-17.44 5.438-9.384 13.07-18.25 14.39-29 2.63-17.52-8.62-36.62-28.11-43.07-7.291-2.439-15.28-3.539-23.09-3.309z" fill="#fff"/><path d="m85.85 324.6h-0.006c-0.007 0.0269-5.863 20.69-10.68 27.08-3.79 5.028-16.97 14.84-23.83 14.85-6.855 0.0101-20.07-9.77-23.88-14.79-4.84-6.379-10.78-27.02-10.79-27.05h-0.00059c-0.7624-2.496-1.171-5.115-1.176-7.817-0.031-17.01 15.95-30.82 35.69-30.84 19.75-0.0264 35.78 13.74 35.81 30.75 0.006 2.701-0.393 5.322-1.146 7.82z" stroke="#dbb497" stroke-width="2.217" fill="#f3c9ad"/><path d="m46.07 337.8c-0.2789 1.275 0.877 2.315 2.13 2.525 1.291 0.2148 8.822-0.0848 9.193-0.2831 0.5481-0.293-6.589 0.2838-6.416-1.02 0.6221-4.684-0.2268-16.76-0.2268-16.76s-4.024 12.54-4.68 15.54z" fill="#dbb497"/><path d="m39.74 345.8c-0.3125 0.3436 1.281 3.771 3.29 4.625 2.54 1.114 4.825 0.2516 6.695-0.0641 1.704-0.2891 4.223 0.1915 5.888-0.2929 1.884-0.5483 7.091-3.187 6.686-3.777-0.1994-0.2911-4.158 1.596-6.766 2.104-1.659 0.3246-4.089-0.1431-5.759 0.1183-1.728 0.2691-3.745 1.109-6.089 0.5289-2.126-0.5257-3.589-3.634-3.945-3.242z" fill="#d4737e"/><path d="m47.6 312.2c-7.715-2.18-11.25-2.178-19.81-1.299-0.2586 0.0263-1.465 0.2825-1.571 0.1139 7.088-1.389 13.07-1.838 19.76 0.4769 0.2378 0.0825 1.656 0.5387 1.624 0.7078z" fill="#4d4d4d"/><path d="m51.83 314.3c7.715-3.396 11.25-3.392 19.81-2.023 0.2586 0.0409 1.465 0.44 1.571 0.1774-7.088-2.163-13.07-2.863-19.76 0.7427-0.2377 0.1285-1.656 0.839-1.624 1.102z" fill="#4d4d4d"/><g transform="matrix(.5958 0 0 .5155 -493 213.8)"><path fill="#c4b7c8" transform="matrix(.9761 -.2175 .3025 .9532 0 0)" stroke="#b4beb0" stroke-width="7.381" d="m802.5 397.9a9.995 7.999 0 0 1 -7.158 7.67 9.995 7.999 0 0 1 -11.22 -3.316 9.995 7.999 0 0 1 0.7879 -9.552"/><ellipse rx="8.605" ry="7.21" cy="206.6" cx="894.2" fill="#fff"/><path d="m890 210.5c2.555 1.879 6.44 1.668 8.69-0.4867 2.244-2.14 1.995-5.403-0.5555-7.283-2.556-1.882-6.443-1.669-8.688 0.4724-2.257 2.152-2 5.416 0.553 7.297zm4.586-8.936c1.432 0.1678 2.456 1.097 2.287 2.073-0.1791 0.9727-1.476 1.619-2.913 1.439-1.439-0.1707-2.461-1.099-2.298-2.07 0.1716-0.9757 1.476-1.619 2.924-1.443z" fill="#917c6f"/></g><g transform="matrix(.5958 0 0 .5155 -471.3 213.3)"><path fill="#c4b7c8" transform="matrix(.9761 -.2175 .3025 .9532 0 0)" stroke="#b4beb0" stroke-width="7.381" d="m802.5 397.9a9.995 7.999 0 0 1 -7.158 7.67 9.995 7.999 0 0 1 -11.22 -3.316 9.995 7.999 0 0 1 0.7879 -9.552"/><ellipse rx="8.605" ry="7.21" cy="206.6" cx="894.2" fill="#fff"/><path d="m890 210.5c2.555 1.879 6.44 1.668 8.69-0.4867 2.244-2.14 1.995-5.403-0.5555-7.283-2.556-1.882-6.443-1.669-8.688 0.4724-2.257 2.152-2 5.416 0.553 7.297zm4.586-8.936c1.432 0.1678 2.456 1.097 2.287 2.073-0.1791 0.9727-1.476 1.619-2.913 1.439-1.439-0.1707-2.461-1.099-2.298-2.07 0.1716-0.9757 1.476-1.619 2.924-1.443z" fill="#917c6f"/></g><path d="m66.14 276.3c-23.06-6.75-51.02 4.145-57.04 18.74-8.296 12.57-2.894 25.95 3.031 38.31 1.756 4.999 10.06 19.4 18.82 14.37-4.593-7.241-21.47-28.28-9.669-24.06-1.306-1.049-2.212-16.73 12.37-16.84 7.338-1.632 17.45-13.54 16.76-12.1 17.98 23.73 0.5762-3.796 12.16 0.9762 0.5469 4.629 13.85 19.03 8.049 7.682-1.28-2.83-3.13-14.11-0.483-4.85 2.778 10.9 23.76 22.5 9.827 33.02-6.864 2.971-11.12 18.71-0.2477 15.61 5.424-10.67 15.17-20.69 16.02-32.11 0.2453-14.35-5.433-32.86-29.6-38.75z" fill="#502d16"/></g></svg>
