<svg xmlns="http://www.w3.org/2000/svg" version="1.1" viewBox="0 0 100 100"><g transform="translate(0 -270.5)"><g transform="translate(135.5 -444.1)"><path d="m-87.57 714.6c-19.33 0.3733-39.93 9.636-46.73 25.85-1.695 4.282-1.686 9.194 0.7404 13.27-2.386 6.999-3.185 16.12 3.853 21.41 1.481 0.654 3.294 0.6034 4.798 0.0334 3.31 12.27 13.67 21.87 22.75 31.3 7.276 6.592 19.06 10.43 29.22 6.569 9.98-3.505 17.27-11.19 21.96-19.28 2.786-6.052 3.732-12.71 8.219-18.14 4.778-6.975 7.461-14.93 7.254-23.03 0.3711-13.15-6.732-27.51-21.35-33.17-9.486-3.996-20.27-5.02-30.73-4.813z" fill="#fff"/><path d="m-81.31 725.8c-16.46-0.2182-31.66 10.49-35.34 24.12-2.134 6.931-1.144 14.29 1.816 20.92 2.515 6.718 4.686 13.53 6.756 20.35 2.825 5.861 8.761 9.977 13.73 14.46 7.768 6 21.18 5.275 27.98-1.559 5.223-4.813 11.78-9.49 12.93-16.4 2.177-7.973 5.509-15.68 7.926-23.58 3.275-13.54-4.736-28.46-19.18-34.78-5.096-2.31-10.85-3.534-16.61-3.533z" stroke="#b38e6e" stroke-width="3.464" fill="#d6a57c"/><path fill="#e3dbdb" transform="matrix(.8780 .4787 -.5961 .8029 0 0)" stroke="#b38e6e" stroke-width="3.866" d="m392.1 726.8a5.009 4.378 0 0 1 -3.587 4.198 5.009 4.378 0 0 1 -5.624 -1.815 5.009 4.378 0 0 1 0.3948 -5.228"/><ellipse rx="4.443" ry="3.808" cy="768.3" cx="-92.96" fill="#fff"/><path d="m-90.45 767.3c-0.8659-1.308-2.804-1.767-4.337-1.019-1.527 0.7415-2.066 2.405-1.202 3.714 0.8659 1.31 2.805 1.768 4.333 1.026 1.536-0.7457 2.071-2.411 1.206-3.721zm-4.044 3.792c-0.6643-0.2916-0.9762-0.9038-0.6963-1.367 0.284-0.4593 1.048-0.5934 1.712-0.295 0.6674 0.2941 0.9783 0.9055 0.7023 1.367-0.281 0.4618-1.048 0.5934-1.718 0.295z" fill="#53ad84"/><path d="m-109.3 765.4c0.0831 3.609 8.74 5.694 6.123 0.5722-3.226-4.072-3.316-9.04-3.072-13.65-0.6083-2.68 2.955-4.522 4.257-1.187 2.4 3.806 7.157 6.411 10.98 9.406 2.838 1.875 7.955 5.527 10.39 5.403-1.601-2.583-4.577-6.222-3.438-8.718 2.761 2.155 4.507 5.566 8.878 6.146 0.8006-2.788-2.519-5.606-3.721-8.285-2.763-4.423-5.358-9.328-4.011-14.28-0.0012-4.297 6.8-4.838 8.273-0.6909 4.785-0.7092 7.789-4.779 12.89-4.615 4.701 1.08 5.062 5.388 6.132 8.407 2.518 8.655 4.819 17.8 1.767 26.43 0.9155-1.658 2.315-7.008 4.652-5.028-1.174 6.587-5.789 11.86-8.427 18.08 3.826-0.5487 7.179-5.372 9.668-8.121 9.955-12.87 10.58-29.39 2.514-43.12-6.912-9.349-21.7-13.44-35.29-13.79-14.6-0.6394-29.79 3.225-39.65 11.53-5.753 4.713-9.528 10.92-9.653 17.36 0.5018-4.288 4.766-7.845 8.954-10.53 4.408-1.058-1.149 4.479-1.695 5.962-3.766 7.488-8.507 16.35-6.306 24.15 0.2227 1.715 3.688 6.751 2.865 2.506-0.4066-6.588 2.39-14.2 6.916-20.23-2.935 14.62-2.357 31.07 11.19 42.11-0.1953-8.495-2.522-16.79-1.192-25.42l0.01-0.1974z" fill="#214478"/><path d="m-105.3 761.5c5.816-2.33 11.61 0.9341 16.3 3.703 1.194 0.7044 2.448 1.386 3.55 2.194 0.79 0.5793 0.989 1.763-0.1492 2.167-0.5357 0.1945-1.24-0.1834-1.692-0.3861-5.989-2.678-11.1-8.569-18.01-7.678z" fill="#1a1a1a"/><path d="m-90.99 796.9c-0.4516-0.4748-0.04929-5.688 1.731-7.148 2.237-1.898 4.935-0.8578 6.999-0.5814 1.881 0.2541 4.33-0.7085 6.242-0.1627 2.164 0.6179 8.557 3.981 8.352 4.892-0.101 0.4491-4.917-1.932-7.821-2.418-1.847-0.311-4.208 0.6237-6.044 0.4068-1.899-0.2222-4.308-1.256-6.538-0.1649-2.023 0.9894-2.406 5.718-2.921 5.177z" fill="#d4737e"/><path fill="#e3dbdb" transform="matrix(-.8780 .4787 .5961 .8029 0 0)" stroke="#b38e6e" stroke-width="3.866" d="m523.3 648.2a5.009 4.378 0 0 1 -3.587 4.198 5.009 4.378 0 0 1 -5.624 -1.815 5.009 4.378 0 0 1 0.3948 -5.228"/><ellipse rx="4.443" ry="3.808" transform="scale(-1,1)" cy="768" cx="69.16" fill="#fff"/><path d="m-71.67 767.1c0.8659-1.308 2.804-1.767 4.337-1.019 1.527 0.7415 2.066 2.405 1.202 3.714-0.8659 1.31-2.805 1.768-4.333 1.026-1.536-0.7457-2.071-2.411-1.206-3.721zm4.044 3.792c0.6643-0.2916 0.9762-0.9038 0.6963-1.367-0.284-0.4593-1.048-0.5934-1.712-0.295-0.6674 0.2941-0.9783 0.9055-0.7023 1.366 0.281 0.4618 1.048 0.5934 1.718 0.295z" fill="#53ad84"/><path d="m-56.28 761.3c-5.816-2.33-11.61 0.9341-16.3 3.703-1.194 0.7044-2.448 1.386-3.55 2.194-0.79 0.5793-0.989 1.763 0.1492 2.167 0.5357 0.1945 1.24-0.1834 1.692-0.3861 5.989-2.678 11.1-8.569 18.01-7.678z" fill="#1a1a1a"/><path d="m-84.33 782.9c-0.232 1.265 0.7296 2.297 1.772 2.505 1.074 0.2131 7.339-0.0842 7.648-0.2809 0.456-0.2907-5.482 0.2816-5.338-1.012 0.5176-4.647-0.1887-16.63-0.1887-16.63s-3.348 12.44-3.894 15.42z" fill="#b38e6e"/></g></g></svg>
