<svg xmlns="http://www.w3.org/2000/svg" version="1.1" viewBox="0 0 100 100"><g transform="translate(0 -270.5)"><g transform="translate(382 446.4)"><path d="m-329.9-175.8c-11.61 0.406-22.05 5.984-33.77 4.491-4.076 0.3458-5.801 3.538-9.533 4.268-4.868 2.36-5.156 7.308-3.776 11.05-1.067 5.786-6.218 11.07-4.753 17.11 0.5265 8.636 3.971 17.05 7.542 25.19 1.139 1.504 3.329 2.763 5.643 2.717 2.021 6.557 8.396 12 8.931 18.87 1.43 5.296 3.204 10.85 1.244 16.22 7.178 0.6694 13.65-3.663 15.22-8.646 6.946 3.108 16.05 3.523 23.35 0.8188 1.766 4.453 7.644 8.073 14.07 7.766-0.2817-8.98 0.821-18.62 8.291-26.09 1.54-3.292 3.992-6.403 7.292-8.874 7.911-11.07 8.716-24.08 7.899-36.32-1.501-5.885-6.199-11.33-12.97-14.65-1.697-2.845-4.464-6.953-9.551-6.207-6.071-5.368-15.85-7.931-25.14-7.73z" fill="#fff"/><path d="m-302.5-103.4c-5.42 5.962-11.62 11.84-19.86 15.79-4.496 1.813-10.21 1.724-14.97 0.5418-8.384-3.373-14.38-9.166-19.91-14.77-4.928-5.444-6.509-12.06-8.849-18.27-2.151-6.434-4.621-13.11-2.512-19.76 3.095-12.6 18.57-22.91 35.98-23.39 17.08-0.9025 33.7 7.807 38.81 19.81 3.063 6.384 2.356 13.33-0.0697 19.75-2.344 6.857-4.226 13.97-8.627 20.3z" stroke="#505050" stroke-width="3.423" fill="#707070"/><path d="m-295.5-112.3c-2.97-7.675 0.1572-16.38-5.467-23.5-3.062-2.767-5.129-9.688-7.965-9.287 0.8297-3.471-9.424 2.075-13.17 1.027-8.725 0.5339-17.55 0.3656-25.87-1.854-12.02-2.834-14.01 9.109-15.83 15.42-2.331 4.062 1.185 14.62-5.256 15.02-3.299-4.718-3.017-10.44-5.729-15.39-3.197-7.958-1.529-16.65 3.729-23.74-1.027-5.355-3.369-12.21 6.253-9.039-3.899-7.731 10.56-1.872 15.33-4.86 9.833-2.359 20.5-5.707 30.71-2.397 5.361 0.2504 12.58 7.533 13.36 6.941 4.74-3.504 2.957 5.172 9.826 6.08 7.781 5.204 10.76 14.25 7.594 21.77 0.6452 6.613-0.8463 13.17-4.422 19.19-0.7796 1.63-1.74 3.228-3.108 4.62z" fill="#006680"/><path fill="#c83771" transform="scale(1,-1)" stroke="#c83771" stroke-width="4.17" d="m-337.6 126.1a6.078 4.197 0 0 1 -4.353 4.025 6.078 4.197 0 0 1 -6.824 -1.74 6.078 4.197 0 0 1 0.4791 -5.012"/><ellipse rx="5.181" ry="3.836" cy="-127.3" cx="-343.9" fill="#fff"/><path d="m-340.6-128.4c-1.01-1.318-3.27-1.781-5.057-1.027-1.781 0.747-2.409 2.423-1.402 3.741 1.01 1.32 3.271 1.781 5.053 1.034 1.791-0.7512 2.415-2.429 1.406-3.748zm-4.716 3.82c-0.7747-0.2938-1.138-0.9106-0.8119-1.377 0.3312-0.4627 1.222-0.5978 1.996-0.2972 0.7782 0.2963 1.141 0.9123 0.819 1.377-0.3277 0.4653-1.222 0.5978-2.003 0.2972z" fill="#67536c"/><path fill="#c83771" transform="scale(-1)" stroke="#c83771" stroke-width="4.17" d="m323.6 126.2a6.078 4.197 0 0 1 -4.353 4.025 6.078 4.197 0 0 1 -6.824 -1.74 6.078 4.197 0 0 1 0.4791 -5.012"/><ellipse rx="5.181" ry="3.836" transform="scale(-1,1)" cy="-127.4" cx="317.3" fill="#fff"/><path d="m-320.6-128.5c1.01-1.318 3.27-1.781 5.057-1.027 1.781 0.747 2.409 2.423 1.402 3.741-1.01 1.32-3.271 1.781-5.053 1.034-1.791-0.7512-2.415-2.429-1.406-3.748zm4.716 3.82c0.7747-0.2938 1.138-0.9106 0.8119-1.377-0.3312-0.4627-1.222-0.5978-1.996-0.2972-0.7782 0.2963-1.141 0.9123-0.819 1.377 0.3277 0.4653 1.222 0.5978 2.003 0.2972z" fill="#67536c"/><path d="m-331.9-111.8c0.9973 0 8.051-0.6229 8.051-0.6229s-2.479-0.0155-3.085-0.4923c-2.075-1.633-3.836 0.3903-3.839-2.027-0.003-2.429-0.144-9.138-1.127-9.117-1.281 0.0278-3.725 8.316-3.2 11.21 0.1298 0.7082 2.075 1.051 3.2 1.051z" fill="#555"/><path d="m-366-133.8c28.67-6.207 35.18 6.49 29.23 2.54-6.183-4.104-20.46-3.74-29.23-2.54z" fill="#483737"/><path d="m-297-133.3c-30.5-6.602-37.42 6.903-31.09 2.701 6.576-4.365 21.76-3.978 31.09-2.701z" fill="#483737"/><path d="m-339.4-98.48c2.379 1.744 4.773 0.6127 6.968 0.3587 2-0.2334 4.604 0.6508 6.637 0.1495 3.722-0.3046 7.44-6.47 7.222-5.633-0.1074 0.4126-3.571 2.914-6.658 3.361-1.964 0.2857-4.474-0.5729-6.426-0.3737-2.019 0.2042-4.581 1.154-6.952 0.1515-9.532 0.5113-3.106 0.1438-0.7912 1.986z" fill="#c83771"/><path d="m-352.2-81.5c-0.0379-9.919-4.491-14.92-3.193-20.14 1.98-7.983 21.42-8.271 22.6-5.78 0.8243 1.754-0.8906 3.458-3.041 3.992-4.245 1.115-12.87 0.961-13.58 4.847-0.2369 1.059 0.1232 2.694 0.54 4.588 1.004 4.511 2.236 10.11-3.326 12.49zm41.31 0c-7.968-3.416-1.971-13.51-2.786-17.07-0.7106-3.886-9.332-3.732-13.58-4.847-2.151-0.5331-3.866-2.238-3.041-3.992 1.165-2.49 20.61-2.203 22.6 5.78 1.298 5.205-3.155 10.22-3.193 20.13z" fill="#045"/></g></g></svg>
