<svg xmlns="http://www.w3.org/2000/svg" version="1.1" viewBox="0 0 100 100"><g transform="translate(0 -270.5)"><g transform="translate(492.1 202.9)"><path d="m-440.3 67.62c-19.06-0.1211-39.9 6.589-48.1 20.29-5.608 10.24-3.71 21.74-1.364 32.34 2.751 5.578 6.964 10.86 7.048 16.95 1.12 7.875 3.064 16.67 11.8 21.92 18.53 13.4 53.45 10.72 66.43-6.423 5.786-8.051 3.414-17.82 8.409-26.01 4.336-8.985 4.869-18.69 2.951-28.08-1.487-7.582-4.101-15.7-11.21-21.43-6.709-3.99-15.42-5.214-22.79-8.305-4.213-1.124-8.743-1.3-13.17-1.25z" fill="#fff"/><path d="m-411.4 143.3c-4.153 6.114-9.451 12.17-17.09 16.09-6.116 2.198-13.27 1.84-19.84 1.314-7.884-0.6981-12.78-6.123-17.2-10.52-7.289-7.23-9.428-16.34-12.57-24.89-2.42-6.833-4.914-13.97-2.727-21.05 3.205-13.44 19.29-24.53 37.53-25.05 17.52-0.94 34.55 8.046 40.15 20.49 3.48 7.004 2.994 14.74 0.197 21.82-2.5 7.324-4.725 14.76-8.451 21.8z" fill="#f3dccc"/><path d="m-460.3 160.1c-4.104-1.983-9.31-5.922-11.23-7.873-5.411-5.218-3.292-9.568-6.025-18.74-1.399-3.998-3.716-9.861-3.998-11.33 0.6499 0.0746 4.083 0.4264 4.662 0.4957 0.8476 5.005 8.328 8.571 9.607 18.86 1.123 6.471 5.361 9.605 12.3 12.83 2.939 1.375 8.604 3.614 9.946 1.194 1.088-1.956-0.777-5.927 3.744-6.572 0.9395-0.1279 2.953 0.1492 3.723 1.466 1.236 2.111-0.6428 6.162 3.362 6.162 4.153 0 11.32-4.024 13.32-5.415 7.848-4.861 5.284-10.75 8.886-17.2 4.161-6.951 5.453-6.055 7.254-11.34 0.4874-0.0374 4.168-0.4424 4.662-0.4904-2.946 9.051-5.284 13.44-5.594 19.17-0.558 8.512-3.949 11.19-11.56 16.44-4.259 2.766-9.543 5.501-22.87 5.906-3.829 0.1919-14.76-0.8901-20.18-3.582z" fill="#6c5d53"/><path d="m-450.3 131.1c-0.5228 1.721 1.644 3.124 3.993 3.406 2.42 0.2898 16.54-0.1145 17.23-0.382 1.028-0.3952-12.35 0.383-12.03-1.376 1.166-6.319-0.4252-22.61-0.4252-22.61s-7.544 16.92-8.774 20.97z" fill="#ccbfb6"/><path fill="#ae9b8b" transform="matrix(.9747 -.2235 .3735 .9276 0 0)" stroke="#ae9b8b" stroke-width="5.401" d="m-464.4 6.182a8.007 5.347 0 0 1 -5.734 5.127 8.007 5.347 0 0 1 -8.989 -2.217 8.007 5.347 0 0 1 0.6312 -6.385"/><ellipse rx="6.826" ry="4.887" transform="matrix(.9747 -.2235 .3735 .9276 0 0)" cy="6.15" cx="-472.2" fill="#fff"/><path d="m-454.5 108.7c-1.924-1.261-5.045-1.142-6.982 0.2753-1.931 1.407-1.94 3.573-0.0195 4.834 1.925 1.263 5.047 1.142 6.979-0.2658 1.943-1.415 1.945-3.582 0.0224-4.843zm-4.238 5.902c-1.134-0.1192-1.895-0.741-1.697-1.388 0.2051-0.6443 1.284-1.066 2.422-0.9388 1.14 0.1211 1.899 0.7423 1.707 1.386-0.1994 0.6463-1.284 1.066-2.431 0.9409z" fill="#6c5d53"/><path fill="#ae9b8b" transform="matrix(.9803 -.1976 .3336 .9427 0 0)" stroke="#ae9b8b" stroke-width="5.395" d="m-435.5 25.09a8.039 5.313 0 0 1 -5.757 5.094 8.039 5.313 0 0 1 -9.025 -2.202 8.039 5.313 0 0 1 0.6337 -6.345"/><ellipse rx="6.853" ry="4.856" transform="matrix(.9803 -.1976 .3336 .9427 0 0)" cy="25.05" cx="-443.4" fill="#fff"/><path d="m-422.7 108.8c-1.866-1.309-4.991-1.27-6.991 0.0961-1.993 1.357-2.1 3.521-0.2371 4.831 1.867 1.311 4.993 1.271 6.987-0.0868 2.005-1.364 2.105-3.53 0.2404-4.84zm-4.501 5.79c-1.128-0.1482-1.86-0.7891-1.634-1.431 0.234-0.6386 1.331-1.033 2.463-0.8762 1.134 0.1503 1.864 0.7905 1.643 1.429-0.2283 0.6408-1.331 1.033-2.472 0.8781z" fill="#6c5d53"/><path d="m-450.5 140.6c2.481-1.854 4.979-0.6513 7.268-0.3814 2.087 0.2481 4.802-0.6919 6.923-0.1589 3.882 0.3239 7.761 6.878 7.534 5.989-0.112-0.4386-3.725-3.098-6.945-3.573-2.049-0.3037-4.667 0.6091-6.703 0.3973-2.106-0.217-4.779-1.227-7.251-0.161-9.943-0.5436-3.24-0.1529-0.8254-2.112z" fill="#d4737e"/><path d="m-456.4 102.2c-3.378-0.4048-16.23 3.165-16.23 3.165s12.82-5.744 18.14-4.83c3.961 0.6801 10.99 4.327 9.701 6.255-1.039 1.552-4.277-3.711-11.61-4.59z" fill="#1a1a1a"/><path d="m-426.2 99.91c3.378-0.4048 16.23 3.165 16.23 3.165s-12.82-5.744-18.14-4.83c-3.961 0.6801-10.99 4.327-9.701 6.255 1.039 1.552 4.277-3.711 11.61-4.59z" fill="#1a1a1a"/><path d="m-477 123.1c-10.68 2.482-7.338-11.01-9.12-18.22-1.497-9.461 3.966-19.19 13.31-24.82 9.341-5.786 21.41-7.463 32.86-7.82 5.099 0.1599 10.78 0.1104 15.3 2.095 3.587 2.518 8.508 3.057 12.83 4.343 8.201 2.44 10.56 10.37 12.51 16.7 2.655 9.397 3.313 27.76-2.497 28.13-3.88 0.578-3.008-0.3467-2.606-3.83 0.835-7.247 1.573-14.83-1.291-21.84-1.597-3.714-7.186-4.094-10.11-6.861-1.824-1.615-5.973-6.954-7.769-3.344-1.354 2.722-5.385 9.501-5.208 1.054-1.707 4.307-7.753 7.013-7.773 3.809 0 0 4.342-6.679-2.932-2.974-9.927 2.451-19.99 4.87-30.4 5.392-4.257-1.518-7.583 2.552-7.814 5.612-1.817 8.471 0.6007 14.05 0.71 22.58z" fill="#6c5d53"/></g></g></svg>
