<svg xmlns="http://www.w3.org/2000/svg" width="100" height="100" viewBox="0 0 100 100"><path d="M50.542 92.282c7.128 0 12.96-6.654 12.96-14.788h-25.92c0 8.134 5.767 14.788 12.96 14.788z" fill="#bbb" fill-opacity=".333" stroke="#fff" stroke-width="5.436"/><path d="M74.145 64.81V43.666c0-12.983-6.61-23.852-18.137-26.728V14.06c0-3.51-2.7-6.342-6.046-6.342-3.345 0-6.046 2.833-6.046 6.343v2.877C32.35 19.813 25.78 30.64 25.78 43.665V64.81c-4.574 4.824-8.062 6.124-8.062 12.688h64.488c.807-5.91-4.322-8.764-8.06-12.687z" fill="#bbb" fill-opacity=".333" stroke="#fff" stroke-width="5.436"/></svg>