<svg xmlns="http://www.w3.org/2000/svg" viewBox="0 0 48.000002 48.000002"><path style="mix-blend-mode:normal" d="M3.265 43.848c.618-11 12.636-14.2 21.1-14.13 8.264.068 19.752 3.13 20.37 14.13zm33.483-26.95A12.748 12.748 0 0 1 24 29.648a12.748 12.748 0 0 1-12.748-12.75A12.748 12.748 0 0 1 24 4.152a12.748 12.748 0 0 1 12.748 12.746z" fill="#fff" fill-opacity=".5" stroke="#fff" stroke-width="3.013" stroke-linejoin="round" stroke-miterlimit="0" paint-order="stroke fill markers"/><path d="M22.89 20.444l-.538-2.613q1.306-.63 1.96-1.35.676-.724.91-1.54.256-.84.256-1.844 0-1.166-.397-1.772-.394-.63-1.094-.63-.77 0-1.19.816-.396.816-.396 2.682-1.867 0-2.87-.397-.98-.42-.98-1.563 0-.793.56-1.493.583-.725 1.772-1.168 1.214-.467 3.08-.467 2.8 0 4.432 1.143 1.656 1.143 1.656 3.195 0 1.213-.49 2.1-.49.863-1.516 1.563-1.003.676-2.636 1.353l-.536 1.983zm.932 5.762q-.91 0-1.54-.467-.63-.468-.63-1.68 0-1.238.63-1.68.63-.468 1.54-.468.886 0 1.54.467.653.442.653 1.68 0 1.212-.654 1.68-.65.465-1.537.465z" style="-inkscape-font-specification:'Noto Serif Heavy'" font-weight="900" font-size="23.328" font-family="'Noto Serif'" letter-spacing="0" word-spacing="0" fill="#fff"/></svg>